<?xml version="1.0" encoding="UTF-8"?>
<svg width="120px" height="111px" viewBox="0 0 120 111" version="1.1" xmlns="http://www.w3.org/2000/svg" xmlns:xlink="http://www.w3.org/1999/xlink">
    <title>sendbox-logo</title>
    <g id="Logo---normal" stroke="none" stroke-width="1" fill="none" fill-rule="evenodd">
        <g id="sendbox-logo" transform="translate(0.000000, -1.000000)">
            <g id="Group" transform="translate(0.000000, 1.000000)">
                <path d="M96,83.3070045 L31.816897,108.341123 C29.2442407,109.344567 26.3452382,108.07247 25.3417938,105.499813 C25.1159123,104.920693 25,104.30453 25,103.682916 L25,96.3040238 C25,87.4479031 30.4476728,79.504058 38.7090499,76.3133649 L94.4599609,54.7813559 L94.4599609,54.7813559 L96,83.3070045 Z" id="Path" fill="#A8CF45"></path>
                <path d="M28,26.6080477 L91.9509473,1.94703529 C94.0121402,1.15219008 96.3274166,2.17876773 97.1222618,4.23996064 C97.2653545,4.61102886 97.3523085,5.00136243 97.3802544,5.39808171 L98,14.1959762 C98.5947767,22.6394116 93.627578,30.4879037 85.7420712,33.5642888 L29.515625,55.5 L29.515625,55.5 L28,26.6080477 Z" id="Path" fill="#FFCC29"></path>
                <path d="M31.1548353,57.2526552 L96,83 L96,83 L96,57.5919877 C96,55.5476301 94.7554439,53.7092001 92.8573744,52.9497727 L28,27 L28,27 L28,52.6055736 C28,54.6547254 29.2503201,56.4964506 31.1548353,57.2526552 Z" id="Path" fill="#ED2F59"></path>
            </g>
        </g>
    </g>
</svg>