<?xml version="1.0" encoding="UTF-8"?>
<svg width="522px" height="111px" viewBox="0 0 522 111" version="1.1" xmlns="http://www.w3.org/2000/svg" xmlns:xlink="http://www.w3.org/1999/xlink">
    <title>sendbox-logo</title>
    <g id="Logo---normal" stroke="none" stroke-width="1" fill="none" fill-rule="evenodd">
        <g id="sendbox-logo" fill="#FFFFFF">
            <path d="M130.545833,67.0522565 L114,67.0522565 C114,74.9786223 116.375,80.9655582 121.283333,84.8444181 C125.6375,88.891924 132.525,91 141.470833,91 C158.570833,91 171,84.760095 171,67.8954869 C171,63.1733967 169.495833,59.0415677 166.4875,55.6686461 C162.925,52.1270784 155.720833,49.175772 144.795833,46.8147268 C136.404167,45.128266 132.208333,42.4299287 132.208333,38.9726841 C132.208333,35.4311164 135.454167,33.5760095 141.7875,33.5760095 C147.091667,33.5760095 150.416667,35.2624703 151.525,38.2980998 C152.475,40.9964371 154.929167,42.4299287 158.65,42.5985748 L168.941667,42.5985748 C168.545833,35.4311164 166.0125,29.8657957 161.2625,25.8182898 C156.354167,21.9394299 149.783333,20 141.470833,20 C126.745833,20.2529691 115.820833,27.2517815 115.820833,42.0083135 C115.9,52.8016627 123.2625,59.5475059 137.5125,62.3301663 C148.595833,64.3539192 154.1375,67.2209026 154.1375,70.7624703 C154.1375,75.1472684 150.733333,77.1710214 143.925,77.1710214 C136.008333,77.1710214 130.941667,74.6413302 130.545833,67.0522565 Z" id="Path"></path>
            <path d="M227.881195,68.4816568 L216.096417,68.4816568 C213.896591,68.4816568 212.089592,69.2378698 210.596854,70.9183432 C207.454246,74.1952663 203.997378,75.8757396 200.226249,75.8757396 C192.369731,75.8757396 188.127211,70.5822485 187.577254,60.0792899 L228.902542,60.0792899 C230.08102,33.2757396 220.574632,20 200.226249,20 C180.742083,20.0840237 171,31.7633136 171,55.0378698 C171,78.312426 180.663518,90.3278107 199.990554,91 C215.703591,91 224.424326,82.9337278 227.881195,68.4816568 Z M199.990554,34.1159763 C206.90429,34.1159763 210.911114,38.7372781 211.853897,47.8118343 L187.81295,47.8118343 C188.991428,38.7372781 193.076817,34.1159763 199.990554,34.1159763 Z" id="Shape"></path>
            <path d="M283.997951,89 L283.997951,49.6489104 C284.156446,30.4673123 275.122201,21 256.736719,21 C238.271989,21 229,30.4673123 229,49.6489104 L229,89 L245.483536,89 L245.483536,46.1912833 C245.642031,39.1937046 249.287428,35.8184019 256.498975,35.8184019 C263.631274,35.8184019 267.355919,39.1937046 267.672911,46.1912833 L267.672911,80.68523 C267.672911,85.9539952 270.367335,88.6707022 275.756183,89 L283.997951,89 Z" id="Path"></path>
            <path d="M317.394737,35.2808796 C326.078947,35.2808796 330.578947,41.8308243 330.973684,55.1859064 C330.973684,69.2215023 326.315789,76.2818323 317.157895,76.2818323 C307.921053,76.2818323 303.5,69.2215023 303.657895,55.1859064 C304.131579,41.8308243 308.631579,35.2808796 317.394737,35.2808796 Z M338.947368,1 L330.973684,1 L330.973684,30.4322192 C326.868421,23.2017607 320.631579,19.7141278 312.657895,19.7141278 C295.526316,20.3946415 287,32.3886962 287,55.9514844 C287,79.0038873 296.947368,90.657685 316.842105,90.9979419 C336.894737,91.1680703 347,80.7902358 347,60.0345668 L347,9.76161438 C347,5.08308243 343.368421,1 338.947368,1 Z" id="Shape"></path>
            <path d="M366.162943,9.76161438 C366.162943,3.97724761 363.48226,1 358.199737,1 L350,1 L350,60.0345668 C350,80.7902358 360.091984,91.1680703 380.118265,90.9979419 C399.986859,90.657685 410,79.0038873 410,55.9514844 C410,32.3886962 401.484888,20.3946415 384.375821,19.7141278 C376.333771,19.7141278 370.262812,23.2017607 366.162943,30.4322192 L366.162943,9.76161438 Z M379.881735,35.2808796 C388.633377,35.2808796 393.127464,41.8308243 393.442838,55.1859064 C393.442838,69.2215023 388.869908,76.2818323 379.645204,76.2818323 C370.420499,76.2818323 366.0841,69.2215023 366.162943,55.1859064 C366.636005,41.8308243 371.130092,35.2808796 379.881735,35.2808796 Z" id="Shape"></path>
            <path d="M439,20 C419.640541,20 410,31.7633136 410,55.5420118 C410,79.0686391 419.640541,91 439,91 C458.281081,91 468,79.0686391 468,55.5420118 C468,31.7633136 458.281081,20 439,20 Z M439,35.1242604 C447.151351,35.1242604 451.305405,41.6781065 451.305405,55.0378698 C451.148649,68.5656805 447.072973,75.6236686 438.843243,75.6236686 C430.613514,75.6236686 426.459459,68.9017751 426.302703,55.5420118 C426.302703,41.9301775 430.535135,35.1242604 439,35.1242604 Z" id="Shape"></path>
            <path d="M507.187879,15 C503.957576,15 501.593939,16.503386 500.175758,19.510158 L487.806061,41.5598194 L476.775758,21.013544 L458.260606,21.013544 L477.878788,54.1715576 L457,89 L476.775758,89 L488.278788,67.4514673 L499.70303,89 L519.084848,89 L497.733333,54.3386005 L522,15 L507.187879,15 Z" id="Path"></path>
            <g id="Group">
                <path d="M96,83.3070045 L31.816897,108.341123 C29.2442407,109.344567 26.3452382,108.07247 25.3417938,105.499813 C25.1159123,104.920693 25,104.30453 25,103.682916 L25,96.3040238 C25,87.4479031 30.4476728,79.504058 38.7090499,76.3133649 L94.4599609,54.7813559 L94.4599609,54.7813559 L96,83.3070045 Z" id="Path"></path>
                <path d="M28,26.6080477 L91.9509473,1.94703529 C94.0121402,1.15219008 96.3274166,2.17876773 97.1222618,4.23996064 C97.2653545,4.61102886 97.3523085,5.00136243 97.3802544,5.39808171 L98,14.1959762 C98.5947767,22.6394116 93.627578,30.4879037 85.7420712,33.5642888 L29.515625,55.5 L29.515625,55.5 L28,26.6080477 Z" id="Path"></path>
                <path d="M31.1548353,57.2526552 L96,83 L96,83 L96,57.5919877 C96,55.5476301 94.7554439,53.7092001 92.8573744,52.9497727 L28,27 L28,27 L28,52.6055736 C28,54.6547254 29.2503201,56.4964506 31.1548353,57.2526552 Z" id="Path"></path>
            </g>
        </g>
    </g>
</svg>