<?xml version="1.0" encoding="UTF-8" standalone="no"?><!DOCTYPE svg PUBLIC "-//W3C//DTD SVG 1.1//EN"
        "http://www.w3.org/Graphics/SVG/1.1/DTD/svg11.dtd">
<svg width="100%" height="100%" viewBox="0 0 500 150" version="1.1" xmlns="http://www.w3.org/2000/svg"
     xmlns:xlink="http://www.w3.org/1999/xlink" xml:space="preserve"
     style="fill-rule:evenodd;clip-rule:evenodd;stroke-linejoin:round;stroke-miterlimit:1.41421;"><g id="Layer_x0020_1"><g><path d="M112.666,85.152l-15.769,-0.001c0,6.984 2.304,12.313 6.983,15.768c4.104,3.6 10.584,5.472 19.152,5.472c16.199,0 28.007,-5.544 28.007,-20.591c0,-4.176 -1.44,-7.848 -4.32,-10.872c-3.312,-3.096 -10.151,-5.76 -20.591,-7.848c-7.92,-1.512 -11.88,-3.888 -11.88,-7.056c0,-3.096 3.024,-4.751 9,-4.751c5.111,0 8.207,1.512 9.287,4.176c0.937,2.448 3.24,3.744 6.768,3.816l9.72,0c-0.359,-6.336 -2.735,-11.304 -7.271,-14.904c-4.607,-3.456 -10.872,-5.184 -18.72,-5.184c-13.967,0.216 -24.407,6.479 -24.407,19.655c0.145,9.576 7.057,15.551 20.592,18c10.512,1.872 15.84,4.392 15.84,7.56c0,3.887 -3.24,5.76 -9.72,5.76c-7.489,-0.001 -12.384,-2.306 -12.672,-9.001Z" style="fill:#000;fill-rule:nonzero;"/><path
        d="M206.477,86.518l-11.304,0c-2.088,0 -3.815,0.648 -5.184,2.16c-3.024,2.881 -6.408,4.393 -10.008,4.393c-7.487,0 -11.519,-4.68 -12.096,-14.112l39.527,0c1.151,-23.903 -7.991,-35.783 -27.431,-35.783c-18.575,0.072 -27.935,10.512 -27.935,31.319c0,20.807 9.215,31.535 27.719,32.111c15.05,0 23.402,-7.128 26.713,-20.088Zm-26.711,-30.742c6.624,0.001 10.439,4.176 11.376,12.239l-23.04,0c1.153,-8.063 5.113,-12.239 11.664,-12.239Z"
        style="fill:#000;fill-rule:nonzero;"/><path
        d="M260.837,105.239l0,-35.928c0.144,-17.495 -8.424,-26.135 -25.849,-26.135c-17.495,0 -26.279,8.64 -26.279,26.135l0,35.928l15.625,0l0,-39.095c0.144,-6.336 3.6,-9.432 10.367,-9.432c6.84,0 10.296,3.096 10.656,9.432l0,31.462c0,4.824 2.52,7.271 7.632,7.633l7.847,0Z"
        style="fill:#000;fill-rule:nonzero;"/><path
        d="M291.434,56.928c8.352,0 12.6,5.76 12.96,17.567c0,12.383 -4.393,18.577 -13.176,18.577c-8.784,0 -12.96,-6.192 -12.815,-18.577c0.432,-11.807 4.68,-17.567 13.031,-17.567Zm20.592,-30.311l-7.632,0l0,26.063c-3.959,-6.408 -9.863,-9.502 -17.495,-9.502c-16.272,0.576 -24.335,11.23 -24.335,32.038c0,20.303 9.432,30.599 28.439,30.959c19.007,0.072 28.655,-9.072 28.655,-27.432l0,-44.35c0,-4.176 -3.528,-7.776 -7.632,-7.776Z"
        style="fill:#000;fill-rule:nonzero;"/><path
        d="M338.018,34.393c-0.001,-5.112 -2.522,-7.776 -7.633,-7.776l-7.704,0l0,52.126c0,18.359 9.576,27.505 28.655,27.433c18.936,-0.361 28.438,-10.656 28.438,-30.959c0,-20.808 -8.136,-31.464 -24.407,-32.039c-7.632,0 -13.392,3.096 -17.351,9.503l0,-18.287l0.001,0Zm13.104,22.535c8.28,-0.001 12.6,5.759 12.887,17.567c0,12.382 -4.392,18.576 -13.175,18.576c-8.784,0 -12.887,-6.192 -12.815,-18.576c0.504,-11.808 4.75,-17.567 13.103,-17.567Z"
        style="fill:#000;fill-rule:nonzero;"/><path
        d="M407.495,43.176c-18.504,0 -27.791,10.512 -27.791,31.751c0,21.022 9.287,31.679 27.791,31.679c18.431,0 27.862,-10.656 27.862,-31.679c0,-21.239 -9.432,-31.751 -27.862,-31.751Zm0,13.536c7.848,0 11.735,5.904 11.735,17.784c-0.072,12.095 -4.032,18.359 -11.88,18.359c-7.848,0 -11.88,-5.976 -12.023,-17.927c0,-12.096 4.032,-18.216 12.168,-18.216Z"
        style="fill:#000;fill-rule:nonzero;"/><path
        d="M472.724,38.64c-3.168,0 -5.327,1.44 -6.695,4.032l-11.809,19.943l-10.51,-18.503l-17.712,0l18.72,29.807l-19.872,31.32l18.864,0l10.943,-19.439l10.871,19.439l18.504,0l-20.375,-31.248l23.183,-35.351l-14.111,0Z"
        style="fill:#000;fill-rule:nonzero;"/><path d="M81.057,100.631l-67.893,24.48l0,-25.993l67.893,-24.406l0,25.919Z"
                                                    style="fill:#000;fill-rule:nonzero;"/><path
        d="M15.396,49.368l67.894,-24.479l0,25.991l-67.894,24.407l0,-25.919Z" style="fill:#000;fill-rule:nonzero;"/><path
        d="M14.172,75.503l67.894,24.48l0,-25.992l-67.894,-24.407l0,25.919Z" style="fill:#000;fill-rule:nonzero;"/></g></g></svg>