<svg id="Layer_2" data-name="Layer 2"
    xmlns="http://www.w3.org/2000/svg" viewBox="0 0 200 200">
    <defs>
        <style>.cls-1{fill:#9292B0;}.cls-2{fill:#dfe1e1;}</style>
    </defs>
    <path class="cls-1" d="M152.9,72.16V146.9c0,3.12-2.24,5.64-5,5.64l-89.9-.1c-2.76,0-5-2.53-5-5.64V67.7l7.69,4.52,7.69-4.52,7.69,4.52,7.69-4.52,7.69,4.52,7.69-4.52,7.69,4.52,7.69-4.52,7.7,4.52,7.69-4.52,7.69,4.52,7.7-4.52Z"/>
    <path class="cls-2" d="M149.9,72.16V146.9c0,3.12-2.24,5.64-5,5.64l-89.9-.1c-2.76,0-5-2.53-5-5.64V67.7l7.69,4.52,7.69-4.52,7.69,4.52,7.69-4.52,7.69,4.52,7.69-4.52,7.69,4.52,7.69-4.52,7.7,4.52,7.69-4.52,7.69,4.52,7.7-4.52Z"/>
    <path class="cls-2" d="M100,47.41a13.2,13.2,0,0,0-7.11,11.71V77.44h-4.5V59.12A11.73,11.73,0,0,1,100,47.41Z"/>
    <path class="cls-2" d="M124.31,59.12V77.35h-4.5V59.12a19.74,19.74,0,0,0-12-18.13A18.24,18.24,0,0,1,124.31,59.12Z"/>
    <path class="cls-1" d="M86.88,77.45h-5V59.12a18.22,18.22,0,0,1,36.43,0V77.35h-5V59.12a13.22,13.22,0,0,0-26.43,0Z"/>
</svg>