<svg id="Layer_2" data-name="Layer 2"
    xmlns="http://www.w3.org/2000/svg" viewBox="0 0 200 200">
    <defs>
        <style>.cls-1{fill:#ffffff;}.cls-2{fill:#ec1651;}.cls-3{fill:none;stroke:#f9c5d4;stroke-miterlimit:10;stroke-width:2px;}</style>
    </defs>
    <path class="cls-1" d="M70,68.15H50v83a3,3,0,0,0,3,3h93.91a3,3,0,0,0,3-3v-83H70Z"/>
    <path class="cls-2" d="M76.59,54.14v9a2.28,2.28,0,0,1-2.28,2.28H63.87a2.28,2.28,0,0,1-2.28-2.28v-9Z"/>
    <path class="cls-2" d="M122.78,63.1v-9h15v9a2.28,2.28,0,0,1-2.28,2.28H125.06A2.28,2.28,0,0,1,122.78,63.1Z"/>
    <path class="cls-2" d="M150,58V68.92H50V58c0-2.12,2.24-3.85,5-3.85h4.59v9a4.28,4.28,0,0,0,4.28,4.28H74.31a4.28,4.28,0,0,0,4.28-4.28v-9h42.19v9a4.28,4.28,0,0,0,4.28,4.28H135.5a4.28,4.28,0,0,0,4.28-4.28v-9H145C147.76,54.14,150,55.87,150,58Z"/>
    <rect class="cls-2" x="82.6" y="80.98" width="15" height="15" rx="2"/>
    <rect class="cls-1" x="122.78" y="45.85" width="15" height="19.53" rx="2.28"/>
    <path class="cls-1" d="M135.5,45.85H125.06a2.28,2.28,0,0,0-2.28,2.28v6h15v-6A2.28,2.28,0,0,0,135.5,45.85Z"/>
    <path class="cls-1" d="M61.59,54.14v9a2.28,2.28,0,0,0,2.28,2.28H74.31a2.28,2.28,0,0,0,2.28-2.28v-9Z"/>
    <path class="cls-1" d="M74.31,45.85H63.87a2.28,2.28,0,0,0-2.28,2.28v6h15v-6A2.28,2.28,0,0,0,74.31,45.85Z"/>
    <rect class="cls-2" x="102.34" y="80.98" width="15" height="15" rx="2"/>
    <rect class="cls-2" x="122.78" y="80.98" width="15" height="15" rx="2"/>
    <rect class="cls-2" x="82.6" y="103.65" width="15" height="15" rx="2"/>
    <rect class="cls-2" x="61.59" y="103.65" width="15" height="15" rx="2"/>
    <rect class="cls-2" x="102.34" y="103.65" width="15" height="15" rx="2"/>
    <rect class="cls-2" x="82.6" y="125.82" width="15" height="15" rx="2"/>
    <rect class="cls-2" x="61.59" y="125.82" width="15" height="15" rx="2"/>
    <rect class="cls-2" x="102.34" y="125.82" width="15" height="15" rx="2"/>
    <rect class="cls-2" x="122.78" y="103.65" width="15" height="15" rx="2"/>
    <line class="cls-3" x1="61.75" y1="118.23" x2="76.4" y2="103.65"/>
    <line class="cls-3" x1="76.37" y1="118.27" x2="61.78" y2="103.61"/>
</svg>