<svg id="Layer_2" data-name="Layer 2"
    xmlns="http://www.w3.org/2000/svg" viewBox="0 0 200 200">
    <defs>
        <!-- <style>.cls-1{fill:none;stroke:#f9c5d4;.cls-2{fill:#ec1651;}</style> -->
        <style>.cls-2{fill:#9292B0;}.cls-1{fill:#ffffff;stroke-width:2px;stroke:#9292B0}stroke-miterlimit:10;stroke-width:4px;}</style>
    </defs>
    <path class="cls-1" d="M124.9,86.3V62.84a25,25,0,0,0-25-25h0a25,25,0,0,0-25,25v23Z"/>
    <path class="cls-2" d="M142,80.52H58c-4.42,0-8,3.94-8,8.8v60.36a5.68,5.68,0,0,0,5.39,5.93h89.22a5.68,5.68,0,0,0,5.39-5.93V89.32C150,84.46,146.42,80.52,142,80.52Zm-35.26,42.27v15.09a6.84,6.84,0,1,1-13.68,0V122.79a12.49,12.49,0,1,1,13.68,0Z"/>
</svg>