<?xml version="1.0" encoding="UTF-8"?>
<svg width="408px" height="90px" viewBox="0 0 408 90" version="1.1" xmlns="http://www.w3.org/2000/svg" xmlns:xlink="http://www.w3.org/1999/xlink">
    <title>sendbox-logo</title>
    <g id="Logo" stroke="none" stroke-width="1" fill="none" fill-rule="evenodd">
        <g id="sendbox-logo" transform="translate(-89.000000, -1.000000)" fill="#ED2F59">
            <path d="M105.545833,67.0522565 L89,67.0522565 C89,74.9786223 91.375,80.9655582 96.2833333,84.8444181 C100.6375,88.891924 107.525,91 116.470833,91 C133.570833,91 146,84.760095 146,67.8954869 C146,63.1733967 144.495833,59.0415677 141.4875,55.6686461 C137.925,52.1270784 130.720833,49.175772 119.795833,46.8147268 C111.404167,45.128266 107.208333,42.4299287 107.208333,38.9726841 C107.208333,35.4311164 110.454167,33.5760095 116.7875,33.5760095 C122.091667,33.5760095 125.416667,35.2624703 126.525,38.2980998 C127.475,40.9964371 129.929167,42.4299287 133.65,42.5985748 L143.941667,42.5985748 C143.545833,35.4311164 141.0125,29.8657957 136.2625,25.8182898 C131.354167,21.9394299 124.783333,20 116.470833,20 C101.745833,20.2529691 90.8208333,27.2517815 90.8208333,42.0083135 C90.9,52.8016627 98.2625,59.5475059 112.5125,62.3301663 C123.595833,64.3539192 129.1375,67.2209026 129.1375,70.7624703 C129.1375,75.1472684 125.733333,77.1710214 118.925,77.1710214 C111.008333,77.1710214 105.941667,74.6413302 105.545833,67.0522565 Z" id="Path"></path>
            <path d="M202.881195,68.4816568 L191.096417,68.4816568 C188.896591,68.4816568 187.089592,69.2378698 185.596854,70.9183432 C182.454246,74.1952663 178.997378,75.8757396 175.226249,75.8757396 C167.369731,75.8757396 163.127211,70.5822485 162.577254,60.0792899 L203.902542,60.0792899 C205.08102,33.2757396 195.574632,20 175.226249,20 C155.742083,20.0840237 146,31.7633136 146,55.0378698 C146,78.312426 155.663518,90.3278107 174.990554,91 C190.703591,91 199.424326,82.9337278 202.881195,68.4816568 Z M174.990554,34.1159763 C181.90429,34.1159763 185.911114,38.7372781 186.853897,47.8118343 L162.81295,47.8118343 C163.991428,38.7372781 168.076817,34.1159763 174.990554,34.1159763 Z" id="Shape"></path>
            <path d="M258.997951,89 L258.997951,49.6489104 C259.156446,30.4673123 250.122201,21 231.736719,21 C213.271989,21 204,30.4673123 204,49.6489104 L204,89 L220.483536,89 L220.483536,46.1912833 C220.642031,39.1937046 224.287428,35.8184019 231.498975,35.8184019 C238.631274,35.8184019 242.355919,39.1937046 242.672911,46.1912833 L242.672911,80.68523 C242.672911,85.9539952 245.367335,88.6707022 250.756183,89 L258.997951,89 Z" id="Path"></path>
            <path d="M292.394737,35.2808796 C301.078947,35.2808796 305.578947,41.8308243 305.973684,55.1859064 C305.973684,69.2215023 301.315789,76.2818323 292.157895,76.2818323 C282.921053,76.2818323 278.5,69.2215023 278.657895,55.1859064 C279.131579,41.8308243 283.631579,35.2808796 292.394737,35.2808796 Z M313.947368,1 L305.973684,1 L305.973684,30.4322192 C301.868421,23.2017607 295.631579,19.7141278 287.657895,19.7141278 C270.526316,20.3946415 262,32.3886962 262,55.9514844 C262,79.0038873 271.947368,90.657685 291.842105,90.9979419 C311.894737,91.1680703 322,80.7902358 322,60.0345668 L322,9.76161438 C322,5.08308243 318.368421,1 313.947368,1 Z" id="Shape"></path>
            <path d="M341.162943,9.76161438 C341.162943,3.97724761 338.48226,1 333.199737,1 L325,1 L325,60.0345668 C325,80.7902358 335.091984,91.1680703 355.118265,90.9979419 C374.986859,90.657685 385,79.0038873 385,55.9514844 C385,32.3886962 376.484888,20.3946415 359.375821,19.7141278 C351.333771,19.7141278 345.262812,23.2017607 341.162943,30.4322192 L341.162943,9.76161438 Z M354.881735,35.2808796 C363.633377,35.2808796 368.127464,41.8308243 368.442838,55.1859064 C368.442838,69.2215023 363.869908,76.2818323 354.645204,76.2818323 C345.420499,76.2818323 341.0841,69.2215023 341.162943,55.1859064 C341.636005,41.8308243 346.130092,35.2808796 354.881735,35.2808796 Z" id="Shape"></path>
            <path d="M414,20 C394.640541,20 385,31.7633136 385,55.5420118 C385,79.0686391 394.640541,91 414,91 C433.281081,91 443,79.0686391 443,55.5420118 C443,31.7633136 433.281081,20 414,20 Z M414,35.1242604 C422.151351,35.1242604 426.305405,41.6781065 426.305405,55.0378698 C426.148649,68.5656805 422.072973,75.6236686 413.843243,75.6236686 C405.613514,75.6236686 401.459459,68.9017751 401.302703,55.5420118 C401.302703,41.9301775 405.535135,35.1242604 414,35.1242604 Z" id="Shape"></path>
            <path d="M482.187879,15 C478.957576,15 476.593939,16.503386 475.175758,19.510158 L462.806061,41.5598194 L451.775758,21.013544 L433.260606,21.013544 L452.878788,54.1715576 L432,89 L451.775758,89 L463.278788,67.4514673 L474.70303,89 L494.084848,89 L472.733333,54.3386005 L497,15 L482.187879,15 Z" id="Path"></path>
        </g>
    </g>
</svg>