<?xml version="1.0" encoding="iso-8859-1"?>
<!-- Generator: Adobe Illustrator 19.0.0, SVG Export Plug-In . SVG Version: 6.00 Build 0)  -->
<svg version="1.1" id="Capa_1" xmlns="http://www.w3.org/2000/svg" xmlns:xlink="http://www.w3.org/1999/xlink" x="0px" y="0px"
	 viewBox="0 0 512 512" style="enable-background:new 0 0 512 512;" xml:space="preserve">
<g>
	<g>
		<path d="M497,0h-62c-8.291,0-15,6.709-15,15v19.736C216.682,55.784,53.784,218.682,32.736,422H15c-8.291,0-15,6.709-15,15v60
			c0,8.291,6.709,15,15,15h60c8.291,0,15-6.709,15-15v-60c0-8.291-6.709-15-15-15H62.895C83.701,235.174,233.174,85.701,420,64.895
			V77c0,8.291,6.709,15,15,15h62c8.291,0,15-6.709,15-15V15C512,6.709,505.291,0,497,0z"/>
	</g>
</g>
<g>
</g>
<g>
</g>
<g>
</g>
<g>
</g>
<g>
</g>
<g>
</g>
<g>
</g>
<g>
</g>
<g>
</g>
<g>
</g>
<g>
</g>
<g>
</g>
<g>
</g>
<g>
</g>
<g>
</g>
</svg>
