<svg width="236" height="235" viewBox="0 0 236 235" fill="none" xmlns="http://www.w3.org/2000/svg">
<path d="M232.654 225.093L9.11696 1.56135C7.5938 0.033176 5.28852 -0.415462 3.29619 0.403202C1.30385 1.22787 0 3.17815 0 5.33772V229.657C0 232.609 2.3889 234.998 5.34109 234.998H26.705C29.6572 234.998 32.0461 232.609 32.0461 229.657V213.634C32.0461 210.687 34.4455 208.293 37.3872 208.293C40.3288 208.293 42.7283 210.687 42.7283 213.634V229.657C42.7283 232.609 45.1172 234.998 48.0694 234.998H58.751C61.7032 234.998 64.0921 232.609 64.0921 229.657V218.975C64.0921 216.028 66.4915 213.634 69.4332 213.634C72.3749 213.634 74.7743 216.028 74.7743 218.975V229.657C74.7743 232.609 77.1632 234.998 80.1154 234.998H90.7971C93.7493 234.998 96.1382 232.609 96.1382 229.657V213.634C96.1382 210.687 98.5376 208.293 101.479 208.293C104.421 208.293 106.82 210.687 106.82 213.634V229.657C106.82 232.609 109.209 234.998 112.161 234.998H122.843C125.795 234.998 128.184 232.609 128.184 229.657V218.975C128.184 216.028 130.584 213.634 133.525 213.634C136.467 213.634 138.866 216.028 138.866 218.975V229.657C138.866 232.609 141.255 234.998 144.208 234.998H154.889C157.841 234.998 160.23 232.609 160.23 229.657V213.634C160.23 210.687 162.63 208.293 165.571 208.293C168.513 208.293 170.913 210.687 170.913 213.634V229.657C170.913 232.609 173.301 234.998 176.254 234.998H186.935C189.887 234.998 192.276 232.609 192.276 229.657V218.975C192.276 216.028 194.676 213.634 197.618 213.634C200.559 213.634 202.959 216.028 202.959 218.975V229.657C202.959 232.609 205.347 234.998 208.3 234.998H229.664C229.747 234.998 229.83 235.003 229.872 234.998C232.825 234.998 235.005 232.609 235.005 229.657C235.001 227.721 234.187 226.032 232.654 225.093ZM126.711 192.27C126.659 192.275 126.575 192.281 126.502 192.27H48.0684C45.1162 192.27 42.7273 189.881 42.7273 186.929V108.489C42.7273 106.33 44.0311 104.38 46.0234 103.555C48.0158 102.731 50.311 103.19 51.8442 104.714L129.496 182.365C131.03 183.304 132.052 184.994 132.052 186.929C132.052 189.881 129.663 192.27 126.711 192.27Z" fill="#FBCF5D"/>
</svg>
