<svg xmlns="http://www.w3.org/2000/svg" width="257" height="268" viewBox="0 0 257 268" fill="none" aria-label="" class="c-blob v--northeast svg-replaced" shape-rendering="geometricPrecision">
    <circle cx="3.5" cy="3.5" r="3.5" fill="#696969" fill-opacity=".1"></circle>
    <circle cx="20.5" cy="3.5" r="3.5" fill="#696969" fill-opacity=".1"></circle>
    <circle cx="37.5" cy="3.5" r="3.5" fill="#696969" fill-opacity=".1"></circle>
    <circle cx="54.5" cy="3.5" r="3.5" fill="#696969" fill-opacity=".1"></circle>
    <circle cx="69.5" cy="3.5" r="3.5" fill="#696969" fill-opacity=".1"></circle>
    <circle cx="86.5" cy="3.5" r="3.5" fill="#696969" fill-opacity=".1"></circle>
    <circle cx="103.5" cy="3.5" r="3.5" fill="#696969" fill-opacity=".1"></circle>
    <circle cx="120.5" cy="3.5" r="3.5" fill="#696969" fill-opacity=".1"></circle>
    <circle cx="3.5" cy="18.5" r="3.5" fill="#696969" fill-opacity=".1"></circle>
    <circle cx="20.5" cy="18.5" r="3.5" fill="#696969" fill-opacity=".1"></circle>
    <circle cx="37.5" cy="18.5" r="3.5" fill="#696969" fill-opacity=".1"></circle>
    <circle cx="54.5" cy="18.5" r="3.5" fill="#696969" fill-opacity=".1"></circle>
    <circle cx="69.5" cy="18.5" r="3.5" fill="#696969" fill-opacity=".1"></circle>
    <circle cx="86.5" cy="18.5" r="3.5" fill="#696969" fill-opacity=".1"></circle>
    <circle cx="103.5" cy="18.5" r="3.5" fill="#696969" fill-opacity=".1"></circle>
    <circle cx="120.5" cy="18.5" r="3.5" fill="#696969" fill-opacity=".1"></circle>
    <circle cx="3.5" cy="34.5" r="3.5" fill="#696969" fill-opacity=".1"></circle>
    <circle cx="20.5" cy="34.5" r="3.5" fill="#696969" fill-opacity=".1"></circle>
    <circle cx="37.5" cy="34.5" r="3.5" fill="#696969" fill-opacity=".1"></circle>
    <circle cx="54.5" cy="34.5" r="3.5" fill="#696969" fill-opacity=".1"></circle>
    <circle cx="69.5" cy="34.5" r="3.5" fill="#696969" fill-opacity=".1"></circle>
    <circle cx="86.5" cy="34.5" r="3.5" fill="#696969" fill-opacity=".1"></circle>
    <circle cx="103.5" cy="34.5" r="3.5" fill="#696969" fill-opacity=".1"></circle>
    <circle cx="120.5" cy="34.5" r="3.5" fill="#696969" fill-opacity=".1"></circle>
    <circle cx="3.5" cy="49.5" r="3.5" fill="#696969" fill-opacity=".1"></circle>
    <circle cx="20.5" cy="49.5" r="3.5" fill="#696969" fill-opacity=".1"></circle>
    <circle cx="37.5" cy="49.5" r="3.5" fill="#696969" fill-opacity=".1"></circle>
    <circle cx="54.5" cy="49.5" r="3.5" fill="#696969" fill-opacity=".1"></circle>
    <circle cx="69.5" cy="49.5" r="3.5" fill="#696969" fill-opacity=".1"></circle>
    <circle cx="86.5" cy="49.5" r="3.5" fill="#696969" fill-opacity=".1"></circle>
    <circle cx="103.5" cy="49.5" r="3.5" fill="#696969" fill-opacity=".1"></circle>
    <circle cx="120.5" cy="49.5" r="3.5" fill="#696969" fill-opacity=".1"></circle>
    <circle cx="3.5" cy="64.5" r="3.5" fill="#696969" fill-opacity=".1"></circle>
    <circle cx="20.5" cy="64.5" r="3.5" fill="#696969" fill-opacity=".1"></circle>
    <circle cx="37.5" cy="64.5" r="3.5" fill="#696969" fill-opacity=".1"></circle>
    <circle cx="54.5" cy="64.5" r="3.5" fill="#696969" fill-opacity=".1"></circle>
    <circle cx="69.5" cy="64.5" r="3.5" fill="#696969" fill-opacity=".1"></circle>
    <circle cx="86.5" cy="64.5" r="3.5" fill="#696969" fill-opacity=".1"></circle>
    <circle cx="103.5" cy="64.5" r="3.5" fill="#696969" fill-opacity=".1"></circle>
    <circle cx="120.5" cy="64.5" r="3.5" fill="#696969" fill-opacity=".1"></circle>
    <circle cx="3.5" cy="80.5" r="3.5" fill="#696969" fill-opacity=".1"></circle>
    <circle cx="20.5" cy="80.5" r="3.5" fill="#696969" fill-opacity=".1"></circle>
    <circle cx="37.5" cy="80.5" r="3.5" fill="#696969" fill-opacity=".1"></circle>
    <circle cx="54.5" cy="80.5" r="3.5" fill="#696969" fill-opacity=".1"></circle>
    <circle cx="69.5" cy="80.5" r="3.5" fill="#696969" fill-opacity=".1"></circle>
    <circle cx="86.5" cy="80.5" r="3.5" fill="#696969" fill-opacity=".1"></circle>
    <circle cx="103.5" cy="80.5" r="3.5" fill="#696969" fill-opacity=".1"></circle>
    <circle cx="120.5" cy="80.5" r="3.5" fill="#696969" fill-opacity=".1"></circle>
    <circle cx="3.5" cy="95.5" r="3.5" fill="#696969" fill-opacity=".1"></circle>
    <circle cx="20.5" cy="95.5" r="3.5" fill="#696969" fill-opacity=".1"></circle>
    <circle cx="37.5" cy="95.5" r="3.5" fill="#696969" fill-opacity=".1"></circle>
    <circle cx="54.5" cy="95.5" r="3.5" fill="#696969" fill-opacity=".1"></circle>
    <circle cx="69.5" cy="95.5" r="3.5" fill="#696969" fill-opacity=".1"></circle>
    <circle cx="86.5" cy="95.5" r="3.5" fill="#696969" fill-opacity=".1"></circle>
    <circle cx="103.5" cy="95.5" r="3.5" fill="#696969" fill-opacity=".1"></circle>
    <circle cx="120.5" cy="95.5" r="3.5" fill="#696969" fill-opacity=".1"></circle>
    <circle cx="3.5" cy="110.5" r="3.5" fill="#696969" fill-opacity=".1"></circle>
    <circle cx="20.5" cy="110.5" r="3.5" fill="#696969" fill-opacity=".1"></circle>
    <circle cx="37.5" cy="110.5" r="3.5" fill="#696969" fill-opacity=".1"></circle>
    <circle cx="54.5" cy="110.5" r="3.5" fill="#696969" fill-opacity=".1"></circle>
    <circle cx="69.5" cy="110.5" r="3.5" fill="#696969" fill-opacity=".1"></circle>
    <circle cx="86.5" cy="110.5" r="3.5" fill="#696969" fill-opacity=".1"></circle>
    <circle cx="103.5" cy="110.5" r="3.5" fill="#696969" fill-opacity=".1"></circle>
    <circle cx="120.5" cy="110.5" r="3.5" fill="#696969" fill-opacity=".1"></circle>
    <circle cx="3.5" cy="125.5" r="3.5" fill="#696969" fill-opacity=".1"></circle>
    <circle cx="20.5" cy="125.5" r="3.5" fill="#696969" fill-opacity=".1"></circle>
    <circle cx="37.5" cy="125.5" r="3.5" fill="#696969" fill-opacity=".1"></circle>
    <circle cx="54.5" cy="125.5" r="3.5" fill="#696969" fill-opacity=".1"></circle>
    <circle cx="69.5" cy="125.5" r="3.5" fill="#696969" fill-opacity=".1"></circle>
    <circle cx="86.5" cy="125.5" r="3.5" fill="#696969" fill-opacity=".1"></circle>
    <circle cx="103.5" cy="125.5" r="3.5" fill="#696969" fill-opacity=".1"></circle>
    <circle cx="120.5" cy="125.5" r="3.5" fill="#696969" fill-opacity=".1"></circle>
    <circle cx="136.5" cy="3.5" r="3.5" fill="#696969" fill-opacity=".1"></circle>
    <circle cx="153.5" cy="3.5" r="3.5" fill="#696969" fill-opacity=".1"></circle>
    <circle cx="170.5" cy="3.5" r="3.5" fill="#696969" fill-opacity=".1"></circle>
    <circle cx="187.5" cy="3.5" r="3.5" fill="#696969" fill-opacity=".1"></circle>
    <circle cx="202.5" cy="3.5" r="3.5" fill="#696969" fill-opacity=".1"></circle>
    <circle cx="219.5" cy="3.5" r="3.5" fill="#696969" fill-opacity=".1"></circle>
    <circle cx="236.5" cy="3.5" r="3.5" fill="#696969" fill-opacity=".1"></circle>
    <circle cx="253.5" cy="3.5" r="3.5" fill="#696969" fill-opacity=".1"></circle>
    <circle cx="136.5" cy="18.5" r="3.5" fill="#696969" fill-opacity=".1"></circle>
    <circle cx="153.5" cy="18.5" r="3.5" fill="#696969" fill-opacity=".1"></circle>
    <circle cx="170.5" cy="18.5" r="3.5" fill="#696969" fill-opacity=".1"></circle>
    <circle cx="187.5" cy="18.5" r="3.5" fill="#696969" fill-opacity=".1"></circle>
    <circle cx="202.5" cy="18.5" r="3.5" fill="#696969" fill-opacity=".1"></circle>
    <circle cx="219.5" cy="18.5" r="3.5" fill="#696969" fill-opacity=".1"></circle>
    <circle cx="236.5" cy="18.5" r="3.5" fill="#696969" fill-opacity=".1"></circle>
    <circle cx="253.5" cy="18.5" r="3.5" fill="#696969" fill-opacity=".1"></circle>
    <circle cx="136.5" cy="34.5" r="3.5" fill="#696969" fill-opacity=".1"></circle>
    <circle cx="153.5" cy="34.5" r="3.5" fill="#696969" fill-opacity=".1"></circle>
    <circle cx="170.5" cy="34.5" r="3.5" fill="#696969" fill-opacity=".1"></circle>
    <circle cx="187.5" cy="34.5" r="3.5" fill="#696969" fill-opacity=".1"></circle>
    <circle cx="202.5" cy="34.5" r="3.5" fill="#696969" fill-opacity=".1"></circle>
    <circle cx="219.5" cy="34.5" r="3.5" fill="#696969" fill-opacity=".1"></circle>
    <circle cx="236.5" cy="34.5" r="3.5" fill="#696969" fill-opacity=".1"></circle>
    <circle cx="253.5" cy="34.5" r="3.5" fill="#696969" fill-opacity=".1"></circle>
    <circle cx="136.5" cy="49.5" r="3.5" fill="#696969" fill-opacity=".1"></circle>
    <circle cx="153.5" cy="49.5" r="3.5" fill="#696969" fill-opacity=".1"></circle>
    <circle cx="170.5" cy="49.5" r="3.5" fill="#696969" fill-opacity=".1"></circle>
    <circle cx="187.5" cy="49.5" r="3.5" fill="#696969" fill-opacity=".1"></circle>
    <circle cx="202.5" cy="49.5" r="3.5" fill="#696969" fill-opacity=".1"></circle>
    <circle cx="219.5" cy="49.5" r="3.5" fill="#696969" fill-opacity=".1"></circle>
    <circle cx="236.5" cy="49.5" r="3.5" fill="#696969" fill-opacity=".1"></circle>
    <circle cx="253.5" cy="49.5" r="3.5" fill="#696969" fill-opacity=".1"></circle>
    <circle cx="136.5" cy="64.5" r="3.5" fill="#696969" fill-opacity=".1"></circle>
    <circle cx="153.5" cy="64.5" r="3.5" fill="#696969" fill-opacity=".1"></circle>
    <circle cx="170.5" cy="64.5" r="3.5" fill="#696969" fill-opacity=".1"></circle>
    <circle cx="187.5" cy="64.5" r="3.5" fill="#696969" fill-opacity=".1"></circle>
    <circle cx="202.5" cy="64.5" r="3.5" fill="#696969" fill-opacity=".1"></circle>
    <circle cx="219.5" cy="64.5" r="3.5" fill="#696969" fill-opacity=".1"></circle>
    <circle cx="236.5" cy="64.5" r="3.5" fill="#696969" fill-opacity=".1"></circle>
    <circle cx="253.5" cy="64.5" r="3.5" fill="#696969" fill-opacity=".1"></circle>
    <circle cx="136.5" cy="80.5" r="3.5" fill="#696969" fill-opacity=".1"></circle>
    <circle cx="153.5" cy="80.5" r="3.5" fill="#696969" fill-opacity=".1"></circle>
    <circle cx="170.5" cy="80.5" r="3.5" fill="#696969" fill-opacity=".1"></circle>
    <circle cx="187.5" cy="80.5" r="3.5" fill="#696969" fill-opacity=".1"></circle>
    <circle cx="202.5" cy="80.5" r="3.5" fill="#696969" fill-opacity=".1"></circle>
    <circle cx="219.5" cy="80.5" r="3.5" fill="#696969" fill-opacity=".1"></circle>
    <circle cx="236.5" cy="80.5" r="3.5" fill="#696969" fill-opacity=".1"></circle>
    <circle cx="253.5" cy="80.5" r="3.5" fill="#696969" fill-opacity=".1"></circle>
    <circle cx="136.5" cy="95.5" r="3.5" fill="#696969" fill-opacity=".1"></circle>
    <circle cx="153.5" cy="95.5" r="3.5" fill="#696969" fill-opacity=".1"></circle>
    <circle cx="170.5" cy="95.5" r="3.5" fill="#696969" fill-opacity=".1"></circle>
    <circle cx="187.5" cy="95.5" r="3.5" fill="#696969" fill-opacity=".1"></circle>
    <circle cx="202.5" cy="95.5" r="3.5" fill="#696969" fill-opacity=".1"></circle>
    <circle cx="219.5" cy="95.5" r="3.5" fill="#696969" fill-opacity=".1"></circle>
    <circle cx="236.5" cy="95.5" r="3.5" fill="#696969" fill-opacity=".1"></circle>
    <circle cx="253.5" cy="95.5" r="3.5" fill="#696969" fill-opacity=".1"></circle>
    <circle cx="136.5" cy="110.5" r="3.5" fill="#696969" fill-opacity=".1"></circle>
    <circle cx="153.5" cy="110.5" r="3.5" fill="#696969" fill-opacity=".1"></circle>
    <circle cx="170.5" cy="110.5" r="3.5" fill="#696969" fill-opacity=".1"></circle>
    <circle cx="187.5" cy="110.5" r="3.5" fill="#696969" fill-opacity=".1"></circle>
    <circle cx="202.5" cy="110.5" r="3.5" fill="#696969" fill-opacity=".1"></circle>
    <circle cx="219.5" cy="110.5" r="3.5" fill="#696969" fill-opacity=".1"></circle>
    <circle cx="236.5" cy="110.5" r="3.5" fill="#696969" fill-opacity=".1"></circle>
    <circle cx="253.5" cy="110.5" r="3.5" fill="#696969" fill-opacity=".1"></circle>
    <circle cx="136.5" cy="125.5" r="3.5" fill="#696969" fill-opacity=".1"></circle>
    <circle cx="153.5" cy="125.5" r="3.5" fill="#696969" fill-opacity=".1"></circle>
    <circle cx="170.5" cy="125.5" r="3.5" fill="#696969" fill-opacity=".1"></circle>
    <circle cx="187.5" cy="125.5" r="3.5" fill="#696969" fill-opacity=".1"></circle>
    <circle cx="202.5" cy="125.5" r="3.5" fill="#696969" fill-opacity=".1"></circle>
    <circle cx="219.5" cy="125.5" r="3.5" fill="#696969" fill-opacity=".1"></circle>
    <circle cx="236.5" cy="125.5" r="3.5" fill="#696969" fill-opacity=".1"></circle>
    <circle cx="253.5" cy="125.5" r="3.5" fill="#696969" fill-opacity=".1"></circle>
    <circle cx="3.5" cy="142.5" r="3.5" fill="#696969" fill-opacity=".1"></circle>
    <circle cx="20.5" cy="142.5" r="3.5" fill="#696969" fill-opacity=".1"></circle>
    <circle cx="37.5" cy="142.5" r="3.5" fill="#696969" fill-opacity=".1"></circle>
    <circle cx="54.5" cy="142.5" r="3.5" fill="#696969" fill-opacity=".1"></circle>
    <circle cx="69.5" cy="142.5" r="3.5" fill="#696969" fill-opacity=".1"></circle>
    <circle cx="86.5" cy="142.5" r="3.5" fill="#696969" fill-opacity=".1"></circle>
    <circle cx="103.5" cy="142.5" r="3.5" fill="#696969" fill-opacity=".1"></circle>
    <circle cx="120.5" cy="142.5" r="3.5" fill="#696969" fill-opacity=".1"></circle>
    <circle cx="3.5" cy="157.5" r="3.5" fill="#696969" fill-opacity=".1"></circle>
    <circle cx="20.5" cy="157.5" r="3.5" fill="#696969" fill-opacity=".1"></circle>
    <circle cx="37.5" cy="157.5" r="3.5" fill="#696969" fill-opacity=".1"></circle>
    <circle cx="54.5" cy="157.5" r="3.5" fill="#696969" fill-opacity=".1"></circle>
    <circle cx="69.5" cy="157.5" r="3.5" fill="#696969" fill-opacity=".1"></circle>
    <circle cx="86.5" cy="157.5" r="3.5" fill="#696969" fill-opacity=".1"></circle>
    <circle cx="103.5" cy="157.5" r="3.5" fill="#696969" fill-opacity=".1"></circle>
    <circle cx="120.5" cy="157.5" r="3.5" fill="#696969" fill-opacity=".1"></circle>
    <circle cx="3.5" cy="173.5" r="3.5" fill="#696969" fill-opacity=".1"></circle>
    <circle cx="20.5" cy="173.5" r="3.5" fill="#696969" fill-opacity=".1"></circle>
    <circle cx="37.5" cy="173.5" r="3.5" fill="#696969" fill-opacity=".1"></circle>
    <circle cx="54.5" cy="173.5" r="3.5" fill="#696969" fill-opacity=".1"></circle>
    <circle cx="69.5" cy="173.5" r="3.5" fill="#696969" fill-opacity=".1"></circle>
    <circle cx="86.5" cy="173.5" r="3.5" fill="#696969" fill-opacity=".1"></circle>
    <circle cx="103.5" cy="173.5" r="3.5" fill="#696969" fill-opacity=".1"></circle>
    <circle cx="120.5" cy="173.5" r="3.5" fill="#696969" fill-opacity=".1"></circle>
    <circle cx="3.5" cy="188.5" r="3.5" fill="#696969" fill-opacity=".1"></circle>
    <circle cx="20.5" cy="188.5" r="3.5" fill="#696969" fill-opacity=".1"></circle>
    <circle cx="37.5" cy="188.5" r="3.5" fill="#696969" fill-opacity=".1"></circle>
    <circle cx="54.5" cy="188.5" r="3.5" fill="#696969" fill-opacity=".1"></circle>
    <circle cx="69.5" cy="188.5" r="3.5" fill="#696969" fill-opacity=".1"></circle>
    <circle cx="86.5" cy="188.5" r="3.5" fill="#696969" fill-opacity=".1"></circle>
    <circle cx="103.5" cy="188.5" r="3.5" fill="#696969" fill-opacity=".1"></circle>
    <circle cx="120.5" cy="188.5" r="3.5" fill="#696969" fill-opacity=".1"></circle>
    <circle cx="3.5" cy="203.5" r="3.5" fill="#696969" fill-opacity=".1"></circle>
    <circle cx="20.5" cy="203.5" r="3.5" fill="#696969" fill-opacity=".1"></circle>
    <circle cx="37.5" cy="203.5" r="3.5" fill="#696969" fill-opacity=".1"></circle>
    <circle cx="54.5" cy="203.5" r="3.5" fill="#696969" fill-opacity=".1"></circle>
    <circle cx="69.5" cy="203.5" r="3.5" fill="#696969" fill-opacity=".1"></circle>
    <circle cx="86.5" cy="203.5" r="3.5" fill="#696969" fill-opacity=".1"></circle>
    <circle cx="103.5" cy="203.5" r="3.5" fill="#696969" fill-opacity=".1"></circle>
    <circle cx="120.5" cy="203.5" r="3.5" fill="#696969" fill-opacity=".1"></circle>
    <circle cx="3.5" cy="219.5" r="3.5" fill="#696969" fill-opacity=".1"></circle>
    <circle cx="20.5" cy="219.5" r="3.5" fill="#696969" fill-opacity=".1"></circle>
    <circle cx="37.5" cy="219.5" r="3.5" fill="#696969" fill-opacity=".1"></circle>
    <circle cx="54.5" cy="219.5" r="3.5" fill="#696969" fill-opacity=".1"></circle>
    <circle cx="69.5" cy="219.5" r="3.5" fill="#696969" fill-opacity=".1"></circle>
    <circle cx="86.5" cy="219.5" r="3.5" fill="#696969" fill-opacity=".1"></circle>
    <circle cx="103.5" cy="219.5" r="3.5" fill="#696969" fill-opacity=".1"></circle>
    <circle cx="120.5" cy="219.5" r="3.5" fill="#696969" fill-opacity=".1"></circle>
    <circle cx="3.5" cy="234.5" r="3.5" fill="#696969" fill-opacity=".1"></circle>
    <circle cx="20.5" cy="234.5" r="3.5" fill="#696969" fill-opacity=".1"></circle>
    <circle cx="37.5" cy="234.5" r="3.5" fill="#696969" fill-opacity=".1"></circle>
    <circle cx="54.5" cy="234.5" r="3.5" fill="#696969" fill-opacity=".1"></circle>
    <circle cx="69.5" cy="234.5" r="3.5" fill="#696969" fill-opacity=".1"></circle>
    <circle cx="86.5" cy="234.5" r="3.5" fill="#696969" fill-opacity=".1"></circle>
    <circle cx="103.5" cy="234.5" r="3.5" fill="#696969" fill-opacity=".1"></circle>
    <circle cx="120.5" cy="234.5" r="3.5" fill="#696969" fill-opacity=".1"></circle>
    <circle cx="3.5" cy="249.5" r="3.5" fill="#696969" fill-opacity=".1"></circle>
    <circle cx="20.5" cy="249.5" r="3.5" fill="#696969" fill-opacity=".1"></circle>
    <circle cx="37.5" cy="249.5" r="3.5" fill="#696969" fill-opacity=".1"></circle>
    <circle cx="54.5" cy="249.5" r="3.5" fill="#696969" fill-opacity=".1"></circle>
    <circle cx="69.5" cy="249.5" r="3.5" fill="#696969" fill-opacity=".1"></circle>
    <circle cx="86.5" cy="249.5" r="3.5" fill="#696969" fill-opacity=".1"></circle>
    <circle cx="103.5" cy="249.5" r="3.5" fill="#696969" fill-opacity=".1"></circle>
    <circle cx="120.5" cy="249.5" r="3.5" fill="#696969" fill-opacity=".1"></circle>
    <circle cx="3.5" cy="264.5" r="3.5" fill="#696969" fill-opacity=".1"></circle>
    <circle cx="20.5" cy="264.5" r="3.5" fill="#696969" fill-opacity=".1"></circle>
    <circle cx="37.5" cy="264.5" r="3.5" fill="#696969" fill-opacity=".1"></circle>
    <circle cx="54.5" cy="264.5" r="3.5" fill="#696969" fill-opacity=".1"></circle>
    <circle cx="69.5" cy="264.5" r="3.5" fill="#696969" fill-opacity=".1"></circle>
    <circle cx="86.5" cy="264.5" r="3.5" fill="#696969" fill-opacity=".1"></circle>
    <circle cx="103.5" cy="264.5" r="3.5" fill="#696969" fill-opacity=".1"></circle>
    <circle cx="120.5" cy="264.5" r="3.5" fill="#696969" fill-opacity=".1"></circle>
    <circle cx="136.5" cy="142.5" r="3.5" fill="#696969" fill-opacity=".1"></circle>
    <circle cx="153.5" cy="142.5" r="3.5" fill="#696969" fill-opacity=".1"></circle>
    <circle cx="170.5" cy="142.5" r="3.5" fill="#696969" fill-opacity=".1"></circle>
    <circle cx="187.5" cy="142.5" r="3.5" fill="#696969" fill-opacity=".1"></circle>
    <circle cx="202.5" cy="142.5" r="3.5" fill="#696969" fill-opacity=".1"></circle>
    <circle cx="219.5" cy="142.5" r="3.5" fill="#696969" fill-opacity=".1"></circle>
    <circle cx="236.5" cy="142.5" r="3.5" fill="#696969" fill-opacity=".1"></circle>
    <circle cx="253.5" cy="142.5" r="3.5" fill="#696969" fill-opacity=".1"></circle>
    <circle cx="136.5" cy="157.5" r="3.5" fill="#696969" fill-opacity=".1"></circle>
    <circle cx="153.5" cy="157.5" r="3.5" fill="#696969" fill-opacity=".1"></circle>
    <circle cx="170.5" cy="157.5" r="3.5" fill="#696969" fill-opacity=".1"></circle>
    <circle cx="187.5" cy="157.5" r="3.5" fill="#696969" fill-opacity=".1"></circle>
    <circle cx="202.5" cy="157.5" r="3.5" fill="#696969" fill-opacity=".1"></circle>
    <circle cx="219.5" cy="157.5" r="3.5" fill="#696969" fill-opacity=".1"></circle>
    <circle cx="236.5" cy="157.5" r="3.5" fill="#696969" fill-opacity=".1"></circle>
    <circle cx="253.5" cy="157.5" r="3.5" fill="#696969" fill-opacity=".1"></circle>
    <circle cx="136.5" cy="173.5" r="3.5" fill="#696969" fill-opacity=".1"></circle>
    <circle cx="153.5" cy="173.5" r="3.5" fill="#696969" fill-opacity=".1"></circle>
    <circle cx="170.5" cy="173.5" r="3.5" fill="#696969" fill-opacity=".1"></circle>
    <circle cx="187.5" cy="173.5" r="3.5" fill="#696969" fill-opacity=".1"></circle>
    <circle cx="202.5" cy="173.5" r="3.5" fill="#696969" fill-opacity=".1"></circle>
    <circle cx="219.5" cy="173.5" r="3.5" fill="#696969" fill-opacity=".1"></circle>
    <circle cx="236.5" cy="173.5" r="3.5" fill="#696969" fill-opacity=".1"></circle>
    <circle cx="253.5" cy="173.5" r="3.5" fill="#696969" fill-opacity=".1"></circle>
    <circle cx="136.5" cy="188.5" r="3.5" fill="#696969" fill-opacity=".1"></circle>
    <circle cx="153.5" cy="188.5" r="3.5" fill="#696969" fill-opacity=".1"></circle>
    <circle cx="170.5" cy="188.5" r="3.5" fill="#696969" fill-opacity=".1"></circle>
    <circle cx="187.5" cy="188.5" r="3.5" fill="#696969" fill-opacity=".1"></circle>
    <circle cx="202.5" cy="188.5" r="3.5" fill="#696969" fill-opacity=".1"></circle>
    <circle cx="219.5" cy="188.5" r="3.5" fill="#696969" fill-opacity=".1"></circle>
    <circle cx="236.5" cy="188.5" r="3.5" fill="#696969" fill-opacity=".1"></circle>
    <circle cx="253.5" cy="188.5" r="3.5" fill="#696969" fill-opacity=".1"></circle>
    <circle cx="136.5" cy="203.5" r="3.5" fill="#696969" fill-opacity=".1"></circle>
    <circle cx="153.5" cy="203.5" r="3.5" fill="#696969" fill-opacity=".1"></circle>
    <circle cx="170.5" cy="203.5" r="3.5" fill="#696969" fill-opacity=".1"></circle>
    <circle cx="187.5" cy="203.5" r="3.5" fill="#696969" fill-opacity=".1"></circle>
    <circle cx="202.5" cy="203.5" r="3.5" fill="#696969" fill-opacity=".1"></circle>
    <circle cx="219.5" cy="203.5" r="3.5" fill="#696969" fill-opacity=".1"></circle>
    <circle cx="236.5" cy="203.5" r="3.5" fill="#696969" fill-opacity=".1"></circle>
    <circle cx="253.5" cy="203.5" r="3.5" fill="#696969" fill-opacity=".1"></circle>
    <circle cx="136.5" cy="219.5" r="3.5" fill="#696969" fill-opacity=".1"></circle>
    <circle cx="153.5" cy="219.5" r="3.5" fill="#696969" fill-opacity=".1"></circle>
    <circle cx="170.5" cy="219.5" r="3.5" fill="#696969" fill-opacity=".1"></circle>
    <circle cx="187.5" cy="219.5" r="3.5" fill="#696969" fill-opacity=".1"></circle>
    <circle cx="202.5" cy="219.5" r="3.5" fill="#696969" fill-opacity=".1"></circle>
    <circle cx="219.5" cy="219.5" r="3.5" fill="#696969" fill-opacity=".1"></circle>
    <circle cx="236.5" cy="219.5" r="3.5" fill="#696969" fill-opacity=".1"></circle>
    <circle cx="253.5" cy="219.5" r="3.5" fill="#696969" fill-opacity=".1"></circle>
    <circle cx="136.5" cy="234.5" r="3.5" fill="#696969" fill-opacity=".1"></circle>
    <circle cx="153.5" cy="234.5" r="3.5" fill="#696969" fill-opacity=".1"></circle>
    <circle cx="170.5" cy="234.5" r="3.5" fill="#696969" fill-opacity=".1"></circle>
    <circle cx="187.5" cy="234.5" r="3.5" fill="#696969" fill-opacity=".1"></circle>
    <circle cx="202.5" cy="234.5" r="3.5" fill="#696969" fill-opacity=".1"></circle>
    <circle cx="219.5" cy="234.5" r="3.5" fill="#696969" fill-opacity=".1"></circle>
    <circle cx="236.5" cy="234.5" r="3.5" fill="#696969" fill-opacity=".1"></circle>
    <circle cx="253.5" cy="234.5" r="3.5" fill="#696969" fill-opacity=".1"></circle>
    <circle cx="136.5" cy="249.5" r="3.5" fill="#696969" fill-opacity=".1"></circle>
    <circle cx="153.5" cy="249.5" r="3.5" fill="#696969" fill-opacity=".1"></circle>
    <circle cx="170.5" cy="249.5" r="3.5" fill="#696969" fill-opacity=".1"></circle>
    <circle cx="187.5" cy="249.5" r="3.5" fill="#696969" fill-opacity=".1"></circle>
    <circle cx="202.5" cy="249.5" r="3.5" fill="#696969" fill-opacity=".1"></circle>
    <circle cx="219.5" cy="249.5" r="3.5" fill="#696969" fill-opacity=".1"></circle>
    <circle cx="236.5" cy="249.5" r="3.5" fill="#696969" fill-opacity=".1"></circle>
    <circle cx="253.5" cy="249.5" r="3.5" fill="#696969" fill-opacity=".1"></circle>
    <circle cx="136.5" cy="264.5" r="3.5" fill="#696969" fill-opacity=".1"></circle>
    <circle cx="153.5" cy="264.5" r="3.5" fill="#696969" fill-opacity=".1"></circle>
    <circle cx="170.5" cy="264.5" r="3.5" fill="#696969" fill-opacity=".1"></circle>
    <circle cx="187.5" cy="264.5" r="3.5" fill="#696969" fill-opacity=".1"></circle>
    <circle cx="202.5" cy="264.5" r="3.5" fill="#696969" fill-opacity=".1"></circle>
    <circle cx="219.5" cy="264.5" r="3.5" fill="#696969" fill-opacity=".1"></circle>
    <circle cx="236.5" cy="264.5" r="3.5" fill="#696969" fill-opacity=".1"></circle>
    <circle cx="253.5" cy="264.5" r="3.5" fill="#696969" fill-opacity=".1"></circle>
</svg>