<svg width="264" height="264" viewBox="0 0 264 264" fill="none" xmlns="http://www.w3.org/2000/svg">
<path d="M256.266 0H224.297C220.022 0 216.562 3.45933 216.562 7.73438V17.9108C111.727 28.7636 27.7324 112.758 16.8795 217.594H7.73438C3.45933 217.594 0 221.053 0 225.328V256.266C0 260.541 3.45933 264 7.73438 264H38.6719C42.9469 264 46.4062 260.541 46.4062 256.266V225.328C46.4062 221.053 42.9469 217.594 38.6719 217.594H32.4302C43.1583 121.262 120.23 44.1896 216.562 33.4615V39.7031C216.562 43.9782 220.022 47.4375 224.297 47.4375H256.266C260.541 47.4375 264 43.9782 264 39.7031V7.73438C264 3.45933 260.541 0 256.266 0Z" fill="#18A0FB"/>
</svg>
