<?xml version="1.0" encoding="UTF-8"?>
<svg width="83px" height="56px" viewBox="0 0 83 56" version="1.1" xmlns="http://www.w3.org/2000/svg" xmlns:xlink="http://www.w3.org/1999/xlink">
    <title>Group 3</title>
    <g id="Icons" stroke="none" stroke-width="1" fill="none" fill-rule="evenodd">
        <g id="Group-3" fill="#000000">
            <g id="Group-2">
                <g id="Group">
                    <path d="M4.92516617,0.035483842 L41.179102,4.52934849 C42.9572456,4.74975866 43.5818559,4.98185512 44.2050021,5.35984654 C44.8281482,5.73783797 45.3046754,6.24373169 45.6254162,6.86779506 L45.6837272,6.9848602 C45.9567183,7.55220578 46.1012931,8.16021154 46.1106281,9.61206285 L46.1111111,38.2097478 C46.1111111,40.0120278 45.9092105,40.6655781 45.5300835,41.3244648 C45.1509564,41.9833514 44.5946029,42.5004495 43.8856969,42.8528259 L43.7565918,42.9150742 C43.1086183,43.2171886 42.4031971,43.3820209 40.707438,43.3923408 L5.57658469,43.3928571 C3.6374847,43.3928571 2.93432019,43.2052024 2.22541422,42.8528259 C1.51650825,42.5004495 0.960154693,41.9833514 0.581027631,41.3244648 L0.51405384,41.2044691 C0.178169373,40.5821405 0,39.9027987 0,38.2097478 L0,4.04316807 C0,1.810188 1.94760827,0 4.35010482,0 C4.54242511,0 4.73453373,0.0118539557 4.92516617,0.035483842 Z" id="rear-cart"></path>
                    <path d="M55.0744878,16.8896772 L74.1012486,19.6455833 C76.1299448,19.9394271 77.773781,21.4417635 78.2485523,23.4358911 L82.4135447,40.9296355 C82.6693749,42.0041702 82.0056839,43.082644 80.9311492,43.3384742 C80.7793914,43.3746054 80.6239273,43.3928571 80.4679276,43.3928571 L56.3812865,43.3928571 C53.7652009,43.3928571 51.6444444,41.2721007 51.6444444,38.656015 L51.6444444,38.656015 L51.6444444,38.656015 L51.6444444,19.8586944 C51.6444444,18.2018401 52.9875902,16.8586944 54.6444444,16.8586944 C54.7883498,16.8586944 54.9320687,16.8690487 55.0744878,16.8896772 Z" id="front-cart"></path>
                    <ellipse id="rear-wheel" stroke="#FFFFFF" stroke-width="4" cx="14.7555556" cy="44.3571429" rx="9.22222222" ry="9.64285714"></ellipse>
                    <circle id="front-wheel" stroke="#FFFFFF" stroke-width="4" cx="66.4" cy="43.3928571" r="7"></circle>
                </g>
            </g>
        </g>
    </g>
</svg>