<?xml version="1.0" encoding="UTF-8"?>
<svg width="243px" height="299px" viewBox="0 0 243 299" version="1.1" xmlns="http://www.w3.org/2000/svg" xmlns:xlink="http://www.w3.org/1999/xlink">
    <title>delivery-quotation</title>
    <g id="Page-1" stroke="none" stroke-width="1" fill="none" fill-rule="evenodd">
        <g id="delivery-quotation" fill-rule="nonzero">
            <polygon id="Path" fill="#000000" opacity="0.15" style="mix-blend-mode: multiply;" points="21.74 298.45 30.99 287.11 40.1 298.45 49.35 287.11 58.46 298.45 67.71 287.11 76.82 298.45 86.07 287.11 95.18 298.45 104.43 287.11 113.54 298.45 122.79 287.11 131.89 298.45 141.15 287.11 150.25 298.45 159.5 287.11 168.61 298.45 177.87 287.11 186.97 298.45 196.22 287.11 205.33 298.45 214.58 287.11 223.69 298.45 232.94 287.11 242.02 298.42 242.02 26.44 21.72 26.44 21.72 298.45"></polygon>
            <polygon id="Path" fill="#F7F7F7" points="0.83 277.1 10.08 265.76 19.19 277.1 28.44 265.76 37.55 277.1 46.8 265.76 55.91 277.1 65.16 265.76 74.27 277.1 83.52 265.76 92.63 277.1 101.88 265.76 110.99 277.1 120.24 265.76 129.35 277.1 138.6 265.76 147.71 277.1 156.96 265.76 166.06 277.1 175.32 265.76 184.42 277.1 193.68 265.76 202.78 277.1 212.03 265.76 221.12 277.07 221.12 0.51 0.81 0.51 0.81 277.1"></polygon>
            <path d="M100.14,95.1000128 L26.92,95.1000128 C24.7550438,95.1000128 23,93.3449562 23,91.18 L23,91.18 C23.005496,89.0173244 24.7573244,87.265496 26.92,87.26 L100.14,87.26 C102.30658,87.26 104.064487,89.0134272 104.07,91.18 L104.07,91.18 C104.07,92.2213836 103.655632,93.2199694 102.918325,93.9554001 C102.181018,94.6908309 101.18138,95.1026566 100.14,95.1000128 Z" id="Path" fill="#C4C4C4"></path>
            <path d="M193.49,95.1000513 L166,95.1000513 C164.95862,95.1026566 163.958982,94.6908309 163.221675,93.9554001 C162.484368,93.2199694 162.07,92.2213836 162.07,91.18 L162.07,91.18 C162.075513,89.0134272 163.83342,87.26 166,87.26 L193.5,87.26 C195.664956,87.26 197.420013,89.0150438 197.420013,91.18 L197.420013,91.18 C197.422679,92.222203 197.009166,93.2223467 196.271276,93.9583585 C195.533387,94.6943704 194.532193,95.1053344 193.49,95.1000513 L193.49,95.1000513 Z" id="Path" fill="#C4C4C4"></path>
            <path d="M193.49,112.440051 L166,112.440051 C164.95862,112.442657 163.958982,112.030831 163.221675,111.2954 C162.484368,110.559969 162.07,109.561384 162.07,108.52 L162.07,108.52 C162.07,107.478616 162.484368,106.480031 163.221675,105.7446 C163.958982,105.009169 164.95862,104.597343 166,104.599987 L193.5,104.599987 C194.540463,104.597336 195.539079,105.009479 196.2748,105.7452 C197.010521,106.480921 197.422664,107.479537 197.420013,108.52 L197.420013,108.52 C197.422679,109.562203 197.009166,110.562347 196.271276,111.298359 C195.533387,112.03437 194.532193,112.445334 193.49,112.440051 L193.49,112.440051 Z" id="Path" fill="#C4C4C4"></path>
            <path d="M193.49,129.780051 L166,129.780051 C164.95862,129.782657 163.958982,129.370831 163.221675,128.6354 C162.484368,127.899969 162.07,126.901384 162.07,125.86 L162.07,125.86 C162.07,124.818616 162.484368,123.820031 163.221675,123.0846 C163.958982,122.349169 164.95862,121.937343 166,121.939987 L193.5,121.939987 C194.540463,121.937336 195.539079,122.349479 196.2748,123.0852 C197.010521,123.820921 197.422664,124.819537 197.420013,125.86 L197.420013,125.86 C197.422679,126.902203 197.009166,127.902347 196.271276,128.638359 C195.533387,129.37437 194.532193,129.785334 193.49,129.780051 L193.49,129.780051 Z" id="Path" fill="#C4C4C4"></path>
            <path d="M193.49,164.460013 L166,164.460013 C163.83342,164.460013 162.075513,162.706573 162.07,160.54 L162.07,160.54 C162.07,158.369521 163.829521,156.61 166,156.61 L193.5,156.61 C194.541384,156.61 195.539969,157.024368 196.2754,157.761675 C197.010831,158.498982 197.422657,159.49862 197.420013,160.54 L197.420013,160.54 C197.420013,161.581384 197.005632,162.579969 196.268325,163.3154 C195.531018,164.050831 194.53138,164.462657 193.49,164.460013 Z" id="Path" fill="#C4C4C4"></path>
            <path d="M193.49,181.800014 L166,181.800014 C163.83342,181.800014 162.075513,180.046573 162.07,177.88 L162.07,177.88 C162.097368,175.729072 163.848898,173.999826 166,174 L193.5,174 C194.541384,174 195.539969,174.414368 196.2754,175.151675 C197.010831,175.888982 197.422657,176.88862 197.420013,177.93 L197.420013,177.93 C197.392591,180.079306 195.639473,181.805658 193.49,181.800014 Z" id="Path" fill="#C4C4C4"></path>
            <path d="M71.78,112.44 L26.92,112.44 C24.7550438,112.44 23,110.684956 23,108.52 L23,108.52 C23,106.355044 24.7550438,104.6 26.92,104.6 L71.78,104.6 C73.9449562,104.6 75.7,106.355044 75.7,108.52 L75.7,108.52 C75.7,110.684956 73.9449562,112.44 71.78,112.44 Z" id="Path" fill="#C4C4C4"></path>
            <path d="M82.57,129.780013 L26.92,129.780013 C24.7550438,129.780013 23,128.024956 23,125.86 L23,125.86 C23,123.695044 24.7550438,121.939987 26.92,121.939987 L82.57,121.939987 C83.6104632,121.937336 84.6090794,122.349479 85.3448003,123.0852 C86.0805213,123.820921 86.4926645,124.819537 86.4900128,125.86 L86.4900128,125.86 C86.4926645,126.900463 86.0805213,127.899079 85.3448003,128.6348 C84.6090794,129.370521 83.6104632,129.782664 82.57,129.780013 L82.57,129.780013 Z" id="Path" fill="#C4C4C4"></path>
            <path d="M88.13,164.46 L26.92,164.46 C24.7573244,164.454504 23.005496,162.702676 23,160.54 L23,160.54 C23,158.37342 24.7534272,156.615513 26.92,156.61 L88.13,156.61 C89.1723008,156.61 90.1719117,157.024052 90.9089297,157.76107 C91.6459476,158.498088 92.06,159.497699 92.06,160.54 L92.06,160.54 C92.0544871,162.706573 90.2965798,164.46 88.13,164.46 L88.13,164.46 Z" id="Path" fill="#C4C4C4"></path>
            <path d="M95.33,181.8 L26.92,181.8 C24.7573244,181.794504 23.005496,180.042676 23,177.88 L23,177.88 C23,175.71342 24.7534272,173.955513 26.92,173.95 L95.33,173.95 C96.3713836,173.95 97.3699694,174.364368 98.1054001,175.101675 C98.8408309,175.838982 99.2526566,176.83862 99.2500128,177.88 L99.2500128,177.88 C99.2500128,178.919649 98.8370012,179.916716 98.1018586,180.651859 C97.366716,181.387001 96.3696486,181.8 95.33,181.8 L95.33,181.8 Z" id="Path" fill="#C4C4C4"></path>
            <path d="M193.49,42.6300128 L166,42.6300128 C163.83342,42.6300128 162.075513,40.8765728 162.07,38.71 L162.07,38.71 C162.07,37.6686164 162.484368,36.6700306 163.221675,35.9345999 C163.958982,35.1991691 164.95862,34.7873434 166,34.7899872 L193.5,34.7899872 C194.540463,34.7873355 195.539079,35.1994787 196.2748,35.9351997 C197.010521,36.6709206 197.422664,37.6695368 197.420013,38.71 L197.420013,38.71 C197.420013,39.7513836 197.005632,40.7499694 196.268325,41.4854001 C195.531018,42.2208309 194.53138,42.6326566 193.49,42.6300128 Z" id="Path" fill="#A5CD38"></path>
            <path d="M193.49,60.0000128 L166,60.0000128 C163.83342,60.0000128 162.075513,58.2465728 162.07,56.08 L162.07,56.08 C162.07,53.9095209 163.829521,52.15 166,52.15 L193.5,52.15 C194.541384,52.15 195.539969,52.5643679 196.2754,53.3016747 C197.010831,54.0389815 197.422657,55.0386198 197.420013,56.08 L197.420013,56.08 C197.420013,57.1213836 197.005632,58.1199694 196.268325,58.8554001 C195.531018,59.5908309 194.53138,60.0026566 193.49,60.0000128 Z" id="Path" fill="#A5CD38"></path>
            <path d="M88.13,42.63 L26.92,42.63 C24.7573244,42.624504 23.005496,40.8726756 23,38.71 L23,38.71 C23,36.5450438 24.7550438,34.7899872 26.92,34.7899872 L88.13,34.7899872 C89.1713802,34.7873434 90.1710185,35.1991691 90.9083253,35.9345999 C91.6456321,36.6700306 92.06,37.6686164 92.06,38.71 L92.06,38.71 C92.0544871,40.8765728 90.2965798,42.63 88.13,42.63 L88.13,42.63 Z" id="Path" fill="#A5CD38"></path>
            <path d="M95.33,60 L26.92,60 C24.7573244,59.994504 23.005496,58.2426756 23,56.08 L23,56.08 C23,53.9134202 24.7534272,52.1555129 26.92,52.15 L95.33,52.15 C96.3713836,52.15 97.3699694,52.5643679 98.1054001,53.3016747 C98.8408309,54.0389815 99.2526566,55.0386198 99.2500128,56.08 L99.2500128,56.08 C99.2500128,57.1196486 98.8370012,58.116716 98.1018586,58.8518586 C97.366716,59.5870012 96.3696486,60 95.33,60 L95.33,60 Z" id="Path" fill="#A5CD38"></path>
            <rect id="Rectangle" fill="#EC1751" x="23" y="204.11" width="102.37" height="32.28" rx="16.14"></rect>
            <path d="M197.9,223.44 L192.55,223.44 L192.55,218.29 L197.9,218.29 C198.448618,218.335521 198.9762,218.068582 199.264501,217.599608 C199.552802,217.130634 199.552802,216.539366 199.264501,216.070392 C198.9762,215.601418 198.448618,215.334479 197.9,215.38 L192.55,215.38 L192.55,208.23 C192.618348,207.423817 192.39867,206.619509 191.93,205.96 C191.524768,205.515177 190.940795,205.276446 190.34,205.31 C189.754953,205.271524 189.185452,205.5082 188.8,205.95 C188.339583,206.616804 188.124058,207.422372 188.19,208.23 L188.19,215.38 L178.12,215.38 L173.83,208.89 L172.83,207.25 C172.575062,206.844945 172.280262,206.466396 171.95,206.12 C171.70775,205.867359 171.419177,205.663661 171.1,205.52 C170.171157,205.159475 169.125636,205.267375 168.29,205.81 C167.808956,206.099949 167.431167,206.533706 167.21,207.05 C166.987322,207.757716 166.889198,208.498718 166.92,209.24 L166.92,215.38 L161.62,215.38 C161.071382,215.334479 160.5438,215.601418 160.255499,216.070392 C159.967198,216.539366 159.967198,217.130634 160.255499,217.599608 C160.5438,218.068582 161.071382,218.335521 161.62,218.29 L166.92,218.29 L166.92,223.44 L161.62,223.44 C161.071382,223.394479 160.5438,223.661418 160.255499,224.130392 C159.967198,224.599366 159.967198,225.190634 160.255499,225.659608 C160.5438,226.128582 161.071382,226.395521 161.62,226.35 L166.92,226.35 L166.92,234.51 C166.855849,235.311045 167.079204,236.10874 167.55,236.76 C167.953693,237.215029 168.542529,237.461605 169.15,237.43 C169.754035,237.458522 170.338542,237.21222 170.74,236.76 C171.221765,236.113728 171.449506,235.313078 171.38,234.51 L171.38,226.35 L180.5,226.35 L185.43,233.92 L186.48,235.42 C186.769321,235.842526 187.104714,236.231582 187.48,236.58 C187.768118,236.859352 188.107736,237.080103 188.48,237.23 C188.902724,237.368139 189.345314,237.43571 189.79,237.43 C191.13,237.43 192.49,237.02 192.49,234 L192.49,226.35 L197.85,226.35 C198.398618,226.395521 198.9262,226.128582 199.214501,225.659608 C199.502802,225.190634 199.502802,224.599366 199.214501,224.130392 C198.9262,223.661418 198.398618,223.394479 197.85,223.44 L197.9,223.44 Z M188.19,218.29 L188.19,223.44 L183.45,223.44 L180,218.29 L188.19,218.29 Z M171.34,212.38 L173.34,215.38 L171.34,215.38 L171.34,212.38 Z M171.34,223.44 L171.34,218.29 L175.2,218.29 L178.56,223.44 L171.34,223.44 Z M188.19,230.62 L185.37,226.35 L188.19,226.35 L188.19,230.62 Z" id="Shape" fill="#EC1751"></path>
        </g>
    </g>
</svg>