<?xml version="1.0" encoding="UTF-8"?>
<svg width="347px" height="297px" viewBox="0 0 347 297" version="1.1" xmlns="http://www.w3.org/2000/svg" xmlns:xlink="http://www.w3.org/1999/xlink">
    <title>import-address</title>
    <g id="Page-1" stroke="none" stroke-width="1" fill="none" fill-rule="evenodd">
        <g id="import-address" fill-rule="nonzero">
            <path d="M286,296.48 C285.340039,296.599551 284.670702,296.66 284,296.66 L14.43,296.66 L149.87,160.8 L286,296.48 Z" id="Path" fill="#7DACFF"></path>
            <path d="M296,14.27 L296,284.66 C296,285.825475 295.827819,286.984558 295.49,288.1 L158.79,151.86 L296,14.27 Z" id="Path" fill="#FFCA02"></path>
            <path d="M13.09,296.66 L12.7999935,296.66 C8.61290854,296.648117 4.73214416,294.463531 2.55,290.89 C1.40335288,289.014432 0.799993471,286.858306 0.799993471,284.66 L0.799993471,13.5099928 C0.799993471,6.882583 6.172583,1.50999285 12.7999935,1.50999285 L284,1.50999285 C285.926381,1.50999285 287.824333,1.97465099 289.53,2.87 L2.55,290.71 C4.78826441,294.392638 8.78053775,296.646341 13.09,296.66 Z" id="Path" fill="#A5CD38"></path>
            <path d="M296,14.27 L158.79,151.86 L295.45,288.1 C294.140573,292.464875 290.471769,295.711399 285.98,296.48 L149.87,160.8 L14.43,296.66 L13.09,296.66 C8.77051564,296.635734 4.77600171,294.361817 2.55,290.66 L289.49,2.87 C293.477652,4.92163579 295.988589,9.02553297 296,13.51 L296,14.27 Z" id="Path" fill="#FFD655"></path>
            <path d="M296,13.51 L296,14.27 L158.79,151.86 L149.87,160.8 L14.43,296.66 L13.09,296.66 C8.77051564,296.635734 4.77600171,294.361817 2.55,290.66 L289.49,2.87 C293.477652,4.92163579 295.988589,9.02553297 296,13.51 Z" id="Path" fill="#EAB839"></path>
            <g id="Group" opacity="0.15" transform="translate(239.000000, 0.000000)" fill="#050505">
                <path d="M94.89,25.69 C86.4542412,10.9009332 71.0813747,1.41202095 54.08,0.5 C53.5,0.5 52.92,0.44 52.33,0.43 C51.58,0.43 50.82,0.43 50.06,0.43 C32.416889,0.765445245 16.2524415,10.3615426 7.51,25.69 C-1.64783517,41.311875 -1.90240119,60.6018997 6.84,76.46 L43.43,143.46 C43.4503821,143.48778 43.4671812,143.518018 43.48,143.55 C45.0597696,146.319749 48.0114688,148.021181 51.2,148.000195 C52.1802476,148.004152 53.1540854,147.841846 54.08,147.52 C56.1284532,146.828398 57.8487856,145.403693 58.91,143.52 C58.9133027,143.490091 58.9133027,143.459909 58.91,143.43 L95.51,76.43 C104.246358,60.585932 104.010894,41.3158674 94.89,25.69 L94.89,25.69 Z M57,67.2900004 C56.0398862,67.2890195 55.0809699,67.2221961 54.13,67.09 C53.1757245,67.222653 52.2134512,67.2894775 51.25,67.2900004 C39.7900914,67.2900004 30.5,57.9999086 30.5,46.54 C30.5,35.0800914 39.7900914,25.79 51.25,25.79 C52.2134512,25.7905225 53.1757245,25.857347 54.13,25.99 C61.8134157,24.9154365 69.4544828,28.2168453 73.9380493,34.5482903 C78.4216158,40.8797352 78.9986559,49.1834832 75.4339188,56.074217 C71.8691816,62.9649509 64.7581932,67.2915026 57,67.2900004 L57,67.2900004 Z" id="Shape"></path>
            </g>
            <path d="M295.45,288.1 C294.140573,292.464875 290.471769,295.711399 285.98,296.48 L149.87,160.8 L147,158 C149.062559,154.027857 153.164281,151.533671 157.64,151.53 L158.4,151.53 L158.76,151.89 L295.45,288.1 Z" id="Path" fill="#EAB839"></path>
            <path d="M339.65,25.57 C330.921272,10.2733822 314.788622,0.697113767 297.18,0.36 L294.93,0.36 L293.58,0.36 L293.58,0.36 L293.19,0.36 C276.227312,1.27856216 260.891353,10.7467843 252.47,25.5 C243.332019,41.0914925 243.077469,60.3423413 251.8,76.17 L288.32,142.99 L288.37,143.1 C289.430258,144.98057 291.146205,146.404592 293.19,147.1 C293.280015,147.137149 293.373946,147.163987 293.47,147.18 C294.308658,147.455886 295.187199,147.591047 296.07,147.580626 C299.249508,147.596667 302.190163,145.894988 303.76,143.13 L303.81,143.02 L340.33,76.2 C349.03428,60.3809555 348.775987,41.1495702 339.65,25.57 L339.65,25.57 Z M293.39,66.91 C293.320346,66.9198485 293.249654,66.9198485 293.18,66.91 C282.983084,65.4467251 275.411785,56.7113719 275.411785,46.41 C275.411785,36.1086281 282.983084,27.3732749 293.18,25.91 C293.249654,25.9001515 293.320346,25.9001515 293.39,25.91 C294.271779,25.7930089 295.160502,25.7362108 296.05,25.7398223 C307.482294,25.7398223 316.75,35.0077057 316.75,46.44 C316.75,57.8722943 307.482294,67.14 296.05,67.14 C295.159135,67.1239148 294.270404,67.0470698 293.39,66.91 L293.39,66.91 Z" id="Shape" fill="#EC1751"></path>
        </g>
    </g>
</svg>