<svg xmlns="http://www.w3.org/2000/svg" xmlns:xlink="http://www.w3.org/1999/xlink" viewBox="0 0 500 500"><defs><style>.cls-1,.cls-7{fill:#070707;}.cls-1,.cls-9{stroke:#000;stroke-miterlimit:10;stroke-width:1.69px;}.cls-2,.cls-9{fill:none;}.cls-3{fill:#e5e5e5;}.cls-4{isolation:isolate;}.cls-5{fill:#7dacff;}.cls-25,.cls-6{opacity:0.15;}.cls-8{clip-path:url(#clip-path);}.cls-10{clip-path:url(#clip-path-2);}.cls-11{clip-path:url(#clip-path-3);}.cls-12{clip-path:url(#clip-path-4);}.cls-13{fill:#b7cc3e;}.cls-14{fill:#ffca02;}.cls-15{clip-path:url(#clip-path-5);}.cls-16{fill:#d1d1d1;}.cls-17{fill:#ec1751;}.cls-18{clip-path:url(#clip-path-6);}.cls-19{clip-path:url(#clip-path-7);}.cls-20,.cls-26{fill:#5d5d5d;}.cls-21{fill:#b78369;}.cls-22{fill:#935f45;}.cls-23{fill:#a87152;}.cls-24{fill:#b59169;}.cls-26{opacity:0.23;mix-blend-mode:multiply;}</style><clipPath id="clip-path"><path class="cls-1" d="M180.24,203.53c.35-.51-.41-6.06-.41-6.06l-29.11,26.37,7.85,7.8C158.84,230.7,179.89,204,180.24,203.53Z"/></clipPath><clipPath id="clip-path-2"><path class="cls-1" d="M119.35,249.47c-.59.19-5.72-2.06-5.72-2.06L147,226.66l5.34,9.69C151.35,236.35,119.93,249.27,119.35,249.47Z"/></clipPath><clipPath id="clip-path-3"><path class="cls-1" d="M115.63,199.23l10.5-1,31.11,50.09c2.25,3,10.29,8.57,13.27,6.32s-.21-11.53-2.46-14.51l-38.64-44.5L133.62,184l-2-3.77-6.32,12.24-13.14,3.05Z"/></clipPath><clipPath id="clip-path-4"><circle class="cls-2" cx="250" cy="250" r="250"/></clipPath><clipPath id="clip-path-5"><path class="cls-3" d="M170.48,204.45c.42-.61-.49-7.26-.49-7.26l-34.85,31.57,9.39,9.35C144.85,237,170.06,205.06,170.48,204.45Z"/></clipPath><clipPath id="clip-path-6"><path class="cls-3" d="M97.57,259.45c-.7.24-6.85-2.46-6.85-2.46l39.93-24.84,6.4,11.6C135.88,243.75,98.27,259.22,97.57,259.45Z"/></clipPath><clipPath id="clip-path-7"><path class="cls-3" d="M93.11,199.31l12.58-1.25,37.25,60c2.69,3.56,12.32,10.26,15.88,7.57s-.25-13.81-2.94-17.37L109.62,195c1.42-3.95,5-13.95,5-13.95l-2.38-4.51-7.56,14.66L89,194.8Z"/></clipPath></defs><title>Batch of 4</title><g class="cls-4"><g id="Layer_1" data-name="Layer 1"><circle class="cls-5" cx="250" cy="250" r="250"/><g class="cls-6"><path class="cls-7" d="M180.24,203.53c.35-.51-.41-6.06-.41-6.06l-29.11,26.37,7.85,7.8C158.84,230.7,179.89,204,180.24,203.53Z"/><g class="cls-8"><path class="cls-7" d="M161.67,231.69c-4.75-3.42-8.15-8.36-12.23-12.56a102.17,102.17,0,0,0-9.68-8.43"/><path d="M162.41,230.42c-3.93-2.88-6.92-6.81-10.15-10.41a94.54,94.54,0,0,0-11.46-10.35c-1.46-1.17-3.55.89-2.08,2.07a93.11,93.11,0,0,1,11.72,10.64c3.32,3.72,6.43,7.61,10.49,10.58,1.52,1.12,3-1.43,1.48-2.53Z"/><path class="cls-7" d="M180.39,195.35c-.07-.12.21-.18.25,0s-.08.26-.19.36l-46.72,41"/><path d="M181.8,195.74l0-.1-1,1,.13,0-1.43-.38.1.08-.38-1.42c.31-.41.25-.39-.18,0l-.75.65-1.49,1.31-3,2.63-6,5.24L156.24,215,132.69,235.6c-1.42,1.25.66,3.32,2.08,2.08l37.56-33,5.23-4.59,2.62-2.29c.68-.6,1.69-1.2,1.87-2.16a1.46,1.46,0,0,0-.38-1.42,1.78,1.78,0,0,0-1.65-.43,1.42,1.42,0,0,0-1,1l0,.1c-.42,1.84,2.41,2.62,2.82.78Z"/><path class="cls-7" d="M183.46,194l-45,42.43"/><path d="M182.42,193l-44.95,42.43c-1.37,1.29.7,3.36,2.07,2.07l45-42.43c1.37-1.3-.7-3.37-2.08-2.07Z"/><path class="cls-7" d="M179.41,192.52a7.39,7.39,0,0,1,.22,2.44q-.33,14.11-.64,28.24"/><path d="M178,192.91a13,13,0,0,1,.13,3.53l-.09,4c-.06,2.48-.11,5-.17,7.43q-.17,7.68-.35,15.36c0,1.89,2.89,1.89,2.94,0q.18-7.92.35-15.85l.18-7.93c.06-2.36.44-5-.16-7.29a1.47,1.47,0,0,0-2.83.78Z"/></g><path class="cls-9" d="M180.24,203.53c.35-.51-.41-6.06-.41-6.06l-29.11,26.37,7.85,7.8C158.84,230.7,179.89,204,180.24,203.53Z"/><path class="cls-7" d="M119.35,249.47c-.59.19-5.72-2.06-5.72-2.06L147,226.66l5.34,9.69C151.35,236.35,119.93,249.27,119.35,249.47Z"/><g class="cls-10"><path class="cls-7" d="M151.52,239.34c-2-5.5-5.79-10.13-8.71-15.2a102.66,102.66,0,0,1-5.46-11.63"/><path d="M152.93,239c-1.71-4.64-4.54-8.66-7.18-12.8a91.68,91.68,0,0,1-7-14c-.72-1.71-3.56-1-2.83.78a96.82,96.82,0,0,0,6.82,14c2.61,4.17,5.62,8.18,7.35,12.83.65,1.76,3.48,1,2.82-.78Z"/><path class="cls-7" d="M111.44,247.37c-.1-.11-.23.14-.11.22s.28,0,.4-.08L164,213.84"/><path d="M111.44,245.9h-.1a1.47,1.47,0,0,0-1.27.73,1.63,1.63,0,0,0-.15,1.36,1.56,1.56,0,0,0,1.41,1.08,3.3,3.3,0,0,0,2-.82l2.72-1.75,5.22-3.37,10.45-6.74,21.1-13.6,11.91-7.68c1.58-1,.11-3.55-1.48-2.53l-26.33,17q-6.46,4.19-12.95,8.35l-6.68,4.31-3.35,2.16-1.67,1.08-.83.53c-.54.3-.57.35-.08.15l1.41,1.08,0-.12-.15,1.13.06-.11-1.27.73h.1c1.88.1,1.88-2.83,0-2.93Z"/><path class="cls-7" d="M109.32,250l53.14-31.57"/><path d="M110.06,251.22l53.14-31.57a1.47,1.47,0,0,0-1.48-2.54l-53.14,31.58a1.47,1.47,0,0,0,1.48,2.53Z"/><path class="cls-7" d="M109,245.65a7.33,7.33,0,0,0,2.28.87l27.34,7.15"/><path d="M108.25,246.92c2,1.21,4.67,1.55,7,2.15l7.67,2,15.35,4a1.46,1.46,0,0,0,.78-2.82l-14.87-3.89-7.19-1.88-3.84-1a12.7,12.7,0,0,1-3.37-1.11,1.47,1.47,0,0,0-1.48,2.54Z"/></g><path class="cls-9" d="M119.35,249.47c-.59.19-5.72-2.06-5.72-2.06L147,226.66l5.34,9.69C151.35,236.35,119.93,249.27,119.35,249.47Z"/><path class="cls-7" d="M115.63,199.23l10.5-1,31.11,50.09c2.25,3,10.29,8.57,13.27,6.32s-.21-11.53-2.46-14.51l-38.64-44.5L133.62,184l-2-3.77-6.32,12.24-13.14,3.05Z"/><g class="cls-11"><path class="cls-7" d="M136.07,189a38.75,38.75,0,0,1-4.77-7c-3-6.07-2.75-13.61-7-18.89"/><path d="M137.11,188a38.29,38.29,0,0,1-4.45-6.47,32.38,32.38,0,0,1-2.25-6.72c-1.13-4.48-2.15-8.94-5-12.67-1.16-1.49-3.22.6-2.07,2.08,2.85,3.67,3.5,8.53,4.68,12.9a29.53,29.53,0,0,0,2.46,6.48A45.81,45.81,0,0,0,135,190c1.17,1.47,3.24-.62,2.07-2.08Z"/><path class="cls-7" d="M120.47,203.79c-1.4-2.82-3.86-4.93-6.18-7.07a69.41,69.41,0,0,1-14-17.05"/><path d="M121.74,203.05c-2.36-4.57-7-7.68-10.47-11.3a62.6,62.6,0,0,1-9.74-12.82c-.92-1.65-3.46-.17-2.53,1.48a64.51,64.51,0,0,0,9.62,12.8c1.81,1.91,3.72,3.71,5.65,5.49a21.52,21.52,0,0,1,4.93,5.83c.87,1.68,3.4.2,2.54-1.48Z"/><path class="cls-7" d="M146.58,202.72c-.94-1.26-2.67-1.62-4.24-1.62-6,0-11.53,3.65-14.84,8.6s-4.64,11-4.94,17"/><path d="M147.61,201.68c-2.27-2.72-6.7-2.29-9.76-1.44a20.32,20.32,0,0,0-8.85,5.33c-5.51,5.55-7.49,13.48-7.9,21.08-.11,1.88,2.83,1.88,2.93,0,.35-6.42,1.87-13.25,6.26-18.17a18,18,0,0,1,7.09-5c2.25-.82,6.35-1.88,8.16.29,1.21,1.45,3.27-.64,2.07-2.08Z"/><path class="cls-7" d="M136,194.9a23.27,23.27,0,0,0-18.16,22"/><path d="M135.59,193.49a25.07,25.07,0,0,0-19.24,23.45c-.07,1.89,2.87,1.88,2.94,0a22.12,22.12,0,0,1,17.08-20.63c1.83-.43,1-3.25-.78-2.82Z"/></g><path class="cls-9" d="M115.63,199.23l10.5-1,31.11,50.09c2.25,3,10.29,8.57,13.27,6.32s-.21-11.53-2.46-14.51l-38.64-44.5L133.62,184l-2-3.77-6.32,12.24-13.14,3.05Z"/><path class="cls-1" d="M167.84,244.24s-.18,5.61-6.38,5.3c0,0,4,5.26,7.64,3C169.1,252.52,171.7,249.91,167.84,244.24Z"/></g><g class="cls-12"><path class="cls-13" d="M24.07,250.21c6.08,6.08,16.57,7.18,19.89,9.39s5.52,10.5,13.81,13.26c0,0-16.58,23.2-16.58,38.12s4.42,42.53,8.84,46.95,42.54,26.52,41.43,32.59,12.71,88.94,16.57,95.57,21.55,24.86,26,26,12.15,5.53,12.15,9.39,3.87-14.36-3.87-22.09,19.34-80.65,27.07-89.49,19.89-11.05,17.13-34.8,17.67-48.62,7.18-62.43-41.43-16-48.61-26.51-3.32-12.15-26-24.31-32.59-19.33-50.82,4.42c0,0-1.1-31.48-17.67-26.51s-21,2.76-21-7.74,13.26-14.36,27.07-13.81,34.25-12.7,42-29.83S134.55,148.57,146.7,153s47-27.07,38.67-36.46-26-22.65-16.57-28.72,32.59-16.57,4.42-19.89-60.77-7.18-69-2.21C98.76,69,76.21,83,58.87,90.55A286.32,286.32,0,0,0,0,165.58c1.72,16.59,4,36.2,5.84,43.76C9.16,223.15,18,244.14,24.07,250.21Z"/><path class="cls-13" d="M353.51,4.16c-18.4-7-20.94,4.45-20.94,21.57s-8.25,15.23-24.74,33-4.44,19.67,5.08,22.21,19.66,3.17,22.83-24.11S351,31.44,363,34.62s1.91,12.68-13.95,10.15-6.35,15.86,3.17,26-8.88,29.81-24.11,31.08-8.88,16.5-13.32,29.82-17.13,0-30.45,3.17,5.71,22.21,5.71,36.8,33,12,33.62,0-.63-40,5.08-41.24,9.51,13.32,5.07,33.63,16.5,18.39,15.23,8.24-15.23-45-5.08-41.87,1.27,21.57,17.13,34.26,51.39,19.67,46.31,32.35-50.12-4.44-71.05-8.88-31.09,7-34.26,18.4-5.71,22.84-17.13,29.82-17.76,40-15.22,59,40,33.62,48.85,31.08,48.84-13.32,57.73-6.34-7.62,128.15-2.54,138.3,31.09-3.17,31.09-3.17S420.76,415.9,434.71,414s20.3-23.47,32.36-36.79,0-31.72-3.81-48.22,39.33-39.33,37.43-52-20.93-8.25-36.16-6.34-34.89-53.93-27.28-60.91,15.23,56.47,33.62,53.93,44.41-19,36.8-36.8-5.08-12.69-15.23-12.05-13.95-8.25-8.88-15.86c3.68-5.51,38.26,20.55,57.08,35.37A327.65,327.65,0,0,0,408.17,14.65c-3.73,2.15-7.33,4.07-10.25,5.37C386.5,25.1,371.91,11.14,353.51,4.16Z"/></g><path class="cls-14" d="M120,39.09c-4-1.71-8.11-3.3-12.2-4.8s-8.23-2.87-12.37-4.13a118.63,118.63,0,0,0-24.9-5.05,58.25,58.25,0,0,0-6-.09c-1,0-1.94.15-2.91.23s-1.89.25-2.77.48a19.49,19.49,0,0,0-5,1.68,16.76,16.76,0,0,0-2.07,1.21l-.89.72a10.07,10.07,0,0,0-.81.79,12.59,12.59,0,0,0-2.53,3.74l-.26.52-.2.58-.42,1.14-.3,1.23a7.33,7.33,0,0,0-.27,1.27,41.39,41.39,0,0,0-.19,11.22,84.2,84.2,0,0,0,2.18,12c.94,4,2.24,8,3.53,12,2.69,8,5.94,15.94,9.37,23.82,7,15.71,14.82,31.22,22.68,46.76,7.89,15.39,16.23,30.71,25.27,45.67s18.67,29.62,29.12,43.68,21.56,27.66,33.15,40.81c2.88,3.3,5.84,6.53,8.79,9.77s6,6.41,9,9.59c6,6.38,12.22,12.57,18.42,18.75s12.55,12.22,18.88,18.26l9.56,9q4.75,4.5,9.58,8.95c12.85,11.85,25.67,23.69,38.83,35.13s26.59,22.52,40.27,33.21,27.59,21,41.87,30.62,28.91,18.61,44.15,25.41c7.61,3.33,15.4,6.15,23,7.41a39.4,39.4,0,0,0,11,.45,20.19,20.19,0,0,0,9.05-3.21c5.16-3.44,8.45-10.51,9.88-18.39a78.69,78.69,0,0,0,1.24-12.24,120.33,120.33,0,0,0-.21-12.72,250.34,250.34,0,0,0-3.14-25.76c-1.43-8.61-3.21-17.2-5.07-25.8l1.65-.52q5,12.27,9,25a208,208,0,0,1,6.38,26.05,103.08,103.08,0,0,1,1.54,27.6,51.28,51.28,0,0,1-3.39,14.48,34.63,34.63,0,0,1-3.81,7,30.79,30.79,0,0,1-12.92,10.52,36.67,36.67,0,0,1-7.83,2.38,52.72,52.72,0,0,1-15.3.46,108.81,108.81,0,0,1-27.46-7.18,217,217,0,0,1-24.79-11.65c-8-4.3-15.64-9-23.16-13.9a493.77,493.77,0,0,1-43-31.88c-13.75-11.28-27-23.11-39.9-35.22s-25.56-24.5-37.65-37.41q-4.55-4.83-9-9.71t-8.84-9.87c-5.87-6.61-11.62-13.31-17.32-20.06s-11.31-13.54-17-20.31l-16.74-20.46Q150,257.84,133.6,237.16c-10.95-13.8-21.95-27.61-32.61-41.75a482.3,482.3,0,0,1-30-44.06,392.63,392.63,0,0,1-24.18-47.63,253.72,253.72,0,0,1-9.25-25.47c-1.27-4.4-2.44-8.83-3.33-13.41-.49-2.26-.83-4.6-1.18-6.92s-.54-4.71-.62-7.14a51.31,51.31,0,0,1,1.29-15,13.91,13.91,0,0,1,.56-1.92L34.92,32l.84-1.9.44-.95.52-.92a24.06,24.06,0,0,1,5.41-6.68,21.25,21.25,0,0,1,1.7-1.34L45.63,19a27.79,27.79,0,0,1,3.78-1.81,29.88,29.88,0,0,1,7.69-1.88c1.28-.19,2.52-.2,3.77-.27s2.47,0,3.67.07a59,59,0,0,1,7.11.83,109.36,109.36,0,0,1,25.89,8.58,164.81,164.81,0,0,1,23.27,13.1Z"/><path class="cls-3" d="M170.48,204.45c.42-.61-.49-7.26-.49-7.26l-34.85,31.57,9.39,9.35C144.85,237,170.06,205.06,170.48,204.45Z"/><g class="cls-15"><path class="cls-16" d="M149,236.9c-4.67-3.41-8.23-8.06-12-12.33A112.52,112.52,0,0,0,123.05,212c-1.46-1.17-3.55.89-2.08,2.07A112.45,112.45,0,0,1,135.14,227c3.9,4.39,7.58,9,12.36,12.47,1.53,1.11,3-1.43,1.48-2.53Z"/><path class="cls-16" d="M172.07,195.05l0-.12-1,1,.15,0-1.42-.38.12.09-.38-1.43c0-.18.65-.59-.22.12-.2.16-.38.33-.57.49L167.44,196l-2.82,2.47-5.44,4.77-11.07,9.71-22,19.26-12.39,10.87c-1.42,1.25.66,3.31,2.08,2.07L160.5,206l6.39-5.6,3-2.63c.84-.74,2.25-1.55,2.48-2.73a1.46,1.46,0,0,0-.38-1.42,1.83,1.83,0,0,0-1.7-.44,1.42,1.42,0,0,0-1,1l0,.12c-.41,1.83,2.41,2.62,2.83.78Z"/><path class="cls-16" d="M173.3,192l-41.91,39.55-11.92,11.25c-1.37,1.3.7,3.37,2.08,2.08q20.94-19.78,41.9-39.55l11.92-11.25c1.38-1.3-.7-3.37-2.07-2.08Z"/><path class="cls-17" d="M168.07,191.66a13.88,13.88,0,0,1,.17,4l-.1,4.72-.21,9.21q-.21,9.19-.41,18.4c-.05,1.89,2.88,1.89,2.93,0l.42-18.9.21-9.2c.07-2.9.58-6.2-.18-9a1.47,1.47,0,0,0-2.83.78Z"/></g><path class="cls-3" d="M97.57,259.45c-.7.24-6.85-2.46-6.85-2.46l39.93-24.84,6.4,11.6C135.88,243.75,98.27,259.22,97.57,259.45Z"/><g class="cls-18"><path class="cls-16" d="M137.5,246.94c-2-5.53-5.42-10.31-8.56-15.25a110.5,110.5,0,0,1-8.4-16.87c-.72-1.72-3.55-1-2.82.78A114,114,0,0,0,126,232.44c3.11,5,6.68,9.74,8.73,15.28.64,1.76,3.48,1,2.82-.78Z"/><path class="cls-16" d="M88.1,255.47H88a1.43,1.43,0,0,0-1.26.72,1.68,1.68,0,0,0-.17,1.41A1.57,1.57,0,0,0,88,258.67c.94.09,1.72-.62,2.47-1.1l3.36-2.17,6.3-4.06,12.38-8,25-16.1,14.27-9.2c1.58-1,.11-3.56-1.48-2.53q-24.56,15.83-49.1,31.66l-6.72,4.33-3.57,2.3-1.68,1.08-.62.4-.63.41c-.3.17-.28.18,0,0l1.41,1.08,0-.14-.15,1.13.07-.14L88,258.4h.12c1.89.11,1.88-2.83,0-2.93Z"/><path class="cls-16" d="M86.3,261.3l49.54-29.43,14.09-8.37a1.47,1.47,0,0,0-1.48-2.53L98.92,250.4l-14.1,8.37a1.47,1.47,0,0,0,1.48,2.53Z"/><path class="cls-17" d="M84.43,256.15c2.43,1.47,5.65,1.87,8.37,2.58l9.15,2.39,18.29,4.78a1.47,1.47,0,0,0,.78-2.83l-17.81-4.65-8.66-2.27L90,255a15,15,0,0,1-4.06-1.34,1.47,1.47,0,0,0-1.48,2.53Z"/></g><path class="cls-3" d="M93.11,199.31l12.58-1.25,37.25,60c2.69,3.56,12.32,10.26,15.88,7.57s-.25-13.81-2.94-17.37L109.62,195c1.42-3.95,5-13.95,5-13.95l-2.38-4.51-7.56,14.66L89,194.8Z"/><g class="cls-19"><path class="cls-17" d="M118.63,186a45.8,45.8,0,0,1-5.39-7.86,38.37,38.37,0,0,1-2.67-7.91c-1.35-5.35-2.53-10.75-6-15.2-1.16-1.48-3.23.61-2.08,2.08,3.43,4.39,4.24,10.18,5.64,15.41a36.12,36.12,0,0,0,2.87,7.69,52.58,52.58,0,0,0,5.55,7.86c1.18,1.47,3.24-.61,2.07-2.07Z"/><path class="cls-17" d="M100.18,204A26.48,26.48,0,0,0,94.41,197c-2.32-2.16-4.66-4.3-6.86-6.58A74.76,74.76,0,0,1,76,175.14c-.92-1.64-3.45-.17-2.53,1.48a76.83,76.83,0,0,0,11.43,15.22c2.18,2.31,4.49,4.49,6.83,6.64a25.67,25.67,0,0,1,5.94,7c.86,1.68,3.39.2,2.53-1.48Z"/><path class="cls-17" d="M131.21,202.44c-2-2.48-5.65-2.58-8.58-2.2a21.6,21.6,0,0,0-9,3.36c-5.83,3.78-9.66,9.75-11.68,16.31a50.67,50.67,0,0,0-2,12.22c-.1,1.89,2.83,1.88,2.93,0,.42-7.83,2.32-16.15,7.73-22.12a21.6,21.6,0,0,1,8.75-6c2.73-1,7.62-2.13,9.77.51,1.2,1.46,3.26-.62,2.08-2.08Z"/><path class="cls-17" d="M117.09,192.71a29.73,29.73,0,0,0-22.82,27.8c-.07,1.89,2.87,1.88,2.94,0a26.76,26.76,0,0,1,20.66-25c1.83-.43,1.06-3.25-.78-2.82Z"/></g><path class="cls-20" d="M155.63,253.2s-.22,6.72-7.64,6.35c0,0,4.75,6.29,9.15,3.56C157.14,263.11,160.25,260,155.63,253.2Z"/><polygon class="cls-21" points="124.65 78.5 101.06 81.4 94.82 86.9 115.77 85.45 124.65 78.5"/><path class="cls-21" d="M113.13,87.53c-1.33.13-15.7,1.82-21.92,2.55L82.29,98l23.77-4.9Z"/><path class="cls-22" d="M106.07,93.06,82.29,98c.35.37,10.82,24,10.82,24l25.48-1.23L107.47,96.16Z"/><path class="cls-23" d="M124.65,78.5l-8.88,7h.07l2.32,4.2,1.06,1.9L116.52,94l-1.26-2.59a42.39,42.39,0,0,0-2-3.9h-.1l-7.06,5.54,1.4,3.1,11.12,24.59,17.63-18.58S124.71,79,124.65,78.5Z"/><path class="cls-24" d="M118.16,89.65l-2.32-4.2h-.07l-21,1.45-3.61,3.18c6.22-.73,20.59-2.42,21.92-2.55h.1a42.39,42.39,0,0,1,2,3.9L116.52,94l2.7-2.46Z"/><polygon class="cls-25" points="93.11 121.98 90.72 128.58 113.89 128.58 118.59 120.75 93.11 121.98"/><polygon class="cls-21" points="153.3 99.62 138.87 101.4 135.06 104.76 147.87 103.88 153.3 99.62"/><path class="cls-21" d="M146.25,105.14l-13.4,1.57-5.45,4.81,14.53-3Z"/><path class="cls-22" d="M141.94,108.53l-14.54,3c.21.23,6.61,14.69,6.61,14.69l15.58-.75-6.79-15Z"/><path class="cls-23" d="M153.3,99.62l-5.43,4.26h0l1.42,2.57.65,1.16-1.65,1.51-.77-1.59a24.76,24.76,0,0,0-1.25-2.38h-.06l-4.31,3.39.86,1.89,6.79,15,10.78-11.36S153.34,99.93,153.3,99.62Z"/><path class="cls-24" d="M149.33,106.44l-1.42-2.57h0l-12.81.88-2.21,1.95,13.4-1.57h.06a24.76,24.76,0,0,1,1.25,2.38l.77,1.59L150,107.6Z"/><polygon class="cls-25" points="134.01 126.21 132.56 130.24 146.72 130.24 149.59 125.46 134.01 126.21"/><polygon class="cls-21" points="127.99 125.76 116.17 127.22 113.04 129.97 123.54 129.25 127.99 125.76"/><path class="cls-21" d="M122.22,130.29l-11,1.28-4.47,3.94,11.92-2.45Z"/><path class="cls-22" d="M118.68,133.06l-11.92,2.45c.18.19,5.42,12,5.42,12l12.77-.61-5.57-12.33Z"/><path class="cls-23" d="M128,125.76l-4.45,3.49h0l1.16,2.1.53,1-1.35,1.24-.64-1.3a20.51,20.51,0,0,0-1-2h0l-3.54,2.77.7,1.55L125,146.94l8.84-9.31S128,126,128,125.76Z"/><path class="cls-24" d="M124.74,131.35l-1.16-2.1h0L113,130l-1.81,1.6,11-1.28h0a20.51,20.51,0,0,1,1,2l.64,1.3,1.35-1.24Z"/><polygon class="cls-25" points="112.19 147.56 110.99 150.86 122.6 150.86 124.95 146.94 112.19 147.56"/><path class="cls-26" d="M440,356.09c4.59,2.93,3.28,13.18-2.92,22.91s-14.95,15.23-19.53,12.31-3.28-13.18,2.92-22.9S435.39,353.17,440,356.09Z"/><polygon class="cls-21" points="454.42 369.35 447.28 384.24 442.27 387.12 447.87 373.65 454.42 369.35"/><path class="cls-21" d="M445.92,374.93c-.38.84-4.68,9.93-6.54,13.86l-7.17,4.13,8.5-14.57Z"/><path class="cls-22" d="M440.82,378.23l-8.55,14.63c-.17-.31-13.44-12.43-13.44-12.43l6.5-16.54,13.76,12.73Z"/><path class="cls-23" d="M454.42,369.35l-6.55,4.3,0,0-2.24-2.47-1-1.11-2.22,1.23,1.43,1.4a29.05,29.05,0,0,1,2.11,2.21s0,0,0,0l-5.16,3.36-1.73-1.61-13.77-12.71,16.11-7.46S454.1,369.19,454.42,369.35Z"/><path class="cls-24" d="M445.65,371.14l2.24,2.47,0,0-5.6,13.47-2.89,1.67c1.86-3.93,6.16-13,6.54-13.86l0-.06a29.05,29.05,0,0,0-2.11-2.21l-1.43-1.4,2.22-1.23Z"/><path class="cls-26" d="M419.73,369.67c6,3.81,4.26,17.18-3.82,29.86s-19.49,19.87-25.47,16.06-4.27-17.18,3.82-29.87S413.75,365.85,419.73,369.67Z"/><polygon class="cls-21" points="438.57 386.95 429.25 406.36 422.72 410.12 430.03 392.56 438.57 386.95"/><path class="cls-21" d="M427.48,394.23c-.5,1.1-6.1,12.94-8.53,18.07l-9.34,5.38,11.08-19Z"/><path class="cls-22" d="M420.83,398.54l-11.15,19.07c-.22-.41-17.53-16.21-17.53-16.21l8.48-21.57,17.94,16.61Z"/><path class="cls-23" d="M438.57,387,430,392.56l0-.06-2.93-3.21-1.33-1.45-2.89,1.6,1.86,1.83a36.24,36.24,0,0,1,2.76,2.88s.06,0,0,0l-6.72,4.39-2.26-2.1-18-16.59,21-9.72S438.15,386.75,438.57,387Z"/><path class="cls-24" d="M427.12,389.29l2.93,3.21,0,.06-7.31,17.56L419,412.3c2.43-5.13,8-17,8.53-18.07a.46.46,0,0,0,0-.08,36.24,36.24,0,0,0-2.76-2.88l-1.86-1.83,2.89-1.6Z"/><path class="cls-26" d="M405.79,346.05c3.45,2.19,2.46,9.89-2.2,17.2s-11.22,11.44-14.66,9.25-2.46-9.9,2.2-17.2S402.35,343.85,405.79,346.05Z"/><polygon class="cls-21" points="416.64 356 411.28 367.18 407.52 369.35 411.73 359.23 416.64 356"/><path class="cls-21" d="M410.26,360.2c-.29.63-3.52,7.45-4.91,10.4L400,373.7l6.38-10.94Z"/><path class="cls-22" d="M406.43,362.68l-6.42,11c-.13-.24-10.1-9.33-10.1-9.33l4.89-12.42,10.33,9.56Z"/><path class="cls-23" d="M416.64,356l-4.91,3.22v0l-1.69-1.85-.76-.84-1.67.93,1.07,1.05a19.84,19.84,0,0,1,1.59,1.66s0,0,0,0l-3.87,2.53-1.3-1.21-10.34-9.55,12.1-5.6S416.4,355.89,416.64,356Z"/><path class="cls-24" d="M410.05,357.35l1.69,1.85v0l-4.21,10.12-2.17,1.25c1.39-3,4.62-9.77,4.91-10.4l0-.05a19.84,19.84,0,0,0-1.59-1.66l-1.07-1.05,1.67-.93Z"/></g></g></svg>