<svg xmlns="http://www.w3.org/2000/svg" viewBox="0 0 500 500"><defs><style>.cls-1,.cls-34{isolation:isolate;}.cls-2{fill:#ec1751;}.cls-3{fill:#fffaee;}.cls-4{fill:#f7c946;}.cls-5{fill:#ffeebd;}.cls-6{fill:#fff;}.cls-7{opacity:0.9;}.cls-8,.cls-9{fill:#996f11;}.cls-27,.cls-8{opacity:0.4;}.cls-10{fill:#d8b3a3;}.cls-11{fill:#dba58a;}.cls-12{fill:#936134;}.cls-13{fill:#966c42;}.cls-14{fill:none;stroke:#f9d2af;stroke-miterlimit:10;stroke-width:4.54px;opacity:0.5;}.cls-15{fill:#c3d569;}.cls-16{fill:#7dacff;}.cls-17{fill:#ffca05;}.cls-18{fill:#f69a45;}.cls-19{fill:#f84443;}.cls-20{fill:#dbdbdb;}.cls-21{fill:#f7f7f7;}.cls-22,.cls-25{fill:#a5a9b2;}.cls-22,.cls-24{mix-blend-mode:multiply;}.cls-23,.cls-26{fill:#e6e7eb;}.cls-24,.cls-32{fill:#ccc;}.cls-26{mix-blend-mode:soft-light;}.cls-28{fill:#6ea9ff;}.cls-29{fill:#bbd7ff;}.cls-30{fill:#99c7ff;}.cls-31,.cls-34{fill:#c91757;}.cls-33{fill:#ffd2b5;opacity:0.47;}.cls-34{opacity:0.4;}.cls-35{fill:#8e0e36;opacity:0.3;}</style></defs><title>Batch of 4</title><g class="cls-1"><g id="Layer_1" data-name="Layer 1"><path class="cls-2" d="M337,109.78l-21.23,33.07a.92.92,0,0,1-.8.44H248.37a.58.58,0,0,1-.19,0,1,1,0,0,1-.64-1.43l21.25-33.09a.94.94,0,0,1,.8-.45h66.59A1,1,0,0,1,337,109.78Z"/><rect class="cls-3" x="276.3" y="128.98" width="0.8" height="3.05" rx="0.38" transform="matrix(0.99, 0.17, -0.17, 0.99, 26.56, -45.63)"/><rect class="cls-3" x="277.05" y="124.66" width="0.8" height="3.05" rx="0.38" transform="translate(25.83 -45.83) rotate(9.9)"/><rect class="cls-3" x="313.04" y="130.96" width="0.8" height="4.75" rx="0.38" transform="translate(27.59 -51.91) rotate(9.9)"/><rect class="cls-3" x="310.36" y="146.31" width="0.8" height="4.75" rx="0.38" transform="translate(30.19 -51.22) rotate(9.9)"/><path class="cls-4" d="M280,111h24.47a6.11,6.11,0,0,1,6.11,6.11v62.13a6.11,6.11,0,0,1-6.11,6.11H278.83a4.94,4.94,0,0,1-4.94-4.94v-63.3A6.11,6.11,0,0,1,280,111Z" transform="translate(29.83 -48.04) rotate(9.9)"/><path class="cls-5" d="M279.32,112.25h25.9a4.21,4.21,0,0,1,4.21,4.21V180a4.21,4.21,0,0,1-4.21,4.21H278.15a3,3,0,0,1-3-3v-64.7a4.21,4.21,0,0,1,4.21-4.21Z" transform="translate(29.84 -48.05) rotate(9.9)"/><circle class="cls-6" cx="284.18" cy="112.91" r="1.63"/><circle class="cls-4" cx="284.18" cy="112.91" r="1.08"/><g class="cls-7"><path class="cls-8" d="M277.79,146.44c-.13.46-.27.91-.43,1.36a25.81,25.81,0,1,1-48.79-16.86c.15-.45.32-.89.5-1.33a25.81,25.81,0,0,0,48.72,16.83Z"/><rect class="cls-9" x="244.79" y="154.24" width="0.83" height="2.17" rx="0.39" transform="translate(18.33 336.37) rotate(-70.94)"/><rect class="cls-9" x="247.91" y="154.22" width="0.83" height="2.17" rx="0.39" transform="translate(-37.62 91.87) rotate(-19.51)"/><rect class="cls-9" x="242.94" y="151.43" width="2.17" height="0.83" rx="0.39" transform="translate(-14.53 26.33) rotate(-6)"/><rect class="cls-9" x="249.94" y="156.87" width="0.83" height="2.17" rx="0.39" transform="translate(-1.73 2.77) rotate(-0.63)"/><rect class="cls-9" x="249.5" y="153.82" width="2.17" height="0.83" rx="0.39" transform="translate(-37.05 92.21) rotate(-19.44)"/><rect class="cls-9" x="240.55" y="149.21" width="0.83" height="2.17" rx="0.39" transform="translate(-32.74 74.56) rotate(-16.49)"/><rect class="cls-9" x="252.12" y="124.65" width="0.83" height="2.17" rx="0.39" transform="translate(0.67 252.8) rotate(-53.24)"/><rect class="cls-9" x="248.64" y="122.88" width="2.17" height="0.83" rx="0.39" transform="translate(55.47 322.86) rotate(-72.05)"/><rect class="cls-9" x="240.33" y="127.46" width="0.83" height="2.17" rx="0.39" transform="translate(34.75 307.56) rotate(-69.09)"/><rect class="cls-9" x="260.35" y="148.93" width="2.17" height="0.83" rx="0.39" transform="translate(-1.63 2.89) rotate(-0.63)"/><rect class="cls-9" x="265.99" y="150.22" width="0.83" height="2.17" rx="0.39" transform="translate(-35.17 97.3) rotate(-19.44)"/><rect class="cls-9" x="268.01" y="139.54" width="2.17" height="0.83" rx="0.39" transform="translate(-28.65 82.12) rotate(-16.49)"/><rect class="cls-9" x="261.64" y="127.43" width="0.83" height="2.17" rx="0.39" transform="translate(35.69 312.77) rotate(-65.27)"/><rect class="cls-9" x="236.55" y="140.39" width="2.17" height="0.83" rx="0.39" transform="translate(-23.31 231.39) rotate(-49.79)"/><rect class="cls-9" x="260.14" y="124.52" width="2.17" height="0.83" rx="0.39" transform="translate(-0.7 1.48) rotate(-0.32)"/><rect class="cls-9" x="257.92" y="122.01" width="0.83" height="2.17" rx="0.39" transform="translate(-18.51 50.65) rotate(-10.81)"/><rect class="cls-9" x="256.69" y="153.41" width="0.83" height="2.17" rx="0.39" transform="translate(80.52 396.96) rotate(-84.94)"/><rect class="cls-9" x="253.01" y="152.81" width="0.83" height="2.17" rx="0.39" transform="translate(-29.31 64.64) rotate(-13.75)"/><rect class="cls-9" x="265.63" y="130.49" width="0.83" height="2.17" rx="0.39" transform="translate(37.12 320.47) rotate(-65.84)"/><rect class="cls-9" x="263.09" y="128.29" width="2.17" height="0.83" rx="0.39" transform="translate(76.69 354.98) rotate(-76.33)"/><rect class="cls-9" x="270.43" y="132.7" width="0.83" height="2.17" rx="0.39" transform="translate(-22.98 63.62) rotate(-12.86)"/><rect class="cls-9" x="272.05" y="137.66" width="2.17" height="0.83" rx="0.39" transform="translate(63.54 361.08) rotate(-73.59)"/><rect class="cls-9" x="264.22" y="148.7" width="2.17" height="0.83" rx="0.39" transform="matrix(0.85, -0.53, 0.53, 0.85, -38.7, 163.38)"/><rect class="cls-9" x="237.21" y="133.14" width="2.17" height="0.83" rx="0.39" transform="translate(-24.46 208.28) rotate(-45.14)"/><rect class="cls-9" x="238.33" y="145.21" width="2.17" height="0.83" rx="0.39" transform="translate(-4.03 284.41) rotate(-61)"/><rect class="cls-9" x="234.61" y="136.02" width="2.17" height="0.83" rx="0.39" transform="translate(48.13 333.89) rotate(-76.54)"/><rect class="cls-9" x="257.59" y="149.58" width="0.83" height="2.17" rx="0.39" transform="translate(-33.99 213.95) rotate(-42.51)"/><rect class="cls-9" x="245.46" y="122.67" width="2.17" height="0.83" rx="0.39" transform="translate(-1.34 2.73) rotate(-0.63)"/><rect class="cls-9" x="245.16" y="126.62" width="0.83" height="2.17" rx="0.39" transform="translate(96.69 361.05) rotate(-84.94)"/><rect class="cls-9" x="239.87" y="124.77" width="0.83" height="2.17" rx="0.39" transform="translate(-23.03 60.71) rotate(-13.75)"/><rect class="cls-9" x="242.7" y="123.31" width="0.83" height="2.17" rx="0.39" transform="translate(-20.16 196.98) rotate(-42.51)"/><rect class="cls-9" x="240.63" y="133.26" width="0.83" height="2.17" rx="0.39" transform="translate(-18.3 228.63) rotate(-49.11)"/><rect class="cls-9" x="239" y="130.64" width="2.17" height="0.83" rx="0.39" transform="translate(5.55 271.8) rotate(-59.6)"/><rect class="cls-9" x="269.03" y="144.86" width="0.83" height="2.17" rx="0.39" transform="translate(36.95 345.56) rotate(-69.09)"/><rect class="cls-9" x="268.57" y="142.17" width="0.83" height="2.17" rx="0.39" transform="translate(-26.34 68.03) rotate(-13.75)"/><rect class="cls-9" x="271.4" y="140.71" width="0.83" height="2.17" rx="0.39" transform="translate(-24.37 220.95) rotate(-42.51)"/><rect class="cls-9" x="267.69" y="148.04" width="2.17" height="0.83" rx="0.39" transform="translate(4.72 305.15) rotate(-59.6)"/></g><path class="cls-10" d="M273.82,149c-.13.46-.27.91-.43,1.36a25.81,25.81,0,1,1-48.79-16.86c.15-.45.32-.89.5-1.33A25.81,25.81,0,0,0,273.82,149Z"/><path class="cls-11" d="M225.1,132.16A25.81,25.81,0,0,0,273.82,149a25.81,25.81,0,0,0-48.72-16.83Zm33.63,4.29a10.13,10.13,0,1,1-6-5.48A10.08,10.08,0,0,1,258.73,136.45Z"/><path class="cls-12" d="M252.77,131a10.11,10.11,0,0,1,6,5.48,10.12,10.12,0,0,0-18.19,8.85A10.12,10.12,0,0,1,252.77,131Z"/><path class="cls-13" d="M253.34,122.05l-3.45.8a6.33,6.33,0,0,1-.87.15l-9.56,1a7.47,7.47,0,0,0-6.5,5.83l-.83,3.79a7.27,7.27,0,0,1-1.16,2.66l-.63.91a7.49,7.49,0,0,0,1.24,9.91l.18.16a7.47,7.47,0,0,1,2.07,2.95l2.23,5.82a7.51,7.51,0,0,0,4.72,4.44l4.55,1.45a7.48,7.48,0,0,0,7.33-1.63l.12-.11a7.54,7.54,0,0,1,4.22-1.93l3.21-.36a7.48,7.48,0,0,0,6.22-5,7.29,7.29,0,0,0,.37-1.63,7.32,7.32,0,0,1,.55-2.1l2.72-6.43a7.47,7.47,0,0,0-2.3-8.82l-1.27-1a7.45,7.45,0,0,1-1.84-2.08l-3.21-5.38A7.48,7.48,0,0,0,253.34,122.05Zm5.39,14.4a10.13,10.13,0,1,1-6-5.48A10.08,10.08,0,0,1,258.73,136.45Z"/><circle class="cls-14" cx="249.39" cy="140.85" r="13.46"/><rect class="cls-15" x="240.82" y="156.79" width="0.83" height="2.17" rx="0.39" transform="translate(13.24 334.33) rotate(-70.94)"/><rect class="cls-16" x="243.94" y="156.77" width="0.83" height="2.17" rx="0.39" transform="translate(-38.7 90.69) rotate(-19.51)"/><rect class="cls-17" x="239.64" y="153.3" width="0.83" height="2.17" rx="0.39" transform="translate(111.6 409.27) rotate(-96)"/><rect class="cls-18" x="245.97" y="159.42" width="0.83" height="2.17" rx="0.39" transform="translate(-1.76 2.73) rotate(-0.63)"/><rect class="cls-19" x="246.21" y="155.7" width="0.83" height="2.17" rx="0.39" transform="translate(180.86 441.53) rotate(-109.44)"/><rect class="cls-16" x="236.58" y="151.76" width="0.83" height="2.17" rx="0.39" transform="translate(-33.63 73.54) rotate(-16.49)"/><rect class="cls-18" x="248.15" y="127.2" width="0.83" height="2.17" rx="0.39" transform="translate(-2.97 250.64) rotate(-53.24)"/><rect class="cls-19" x="245.34" y="124.75" width="0.83" height="2.17" rx="0.39" transform="translate(440.76 321.3) rotate(-162.05)"/><rect class="cls-17" x="236.36" y="130.01" width="0.83" height="2.17" rx="0.39" transform="translate(29.82 305.49) rotate(-69.09)"/><rect class="cls-18" x="257.05" y="150.81" width="0.83" height="2.17" rx="0.39" transform="translate(406.51 -107.23) rotate(89.37)"/><rect class="cls-19" x="262.02" y="152.77" width="0.83" height="2.17" rx="0.39" transform="translate(-36.25 96.13) rotate(-19.44)"/><rect class="cls-16" x="264.71" y="141.42" width="0.83" height="2.17" rx="0.39" transform="translate(326.53 -152.16) rotate(73.51)"/><rect class="cls-15" x="257.67" y="129.98" width="0.83" height="2.17" rx="0.39" transform="translate(31.06 310.64) rotate(-65.27)"/><rect class="cls-18" x="237.15" y="146.63" width="0.83" height="2.17" rx="0.39" transform="translate(-42.14 143.36) rotate(-30.98)"/><rect class="cls-19" x="233.26" y="142.27" width="0.83" height="2.17" rx="0.39" transform="translate(319.58 403.68) rotate(-139.79)"/><rect class="cls-15" x="244.9" y="152.8" width="0.83" height="2.17" rx="0.39" transform="translate(-39.04 208.7) rotate(-43.01)"/><rect class="cls-17" x="256.84" y="126.4" width="0.83" height="2.17" rx="0.39" transform="translate(131.23 385.46) rotate(-90.32)"/><rect class="cls-16" x="253.95" y="124.56" width="0.83" height="2.17" rx="0.39" transform="translate(-19.05 49.95) rotate(-10.81)"/><rect class="cls-18" x="252.72" y="155.96" width="0.83" height="2.17" rx="0.39" transform="translate(74.36 395.33) rotate(-84.94)"/><rect class="cls-19" x="249.04" y="155.36" width="0.83" height="2.17" rx="0.39" transform="translate(528.94 249.13) rotate(166.25)"/><rect class="cls-17" x="261.66" y="133.04" width="0.83" height="2.17" rx="0.39" transform="translate(32.44 318.36) rotate(-65.84)"/><rect class="cls-16" x="259.79" y="130.16" width="0.83" height="2.17" rx="0.39" transform="translate(38.39 -57.78) rotate(13.67)"/><rect class="cls-15" x="266.46" y="135.25" width="0.83" height="2.17" rx="0.39" transform="translate(-23.64 62.8) rotate(-12.86)"/><rect class="cls-19" x="268.75" y="139.53" width="0.83" height="2.17" rx="0.39" transform="translate(487.65 351.55) rotate(-163.59)"/><rect class="cls-17" x="260.92" y="150.58" width="0.83" height="2.17" rx="0.39" transform="matrix(-0.53, -0.85, 0.85, -0.53, 271.33, 453.65)"/><rect class="cls-18" x="233.91" y="135.02" width="0.83" height="2.17" rx="0.39" transform="translate(304.43 397.87) rotate(-135.14)"/><rect class="cls-16" x="235.03" y="147.09" width="0.83" height="2.17" rx="0.39" transform="translate(369.52 391.92) rotate(-151)"/><rect class="cls-17" x="231.31" y="137.9" width="0.83" height="2.17" rx="0.39" transform="translate(38.73 -50.13) rotate(13.46)"/><rect class="cls-16" x="253.62" y="152.13" width="0.83" height="2.17" rx="0.39" transform="translate(-36.76 211.94) rotate(-42.51)"/><rect class="cls-18" x="242.16" y="124.54" width="0.83" height="2.17" rx="0.39" transform="translate(365.52 -118.32) rotate(89.37)"/><rect class="cls-18" x="241.19" y="129.17" width="0.83" height="2.17" rx="0.39" transform="translate(90.53 359.42) rotate(-84.94)"/><rect class="cls-19" x="235.9" y="127.32" width="0.83" height="2.17" rx="0.39" transform="translate(496.37 196.97) rotate(166.25)"/><rect class="cls-16" x="238.73" y="125.86" width="0.83" height="2.17" rx="0.39" transform="translate(-22.92 194.97) rotate(-42.51)"/><rect class="cls-15" x="235.69" y="141.25" width="0.83" height="2.17" rx="0.39" transform="translate(-37.51 108.6) rotate(-24.05)"/><rect class="cls-17" x="236.66" y="135.81" width="0.83" height="2.17" rx="0.39" transform="translate(-21.6 226.5) rotate(-49.11)"/><rect class="cls-16" x="235.7" y="132.52" width="0.83" height="2.17" rx="0.39" transform="translate(100.08 -101.12) rotate(30.4)"/><rect class="cls-17" x="265.06" y="147.41" width="0.83" height="2.17" rx="0.39" transform="translate(32.02 343.49) rotate(-69.09)"/><rect class="cls-19" x="264.6" y="144.72" width="0.83" height="2.17" rx="0.39" transform="translate(557.08 224.45) rotate(166.25)"/><rect class="cls-16" x="267.43" y="143.26" width="0.83" height="2.17" rx="0.39" transform="translate(-27.14 218.94) rotate(-42.51)"/><rect class="cls-16" x="264.4" y="149.92" width="0.83" height="2.17" rx="0.39" transform="translate(112.83 -113.25) rotate(30.4)"/><rect class="cls-20" x="99.74" y="270.98" width="55.18" height="127.69"/><rect class="cls-21" x="154.92" y="270.98" width="99.78" height="127.68"/><rect class="cls-2" x="194.65" y="270.98" width="25.12" height="39.42"/><path class="cls-18" d="M219.5,154.82l-22.64,7a1.59,1.59,0,0,1-2-1.05L182,118.9l25.68-7.9,12.88,41.83A1.6,1.6,0,0,1,219.5,154.82Z"/><polygon class="cls-22" points="182.69 119.27 208.38 113.25 207.52 110.46 182.69 119.27"/><rect class="cls-23" x="179.07" y="109.53" width="29.68" height="6.72" rx="1.57" transform="translate(-24.63 62.03) rotate(-17.1)"/><rect class="cls-24" x="179.56" y="114.17" width="29.68" height="0.56" transform="translate(-25.06 62.24) rotate(-17.1)"/><path class="cls-23" d="M179.23,114.46h30.86a1.09,1.09,0,0,1,1.09,1.09v.59a0,0,0,0,1,0,0h-33a0,0,0,0,1,0,0v-.59A1.09,1.09,0,0,1,179.23,114.46Z" transform="translate(-25.3 62.35) rotate(-17.1)"/><path class="cls-23" d="M193.64,124.51h21a0,0,0,0,1,0,0v21.84a0,0,0,0,1,0,0h-21a1.35,1.35,0,0,1-1.35-1.35V125.86a1.35,1.35,0,0,1,1.35-1.35Z" transform="matrix(0.96, -0.29, 0.29, 0.96, -30.83, 65.84)"/><rect class="cls-25" x="192.41" y="127.8" width="16.8" height="1.68" rx="0.8" transform="translate(-28.95 64.75) rotate(-17.1)"/><rect class="cls-25" x="193.89" y="133.18" width="16.8" height="0.56" rx="0.27" transform="translate(-30.3 65.4) rotate(-17.1)"/><rect class="cls-25" x="194.88" y="136.39" width="16.8" height="0.56" rx="0.27" transform="translate(-31.2 65.83) rotate(-17.1)"/><rect class="cls-25" x="194.49" y="135.44" width="12.32" height="0.56" rx="0.27" transform="translate(-31.04 65.02) rotate(-17.1)"/><rect class="cls-25" x="195.47" y="138.65" width="12.32" height="0.56" rx="0.27" transform="translate(-31.94 65.45) rotate(-17.1)"/><rect class="cls-25" x="196.03" y="140.67" width="9.52" height="0.56" rx="0.27" transform="translate(-32.57 65.29) rotate(-17.1)"/><rect class="cls-26" x="190.26" y="120.12" width="0.56" height="39.76" rx="0.27" transform="translate(-32.75 62.23) rotate(-17.1)"/><rect class="cls-26" x="180.54" y="114.08" width="0.56" height="3.92" transform="translate(-26.13 58.32) rotate(-17.1)"/><g class="cls-27"><rect class="cls-9" x="208.91" y="135.48" width="18.47" height="41.92"/><path class="cls-9" d="M218.2,147a.54.54,0,0,0-1,0c-.62,1.25-1.76,3.51-2.85,5.62-1.67,3.21.36,5.68,1.8,6,1.27.31,5.22.7,4.92-4.23a9.68,9.68,0,0,0-1-3.68Z"/></g><path class="cls-28" d="M218.94,116.34h11.29a3.84,3.84,0,0,1,3.84,3.84v.2a0,0,0,0,1,0,0h-19a0,0,0,0,1,0,0v-.2a3.84,3.84,0,0,1,3.84-3.84Z"/><polygon class="cls-29" points="234.07 120.39 243.13 133.61 243.13 148.86 205.28 148.86 205.28 134.72 215.1 120.39 234.07 120.39"/><polygon class="cls-16" points="223.74 177.44 243.18 177.49 223.74 177.49 223.74 177.44"/><path class="cls-16" d="M243.18,133.61V159.5L238,162.4a8.34,8.34,0,0,1-7.94.1l-1.86-1a8.44,8.44,0,0,0-4.41-.93V135.48l10.34-15.09Z"/><rect class="cls-30" x="205.27" y="135.48" width="18.47" height="41.92"/><path class="cls-6" d="M214.56,147a.54.54,0,0,0-1,0c-.62,1.25-1.76,3.51-2.85,5.62-1.67,3.21.36,5.68,1.8,6,1.26.31,5.22.7,4.92-4.23a9.52,9.52,0,0,0-1-3.68Z"/><path class="cls-30" d="M243.18,159.5v18l-19.44-.05V160.6a8.44,8.44,0,0,1,4.41.93l1.86,1a8.34,8.34,0,0,0,7.94-.1Z"/><path class="cls-29" d="M223.74,160.6v16.84l-18.47-.05,0-16.08,4.5,2.25a8.4,8.4,0,0,0,8.69-.72l.89-.65A8.39,8.39,0,0,1,223.74,160.6Z"/><rect class="cls-31" x="160.56" y="143.29" width="55.18" height="127.69"/><rect class="cls-2" x="215.74" y="143.29" width="99.78" height="127.68"/><rect class="cls-20" x="242.11" y="270.98" width="55.19" height="127.68"/><rect class="cls-21" x="297.3" y="270.98" width="99.78" height="127.68"/><rect class="cls-2" x="337.02" y="270.98" width="25.12" height="39.42"/><path class="cls-32" d="M154.9,271c.17,5.32.24,10.64.36,16l.21,16c.13,10.64.15,21.28.17,31.92s0,21.28-.17,31.92l-.21,16c-.12,5.32-.19,10.64-.36,16-.17-5.32-.24-10.64-.36-16l-.21-16c-.13-10.64-.15-21.28-.17-31.92s0-21.28.17-31.92l.21-16C154.66,281.66,154.73,276.34,154.9,271Z"/><path class="cls-33" d="M215.74,141.93c.16,5.32.24,10.64.36,16l.2,16c.14,10.64.16,21.28.18,31.92s0,21.28-.17,31.92l-.21,16c-.12,5.32-.2,10.64-.36,16-.17-5.32-.24-10.64-.37-16l-.2-16c-.14-10.64-.16-21.28-.17-31.92s0-21.28.17-31.92l.21-16C215.5,152.57,215.57,147.25,215.74,141.93Z"/><path class="cls-33" d="M161.3,141.93c.16,5.32.24,10.64.36,16l.21,16c.13,10.64.15,21.28.17,31.92s0,21.28-.17,31.92l-.21,16c-.12,5.32-.19,10.64-.36,16-.17-5.32-.24-10.64-.37-16l-.2-16c-.14-10.64-.16-21.28-.17-31.92s0-21.28.17-31.92l.21-16C161.06,152.57,161.13,147.25,161.3,141.93Z"/><path class="cls-33" d="M314.82,141.93c.17,5.32.24,10.64.36,16l.21,16c.13,10.64.15,21.28.17,31.92s0,21.28-.17,31.92l-.21,16c-.12,5.32-.19,10.64-.36,16-.17-5.32-.24-10.64-.36-16l-.21-16c-.13-10.64-.15-21.28-.17-31.92s0-21.28.17-31.92l.21-16C314.58,152.57,314.65,147.25,314.82,141.93Z"/><path class="cls-32" d="M297.7,271c.16,5.32.24,10.64.36,16l.2,16c.14,10.64.16,21.28.18,31.92s0,21.28-.17,31.92l-.21,16c-.12,5.32-.2,10.64-.36,16-.17-5.32-.24-10.64-.37-16l-.2-16c-.14-10.64-.16-21.28-.17-31.92s0-21.28.17-31.92l.21-16C297.46,281.66,297.53,276.34,297.7,271Z"/><path class="cls-32" d="M396.49,271c.16,5.32.23,10.64.36,16l.2,16c.14,10.64.16,21.28.18,31.92s0,21.28-.17,31.92l-.21,16c-.12,5.32-.2,10.64-.36,16-.17-5.32-.24-10.64-.37-16l-.2-16c-.14-10.64-.16-21.28-.18-31.92s0-21.28.18-31.92l.2-16C396.25,281.66,396.32,276.34,396.49,271Z"/><path class="cls-32" d="M100.45,277.48c.16,5,.22,10.1.34,15.15l.2,15.16c.13,10.1.14,20.2.16,30.3s0,20.2-.16,30.3l-.2,15.16c-.11,5.05-.18,10.1-.34,15.15-.16-5.05-.23-10.1-.35-15.15l-.19-15.16c-.13-10.1-.15-20.2-.17-30.3s0-20.2.17-30.3l.19-15.16C100.22,287.58,100.29,282.53,100.45,277.48Z"/><g id="Iconly_Bulk_Profile" data-name="Iconly/Bulk/Profile"><g id="Profile"><ellipse id="Ellipse_744" data-name="Ellipse 744" class="cls-34" cx="267.6" cy="194.21" rx="17.84" ry="17.62"/><path id="Path_34198" data-name="Path 34198" class="cls-31" d="M296.11,229.48h0a4.7,4.7,0,0,0,0-.75,6.69,6.69,0,0,0-.78-2.67c-1.73-3.39-6.59-4.92-10.65-5.79a60.25,60.25,0,0,0-8.79-1.16l-3.1-.23h-10.4l-3.1.23a60.57,60.57,0,0,0-8.8,1.16c-4.05.75-8.91,2.32-10.65,5.79a6.84,6.84,0,0,0-.77,2.67,4.7,4.7,0,0,0,0,.75h0a4.7,4.7,0,0,0,0,.75,6.86,6.86,0,0,0,.8,2.64c1.74,3.39,6.6,4.92,10.66,5.79a68.21,68.21,0,0,0,8.79,1.16l3.1.2h10.4l3.1-.2a68.21,68.21,0,0,0,8.79-1.16c4.06-.78,8.92-2.32,10.66-5.79a7.76,7.76,0,0,0,.77-2.69C296.14,229.94,296.13,229.71,296.11,229.48Z"/></g></g><path class="cls-2" d="M215.74,143.29h-55l-22.18-26.07a.53.53,0,0,1-.06-.61.51.51,0,0,1,.39-.26.12.12,0,0,1,.08,0h53.21a1.4,1.4,0,0,1,.86.3,1.51,1.51,0,0,1,.23.21l.26.31Z"/><polygon class="cls-35" points="215.74 143.29 160.48 170.93 160.71 143.29 215.74 143.29"/><polygon class="cls-32" points="297.7 271.02 242.58 314.19 242.11 270.98 297.7 271.02"/><polygon class="cls-20" points="219.77 270.98 242.24 277.92 242.11 270.98 219.77 270.98"/><rect class="cls-2" x="349.11" y="288.19" width="0.95" height="110.47"/><rect class="cls-2" x="206.98" y="288.19" width="0.95" height="110.47"/></g></g></svg>