<svg id="Layer_1" data-name="Layer 1" xmlns="http://www.w3.org/2000/svg" viewBox="0 0 500 500"><defs><style>.cls-1{fill:#c91757;}.cls-2{fill:#ec1751;}.cls-3{fill:#eab839;}.cls-4{fill:#ffd2b5;opacity:0.47;}.cls-5{opacity:0.15;}.cls-6{fill:#ffca05;}.cls-7{fill:#fff;}</style></defs><title>Batch of 4</title><rect class="cls-1" x="86.26" y="103.51" width="127.55" height="295.15"/><rect class="cls-2" x="213.81" y="103.51" width="230.64" height="295.15"/><rect class="cls-3" x="305.63" y="103.51" width="58.06" height="91.13"/><path class="cls-4" d="M442.75,105.65c.38,12.21.55,24.42.83,36.63l.47,36.62c.31,24.42.35,48.84.4,73.26s-.09,48.83-.39,73.25L443.58,362c-.28,12.21-.45,24.41-.83,36.62-.39-12.21-.55-24.41-.84-36.62l-.47-36.63c-.31-24.42-.35-48.84-.39-73.25s.08-48.84.39-73.26l.48-36.62C442.2,130.07,442.36,117.86,442.75,105.65Z"/><path class="cls-5" d="M444.44,103.68V139a33.59,33.59,0,0,1-38.69-33.16c0-.72,0-1.44.07-2.15Z"/><circle class="cls-6" cx="441.69" cy="103.68" r="33.56"/><rect class="cls-7" x="437.59" y="84.96" width="8.21" height="39.34" rx="4.1"/><rect class="cls-7" x="437.59" y="84.96" width="8.21" height="39.34" rx="4.1" transform="translate(546.32 -337.06) rotate(90)"/><path class="cls-4" d="M213.81,105.65c.38,12.21.55,24.42.83,36.63l.47,36.62c.31,24.42.36,48.84.4,73.26s-.09,48.83-.39,73.25L214.64,362c-.28,12.21-.45,24.41-.83,36.62-.39-12.21-.55-24.41-.84-36.62l-.47-36.63c-.31-24.42-.35-48.84-.39-73.25s.08-48.84.4-73.26l.47-36.62C213.26,130.07,213.42,117.86,213.81,105.65Z"/><path class="cls-4" d="M88,105.65c.38,12.21.54,24.42.82,36.63l.48,36.62c.31,24.42.35,48.84.4,73.26s-.09,48.83-.4,73.25L88.79,362c-.28,12.21-.45,24.41-.83,36.62-.39-12.21-.56-24.41-.84-36.62l-.47-36.63c-.31-24.42-.36-48.84-.39-73.25s.08-48.84.39-73.26l.48-36.62C87.41,130.07,87.57,117.86,88,105.65Z"/><rect class="cls-3" x="333.83" y="190.81" width="1.67" height="207.85"/></svg>