<?xml version="1.0" encoding="UTF-8"?>
<svg width="467px" height="293px" viewBox="0 0 467 293" version="1.1" xmlns="http://www.w3.org/2000/svg" xmlns:xlink="http://www.w3.org/1999/xlink">
    <title>request-delivery-1</title>
    <g id="Page-1" stroke="none" stroke-width="1" fill="none" fill-rule="evenodd">
        <g id="request-delivery-1" fill-rule="nonzero">
            <path d="M351.7,214.2 C371.433134,214.2 387.43,230.196866 387.43,249.93 C387.43,269.663134 371.433134,285.66 351.7,285.66 L341.8,285.66 L341.8,214.2 L351.7,214.2 Z" id="Path" fill="#0F222C"></path>
            <path d="M306.07,249.93 C306.07,230.196866 322.066866,214.2 341.8,214.2 C361.533134,214.2 377.53,230.196866 377.53,249.93 C377.53,269.663134 361.533134,285.66 341.8,285.66 C332.323815,285.66 323.23575,281.8956 316.535075,275.194925 C309.8344,268.49425 306.07,259.406185 306.07,249.93 Z" id="Path" fill="#0F222C"></path>
            <rect id="Rectangle" fill="#C91757" x="192.15" y="28.36" width="88.8" height="205.48"></rect>
            <rect id="Rectangle" fill="#EC1751" x="280.95" y="28.36" width="160.57" height="205.48"></rect>
            <rect id="Rectangle" fill="#EAB839" x="344.87" y="28.36" width="40.42" height="63.44"></rect>
            <rect id="Rectangle" fill="#EAB839" x="364.5" y="89.14" width="1.16" height="144.7"></rect>
            <path d="M83.48,220.87 C103.213134,220.87 119.21,236.866866 119.21,256.6 C119.21,276.333134 103.213134,292.33 83.48,292.33 L73.57,292.33 L73.57,220.87 L83.48,220.87 Z" id="Path" fill="#0F222C"></path>
            <path d="M270,220.87 C289.733134,220.87 305.73,236.866866 305.73,256.6 C305.73,276.333134 289.733134,292.33 270,292.33 L260.09,292.33 L260.09,220.87 L270,220.87 Z" id="Path" fill="#0F222C"></path>
            <path d="M83.48,220.87 C103.213134,220.87 119.21,236.866866 119.21,256.6 C119.21,276.333134 103.213134,292.33 83.48,292.33 L73.57,292.33 L73.57,220.87 L83.48,220.87 Z" id="Path" fill="#0F222C"></path>
            <path d="M115.33,249.93 C115.33,230.196866 131.326866,214.2 151.06,214.2 C170.793134,214.2 186.79,230.196866 186.79,249.93 C186.79,269.663134 170.793134,285.66 151.06,285.66 C141.583815,285.66 132.49575,281.8956 125.795075,275.194925 C119.0944,268.49425 115.33,259.406185 115.33,249.93 L115.33,249.93 Z" id="Path" fill="#0F222C"></path>
            <path d="M0.39,232.86 L326.33,232.86 C330.223607,232.86 333.38,236.016393 333.38,239.91 L333.38,249.55 C333.38,253.443607 330.223607,256.6 326.33,256.6 L0.39,256.6 L0.39,232.86 Z" id="Path" fill="#1D4259" transform="translate(166.885000, 244.730000) rotate(180.000000) translate(-166.885000, -244.730000) "></path>
            <path d="M7.44,232.85 L186.79,232.85 L186.79,86.2599994 L96.92,86.2599994 C79.373508,86.2573036 62.9715167,94.9698075 53.15,109.51 L16.49,163.77 C10.6080675,172.508493 7.47379054,182.806334 7.49,193.34 L7.44,232.85 Z" id="Path" fill="#C91757"></path>
            <path d="M143.74,173 L143.74,102.759998 L96.92,102.759998 C84.8502266,102.755967 73.5682968,108.753006 66.82,118.759998 L30.16,173 L143.74,173 Z" id="Path" fill="#F2F2F2"></path>
            <rect id="Rectangle" fill="#EC1751" transform="translate(179.260000, 159.565000) rotate(180.000000) translate(-179.260000, -159.565000) " x="165.19" y="86.27" width="28.14" height="146.59"></rect>
            <path d="M258.43,214.199981 C281.846873,214.199981 300.83,233.183127 300.83,256.6 L215.999999,256.6 C215.997341,245.348807 220.467736,234.558108 228.426345,226.605126 C236.384953,218.652145 247.178811,214.189383 258.43,214.199981 L258.43,214.199981 Z" id="Path" fill="#0F222C"></path>
            <path d="M71.92,214.2 C95.3368734,214.2 114.32,233.183127 114.32,256.6 L29.5299988,256.6 C29.5273474,245.35574 33.9922529,234.571109 41.9422075,226.619279 C49.8921621,218.667449 60.6757402,214.2 71.92,214.2 L71.92,214.2 Z" id="Path" fill="#0F222C"></path>
            <path d="M224.36,256.6 C224.36,242.147654 233.066418,229.118567 246.419032,223.588829 C259.771645,218.05909 275.14054,221.11783 285.358461,231.338612 C295.576382,241.559394 298.630821,256.929144 293.097345,270.28021 C287.563869,283.631275 274.532345,292.334045 260.08,292.330001 C240.350771,292.324478 224.36,276.32923 224.36,256.6 L224.36,256.6 Z" id="Path" fill="#222846"></path>
            <circle id="Oval" fill="#EAB839" transform="translate(260.091789, 256.624600) rotate(-80.810000) translate(-260.091789, -256.624600) " cx="260.091789" cy="256.6246" r="17.58"></circle>
            <circle id="Oval" fill="#222846" cx="73.57" cy="256.6" r="35.73"></circle>
            <circle id="Oval" fill="#EAB839" transform="translate(73.574482, 256.620586) rotate(-80.810000) translate(-73.574482, -256.620586) " cx="73.5744824" cy="256.620586" r="17.58"></circle>
            <path d="M120.7,178.88 L143.7,178.88 L143.7,182.09 C143.7,183.27817 143.228001,184.417675 142.387838,185.257838 C141.547675,186.098001 140.40817,186.57 139.22,186.57 L125.17,186.57 C122.695764,186.57 120.69,184.564236 120.69,182.09 L120.69,178.89 L120.7,178.88 Z" id="Path" fill="#CE3836"></path>
            <path d="M120.7,178.88 L143.7,178.88 L143.7,180.18 C143.7,182.654236 141.694236,184.66 139.22,184.66 L125.17,184.66 C122.695764,184.66 120.69,182.654236 120.69,180.18 L120.69,178.88 L120.7,178.88 Z" id="Path" fill="#222846"></path>
            <path d="M21.36,214.2 C21.36,206.512196 15.1278037,200.28 7.44,200.28 L7.44,228.12 C15.1278037,228.12 21.36,221.887804 21.36,214.2 L21.36,214.2 Z" id="Path" fill="#F2F2F2"></path>
            <rect id="Rectangle" fill="#1B3241" x="326.33" y="232.85" width="124.04" height="23.74" rx="7.05"></rect>
            <path d="M346.079998,244.73 C346.079862,241.975115 343.85137,239.739368 341.0965,239.730249 C338.341631,239.721186 336.098431,241.942176 336.080111,244.697 C336.06179,247.451823 338.275253,249.702451 341.03,249.73 C342.364724,249.743348 343.649377,249.222462 344.597901,248.28333 C345.546425,247.344197 346.079998,246.064791 346.079998,244.73 L346.079998,244.73 Z" id="Path" fill="#F2F2F2"></path>
            <path d="M430.62,244.73 C430.647622,247.478211 432.888165,249.688927 435.636499,249.679747 C438.384832,249.670512 440.610512,247.444832 440.619747,244.696499 C440.628927,241.948165 438.418211,239.707622 435.67,239.68 C434.326563,239.666497 433.034215,240.194212 432.084214,241.144214 C431.134212,242.094215 430.606497,243.386563 430.62,244.73 Z" id="Path" fill="#F2F2F2"></path>
            <path d="M440.92,28.61 L440.92,58.45 C425.428528,60.8298788 410.94076,50.2013371 408.56,34.71 C408.340639,33.2938798 408.23,31.8630092 408.23,30.43 C408.23,29.82 408.23,29.22 408.29,28.62 L440.92,28.61 Z" id="Path" fill="#000000" opacity="0.15"></path>
            <circle id="Oval" fill="#FFCA05" cx="438.6" cy="28.61" r="28.36"></circle>
            <rect id="Rectangle" fill="#FFFFFF" x="435.13" y="12.79" width="6.94" height="33.24" rx="3.46"></rect>
            <rect id="Rectangle" fill="#FFFFFF" x="421.98" y="25.95" width="33.24" height="6.94" rx="3.46"></rect>
        </g>
    </g>
</svg>