<?xml version="1.0" encoding="utf-8"?>
<!-- Generator: Adobe Illustrator 24.1.0, SVG Export Plug-In . SVG Version: 6.00 Build 0)  -->
<svg version="1.1" id="Layer_1" 
	xmlns="http://www.w3.org/2000/svg" 
	xmlns:xlink="http://www.w3.org/1999/xlink" x="0px" y="0px" viewBox="0 0 24 24" style="enable-background:new 0 0 24 24;" xml:space="preserve">
	<style type="text/css">
	.st0{fill:rgba(237, 47, 89, 0.8);}
	.st1{fill:rgba(237, 47, 89, 0.4)}
	</style>
	<path class="st0" d="M17,20H7c-0.55228,0-1-0.44772-1-1s0.44772-1,1-1h10c0.55228,0,1,0.44772,1,1S17.55228,20,17,20z"/>
	<path class="st1" d="M18,16H6c-1.65611-0.00181-2.99819-1.34389-3-3V7c0.00181-1.65611,1.34389-2.99819,3-3h12
	c1.65611,0.00181,2.99819,1.34389,3,3v6C20.99819,14.65611,19.65611,15.99819,18,16z"/>
	<path class="st0" d="M11,16v3c0,0.00018,0,0.00037,0,0.00055c0.00012,0.55212,0.44788,0.99957,1,0.99945
	c0.00018,0,0.00037,0,0.00055,0c0.55212-0.00012,0.99957-0.44788,0.99945-1v-3H11z"/>
	<!-- <path class="st0" d="M21,22c-0.26527,0.0003-0.51971-0.10515-0.707-0.293l-18-18C1.90605,3.31302,1.91175,2.67995,2.30573,2.293
	c0.38897-0.38203,1.0123-0.38203,1.40127,0l18,18c0.39046,0.39058,0.39037,1.02375-0.00021,1.41421
	C21.51931,21.89463,21.26509,21.99994,21,22z"/> -->
</svg>
