<?xml version="1.0" encoding="utf-8"?>
<!-- Generator: Adobe Illustrator 24.0.1, SVG Export Plug-In . SVG Version: 6.00 Build 0)  -->
<svg version="1.1" id="Layer_1" xmlns="http://www.w3.org/2000/svg" xmlns:xlink="http://www.w3.org/1999/xlink" x="0px" y="0px"
	 viewBox="0 0 500 500" style="enable-background:new 0 0 500 500;" xml:space="preserve">
<style type="text/css">
	.st0{fill:#C51C2B;}
	.st1{opacity:0.55;fill:#831C2B;enable-background:new    ;}
	.st2{opacity:0.32;}
	.st3{opacity:0.55;fill:#C51C2B;enable-background:new    ;}
	.st4{opacity:0.32;fill:#C51C2B;enable-background:new    ;}
	.st5{opacity:0.32;fill:#751C2B;enable-background:new    ;}
	.st6{opacity:0.32;fill:#7E1344;enable-background:new    ;}
	.st7{opacity:0.55;}
	.st8{fill:#831C2B;}
</style>
<title>Toni</title>
<g>
	<g id="Layer_2_1_">
		<polygon class="st0" points="274.3,234.8 200.3,234.8 198.5,199.3 276.1,199.3 		"/>
		<polygon class="st1" points="274.3,234.8 200.3,234.8 198.5,199.3 276.1,199.3 		"/>
		<g class="st2">
			<path class="st0" d="M203,207.4c0,0-1.9,13.3,1,23.3C204,230.6,207,214.9,203,207.4z"/>
			<path class="st0" d="M210.1,230.6c0,0,2.1-13-0.9-23.3C209.2,207.4,206.1,223.4,210.1,230.6z"/>
			<path class="st0" d="M213.5,207.4c0,0-2.1,13.3,0.7,23.3C214.2,230.6,217.4,214.9,213.5,207.4z"/>
			<path class="st0" d="M220.3,230.6c0,0,2.2-13-0.5-23.3C219.7,207.4,216.4,223.4,220.3,230.6z"/>
			<path class="st0" d="M224,207.4c0,0-2.3,13.3,0.4,23.3C224.4,230.6,227.8,214.9,224,207.4z"/>
			<path class="st0" d="M230.4,230.6c0,0,2.4-13-0.2-23.3C230.2,207.4,226.7,223.4,230.4,230.6z"/>
			<path class="st0" d="M234.5,207.4c0,0-2.5,13.3,0.1,23.3C234.6,230.6,238.2,214.9,234.5,207.4z"/>
			<path class="st0" d="M240.6,230.6c0,0,2.6-13,0.1-23.3C240.8,207.4,237,223.4,240.6,230.6z"/>
			<path class="st0" d="M245,207.4c0,0-2.7,13.3-0.2,23.3C244.8,230.6,248.6,214.9,245,207.4z"/>
			<path class="st0" d="M250.8,230.6c0,0,2.8-13,0.4-23.3C251.3,207.4,247.3,223.4,250.8,230.6z"/>
			<path class="st0" d="M255.5,207.4c0,0-2.8,13.3-0.6,23.3C255,230.6,259,214.9,255.5,207.4z"/>
			<path class="st0" d="M261,230.6c0,0,3-13,0.8-23.3C261.8,207.4,257.6,223.4,261,230.6z"/>
			<path class="st0" d="M266,207.4c0,0-3,13.3-0.9,23.3C265.2,230.6,269.5,214.9,266,207.4z"/>
			<path class="st0" d="M271.2,230.6c0,0,3.1-13,1.1-23.3C272.3,207.4,267.9,223.4,271.2,230.6z"/>
		</g>
		<path class="st0" d="M276.8,135.6h-8.6c-4.2,4.6-22.8,18.9-29,23.6c-1.2,0.9-2.8,0.9-4,0c-6.2-4.7-24.8-19.1-29-23.6h-8.6
			c0,0-15.6,32.2-15.4,39.8s12.7,28.7,22,28.7h66c9.3,0,21.7-21.1,21.9-28.7S276.8,135.6,276.8,135.6z"/>
		<path class="st3" d="M235.1,163.6c1.2,1.1,3.2,1.1,4.4,0c6.4-5.8,24.8-22.5,30.2-28.1h-1.5c-4.2,4.6-22.8,18.9-29,23.6
			c-1.2,0.9-2.8,0.9-4,0c-6.2-4.7-24.8-19.1-29-23.6h-1.5C210.3,141.2,228.7,157.9,235.1,163.6z"/>
		<path class="st1" d="M210.7,204c14.2-5.9,23.3-4.7,38.2-3.4c5.2,0.6,10.3,1.7,15.3,3.4h6.1c9.3,0,21.7-21.1,21.9-28.7
			s-15.4-39.8-15.4-39.8h-3.7c1,2.3,7.9,19,8.2,20.6c5.2,12.3,5.9,24.2-7.1,31.9c-11.1,6.5-26.9,0.4-34.5-9c-1.1-1.3-2.1-2.7-3-4.1
			c-5.7,9.4-14.8,16.4-26.8,16.3c-15.2-0.2-26-13.8-20.5-28.8c3.5-9.2,7.4-18.2,11.8-27h-3.4c0,0-15.6,32.2-15.4,39.8
			S195,204,204.3,204H210.7z"/>
		<path class="st0" d="M286.2,93.6l-18.7,42.8c0,0,5.1,4.8,11.9,4.6c0,0,24.8-28.5,24-30.5S286.9,91.9,286.2,93.6z"/>
		<path class="st0" d="M188,93.6l18.7,42.8c0,0-5.1,4.8-11.9,4.6c0,0-24.7-32.5-24-34.6S187.2,91.9,188,93.6z"/>
		<path class="st1" d="M281.7,128.6c-3.9,4.4-8.6,5.5-12.8,4.5l-1.4,3.2c0,0,5.1,4.8,11.9,4.6c0,0,24.8-28.5,24-30.5
			c-0.3-0.8-3-4-6.1-7.3C292.8,112.3,288.5,120.9,281.7,128.6z"/>
		<path class="st1" d="M205.9,134.6c-0.4-0.1-0.8-0.1-1.2-0.2c-7.1-1.8-13.3-6.3-17.1-12.6c-4.1-6.8-8.3-13.6-10.8-21
			c-3.1,2.5-5.7,4.9-6,5.8c-0.8,2.1,24,34.6,24,34.6c3.6,0,7.1-1.1,10-3.1c0.7-0.5,1.4-1,2-1.5L205.9,134.6z"/>
		<path class="st0" d="M301.5,275c-18.1-41.5-27-41.9-27-41.9h-74.4c0,0-8.9,0.4-27,41.9s-42.7,90.2-42.7,90.2s14.5,14.5,29.8,12.8
			s2.8,3,12.8,5s25.9,6.7,36.5-2.7s-3,8.2,27.7,8.2s17.1-17.5,27.7-8.2s26.4,4.7,36.5,2.7s-2.5-6.8,12.8-5s29.8-12.7,29.8-12.7
			S319.6,316.6,301.5,275z"/>
		<path class="st4" d="M197.2,242.1c10.9-6.7,22.2-6.7,39.2-5.6c14.4,0.9,28.5-1.8,41.3,5.3c12.3,6.8,14.8,25.4,24.4,34.4
			c-0.2-0.4-0.4-0.8-0.5-1.2c-18.1-41.5-27-41.9-27-41.9h-74.4c0,0-8.4,0.4-25.6,38.8C178.4,268.1,192.8,244.8,197.2,242.1z"/>
		<path class="st5" d="M324.5,325c-10.9,6-24.7,8-35.7,3.6c-6.6,3.6-14.3,4.9-21.7,3.6c-3-0.5-6-1.3-8.9-2.3
			c-11.9,6.2-29.2,6.7-40.9,0.1c-8.9,3.8-18.2,5.1-27.9-0.4c-3.4-1.9-6.7-4.2-9.6-6.8c-7.1,4.4-14.9,6.8-24.1,5.9
			c-2.3-0.2-4.5-0.6-6.8-1.1c-10.3,21.5-18.4,37.6-18.4,37.6s14.5,14.5,29.8,12.7s2.8,3,12.8,5s25.9,6.7,36.5-2.7s-3,8.2,27.7,8.2
			s17.1-17.5,27.7-8.2s26.4,4.7,36.5,2.7s-2.5-6.8,12.8-5s29.8-12.7,29.8-12.7S335.4,347.9,324.5,325z"/>
		<path class="st6" d="M298.1,333.4c-4.4-13.4-7.5-30.6-15.1-42.5c-1.6-2.5-2.9-4.5-4.1-6.3c0,0.2,0,0.4,0.1,0.7
			c0.5,10.6,4.6,18.6,8.6,28.2c3.2,7.6,3.8,15.5,5.6,23.4c3.4,15.2,7.9,30.2,10.1,45.7c6.6-2.2-3.2-6.2,11-4.6
			c1.4,0.1,2.9,0.2,4.3,0.1C308.1,365.7,302.9,348.2,298.1,333.4z"/>
		<path class="st6" d="M261.8,339.2c-1.6-12.6-6-24.4-7.3-37.1c-0.9-9-4.1-17-6.5-25.3h-0.2c-3.8,20.8,6.9,42.8,9.5,62.8
			c1.4,11-0.1,21.5-0.6,32.5c-0.2,3.8-0.1,7.6,0,11.4c4.5-4.3,1.6-9.1,8.3-3.2c2.6,2.3,5.8,3.9,9.1,4.8
			C266.6,371.2,263.5,352.7,261.8,339.2z"/>
		<path class="st6" d="M220.9,327.3c0.6-16,0-31.9-0.9-47.8c-0.2,0.3-0.3,0.6-0.5,0.9c-4.1,5.8-4.2,12.6-5.8,19.4
			c-2.9,12.2-2.2,25.1-2.9,37.6c-0.7,13.2-1,33.7-8.6,47.3c2.8-0.9,5.3-2.4,7.5-4.3c6.9-6.2,3.5-0.7,8.9,3.7
			C214.3,366,220.1,345.7,220.9,327.3z"/>
		<path class="st6" d="M171.6,359.5c3.9-6.2,2.6-13.4,3.5-20.4c0.7-5.4,2.5-10.2,3.1-15.6c1.6-14.2,8.3-29.3,16.6-42.5
			c-4.4,1.6-8.5,3.5-11.1,6.7c-6.5,7.8-7.4,17.8-9.6,27.4c-4.4,19.2-5.3,42.3-13.3,60.3c-0.4,0.9-0.9,1.8-1.4,2.7c0.3,0,0.6,0,0.8,0
			c12.8-1.5,6.3,1.6,9.5,3.8C167.1,374.5,167.1,366.8,171.6,359.5z"/>
		<path class="st1" d="M169.8,353.6c-2.3,12.1-5.1,19.6-7.8,24.2c12.1-1.1,2.1,3,10.4,5c-1.3-29.9,24.6-101.2,24.6-101.2
			C183.2,280.8,176.6,318.3,169.8,353.6z"/>
		<path class="st1" d="M219.9,279.3c0,0-6,26.7-6.3,51.1c-0.2,18.9-3.8,40.6-8.8,53.1c1.7-0.8,3.3-1.9,4.8-3.2
			c9.3-8.3-0.1,4.4,18.6,7.5c-5.3-6.3-7.8-14.5-7-22.8C223,347,225.2,284.4,219.9,279.3z"/>
		<path class="st1" d="M262,355.6c-1.8-23.2-8.3-43-9.6-54.6c-1-8.1-2.5-16.1-4.5-24c0,0-2.9,22.4,3.5,45.2
			c5.1,17.8,3.7,50.3-1.2,64.9c13.6-4.1,6.2-14.4,14.8-6.7c1.3,1.2,2.7,2.1,4.3,2.9C265.1,374.6,262.7,365.2,262,355.6z"/>
		<path class="st1" d="M295.2,335.8c-4-20.2-10.6-36.5-17.4-52.1c0,0-1.8,22.4,6.5,41.8c7.4,17.3,14.8,44.5,12.2,58.7
			c1.8-0.4,3.4-0.7,4.9-1c10.1-2-2.5-6.8,12.8-5c0.1,0,0.2,0,0.3,0C309.6,370.1,298.3,351.3,295.2,335.8z"/>
		<g class="st7">
			<path class="st8" d="M207.9,233.1h-0.8c-3.2,5.3-13.2,22.1-13.7,27.8C193.5,260.9,205.9,240.1,207.9,233.1z"/>
			<path class="st8" d="M215.1,233.1h-0.9c-3.6,6.4-6,13.4-7,20.7C207.1,253.8,214.1,239.2,215.1,233.1z"/>
			<path class="st8" d="M222,253.8c0,0,2.7-14.4,2.5-20.7h-0.5C223.1,237,221.3,246.9,222,253.8z"/>
			<path class="st8" d="M233.4,233l-0.1,0.1h0.1C233.4,233.1,233.4,233,233.4,233z"/>
			<path class="st8" d="M231.9,246.7c0,0,2.4-10,1.5-13.6h-0.1C231.5,237.4,231,242.1,231.9,246.7z"/>
			<path class="st8" d="M243.1,233v0.1h0.1C243.2,233.1,243.1,233,243.1,233z"/>
			<path class="st8" d="M244.5,252.2c0,0,1-15.8-1.3-19.1h-0.1C243,234.3,242.1,245.6,244.5,252.2z"/>
			<path class="st8" d="M254.5,233.1h-0.8c0.7,4.7,3.1,17.8,6.7,24C260.5,257.1,259,241.4,254.5,233.1z"/>
			<path class="st8" d="M266.2,233.1H265c1,5,4,16.7,11.1,24C276.1,257.1,270,240,266.2,233.1z"/>
		</g>
	</g>
</g>
</svg>
