<?xml version="1.0" encoding="utf-8"?>
<!-- Generator: Adobe Illustrator 24.0.1, SVG Export Plug-In . SVG Version: 6.00 Build 0)  -->
<svg version="1.1" id="Layer_1" xmlns="http://www.w3.org/2000/svg" xmlns:xlink="http://www.w3.org/1999/xlink" x="0px" y="0px"
	 viewBox="0 0 500 500" style="enable-background:new 0 0 500 500;" xml:space="preserve">
<style type="text/css">
	.st0{fill:#D87685;}
	.st1{fill:#FBEABF;}
	.st2{clip-path:url(#SVGID_2_);}
	.st3{fill:#FFF6E1;}
	.st4{fill:#A5818B;}
	.st5{fill:#FFB6BF;}
	.st6{fill:none;stroke:#FFFFFF;stroke-width:6.07;stroke-linecap:round;stroke-miterlimit:10;}
</style>
<title>Toni</title>
<g>
	<g id="Layer_1_1_">
		<path class="st0" d="M260.8,194.5h-30.4c-0.5,0-0.9-0.4-0.9-0.9V95.8c0-1.3,1.1-2.3,2.4-2.3c0.6,0,1.2,0.3,1.6,0.7l25.5,26.7
			c1.7,1.8,2.7,4.3,2.7,6.8v65.8C261.7,194,261.3,194.5,260.8,194.5C260.8,194.5,260.8,194.5,260.8,194.5z"/>
		<path class="st1" d="M269.2,244.4h-48.5V182c0-4.7,3.8-8.5,8.5-8.5h0h31.5c4.7,0,8.5,3.8,8.5,8.5V244.4z"/>
		<g>
			<defs>
				<path id="SVGID_1_" d="M269.2,244.4h-48.5V182c0-4.7,3.8-8.5,8.5-8.5h0h31.5c4.7,0,8.5,3.8,8.5,8.5V244.4z"/>
			</defs>
			<clipPath id="SVGID_2_">
				<use xlink:href="#SVGID_1_"  style="overflow:visible;"/>
			</clipPath>
			<g class="st2">
				<rect x="218.4" y="164" class="st3" width="14.5" height="92.3"/>
				<rect x="244.7" y="164" class="st3" width="9" height="92.3"/>
				<rect x="239.8" y="166.3" class="st3" width="2.3" height="86.5"/>
			</g>
		</g>
		<polygon class="st4" points="220.6,244.4 269.2,244.4 280.9,258.4 210,258.4 		"/>
		<path class="st5" d="M211.7,258.4h67.5c0.9,0,1.7,0.7,1.7,1.7v0v113.8c0,7.7-6.3,14-14,14H224c-7.7,0-14-6.3-14-14V260
			C210,259.1,210.7,258.3,211.7,258.4L211.7,258.4L211.7,258.4z"/>
		<path class="st6" d="M216.2,266.8v101.9c0,8.7,6.1,12.8,10.2,12.8"/>
		<line class="st6" x1="234" y1="105.3" x2="234" y2="164"/>
	</g>
</g>
</svg>
