<?xml version="1.0" encoding="utf-8"?>
<!-- Generator: Adobe Illustrator 24.0.1, SVG Export Plug-In . SVG Version: 6.00 Build 0)  -->
<svg version="1.1" id="Layer_1" xmlns="http://www.w3.org/2000/svg" xmlns:xlink="http://www.w3.org/1999/xlink" x="0px" y="0px"
	 viewBox="0 0 500 500" style="enable-background:new 0 0 500 500;" xml:space="preserve">
<style type="text/css">
	.st0{fill:#DDDDDD;}
	.st1{fill:#F84443;}
	.st2{fill:#6EA9FF;}
	.st3{fill:#1E0803;}
	.st4{fill:#F0F1F5;}
	.st5{fill:#F7A1A1;}
	.st6{fill:none;stroke:#FFFFFF;stroke-width:8.6;stroke-linecap:round;stroke-miterlimit:10;}
</style>
<title>Batch of 4</title>
<g>
	<g id="Layer_1_1_">
		<path class="st0" d="M185.4,380.2h122.1l0,0v8.8c0,4.1-3.3,7.4-7.4,7.4l0,0H192.8c-4.1,0-7.4-3.3-7.4-7.4l0,0L185.4,380.2
			L185.4,380.2z"/>
		<path class="st0" d="M192.8,103.6h107.4c4.1,0,7.4,3.3,7.4,7.4l0,0v8.8l0,0H185.4l0,0V111C185.4,106.9,188.7,103.6,192.8,103.6z"
			/>
		<path class="st1" d="M330.8,146.9v21.8c-14,39.6-53.8,96.3-162.6,146.1V146.9c0-15.8,12.7-28.5,28.5-28.5c0,0,0,0,0,0h105.6
			C318,118.4,330.8,131.1,330.8,146.9C330.8,146.9,330.8,146.9,330.8,146.9z"/>
		<path class="st2" d="M330.8,180v180c0,15.8-12.8,28.5-28.5,28.5H190.8c-15.8,0-28.5-12.8-28.5-28.5v-42.5c3-1.4,6-2.7,8.9-4v4.9
			C273,271.7,314.4,219,330.8,180z"/>
		<path class="st3" d="M330.8,168.7v11.7c-17.3,40.1-60.9,94.3-168.5,142.2v-5C274.8,266.7,316.1,209,330.8,168.7z"/>
		<path class="st0" d="M337.8,122.2l-0.4-3C337.5,119.5,337.6,120.5,337.8,122.2z"/>
		<circle class="st4" cx="247.4" cy="268.7" r="47.2"/>
		<path class="st5" d="M196.7,118.4c-15.8,0-28.5,12.7-28.5,28.5c0,0,0,0,0,0v167.9l-5.9,2.6V146.9c0-15.8,12.8-28.5,28.5-28.5
			c0,0,0,0,0,0H196.7z"/>
		<path class="st6" d="M201.4,348l16.5-8.8c5.8-3.1,12.7-3.4,18.7-0.8l4.3,1.9c6.4,2.8,13.8,2.3,19.8-1.4l2.4-1.5
			c6.5-3.9,14.6-4.2,21.4-0.6l14.9,7.9"/>
	</g>
</g>
</svg>
