<?xml version="1.0" encoding="utf-8"?>
<!-- Generator: Adobe Illustrator 24.0.1, SVG Export Plug-In . SVG Version: 6.00 Build 0)  -->
<svg version="1.1" id="Layer_1" xmlns="http://www.w3.org/2000/svg" xmlns:xlink="http://www.w3.org/1999/xlink" x="0px" y="0px"
	 viewBox="0 0 500 500" style="enable-background:new 0 0 500 500;" xml:space="preserve">
<style type="text/css">
	.st0{fill:#F69A45;}
	.st1{fill:#A5A9B2;}
	.st2{fill:#E6E7EB;}
	.st3{fill:#CCCCCC;}
</style>
<title>Toni</title>
<g>
	<g id="Layer_1_1_">
		<path class="st0" d="M318.3,387.9H181.4c-5.1,0-9.2-4.1-9.2-9.2l0,0V125.8h155.3v252.9C327.5,383.7,323.4,387.9,318.3,387.9
			C318.3,387.9,318.3,387.9,318.3,387.9z"/>
		<polygon class="st1" points="175.4,129 327.5,139.4 327.5,122.6 		"/>
		<path class="st2" d="M164.7,93.4h167.1c1.2,0,2.2,1,2.2,2.2V130c0,1.2-1,2.2-2.2,2.2H164.7c-1.2,0-2.2-1-2.2-2.2V95.7
			C162.5,94.4,163.5,93.4,164.7,93.4z"/>
		<rect x="162.5" y="120.7" class="st3" width="171.5" height="3.2"/>
		<path class="st2" d="M154.3,122.6h187.8c0.8,0,1.5,0.7,1.5,1.5v8.2l0,0H152.8l0,0v-8.2C152.8,123.2,153.5,122.6,154.3,122.6z"/>
		<path class="st2" d="M200,190.5h127.5l0,0v126.2l0,0H200c-1,0-1.9-0.9-1.9-1.9V192.4C198.1,191.4,199,190.5,200,190.5z"/>
		<path class="st1" d="M213.1,206.7H306c1.2,0,2.1,0.9,2.1,2.1v5.5c0,1.2-0.9,2.1-2.1,2.1h-92.9c-1.2,0-2.1-0.9-2.1-2.1v-5.5
			C211,207.6,212,206.7,213.1,206.7z"/>
		<path class="st1" d="M211.7,239h95.7c0.4,0,0.7,0.3,0.7,0.7v1.8c0,0.4-0.3,0.7-0.7,0.7h-95.7c-0.4,0-0.7-0.3-0.7-0.7v-1.8
			C211,239.3,211.4,239,211.7,239z"/>
		<path class="st1" d="M211.7,258.5h95.7c0.4,0,0.7,0.3,0.7,0.7v1.8c0,0.4-0.3,0.7-0.7,0.7h-95.7c-0.4,0-0.7-0.3-0.7-0.7v-1.8
			C211,258.8,211.4,258.5,211.7,258.5z"/>
		<path class="st1" d="M211.6,248.7h70c0.3,0,0.6,0.3,0.6,0.6v2c0,0.3-0.3,0.6-0.6,0.6h-70c-0.3,0-0.6-0.3-0.6-0.6v-2
			C211,249,211.3,248.7,211.6,248.7z"/>
		<path class="st1" d="M211.6,268.1h70c0.3,0,0.6,0.3,0.6,0.6v2c0,0.3-0.3,0.6-0.6,0.6h-70c-0.3,0-0.6-0.3-0.6-0.6v-2
			C211,268.4,211.3,268.1,211.6,268.1z"/>
		<path class="st1" d="M206.5,290.8h31c0.2,0,0.3,0.1,0.3,0.3v1.3c0,0.2-0.1,0.3-0.3,0.3h-31c-0.2,0-0.3-0.1-0.3-0.3v-1.3
			C206.2,290.9,206.4,290.8,206.5,290.8z"/>
		<path class="st2" d="M182.6,142h1.8c0.4,0,0.7,0.3,0.7,0.7V371c0,0.4-0.3,0.7-0.7,0.7h-1.8c-0.4,0-0.7-0.3-0.7-0.7V142.7
			C181.9,142.3,182.2,142,182.6,142z"/>
		<rect x="169" y="96.7" class="st2" width="3.2" height="22.7"/>
	</g>
</g>
</svg>
