<?xml version="1.0" encoding="utf-8"?>
<!-- Generator: Adobe Illustrator 24.0.1, SVG Export Plug-In . SVG Version: 6.00 Build 0)  -->
<svg version="1.1" id="Layer_1" xmlns="http://www.w3.org/2000/svg" xmlns:xlink="http://www.w3.org/1999/xlink" x="0px" y="0px"
	 viewBox="0 0 500 500" style="enable-background:new 0 0 500 500;" xml:space="preserve">
<style type="text/css">
	.st0{fill:#FBBB98;}
	.st1{fill:#F78F8F;}
	.st2{opacity:0.4;fill:#F4B5B5;enable-background:new    ;}
	.st3{fill:none;stroke:#FFD345;stroke-width:5.77;stroke-linecap:round;stroke-miterlimit:10;}
	.st4{opacity:0.47;fill:#D69F83;enable-background:new    ;}
	.st5{fill:#FFEAB3;}
</style>
<title>Food and Groceries</title>
<path class="st0" d="M231.7,123.4l0.2,10.4c-4,0.6-7.9,1.5-11.7,2.5c-24.1,7.1-39.5,40.7-36.8,63.8c3.7,40.8,2.9,81.9-2.5,122.5
	c-0.4,3-0.5,5.9-0.4,8.9c-1.2-6.1-1.5-12.3-0.8-18.5c5-40,5.2-80.4,0.6-120.5c-3.2-22.7,12.2-57.5,36.9-65.8
	C221.9,125.4,226.8,124.2,231.7,123.4z"/>
<path class="st0" d="M231.9,133.8c1.6,83.3,1.5,166.6-0.4,249.9c-5-0.9-9.9-2.1-14.8-3.7c-18.8-6-32.8-29.1-36.4-48.5
	c-0.1-3,0-6,0.4-8.9c5.4-40.6,6.3-81.7,2.5-122.5c-2.6-23.1,12.7-56.6,36.8-63.8C224,135.2,227.9,134.4,231.9,133.8z"/>
<path class="st0" d="M303.3,186.6c-5,44.3-4.7,89,0.7,133.2c3.8,25.5-11.1,60-36.3,64.4c-2.7,0.4-5.4,0.7-8.1,0.9
	c-4.2-87.7-4.3-175.3-0.3-263c2.7,0.2,5.3,0.5,8,0.9C292,127.2,306.8,161.1,303.3,186.6z"/>
<path class="st1" d="M248.1,400.4c-1.6-0.1-3.2-0.1-4.9-0.3c-6.8-0.5-12.1-8.2-11.8-16.1c2-89.3,2-178.6,0-267.9
	c-0.2-7.9,5.1-15.6,11.8-16.1c1.6-0.1,3.2-0.2,4.9-0.3c6.8-0.2,11.9,6.9,11.4,15c-4.3,90.2-4.3,180.5,0,270.7
	C260,393.4,254.9,400.6,248.1,400.4z"/>
<path class="st2" d="M245.6,397.2l-2.1-0.1c-2.9-0.2-5.2-3.4-5.2-6.8c0.5-92,0.5-183.9,0-275.9c0-3.4,2.3-6.6,5.1-6.8
	c0.7,0,1.4-0.1,2.1-0.1c2.9-0.2,5.1,2.7,5,6.2c-2.3,92.5-2.3,184.9,0.1,277.4C250.7,394.5,248.5,397.3,245.6,397.2z"/>
<path class="st3" d="M234,120.8c4.9,9.5,9.4,19.4,13.6,29.6c3,7.3,3.2,16.4,0.7,24.3s-4.8,15.6-7.1,23.5c-2.1,7.5-2,15.4,0.4,22.9
	c3,9,6,18,9,27.1c2.7,8.5,2.5,17.7-0.6,26.1c-2,4.9-3.9,9.9-5.9,14.8c-3.8,9.2-3.4,21.2,1.2,30.1l0,0c4.3,8.6,5.1,18.5,2.3,27.6
	c-4.2,12.7-8.6,25.2-13.6,37.1"/>
<path class="st4" d="M301.3,185.9c-4.8,44.7-4.6,89.9,0.7,134.6c3.7,25.8-11.3,60.2-36.6,64c-2.2,0.3-4.4,0.5-6.6,0.7
	c25.2-2.2,40.8-36,37.3-62.7c-4.8-46-5-92.4-0.6-138.4c3.1-26.7-12.2-59.9-37-62.1c2.2,0.1,4.4,0.4,6.5,0.7
	C289.8,126.4,304.7,160.1,301.3,185.9z"/>
<path class="st4" d="M183.7,190.6c4.3,41.1,4.1,82.6-0.5,123.6c-3.3,23.4,12.4,58.7,37.6,66.4c2.2,0.6,4.4,1.2,6.7,1.6
	c-25.2-6.1-41.3-41-38.3-65.5c4.2-42.7,4.3-85.8,0.5-128.6c-2.8-24.5,13.2-58.8,38-64.7c-2.2,0.5-4.4,1-6.6,1.6
	C196.2,132.5,180.6,167.2,183.7,190.6z"/>
<path class="st5" d="M221.7,200c-0.8-0.7-1.3-0.5-1.8,3.7c0,0-0.5,2,1.8,1.7S222.7,200.9,221.7,200z"/>
<path class="st5" d="M219.8,220.8c0.8-0.6,0.8-1.2-3.2-2.6c0,0-1.9-0.9-2,1.4S218.7,221.6,219.8,220.8z"/>
<path class="st5" d="M206.3,234.8c0.4-1-0.1-1.4-4.1-0.3c0,0-2,0.3-0.8,2.3S205.8,236,206.3,234.8z"/>
<path class="st5" d="M222,250.1c-1,0.3-1.1,0.9,2.1,3.6c0,0,1.4,1.5,2.4-0.6S223.3,249.8,222,250.1z"/>
<path class="st5" d="M207.6,260.4c-0.9-0.5-1.4-0.2-0.9,4c0,0,0,2.1,2.2,1.2S208.8,261.1,207.6,260.4z"/>
<path class="st5" d="M215.3,242.9c-0.1-1-0.6-1.3-3.9,1.4c0,0-1.7,1.1,0.2,2.5S215.4,244.2,215.3,242.9z"/>
<path class="st5" d="M205,196.9c0.5,0.9,1.1,0.9,2.8-3c0,0,1-1.8-1.3-2.1S204.3,195.7,205,196.9z"/>
<path class="st5" d="M212.6,177.3c-1,0.3-1.1,0.9,2.3,3.4c0,0,1.5,1.4,2.4-0.8S213.8,176.9,212.6,177.3z"/>
<path class="st5" d="M218.6,148.6c1,0,1.3-0.5-1-4c0,0-0.9-1.8-2.5-0.1S217.3,148.6,218.6,148.6z"/>
<path class="st5" d="M223,157.4c-0.2,1,0.2,1.4,4.1-0.3c0,0,2-0.6,0.5-2.4S223.3,156.1,223,157.4z"/>
<path class="st5" d="M217.6,340.2c-0.8,0.7-1.3,0.5-1.8-3.7c0,0-0.5-2,1.8-1.7S218.6,339.3,217.6,340.2z"/>
<path class="st5" d="M215.8,319.3c0.9,0.6,0.8,1.2-3.2,2.6c0,0-1.9,0.9-2-1.4S214.6,318.6,215.8,319.3z"/>
<path class="st5" d="M202.2,305.4c0.4,1-0.1,1.4-4.1,0.3c0,0-2-0.3-0.8-2.3S201.7,304.1,202.2,305.4z"/>
<path class="st5" d="M217.9,290.1c-1-0.3-1.1-0.9,2.1-3.5c0,0,1.4-1.5,2.4,0.6S219.2,290.4,217.9,290.1z"/>
<path class="st5" d="M203.5,279.7c-0.9,0.5-1.4,0.2-0.9-4c0,0,0-2.1,2.2-1.2S204.7,279,203.5,279.7z"/>
<path class="st5" d="M211.2,297.2c-0.1,1-0.6,1.3-3.9-1.4c0,0-1.8-1.1,0.2-2.5S211.3,295.9,211.2,297.2z"/>
<path class="st5" d="M284.6,284.6c0.8,0.6,0.8,1.2-3.2,2.6c0,0-1.9,0.9-2-1.4S283.5,283.9,284.6,284.6z"/>
<path class="st5" d="M271,270.7c0.4,1-0.1,1.4-4.1,0.3c0,0-2-0.3-0.8-2.3S270.6,269.4,271,270.7z"/>
<path class="st5" d="M286.8,255.4c-1-0.3-1.1-0.9,2.1-3.5c0,0,1.4-1.5,2.4,0.6S288.1,255.7,286.8,255.4z"/>
<path class="st5" d="M272.4,245c-0.9,0.5-1.4,0.2-0.9-4c0,0,0-2.1,2.2-1.2S273.5,244.3,272.4,245z"/>
<path class="st5" d="M280.1,262.5c-0.1,1-0.6,1.3-3.9-1.4c0,0-1.7-1.1,0.2-2.5S280.2,261.2,280.1,262.5z"/>
<path class="st5" d="M269.8,308.6c0.5-0.9,1.1-0.9,2.8,3c0,0,1,1.8-1.3,2.1S269.1,309.7,269.8,308.6z"/>
<path class="st5" d="M277.3,328.1c-1-0.3-1.1-0.9,2.3-3.4c0,0,1.5-1.4,2.4,0.8S278.6,328.5,277.3,328.1z"/>
<path class="st5" d="M283.4,356.8c1,0,1.3,0.5-1,4c0,0-0.9,1.9-2.5,0.1S282,356.9,283.4,356.8z"/>
<path class="st5" d="M287.8,348c-0.2-1,0.2-1.4,4.1,0.3c0,0,2,0.6,0.5,2.4S288.1,349.4,287.8,348z"/>
<path class="st5" d="M282.4,165.3c-0.8-0.7-1.3-0.5-1.8,3.7c0,0-0.5,2,1.8,1.7S283.4,166.2,282.4,165.3z"/>
<path class="st5" d="M280.5,186.1c0.9-0.6,0.8-1.2-3.2-2.6c0,0-1.8-0.9-2,1.4S279.4,186.9,280.5,186.1z"/>
<path class="st5" d="M267,200c0.4-1-0.1-1.4-4.1-0.3c0,0-2,0.3-0.8,2.3S266.5,201.3,267,200z"/>
<path class="st5" d="M282.7,215.4c-1,0.2-1.1,0.8,2.1,3.5c0,0,1.4,1.5,2.4-0.6S284,215.1,282.7,215.4z"/>
<path class="st5" d="M268.3,225.7c-0.9-0.5-1.4-0.2-0.9,4c0,0,0,2.1,2.2,1.2S269.4,226.4,268.3,225.7z"/>
<path class="st5" d="M276,208.2c-0.1-1-0.6-1.3-3.9,1.4c0,0-1.8,1.1,0.2,2.5S276.1,209.5,276,208.2z"/>
</svg>
