<?xml version="1.0" encoding="utf-8"?>
<!-- Generator: Adobe Illustrator 24.0.1, SVG Export Plug-In . SVG Version: 6.00 Build 0)  -->
<svg version="1.1" id="Layer_1" xmlns="http://www.w3.org/2000/svg" xmlns:xlink="http://www.w3.org/1999/xlink" x="0px" y="0px"
	 viewBox="0 0 500 500" style="enable-background:new 0 0 500 500;" xml:space="preserve">
<style type="text/css">
	.st0{fill:#C2B692;}
	.st1{fill:#EA8A32;}
	.st2{fill:#522E32;}
	.st3{fill:#1F0F0A;}
	.st4{fill:#6D4950;}
	.st5{fill:#191919;}
	.st6{opacity:0.2;fill:#FFFFFF;enable-background:new    ;}
	.st7{fill:#C4B693;}
	.st8{opacity:0.5;enable-background:new    ;}
	.st9{opacity:0.8;fill:#FFFFFF;enable-background:new    ;}
	.st10{fill:#3A1E17;}
	.st11{fill:#FFFFFF;}
	.st12{fill:#351C15;}
	.st13{fill:#3A1D15;}
	.st14{opacity:0.49;fill:#FFFFFF;enable-background:new    ;}
	.st15{fill:#634E42;}
</style>
<title>Toni</title>
<g>
	<g id="Layer_2_1_">
		<rect x="56.9" y="93.7" class="st0" width="99.7" height="99.7"/>
		<rect x="156.6" y="93.7" class="st1" width="99.7" height="99.7"/>
		<rect x="256.3" y="93.7" class="st2" width="99.7" height="99.7"/>
		<rect x="356" y="93.7" class="st3" width="99.7" height="99.7"/>
		<rect x="56.9" y="193.7" class="st2" width="99.7" height="99.7"/>
		<rect x="156.6" y="193.7" class="st3" width="99.7" height="99.7"/>
		<rect x="256.3" y="193.7" class="st1" width="99.7" height="99.7"/>
		<rect x="156.6" y="293.5" class="st0" width="99.7" height="99.7"/>
		<rect x="256.3" y="293.5" class="st2" width="99.7" height="99.7"/>
		<rect x="356" y="193.7" class="st0" width="99.7" height="99.7"/>
		<path class="st4" d="M329.5,356c0,0.8,1.1,1.1,1.4,1.6s-0.2,1.8-0.6,1.9c1.3,0.8,1.2,1.4,0.9,1.8s-2.1,1-2.4,2.2s-1.3,4.4-3.6,4.3
			s-6.2-1.6-7.6,2s-5.4,14-5.4,14l-19.2-3.6c0,0,0.2-0.9,0.8-2.2s6-11.6,4.7-14.5c-1.1-2.1-2.4-4.1-4-5.9l0.1,0
			c-8.1-7.3-8.7-19.8-1.4-27.8s19.8-8.7,27.8-1.4c4.1,3.7,6.5,9.1,6.5,14.6c0,0.5,0,1-0.1,1.5h0.1c0,1.9,3.4,6.7,4.3,7.9
			s1,2.2-1.2,2.9C330.1,355.3,329.5,355.2,329.5,356z"/>
		<path class="st5" d="M321.2,327.7c-0.8,0.3-1.5,0.6-2.2,1c-0.3,0.3,0.9,4.8-5.2,5.5c-6.8,0.8-0.9,11.7,0.1,13.3
			c1.5,2.5-3.6,4.5-4.4,1.8c-0.7-2.5-2.9-6.2-6.1-4.2c-4.9,2.9,0.1,7.6,2.9,10.8c0.2,0.4-1.6,3.6-4.6,6.1c-1,0.8-2,1.5-3.2,2
			c-1.3-2.5-2.9-4.7-4.7-6.8c-1.1-1.3-2.2-2.6-3.2-4c-5.8-9.5-2.7-22,6.8-27.7c3.2-1.9,6.8-2.9,10.5-2.9c0.5,0,1.1,0,1.6,0.1
			C313.8,323.1,317.9,324.8,321.2,327.7z"/>
		<path d="M307.5,322.7c-1.3,7.3-8.2,12.1-15.5,10.8c-0.6-0.1-1.3-0.3-1.9-0.5C293.7,326.7,300.3,322.8,307.5,322.7L307.5,322.7z"/>
		<circle class="st5" cx="296.4" cy="314.2" r="11.4"/>
		<path class="st6" d="M306.7,309.4c-4.6-4.3-11.8-4.1-16.1,0.5c-3.2,3.4-4,8.3-2.1,12.5c-4.6-4.3-4.8-11.5-0.4-16.1
			c4.3-4.6,11.5-4.8,16.1-0.4C305.2,306.9,306.1,308.1,306.7,309.4z"/>
		<path class="st5" d="M307.8,314.2c0,6.3-5.1,11.4-11.4,11.4c-2.9,0-5.7-1.1-7.8-3.1c-2.6-5.7-0.1-12.5,5.6-15.1
			c4.2-1.9,9.1-1.1,12.5,2.1C307.4,311,307.8,312.6,307.8,314.2z"/>
		<path class="st7" d="M199.2,210.7c0,0,4.3-4.2,8.7-2.5c0,0,6.9-3.6,9.5,4.5c0,0,5.5-1.2,5.6,5.9c0,0,3.9,0.1,2.2,8.4
			c0,0,7.6,8.9,4.4,12.7c-1.9,2.8-1.8,6.4,0.2,9.1c0,0,5,5.4,1,9.1c0,0-2.7,2.4-0.1,5.7c0,0,2.7,2.5-2,6.2c0,0,0.3-5.3-2.7-5.8
			c-1.4,1.7-1.3,4.2,0.1,5.8c0,0,2.7,4.5-7,5.6c0,0,7.1-2.8,2.5-6.5c0,0-3-2.4-2.6-4.7c0,0-4.2,5,2,6.6c0,0-11.3,1.9-7.3-6.7
			c0,0,2.7-4.6,0.2-7.3c0,0-3.3-3.5-0.3-8.8c0,0,6.5-9.1,3.5-20.5c-0.5,2.2-0.7,4.4-0.6,6.7c0,0-5.4-9.6-7.8-10.9c0,0,2.4,8,4.7,9.7
			c0,0-5.9-5.1-7.7-12.5c0,0-2.4,5.6-3.8,9.3c0,0-0.2-4.1,0.8-6.2c0,0-5.4,9.4-8,10.6c0,0-0.3,7.2,3.7,11.7c0,0,6.5,7,0.1,12.6
			c0,0-6.1,6.3,2.9,9.1c-3.1,0.7-6.3-0.5-8.2-3c0,0,4.5,5.7,0,10.5c0,0,0.3-8.9-5.9-10.3c0,0-0.2,6.3,4.3,6.6c0,0-8,1.9-7.6-4
			c-1,1.4-0.8,3.3,0.4,4.5c0,0-6.6-3.6-1.7-9.3c0,0,3.6-3-0.4-7c0,0-4.9-4.8-0.1-9.1c0,0,3.6-3.6,2.1-7.4c-0.9-1-0.8-2.5,0.2-3.4
			c0.2-0.1,0.3-0.3,0.5-0.4c-0.6-4,0.7-8.1,3.7-10.9c0,0-4.4-2,1.9-9.5C191.1,215.1,197,207.7,199.2,210.7z"/>
		<path class="st8" d="M228.7,269.9c0-0.7,0-1.4-0.1-2c1.8-2.6,0-4.2,0-4.2c-2.5-3.4,0.1-5.7,0.1-5.7c3.9-3.8-1-9.1-1-9.1
			c-2-2.7-2.1-6.3-0.2-9.1c3.2-3.9-4.4-12.7-4.4-12.7c1.8-8.3-2.2-8.4-2.2-8.4c-0.1-7.1-5.6-5.9-5.6-5.9c-1.2-3.6-3.2-4.9-5.1-5.2
			c2.3-0.3,5.6,0.1,7.2,5.2c0,0,5.5-1.2,5.6,5.9c0,0,3.9,0.1,2.2,8.4c0,0,7.6,8.8,4.4,12.7c0,0-3.1,4,0.2,9.1c0,0,5,5.4,1,9.1
			c0,0-2.7,2.4-0.1,5.7C230.7,263.6,233.4,266.1,228.7,269.9z"/>
		<path class="st7" d="M213.5,233.1c-0.2-0.1-0.4-0.3-0.5-0.5L213.5,233.1z"/>
		<path class="st7" d="M228.6,267.8c-0.2-1.5-0.8-3.4-2.6-3.7c-0.2,0.3-0.4,0.6-0.6,0.9c-0.8,1.6-0.5,3.5,0.7,4.9c0,0,2.7,4.5-7,5.6
			c0.5-0.2,1-0.5,1.4-0.7c1.8-1.1,4.3-3.2,1.1-5.8c0,0-3-2.4-2.6-4.7c-0.6,0.8-1.1,1.7-1.3,2.7c-0.3,1.5,0.2,3.1,3.2,3.9h0.1H221
			c-1.1,0.2-2.3,0.2-3.4,0.1c-2.9-0.2-6.3-1.5-3.8-6.8c0,0,2.7-4.6,0.2-7.3c0,0-3.3-3.5-0.3-8.8c0,0,6.5-9.1,3.5-20.5
			c-0.6,2.2-0.8,4.4-0.6,6.7c0,0-0.3-0.5-0.7-1.2c-0.4-0.6-0.8-1.4-1.4-2.2c-1.8-2.9-4.3-6.6-5.7-7.4c0,0,0.6,1.8,1.4,3.9
			c0.7,1.9,1.6,3.6,2.8,5.2c-2.6-2.6-4.8-5.7-6.2-9.1c-0.4-0.9-0.7-1.9-0.9-2.8c0,0-0.5,1.2-1.2,2.8c-0.8,1.9-1.9,4.5-2.6,6.4
			c0,0-0.2-4.1,0.8-6.1c-0.1,0.2-0.7,1.2-1.5,2.5c-0.4,0.7-0.9,1.4-1.4,2.2c-1.7,2.5-3.7,5.2-5,5.8c0,0-0.3,7.2,3.7,11.7
			c0,0,6.5,7,0.1,12.6c0,0-6.1,6.3,2.9,9.1c-0.9,0.2-1.9,0.2-2.8,0.1l0,0c-2.1-0.2-4.1-1.3-5.4-3c0.6,0.8,1,1.7,1.4,2.6
			c1.2,2.7,0.6,5.8-1.4,7.9c0-1.1-0.1-2.2-0.3-3.2l0,0c-0.5-2.7-1.9-6.2-5.6-7.1c0,0.3,0,0.6,0,0.9c0.1,1.6,0.7,4.7,3.3,5.5
			c0.3,0.1,0.7,0.2,1,0.2c0,0-0.4,0.1-0.9,0.2c-0.9,0.1-1.9,0.2-2.9,0.1c-2-0.2-4.1-1.2-3.8-4.3c-0.7,1.1-0.8,2.6-0.2,3.8
			c0.2,0.3,0.4,0.5,0.6,0.8c-1.3-0.8-2.4-1.9-3.1-3.2c-0.7-1.6-0.7-3.6,1.4-6c0,0,3.6-3-0.4-7c0,0-4.9-4.8-0.1-9.1
			c0,0,3.6-3.6,2.1-7.4c-0.9-1-0.8-2.5,0.2-3.4c0.2-0.1,0.3-0.3,0.5-0.3c-0.6-4,0.7-8.1,3.7-10.9c0,0-4.4-2,1.9-9.5
			c0,0,3-3.8,5.5-4.8c0.4-0.2,0.8-0.3,1.3-0.3c0.5,0,1,0.3,1.3,0.7c1.5-1.4,3.4-2.4,5.4-2.8c0.7-0.1,1.3-0.1,2,0
			c0.4,0.1,0.9,0.2,1.3,0.3c0.7-0.3,1.5-0.6,2.3-0.7l0,0c1.9,0.3,3.9,1.6,5.1,5.2c0,0,5.5-1.2,5.6,5.9c0,0,3.9,0.1,2.2,8.4
			c0,0,7.6,8.8,4.4,12.7c-1.9,2.8-1.8,6.4,0.2,9.1c0,0,5,5.4,1,9.2c0,0-2.7,2.4-0.1,5.7C228.6,263.6,230.3,265.2,228.6,267.8z"/>
		<path class="st7" d="M211.4,233.1c-0.2-0.1-0.4-0.3-0.5-0.5L211.4,233.1z"/>
		<path class="st6" d="M198.9,210.4c-2.5,1.2-5.3,4.7-5.3,4.7c-6.3,7.5-1.9,9.5-1.9,9.5c-3,2.8-4.4,6.9-3.7,10.9
			c-1.2,0.6-1.7,2-1.1,3.2c0.1,0.2,0.2,0.4,0.3,0.5c1.6,3.7-2.1,7.4-2.1,7.4c-4.8,4.3,0.1,9.1,0.1,9.1c3.9,3.9,0.4,7,0.4,7
			c-1.8,2.1-2,3.9-1.6,5.4c-0.6,1.3-0.3,2.9,0.8,3.9c-0.3-0.2-6.5-3.8-1.7-9.3c0,0,3.6-3-0.4-7c0,0-4.9-4.8-0.1-9.1
			c0,0,3.6-3.6,2.1-7.4c-0.9-1-0.8-2.5,0.2-3.4c0.2-0.1,0.3-0.3,0.5-0.3c-0.6-4,0.7-8.1,3.7-10.9c0,0-4.4-2,1.9-9.5
			C191.1,215.1,196.6,208.2,198.9,210.4z"/>
		<path class="st7" d="M213.5,233.1c-0.2-0.1-0.4-0.3-0.5-0.5L213.5,233.1z"/>
		<path class="st6" d="M219.7,271c-2.9,0.2-9-0.2-5.9-6.8c0,0,2.7-4.6,0.2-7.3c0,0-3.3-3.5-0.3-8.8c3-4.7,4.5-10.2,4.2-15.8
			c0.7,1.2,1.2,2,1.2,2c-0.2-2.2,0-4.5,0.6-6.7c3.1,11.4-3.5,20.5-3.5,20.5c-3,5.3,0.3,8.8,0.3,8.8c2.4,2.7-0.2,7.3-0.2,7.3
			C214.1,269.3,216.9,270.7,219.7,271z"/>
		<path class="st7" d="M216.1,233.2l-0.2-0.1c-0.1-0.1-0.3-0.2-0.4-0.4l0.3,0.3l0,0L216.1,233.2z"/>
		<path class="st7" d="M396.6,109.8c1.3-2.2,4.2-3,6.5-1.7c0,0,0,0,0,0c0,0,2.4-2,5.4,1.3c1.3,0.1,2.5,0.8,3.4,1.8
			c0,0,7,0.3,10.3,10.7c0,0,2.9,8.2,1.4,23.9c0,0-1.6,6.8,4.4,6.7c-1.4,0.6-2.9,1-4.4,1.1c0,0,0.6,4.1-5.4,8.8
			c0-1.1-0.1-2.3-0.4-3.4c-1.5,2.9-3.5,5.6-5.9,7.7v-2.9c0,0-3.5,7.6-10.3,10.8c1.1-1.5,1.9-3.1,2.6-4.8c0,0-1,0.4-2.4,1
			c1.3-1.1,2.3-2.5,3-4c-0.7,0.1-1.3,0.4-1.9,0.7c0,0,2.9-3,3.7-5.9c-0.7,0.4-1.5,0.6-2.3,0.6c0,0,3.8-2.7,5.1-5.3h-2.1
			c0,0,7.3-5.6,7.6-14.1c0,0-1.9,4.6-3,5.1c0.8-2.4,1.3-4.9,1.8-7.5c0,0-5.7-4.6-7.3-7.7c0,0-10.5-5.1-11.8-6.6
			c0,0-8.2,2.5-1.6,18.6c0,0,2.2,6.7,5.5,8.9c0,0,5.1,3.8,3,9.8c0,0-0.3,2.4,0.6,3.4c0,0-1.7-0.1-2.3-0.9c0,0,1.2,7.1-3.6,10.6
			c0,0,0.6-5.4-4-8c0,0-3.6-2.3-3.5-6.1c0,0-1.9,1.7-3.5-1.1c0,0,4.4,0.4,2.5-4.4c0,0-2.6-7.1-1.9-11.1c0,0-3.6-15.6-0.6-19.7
			c0,0,0.1-9.2,5.5-11.5C390.5,114.5,391.1,109.3,396.6,109.8z"/>
		<path d="M423.5,153.6c0,0,0.6,4.1-5.4,8.8c0-1.1-0.1-2.3-0.4-3.4c-1.5,2.9-3.5,5.6-5.9,7.7v-2.9c0,0-3.5,7.6-10.3,10.8
			c1.1-1.5,1.9-3.1,2.6-4.8c0,0-1,0.4-2.4,1c1.1-0.9,2.1-2.1,2.8-3.4c0.8-1.1,1.5-2.3,2.1-3.6v2.9c2.5-2.2,4.5-4.8,5.9-7.7
			c0.3,1.1,0.4,2.3,0.4,3.4c6-4.7,5.3-8.8,5.3-8.8c1.5-0.1,3-0.5,4.4-1.1c-6,0.1-4.4-6.7-4.4-6.7c1.5-15.7-1.4-23.9-1.4-23.9
			c-3.3-10.4-10.3-10.7-10.3-10.7c-0.9-1-2.1-1.6-3.4-1.8c-0.8-1.1-2.1-1.8-3.5-1.9c1.2-0.2,2.3,0,3.4,0.6c0,0,2.4-2,5.4,1.3
			c1.3,0.1,2.5,0.8,3.4,1.8c0,0,7,0.3,10.3,10.7c0,0,2.9,8.2,1.4,23.9c0,0-1.6,6.8,4.4,6.7C426.5,153.1,425,153.4,423.5,153.6z"/>
		<path class="st9" d="M401.4,107.5c-1.3,0.3-2.4,1.1-3.1,2.3c-5.5-0.5-6.1,4.7-6.1,4.7c-5.4,2.3-5.5,11.5-5.5,11.5
			c-3,4.1,0.6,19.7,0.6,19.7c-0.6,4,1.9,11.1,1.9,11.1c1.9,4.8-2.5,4.4-2.5,4.4c0.3,0.6,0.7,1.1,1.3,1.4c-0.7,0.3-2,0.5-3-1.4
			c0,0,4.4,0.4,2.5-4.4c0,0-2.6-7.1-1.9-11.1c0,0-3.6-15.6-0.6-19.7c0,0,0.1-9.2,5.5-11.5c0,0,0.6-5.2,6.1-4.7
			C396.6,109.8,398.3,106.9,401.4,107.5z"/>
		<path d="M401.9,166.7L401.9,166.7c-0.7,0-1.4-0.3-2-0.8c-0.2-0.8-0.3-1.7-0.2-2.6c2.1-6-3-9.8-3-9.8c-3.3-2.2-5.5-8.9-5.5-8.9
			c-6.6-16.1,1.6-18.6,1.6-18.6c0.2,0.2,0.4,0.4,0.6,0.6c-2,1.4-5.5,5.7-0.5,18c0,0,2.2,6.7,5.5,8.9c0,0,5.1,3.8,3,9.8
			C401.3,163.4,401.1,165.7,401.9,166.7z"/>
		<path class="st10" d="M197.2,312.2c1.3-2.2,4.2-3,6.5-1.6c0,0,2.4-2,5.4,1.3c1.3,0.1,2.5,0.7,3.4,1.7c0,0,7,0.3,10.3,10.8
			c0,0,2.9,8.2,1.4,23.9c0,0-1.6,6.8,4.4,6.7c-1.4,0.6-2.9,1-4.4,1.1c0,0,0.6,4.1-5.3,8.8c0-1.1-0.1-2.3-0.4-3.4
			c-1.5,2.9-3.5,5.6-5.9,7.7v-3c0,0-3.5,7.6-10.3,10.8c1.1-1.5,1.9-3.1,2.6-4.8c0,0-1,0.4-2.4,1c1.3-1.1,2.3-2.5,3-4
			c-0.7,0.1-1.3,0.4-1.9,0.7c0,0,2.9-3,3.7-5.9c-0.7,0.4-1.5,0.6-2.3,0.6c0,0,3.8-2.7,5.1-5.3h-2.1c0,0,7.3-5.6,7.6-14.1
			c0,0-1.9,4.6-3.1,5.2c0.7-2.4,1.3-4.9,1.7-7.3c0,0-5.7-4.6-7.3-7.7c0,0-10.5-5.1-11.8-6.6c0,0-8.2,2.5-1.6,18.6
			c0,0,2.2,6.7,5.5,8.9c0,0,5.1,3.8,3,9.8c0,0-0.3,2.3,0.6,3.4c0,0-1.7-0.1-2.3-0.9c0,0,1.2,7.1-3.6,10.6c0,0,0.6-5.4-4.1-8
			c0,0-3.6-2.3-3.5-6.1c0,0-1.9,1.7-3.5-1.1c0,0,4.4,0.4,2.5-4.4c0,0-2.6-7.1-1.9-11.1c0,0-3.6-15.6-0.6-19.7c0,0,0.1-9.2,5.5-11.5
			C191.1,317,191.7,311.8,197.2,312.2z"/>
		<path d="M224.1,356c0,0,0.6,4.1-5.3,8.8c0-1.1-0.1-2.3-0.4-3.4c-1.5,2.9-3.5,5.6-5.9,7.7v-3c0,0-3.5,7.6-10.3,10.8
			c1.1-1.5,1.9-3.1,2.6-4.8c0,0-1,0.4-2.4,1c1.1-1,2.1-2.1,2.8-3.4c0.8-1.1,1.5-2.3,2.1-3.6v3c2.5-2.2,4.5-4.8,5.9-7.7
			c0.3,1.1,0.4,2.3,0.4,3.4c6-4.7,5.3-8.8,5.3-8.8c1.5-0.1,3-0.5,4.4-1.1c-6,0.1-4.4-6.7-4.4-6.7c1.5-15.7-1.4-23.9-1.4-23.9
			c-3.3-10.4-10.3-10.7-10.3-10.7c-0.9-1-2.1-1.6-3.4-1.7c-0.8-1.1-2.1-1.8-3.5-1.9c1.2-0.2,2.3,0,3.4,0.6c0,0,2.4-2,5.4,1.3
			c1.3,0.1,2.5,0.7,3.4,1.7c0,0,7,0.3,10.3,10.7c0,0,2.9,8.2,1.4,23.9c0,0-1.6,6.8,4.4,6.7C227.1,355.5,225.6,355.9,224.1,356z"/>
		<path class="st11" d="M202,310c-1.3,0.3-2.4,1.1-3.1,2.2c-5.4-0.5-6.1,4.7-6.1,4.7c-5.4,2.3-5.5,11.5-5.5,11.5
			c-3,4.1,0.6,19.7,0.6,19.7c-0.6,4.1,1.9,11.2,1.9,11.2c1.9,4.8-2.5,4.4-2.5,4.4c0.3,0.6,0.7,1.1,1.3,1.4c-0.7,0.3-1.9,0.5-3-1.4
			c0,0,4.4,0.4,2.5-4.4c0,0-2.6-7.1-1.9-11.2c0,0-3.6-15.6-0.6-19.7c0,0,0.1-9.2,5.5-11.5c0,0,0.6-5.2,6.1-4.7
			C197.2,312.2,198.9,309.4,202,310z"/>
		<path d="M202.5,369.2L202.5,369.2c-0.7,0-1.4-0.3-2-0.7c-0.2-0.8-0.3-1.7-0.2-2.6c2.1-6-3-9.8-3-9.8c-3.3-2.2-5.5-8.9-5.5-8.9
			c-6.6-16.1,1.6-18.6,1.6-18.6c0.2,0.2,0.4,0.4,0.6,0.6c-2,1.4-5.6,5.7-0.5,18c0,0,2.2,6.7,5.5,8.9c0,0,5.1,3.8,3,9.8
			C201.9,365.9,201.7,368.2,202.5,369.2z"/>
		<path class="st7" d="M403.6,166.7L403.6,166.7L403.6,166.7C403.5,166.7,403.5,166.8,403.6,166.7z"/>
		<path class="st3" d="M193.6,180.1c0,0-12.2-4.8-12.9-30.4c0,0-1-9.2,4.7-25c0,0,7.6-17.4,17.4-12.5c0,0,13.2-6.4,20.1,11.1
			c2.5,7.7,3.6,15.7,3.4,23.7c0,0,0.4,13.5-6.3,25.9c0,0-14.1-5.4-5.6-19.9c0,0,8.4-14.4-0.4-20.5c0,0-8.4-4.3-9-9.5
			c0,0-0.4,6.3,6.4,9.4c0,0-5.4-1.3-7.3-5.1c0,0,0.6,2.4,4.8,5c0,0-9.2-1.7-10.3-12.4c-1.8,2.6-3.3,5.5-4.4,8.4
			c-1.1,2.4-2.9,4.5-5.1,5.9c0,0,0.4,14,7,20.4c0,0,3.7,4.7-0.5,13.3C195.2,167.9,190.9,175,193.6,180.1z"/>
		<path class="st9" d="M188.4,124.6c-5.7,15.8-4.7,25-4.7,25c0.5,16,5.4,23.9,9.1,27.6c0.1,1,0.4,2,0.8,2.9
			c-0.4-0.1-12.2-5.2-12.9-30.4c0,0-1-9.2,4.7-25c0,0,6.6-15.1,15.4-13.2C193.5,112.9,188.4,124.6,188.4,124.6z"/>
		<path d="M226.1,147c0,8.5-1.9,17-5.6,24.7c-0.2,0.4-0.4,0.9-0.7,1.3c-0.9-0.4-1.8-0.9-2.6-1.4c3.6-7.7,5.5-16,5.6-24.5
			c0.3-8-0.9-16.1-3.4-23.7c-3.5-8.9-8.6-11.7-12.8-12.2c1.1-0.1,2.2-0.1,3.2,0c4.2,0.5,9.4,3.2,12.9,12.2
			C225.3,130.9,226.4,139,226.1,147z"/>
		<path class="st12" d="M222.8,147c0,8.5-1.9,16.8-5.6,24.5c-3.6-2.4-9-8.2-2.9-18.5c0,0,8.4-14.4-0.4-20.5c0,0-0.5-0.2-1.2-0.7
			c-2.3-1.4-7.3-4.9-7.8-8.9c0,3.7,2,7.1,5.3,8.8l0,0c0.3,0.2,0.7,0.4,1.1,0.5c-0.9-0.2-1.7-0.5-2.6-0.9c-1.8-0.8-3.3-2-4.4-3.5
			c-0.1-0.2-0.3-0.4-0.4-0.6c0,0.1,0.1,0.3,0.1,0.4c0.3,0.8,1.4,2.7,4.6,4.6c-0.9-0.2-1.8-0.5-2.6-0.9c-3.3-1.5-5.8-4.3-6.9-7.8
			c-0.4-1.2-0.7-2.5-0.8-3.7c0,0-1.2,1.7-2.4,4.1c-0.8,1.4-1.4,2.9-2,4.4c-1.1,2.4-2.9,4.5-5.1,5.9c0,0,0.4,14,7,20.4
			c0,0,3.7,4.7-0.5,13.3c0,0-2.9,4.8-2.5,9.3c-1.1-1.2-2.1-2.5-3-3.9c-2.9-4.5-5.6-11.9-6-23.7c0,0-0.6-5.4,1.7-15.2
			c0-0.1,0.1-0.2,0.1-0.3c0.8-3.2,1.8-6.4,2.9-9.6c0,0,4.3-9.9,10.6-12.6c0.6-0.2,1.1-0.4,1.7-0.6c0.1,0,0.2,0.1,0.4,0.1
			c0.6,0.1,1.1,0.3,1.6,0.6c0.5-0.2,1-0.4,1.6-0.6l0,0c0.8-0.2,1.5-0.4,2.3-0.5l0,0c4.2,0.5,9.3,3.3,12.8,12.2
			C221.9,130.9,223.1,139,222.8,147z"/>
		<path class="st13" d="M402.4,223.1c4.3-1.1,9,0,12.2,3.1c0,0,11.5,9,8.7,31.1c0,0-1,6.7-4.7,10.4l-0.1-1.4
			c-0.7,1.4-1.8,2.6-3.1,3.4l-0.1-1.3c-1.6,1.8-3.7,3.2-5.9,4c1.3-1,2.4-2.4,3.2-3.9c0,0-2.4,2.5-4.4,2.7c0,0,6.5-3.8,7.6-20.5
			c0,0,0.3-2.8-3.7-2.2c0,0-10.7,1.1-18.2,0.2c-1.3-0.3-2.6,0.6-2.9,1.8c-1.3,7.3,0.2,14.8,4.3,20.9c-2.1-1.1-3.7-2.9-4.8-5l0.4,2.4
			c0,0-3.7-3.2-4.2-6v1.8c0,0-5.5-5.2-4.9-15c0,0,1.8-15.5,8.3-22.5C390.2,227.2,397.3,219.2,402.4,223.1z"/>
		<path d="M423.3,257.3c0,0-1,6.7-4.7,10.4l-0.1-1.4c-0.7,1.4-1.8,2.6-3.1,3.4l-0.1-1.3c-1.6,1.8-3.7,3.2-5.9,4
			c1.2-0.9,2.1-2,2.9-3.3c1-0.7,1.8-1.7,2.3-2.8l0.1,1.4c3.7-3.7,4.7-10.4,4.7-10.4c2.8-22.1-8.7-31.1-8.7-31.1c-2-1.8-4.4-3-7-3.4
			c4-0.6,8,0.6,10.9,3.4C414.6,226.2,426.1,235.2,423.3,257.3z"/>
		<path class="st14" d="M393.5,268.5c0.5,1.1,1.1,2.1,1.8,3.1c-2.1-1.1-3.8-2.9-4.8-5l0.4,2.4c0,0-3.7-3.2-4.2-6v1.8
			c0,0-5.5-5.2-4.9-15c0,0,1.8-15.5,8.4-22.5c0,0,5.7-6.4,10.5-5c-3.9,1-7.5,5-7.5,5c-6.5,6.9-8.3,22.5-8.3,22.5
			c-0.6,9.8,4.9,15,4.9,15v-1.8C390.1,265,392.4,267.5,393.5,268.5z"/>
		<path class="st3" d="M108.8,215.6c0,0,4.6-3.1,9.9,1.8c0,0,9.5,6,13.5,21.9c0,0,5.8,10.6-2.1,19c0,0,0.2,1.1,2.5,2.9l-2.7-0.7
			c0.1,1.4,0.9,2.5,2.1,3.1c0,0-4.9,1.2-5.8-0.5c0,0-1.3,2.1,4.2,2.8c0,0-3.1,2.4-6.1,2.2c0,0,1.5,1.9,1.3,3.1
			c-0.9-0.8-1.8-1.4-2.9-2l-3.5,1.1c2-2.9,3.2-6.3,3.3-9.8l0.2-12l-9.1-10.9c0,0,4.6,9.4,7.3,12c0,0-16.2-6.6-23.2-16.2
			c2,4.9,5.4,9.1,9.9,12c0,0-9.4-3.9-13.1-8.6c-0.7,3.5-2.3,6.7-4.7,9.3c-3.9,4.2,0,0.2,0,0.2s-1.7,5.6,1.4,10.4
			c0,0-0.4,10.7,3.4,14.3l-3.5-2.2l-3.1,2.3l1-4.8c0,0-1.8,0.8-5.1-1.5c1.2-0.5,2.3-1.4,3-2.5c0,0-2,1-5.6,0
			c1.4-0.7,2.6-1.9,3.1-3.5l-3.8,1.6l2.5-2.9c0,0-5.4-4.3-3.1-14.8c0,0,6.5-30.2,23.2-27.4C105.2,216,107,216,108.8,215.6z"/>
		<path d="M132.6,261.2l-2.7-0.7c0.1,1.3,0.9,2.5,2.1,3.1c-1.5,0.4-3,0.5-4.5,0.3c0.5-0.1,1.1-0.2,1.6-0.3c-1.2-0.6-2-1.8-2.1-3.1
			l2.7,0.7c-2.3-1.8-2.6-2.9-2.6-2.9c7.9-8.4,2.1-19,2.1-19c-4-15.9-13.5-22-13.5-22c-1.3-1.3-3-2.2-4.8-2.6
			c1.8-0.4,4.7-0.2,7.7,2.6c0,0,9.5,6,13.5,22c0,0,5.8,10.6-2.1,19C130.1,258.3,130.3,259.4,132.6,261.2z"/>
		<path class="st3" d="M124.4,268.1c0,0,1.5,1.9,1.3,3.1c-0.9-0.8-1.8-1.5-2.9-2l-0.5,0.1l-1.4,0.4l-1.6,0.5c0,0,0.3-0.4,0.7-1
			c1.6-2.7,2.5-5.7,2.6-8.8l0.2-12l-9.1-10.9c0.1,0.3,4.6,9.4,7.3,12l-1.2-0.5c-0.8-0.4-2.1-0.9-3.5-1.7c-5.3-2.7-13.9-7.7-18.5-14
			c1,2.6,2.4,4.9,4.2,7l0,0c1.7,1.9,3.6,3.6,5.7,5c-2.7-1.2-5.3-2.5-7.8-4.1c-2-1.2-3.8-2.7-5.3-4.5c-0.1,0.8-0.3,1.6-0.6,2.4
			c-0.8,2.6-2.2,5-4,7c-3.9,4.2,0,0.2,0,0.2s-1.7,5.6,1.4,10.4c0,0-0.4,10.7,3.4,14.3l-3.5-2.3l-0.8,0.6l-0.6,0.5l-1.7,1.3l0.4-2.1
			l0.5-2.6c0,0-1.8,0.8-5.1-1.5c1.2-0.5,2.3-1.4,3-2.5c-1,0.4-2.1,0.6-3.2,0.4c-0.3,0-0.6,0-0.9-0.1c-0.5-0.1-1-0.2-1.5-0.3
			c1.5-0.7,2.6-1.9,3.1-3.5l-3.8,1.6l0,0l0.1-0.1l2.3-2.7c0,0-5.4-4.3-3-14.8c0,0,5.5-25.8,19.5-27.5c1.2-0.2,2.5-0.1,3.7,0.1
			c0.5,0.1,0.9,0.2,1.4,0.2c1.4,0.2,2.7,0.1,4.1-0.2c0.7-0.4,1.4-0.7,2.2-0.8c1.8,0.4,3.5,1.3,4.8,2.6c0,0,9.5,6,13.5,22
			c0,0,5.8,10.6-2.1,19c0,0,0.3,1.1,2.5,2.9l-2.7-0.7c0.1,1.3,0.9,2.5,2.1,3.1c-0.5,0.1-1,0.2-1.6,0.3c-0.5-0.1-1-0.4-1.2-0.8
			c-0.2,0.3-0.2,0.6-0.1,0.9c0.2,0.7,1.2,1.5,4.3,1.9C130.5,265.9,127.4,268.3,124.4,268.1z"/>
		<path class="st6" d="M83.7,242.9c-2.4,10.5,3,14.8,3,14.8l-2.5,2.9l3.9-1.6c-0.5,1.5-1.7,2.7-3.1,3.4c0.4,0.1,0.8,0.2,1.2,0.3
			c-1.6,0.3-3.2,0.2-4.7-0.3c1.5-0.7,2.6-1.9,3.1-3.4l-3.8,1.6l2.5-2.9c0,0-5.4-4.3-3-14.8c0,0,6.3-29.7,22.8-27.4
			C89.1,217.5,83.7,242.9,83.7,242.9z"/>
		<path class="st6" d="M126.3,248.5l-0.2,12c-0.1,3.2-1.1,6.3-2.8,9c-0.2-0.1-0.4-0.2-0.6-0.3l-3.5,1.1c2-2.9,3.2-6.3,3.3-9.8
			l0.2-11.6c1,0.5,1.7,0.8,1.8,0.8c-2.7-2.6-7.2-11.7-7.3-12L126.3,248.5z"/>
		<path class="st3" d="M288,122.3c2.7-2.8,6.1-4.6,10.1-4.5C294.1,117.7,290.8,119.6,288,122.3z"/>
		<path d="M334.7,153.2c0,0-1.3,16.1-16.4,17.9c0,0,0.2-0.2,0.5-0.6c12.4-3.3,13.5-17.3,13.5-17.3c2.2-14.3-7.4-26.3-7.4-26.3
			c-5.8-8.2-12.4-10.7-17.8-11c5.7-0.3,13.6,1.5,20.2,11C327.4,126.9,337,138.9,334.7,153.2z"/>
		<path class="st3" d="M332.4,153.2c0,0-1.2,14-13.5,17.3c2.7-3.2,14.9-19.9-10.5-29.7c0,0,0.5,0.7,1.4,1.7c1.7,1.8,4.7,4.6,7.9,5.5
			c0.2,0.1,0.4,0.1,0.6,0.1l-0.4,0.1c-0.8,0.1-1.6,0.1-2.4,0c-3.7-0.3-10.5-1.8-17-8.7c0,0-0.3,0.6-0.8,1.6
			c-1.6,3.5-5.6,11.5-9.3,14.4c0,0-0.9,9,5.9,15.2c-1.2-0.3-2.3-0.6-3.5-1.1c-5.8-2.4-13.2-8.9-10.6-26c0,0,5.2-24.3,18.7-25.7l0,0
			h0.2c2.5-1.2,5.2-1.9,8-2c5.4,0.3,12.1,2.7,17.8,11C325,126.9,334.6,138.9,332.4,153.2z"/>
		<path class="st9" d="M294.3,170.7l0.4,0.4c0,0-21.1-0.3-17-27.5c0,0,3-13.9,10.3-21.3c2.8-2.8,6.1-4.6,10.1-4.5c0.2,0,0.5,0,0.8,0
			c-13.5,1.4-18.7,25.7-18.7,25.7C277,164.4,288.6,169.5,294.3,170.7z"/>
		<path class="st3" d="M282.8,275.2c0,0,5.6-14.2,7.6-37.4c0,0-1.2-23.4,7.6-29.2c0,0,9.9-7.4,14.5,0c0,0,6.8,1,7.6,12.1
			c-0.2,9.1,0.4,18.2,1.9,27.2c0,0,3.4,19.7,7.3,31.1c0,0-2.4-5.1-6-17.9c0,0-0.1,10.1,1.7,14.8c0,0,1.9,2-1.7,3.1
			c0,0-6.5,1.2-5.5-0.7c0,0-2.3-0.5-3,0.3s-0.4-14.6-1.7-22.3c-0.8,6.5-2,12.9-3.6,19.3c0,0,3-20.4,2.5-29.2c0,0,0.3-6.3,2.1-10.4
			c0,0,3.4-9.1,1-13.3l-10.7,0.3l-0.4-5.5l-0.4,5.4l-1.3,0.1l-0.6-2.8l-0.4,2.8l-4.5,0.1c0,0-1,9.2,1.6,13.8c0,0,2.8,5.7,2.3,21.4
			c0,0-0.7-10.8-1.5-13.7c0,0-1.2,17.3,2.7,30.8c-2.1-5.9-3.5-12.1-4.2-18.3l-0.7,21.7l-3.4-0.2v1.1c0,0-5.5,0.6-7.8-1.5
			c0,0,2.3-9.5,2.1-17.5C287.9,260.6,284.8,272.4,282.8,275.2z"/>
		<path class="st9" d="M307.6,205.4c-4,0.4-8,3.3-8,3.3c-8.8,5.8-7.6,29.2-7.6,29.2c-0.7,8.5-2.1,17-4.1,25.3c0-0.9,0-1.7,0-2.6
			c0,0-3.1,11.8-5.1,14.6c0.2-0.4,5.6-14.6,7.6-37.4c0,0-1.2-23.4,7.6-29.2C298.1,208.7,303,205,307.6,205.4z"/>
		<path class="st3" d="M325.2,275.9c0,0,1.9,2-1.7,3.1c0,0-1.4,0.2-2.8,0.3c-1.6,0.1-3.2,0-2.7-1l-0.7-0.1c-0.3,0-0.7,0-1,0
			c-0.5,0-0.9,0.1-1.3,0.4c-0.5,0.6-0.5-8.7-1.1-16.4l0,0c-0.2-2.1-0.4-4-0.6-5.7v-0.2c-0.8,6.5-2,12.9-3.6,19.3
			c0,0,3-20.5,2.5-29.2c0,0,0.3-6.3,2.1-10.4c0,0,3.4-9,1-13.3l0,0l-9.2,0.3h-1.5l0,0l-0.4-5.4l-0.4,4.8l0,0.6l-1.3,0.1V223
			l-0.6-2.8l-0.4,2.8l-4.5,0.1c0,0-1,9.2,1.6,13.8c0,0,1.6,3.1,2.2,11.2l0,0c0.2,3.3,0.3,6.6,0.2,9.9c0,0.1,0,0.1,0,0.2
			s-0.7-10.8-1.5-13.7c-0.2,4.5-0.2,9,0,13.5c0.3,5.8,1.1,11.6,2.6,17.3c-1.3-3.4-2.3-7-3-10.6c-0.5-2.3-0.9-4.8-1.3-7.7l-0.7,21.5
			v0.1l-1.9-0.1l-1.5-0.1v1.1c0,0-0.4,0-1,0.1l0,0c-1.7,0.1-5,0-6.7-1.5c0.9-3.8,1.5-7.6,1.9-11.4c0.1-1.2,0.2-2.4,0.2-3.6
			c2-8.3,3.3-16.8,4.1-25.3c0,0-1.2-23.4,7.6-29.2c0,0,3.9-2.9,8-3.3c2.1,0.2,4,1.4,5,3.3c0,0,6.8,1,7.6,12.1
			c-0.2,9.1,0.4,18.2,1.9,27.2c0,0,1.1,6.5,2.8,14.3c1.2,5.7,2.6,11.3,4.4,16.8c-1.7-3.9-3.1-8-4.3-12.1c-0.5-1.7-1.1-3.6-1.7-5.8
			C323.4,261.1,323.3,271.3,325.2,275.9z"/>
		<path d="M325.1,266.9c-0.5-1.7-1.1-3.6-1.7-5.8v1c-1.7-7.7-2.8-14.1-2.8-14.1c-1.5-9-2.1-18.1-1.9-27.2
			c-0.9-11.1-7.6-12.1-7.6-12.1c-0.9-1.6-2.5-2.8-4.4-3.2c0.3,0,0.5-0.1,0.8-0.1c2.1,0.2,4,1.4,5,3.3c0,0,6.8,1,7.6,12.1
			c-0.2,9.1,0.4,18.2,1.9,27.2c0,0,1.1,6.5,2.8,14.3c1.2,5.7,2.7,11.3,4.5,16.8C327.7,275.1,326.3,271,325.1,266.9z"/>
		<path class="st3" d="M323.5,279c0,0-1.4,0.2-2.8,0.3c-0.5,0-1,0-1.5,0l0,0c-0.9-0.1-1.5-0.4-1.2-1l-0.7-0.1c-0.3,0-0.7,0-1,0h-0.5
			l0,0c-0.3,0-0.6,0.2-0.8,0.4c-0.1,0.1-0.1-0.1-0.2-0.4c-0.3-1.9-0.4-9.5-0.9-16l0,0c-0.2-2.1-0.4-4-0.6-5.7v-0.2
			c0,0-0.3,2.4-0.8,5.8c-0.7,4.5-1.6,9-2.8,13.5c0,0,1.5-10.1,2.2-19.2c0.3-3.3,0.4-6.7,0.3-10c0,0,0.3-6.3,2.1-10.4
			c0,0,3.4-9,1-13.3l0,0h-1.5l-7.7,0.2h-1.5l0,0l-0.4-5.4l-0.4,4.8l0,0.6h-0.7h-0.6v-0.1l-0.1-0.5l-0.5-2.3l-0.4,2.8H301l-4.1,0.1
			c0,0-1,9.2,1.6,13.8c0,0,1.6,3.1,2.2,11.2l0,0c0.2,3.3,0.3,6.6,0.2,9.9c0,0.1,0,0.1,0,0.2s-0.7-10.8-1.5-13.7c0,0-0.1,1.2-0.1,3.2
			c0,2.4-0.1,5.8,0.1,9.8c0,0.1,0,0.2,0,0.2c0,0.1,0,0.1,0,0.2c0.3,5.8,1.1,11.6,2.6,17.3c-1.3-3.4-2.3-7-3-10.6
			c-0.4-1.9-0.8-4-1.1-6.4l-0.2-1.3l-0.2,7.6l-0.4,14v0.1l-1.5-0.1h-0.4l-1.5-0.1v0.1v1c0,0-0.4,0-1,0.1l0,0c-0.4,0-0.9,0-1.4,0h0
			c-1.7-0.1-4-0.4-5.2-1.5c0.9-3.8,1.5-7.6,1.9-11.4c0.1-1.2,0.2-2.4,0.2-3.6c2-8.3,3.3-16.7,4.1-25.2c0,0-1.2-23.4,7.6-29.2
			c2.1-1.5,4.6-2.6,7.1-3.2c1.9,0.4,3.5,1.5,4.4,3.2c0,0,6.8,1,7.6,12.1c-0.2,9.1,0.4,18.2,1.9,27.2c0,0,1.1,6.5,2.8,14.1
			c0,1,0.1,2.8,0.2,4.7c0.1,3.1,0.6,6.2,1.5,9.1C325.2,275.9,327,278,323.5,279z"/>
		<path class="st15" d="M143.8,147.6c0-1.7-0.8-3.2-2.1-4.2c2.5-2.5,2.6-6.6,0.1-9.1c-0.8-0.8-1.8-1.4-2.9-1.7
			c0.2-0.6,0.3-1.3,0.3-2c0-3.6-2.9-6.5-6.5-6.5c-0.3,0-0.6,0-0.9,0.1v-0.1c0-3.1-2.5-5.5-5.5-5.5c0,0,0,0,0,0
			c-0.6,0-1.2,0.1-1.8,0.3c-0.6-2.2-2.7-3.8-5-3.8c-1.1,0-2.1,0.3-3,0.9c-0.7-1.4-2.2-2.3-3.8-2.3c-1,0-2,0.4-2.8,1.1
			c-0.7-0.9-1.8-1.5-2.9-1.5h-0.1c-1.1,0-2.2,0.5-2.9,1.5c-1.7-1.6-4.4-1.4-6,0.3c-0.2,0.3-0.4,0.6-0.6,0.9
			c-2.3-1.7-5.6-1.1-7.2,1.2c-0.3,0.5-0.6,1-0.8,1.6c-0.6-0.2-1.2-0.3-1.8-0.3c-3,0-5.5,2.5-5.5,5.5v0.1c-0.3,0-0.6-0.1-0.9-0.1
			c-3.6,0-6.5,2.9-6.5,6.5c0,0.7,0.1,1.4,0.3,2c-3.4,0.9-5.5,4.5-4.5,7.9c0.3,1.1,0.9,2.1,1.7,2.9c-2.3,1.7-2.9,4.9-1.2,7.2
			c0.3,0.5,0.7,0.9,1.2,1.2c-1.5,1.9-1.3,4.7,0.6,6.2c0.2,0.2,0.4,0.3,0.7,0.5c-0.5,0.6-0.7,1.4-0.7,2.2c0,1.5,0.9,3,2.3,3.6
			c-0.3,0.6-0.5,1.2-0.5,1.9c0,2.1,1.7,3.9,3.9,3.9l0,0h0.1c-0.1,0.2-0.1,0.5-0.1,0.7c0,1.8,1.4,3.2,3.2,3.2c0,0,0,0,0.1,0
			c0.9,0,1.7-0.4,2.3-1c0,0.1,0,0.3,0,0.4c0,1.7,1.3,3,3,3c0.8,0,1.5-0.3,2.1-0.9c0.3,1.4,1.8,2.3,3.2,2c1.4-0.3,2.3-1.8,2-3.2
			c-0.2-0.7-0.6-1.3-1.2-1.6c0.5-0.4,0.7-1.1,0.7-1.7c0-1.1-0.7-2.1-1.8-2.3c0.3-0.4,0.5-0.9,0.5-1.4c0-0.9-0.5-1.7-1.3-2.1
			c1.2-0.6,1.7-2,1.1-3.2c-0.3-0.5-0.7-0.9-1.2-1.1c1-0.7,1.3-2,0.6-3c0,0,0-0.1-0.1-0.1c0.8-0.3,1.3-1.1,1.4-2c0-0.1,0-0.3,0-0.4
			l0,0c1.2,0,2.1-1,2.1-2.2c0-0.1,0-0.2,0-0.3c0.4,0.2,0.7,0.3,1.2,0.3c1.2,0,2.3-1,2.3-2.2c0.3,0.2,0.7,0.2,1.1,0.2
			c1.1,0,2-0.6,2.5-1.6c0.4,0.3,0.9,0.4,1.3,0.4c0.7,0,1.3-0.3,1.8-0.8c0.4,0.5,1,0.8,1.6,0.8h0.4c0.6-0.1,1.2-0.3,1.6-0.8
			c0.4,0.5,1.1,0.8,1.8,0.8c0.5,0,0.9-0.1,1.3-0.4c0.4,1,1.4,1.6,2.5,1.6c0.4,0,0.7-0.1,1.1-0.2c0.1,1.3,1.2,2.3,2.4,2.2
			c0.4,0,0.7-0.1,1-0.3c0,0.1,0,0.2,0,0.3c0,1.2,1,2.2,2.2,2.2c0,0,0,0,0,0l0,0c0,0.1,0,0.3,0,0.4c0,0.9,0.5,1.7,1.4,2
			c-0.7,1-0.5,2.3,0.4,3c0,0,0.1,0,0.1,0.1c-1.2,0.5-1.8,1.9-1.3,3.1c0.2,0.5,0.6,0.9,1.1,1.2c-1.2,0.6-1.7,2-1.1,3.2
			c0.1,0.1,0.1,0.2,0.2,0.4c-1.3,0.3-2.1,1.6-1.8,2.9c0.1,0.4,0.3,0.8,0.6,1.1c-1.2,0.8-1.6,2.4-0.8,3.7c0.8,1.2,2.4,1.6,3.7,0.8
			c0.6-0.4,1-1,1.2-1.6c0.6,0.5,1.3,0.9,2.1,0.9c1.7,0,3-1.3,3-3c0,0,0,0,0,0c0-0.1,0-0.3,0-0.4c1.2,1.3,3.3,1.3,4.5,0.1
			c0.6-0.6,1-1.5,1-2.3c0-0.2,0-0.5-0.1-0.7h0.1c2.1,0,3.9-1.7,3.9-3.9c0,0,0,0,0,0c0-0.7-0.2-1.3-0.5-1.9c2-0.9,2.9-3.1,2-5.1
			c-0.1-0.2-0.2-0.5-0.4-0.7c2.1-1.2,2.9-3.8,1.8-6c-0.1-0.2-0.3-0.5-0.5-0.7C143,150.9,143.8,149.3,143.8,147.6z"/>
		<path class="st6" d="M97.1,115.9c-1.1,0.7-1.9,1.8-2.2,3c-0.6-0.2-1.2-0.3-1.8-0.3c-3.1,0-5.5,2.5-5.5,5.5l0,0v0.1
			c-0.3-0.1-0.6-0.1-0.9-0.1c-3.6,0-6.5,2.9-6.5,6.5c0,0.7,0.1,1.3,0.3,2c-3.4,0.9-5.5,4.5-4.5,7.9c0.3,1.1,0.9,2.1,1.7,2.9
			c-2.3,1.7-2.9,4.9-1.2,7.3c0.3,0.5,0.7,0.9,1.2,1.2c-1.5,1.9-1.2,4.7,0.7,6.2c0.2,0.2,0.4,0.3,0.7,0.4c-0.5,0.7-0.7,1.4-0.7,2.2
			c0,1.5,0.9,3,2.3,3.6c-1,1.9-0.3,4.2,1.5,5.3c0.6,0.3,1.2,0.5,1.9,0.5h0.1c0,0.2-0.1,0.5-0.1,0.7c0,1.8,1.5,3.2,3.2,3.2
			c0.9,0,1.7-0.4,2.3-1c0,0.1,0,0.3,0,0.4c0,1.7,1.3,3,3,3c0.6,0,1.2-0.2,1.7-0.5c-0.6,1.3-2.1,2-3.5,1.4c-0.8-0.3-1.3-1-1.5-1.8
			c-1.1,1.2-3,1.2-4.2,0.1c-0.6-0.6-1-1.4-0.9-2.3c0-0.1,0-0.3,0-0.4c-1.2,1.3-3.3,1.3-4.5,0.1c-0.6-0.6-1-1.5-1-2.3
			c0-0.2,0-0.5,0.1-0.7h-0.1c-2.1,0-3.9-1.7-3.9-3.9l0,0c0-0.7,0.2-1.3,0.5-1.9c-1.4-0.6-2.3-2-2.3-3.6c0-0.8,0.2-1.6,0.7-2.2
			c-2.1-1.2-2.9-3.8-1.8-6c0.1-0.2,0.3-0.5,0.5-0.7c-1.4-1-2.2-2.5-2.2-4.2c0-1.7,0.8-3.2,2.1-4.2c-2.6-2.5-2.6-6.6-0.1-9.1
			c0.8-0.8,1.8-1.4,2.9-1.7c-1.1-3.4,0.7-7,4.1-8.1c0.7-0.2,1.3-0.3,2-0.3c0.3,0,0.6,0,0.9,0.1v-0.1c0-3.1,2.5-5.5,5.5-5.5
			c0.6,0,1.2,0.1,1.8,0.3c0.8-2.8,3.6-4.4,6.4-3.6C96.2,115.4,96.6,115.6,97.1,115.9L97.1,115.9z"/>
		<path d="M141.6,151.9c1.5,1.9,1.3,4.7-0.6,6.2c-0.2,0.2-0.4,0.3-0.7,0.5c1.2,1.8,0.8,4.2-1,5.4c-0.2,0.1-0.4,0.3-0.7,0.4
			c1,1.9,0.3,4.2-1.5,5.3c-0.6,0.3-1.2,0.5-1.9,0.5h-0.1c0.1,0.2,0.1,0.5,0.1,0.7c0,1.8-1.4,3.2-3.2,3.2l0,0c-0.9,0-1.7-0.4-2.3-1
			c0,0.1,0,0.3,0,0.4c0,1.7-1.3,3-3,3c-0.6,0-1.2-0.2-1.7-0.5c-0.2-0.1-0.3-0.2-0.4-0.4c-0.4,1.4-1.8,2.3-3.2,1.9
			c-0.8-0.2-1.4-0.8-1.8-1.5c1.4,0.9,3.2,0.5,4.2-0.9c0.3-0.5,0.5-1.1,0.5-1.7c0-0.1,0-0.3,0-0.4c0.6,0.6,1.4,1,2.3,1
			c1.8,0,3.2-1.4,3.2-3.2l0,0c0-0.2,0-0.5-0.1-0.7h0.1c2.1,0,3.9-1.7,3.9-3.9c0-0.7-0.2-1.3-0.5-1.9c1.4-0.6,2.3-2,2.3-3.6
			c0-0.8-0.2-1.6-0.7-2.2c2.1-1.2,2.9-3.8,1.8-6c-0.1-0.2-0.3-0.5-0.5-0.7c1.4-1,2.2-2.5,2.2-4.2c0-1.7-0.8-3.2-2.1-4.2
			c2.5-2.5,2.6-6.6,0.1-9.1c-0.8-0.8-1.8-1.4-2.9-1.7c0.2-0.6,0.3-1.3,0.3-2c0-3.6-2.9-6.5-6.5-6.5c-0.3,0-0.6,0-0.9,0.1v-0.1
			c0-3.1-2.5-5.5-5.5-5.5l0,0c-0.6,0-1.2,0.1-1.8,0.3c-0.3-1.2-1.1-2.3-2.2-3c1.5-0.9,3.4-1.1,5-0.3c0.2,0.1,0.3,0.2,0.5,0.3
			c1.1,0.7,1.9,1.8,2.2,3c0.6-0.2,1.2-0.3,1.8-0.3c3.1,0,5.5,2.5,5.5,5.5c0,0,0,0.1,0,0.1c0.3-0.1,0.6-0.1,0.9-0.1
			c3.6,0,6.5,2.9,6.5,6.4c0,0.7-0.1,1.4-0.3,2c3.4,0.9,5.5,4.5,4.5,7.9c-0.3,1.1-0.9,2.1-1.7,2.9c2.3,1.7,2.9,4.9,1.2,7.3
			C142.5,151.1,142.1,151.5,141.6,151.9L141.6,151.9z"/>
	</g>
</g>
</svg>
