<?xml version="1.0" encoding="utf-8"?>
<!-- Generator: Adobe Illustrator 24.0.1, SVG Export Plug-In . SVG Version: 6.00 Build 0)  -->
<svg version="1.1" id="Layer_1" xmlns="http://www.w3.org/2000/svg" xmlns:xlink="http://www.w3.org/1999/xlink" x="0px" y="0px"
	 viewBox="0 0 500 500" style="enable-background:new 0 0 500 500;" xml:space="preserve">
<style type="text/css">
	.st0{fill:#FFFFFF;}
	.st1{fill:#7DACFF;}
	.st2{opacity:0.15;fill:#3E525B;enable-background:new    ;}
	.st3{fill:none;stroke:#C7EBFF;stroke-width:0.95;stroke-miterlimit:10;}
	.st4{fill:#817D7D;}
</style>
<title>Batch of 4</title>
<path class="st0" d="M335.1,173.5L335.1,173.5c0.9,0,1.6,0.7,1.6,1.6v15.3c0,0.9-0.7,1.6-1.6,1.6l0,0c-0.9,0-1.6-0.7-1.6-1.6v-15.3
	C333.5,174.2,334.3,173.5,335.1,173.5z"/>
<path class="st0" d="M192.3,190.6L192.3,190.6c0.9,0,1.6,0.7,1.6,1.6v8.7c0,0.9-0.7,1.6-1.6,1.6l0,0c-0.9,0-1.6-0.7-1.6-1.6v-8.7
	C190.7,191.3,191.4,190.6,192.3,190.6z"/>
<path class="st0" d="M192.3,171.6L192.3,171.6c0.9,0,1.6,0.7,1.6,1.6v8.7c0,0.9-0.7,1.6-1.6,1.6l0,0c-0.9,0-1.6-0.7-1.6-1.6v-8.7
	C190.7,172.3,191.4,171.6,192.3,171.6z"/>
<path class="st1" d="M203.9,109.2h119.7c6.4,0,11.6,5.2,11.6,11.6v266.3c0,6.4-5.2,11.6-11.6,11.6H201.6c-5.2,0-9.4-4.2-9.4-9.4
	V120.8C192.3,114.4,197.5,109.2,203.9,109.2C203.9,109.2,203.9,109.2,203.9,109.2z"/>
<rect x="198.7" y="126" class="st0" width="130" height="244.9"/>
<rect x="325.5" y="126" class="st2" width="3.2" height="244.9"/>
<ellipse class="st0" cx="263.4" cy="386.5" rx="6.9" ry="6.9"/>
<ellipse class="st3" cx="263.4" cy="386.5" rx="7.2" ry="7.1"/>
<path class="st4" d="M257.9,117.5h19.1c0.6,0,1.1,0.5,1.1,1.1v0.4c0,0.6-0.5,1.1-1.1,1.1h-19.1c-0.6,0-1.1-0.5-1.1-1.1v-0.4
	C256.8,118,257.2,117.5,257.9,117.5z"/>
<circle class="st4" cx="252.5" cy="118.8" r="2.3"/>
</svg>
