<svg id="Layer_2" data-name="Layer 2" xmlns="http://www.w3.org/2000/svg" viewBox="0 0 200 200"><defs><style>.cls-1{fill:#d33d73;}.cls-12,.cls-2{fill:#c11b48;}.cls-3{fill:#f9edf1;}.cls-14,.cls-4,.cls-6{fill:#ac1a43;}.cls-4{opacity:0.41;}.cls-12,.cls-14,.cls-15,.cls-4,.cls-6{isolation:isolate;}.cls-5{fill:#d6a1b5;}.cls-12,.cls-6{opacity:0.13;}.cls-7{fill:#edaec1;}.cls-8{fill:#f1c014;}.cls-9{fill:#80a138;}.cls-10{fill:#758e30;}.cls-11{fill:#88aa39;}.cls-13{fill:#f7bacb;}.cls-14{opacity:0.17;}.cls-15{fill:#fff;opacity:0.57;}</style></defs><g id="Layer_2-2" data-name="Layer 2"><g id="Layer_1-2" data-name="Layer 1-2"><rect class="cls-1" x="45.96" y="94.08" width="25.75" height="12.31"/><path class="cls-2" d="M46,94.08h.19a5.63,5.63,0,0,1,5.61,5.58v11.77H40.5V99.57A5.49,5.49,0,0,1,46,94.08Z"/><path class="cls-3" d="M63.26,57.66H119.5v69.06a15.59,15.59,0,0,1-15.6,15.6H63.26V57.66Z"/><rect class="cls-3" x="56.11" y="131.12" width="18.86" height="11.2"/><path class="cls-1" d="M63.26,101.47v35.36a5.81,5.81,0,0,1-5.76,5.5,5.68,5.68,0,0,1-5.65-5.72h0V101.47Z"/><path class="cls-4" d="M63.26,136.89a5.83,5.83,0,0,1-5.85,5.44,5.69,5.69,0,0,1-5.74-5.65v-3.77L60.82,102l2.33-7.88V102Z"/><rect class="cls-5" x="73.66" y="67.2" width="35.77" height="1.32" rx="0.64"/><rect class="cls-5" x="73.66" y="75.11" width="13.66" height="9.88" rx="2.33"/><rect class="cls-5" x="74.31" y="86.97" width="12.36" height="1.32" rx="0.64"/><rect class="cls-5" x="94.47" y="75.11" width="13.66" height="9.88" rx="2.33"/><rect class="cls-5" x="95.12" y="86.97" width="12.36" height="1.32" rx="0.64"/><rect class="cls-5" x="73.66" y="93.56" width="13.66" height="9.88" rx="2.33"/><rect class="cls-5" x="74.31" y="105.42" width="12.36" height="1.32" rx="0.64"/><rect class="cls-5" x="94.47" y="93.56" width="13.66" height="9.88" rx="2.33"/><rect class="cls-5" x="95.12" y="105.42" width="12.36" height="1.32" rx="0.64"/><polygon class="cls-6" points="113.58 85.33 91.22 128.59 119.18 130.47 113.58 85.33"/><rect class="cls-2" x="128.29" y="75.77" width="14.96" height="17.79"/><rect class="cls-7" x="112.03" y="81.04" width="47.47" height="60.63" rx="9.14"/><rect class="cls-2" x="133.49" y="81.04" width="4.55" height="60.63"/><polygon class="cls-1" points="135.77 81.05 129.59 86.97 124.72 81.05 128.29 75.78 135.77 81.05"/><polygon class="cls-1" points="135.77 81.05 141.95 86.97 146.82 81.05 143.25 75.78 135.77 81.05"/><ellipse class="cls-8" cx="135.77" cy="88.62" rx="0.98" ry="0.99"/><ellipse class="cls-8" cx="135.77" cy="99.16" rx="0.98" ry="0.99"/><ellipse class="cls-8" cx="135.77" cy="111.03" rx="0.98" ry="0.99"/><ellipse class="cls-8" cx="135.77" cy="122.89" rx="0.98" ry="0.99"/><ellipse class="cls-8" cx="135.77" cy="134.75" rx="0.98" ry="0.99"/><path class="cls-9" d="M84.55,118.9a7,7,0,1,1-14,1.58,7.2,7.2,0,0,1,.68-3.82,7,7,0,0,1,5.56-4,6.89,6.89,0,0,1,5.82,2.13A7.12,7.12,0,0,1,84.55,118.9Z"/><path class="cls-8" d="M82.69,115a.39.39,0,0,1-.24.49h-.07a.43.43,0,0,1-.16,0,.68.68,0,0,0-.86.41.74.74,0,0,0,0,.29l.11,1a.65.65,0,0,1-1,.65l-1-.55a1.29,1.29,0,0,0-1.69.39l-1.07,1.57a.63.63,0,0,1-.89.18.65.65,0,0,1-.26-.37L75,117.18a.79.79,0,0,0-1.33-.32l-.85.92a.75.75,0,0,1-1.07,0,.72.72,0,0,1-.2-.29l-.3-.75v-.13a7,7,0,0,1,5.56-4,6.89,6.89,0,0,1,5.82,2.13Z"/><path class="cls-9" d="M70.6,122a7.87,7.87,0,0,1-9.55,5.72l-.06,0a8,8,0,0,1-3.41-13.51,7.78,7.78,0,0,1,7.4-1.92,7.92,7.92,0,0,1,5.25,4.6A8.07,8.07,0,0,1,70.6,122Z"/><path class="cls-8" d="M70.22,117.14a.42.42,0,0,1-.44.41l-.08,0a.51.51,0,0,1-.16-.09.74.74,0,0,0-1,.06.79.79,0,0,0-.17.31l-.27,1.07a.72.72,0,0,1-1.27.29l-.8-1a1.43,1.43,0,0,0-1.92-.27l-1.75,1.2a.72.72,0,0,1-1-.2.77.77,0,0,1-.12-.47l.16-2.15a.88.88,0,0,0-.79-1,.86.86,0,0,0-.47.08l-1.25.62a.87.87,0,0,1-1.16-.41.86.86,0,0,1-.08-.36v-1.07a7.78,7.78,0,0,1,7.4-1.92,7.92,7.92,0,0,1,5.25,4.6Z"/><path class="cls-9" d="M64.5,130.66A8.94,8.94,0,1,1,48,125.87a8.84,8.84,0,0,1,12.14-3,9.15,9.15,0,0,1,2.48,2.24A9,9,0,0,1,64.5,130.66Z"/><path class="cls-8" d="M62.67,125.4a.46.46,0,0,1-.36.56h-.1a.34.34,0,0,1-.2,0,.84.84,0,0,0-1.22.75V128a.83.83,0,0,1-.83.83.78.78,0,0,1-.46-.14l-1.15-.84a1.63,1.63,0,0,0-2.18.26l-1.6,1.78a.81.81,0,0,1-1.16.09.83.83,0,0,1-.27-.49l-.43-2.41a1,1,0,0,0-1.16-.81,1,1,0,0,0-.47.22l-1.2,1a1,1,0,0,1-1.57-.48L48,126v-.18a8.84,8.84,0,0,1,12.14-3,9.15,9.15,0,0,1,2.48,2.24Z"/><path class="cls-9" d="M92.8,130.66a7.94,7.94,0,1,1-1.64-4.89A8,8,0,0,1,92.8,130.66Z"/><path class="cls-8" d="M91.22,126a.43.43,0,0,1-.32.51h-.09a.28.28,0,0,1-.18,0,.74.74,0,0,0-1,.34.76.76,0,0,0-.08.33v1.1a.73.73,0,0,1-.73.74.71.71,0,0,1-.42-.14l-1-.73a1.45,1.45,0,0,0-1.93.22L84.09,130a.72.72,0,0,1-1.26-.35l-.38-2.13a.88.88,0,0,0-1-.71A.85.85,0,0,0,81,127L80,127.9a.87.87,0,0,1-1.22,0,.88.88,0,0,1-.23-.46l-.24-.88v-.16a7.81,7.81,0,0,1,12.9-.64Z"/><polygon class="cls-10" points="63.17 125.94 58.71 133.82 65.18 133.82 63.17 125.94"/><path class="cls-11" d="M80.36,126.44a9.27,9.27,0,0,1-5.86,11.67A9.09,9.09,0,0,1,63,132.3a.56.56,0,0,1,0-.12,9.28,9.28,0,0,1,5.85-11.67,9,9,0,0,1,8,1.15A9.19,9.19,0,0,1,80.36,126.44Z"/><path class="cls-8" d="M77,121.92a.49.49,0,0,1-.18.67l-.09,0a.34.34,0,0,1-.2,0,.87.87,0,0,0-1,.73.9.9,0,0,0,0,.4L76,125a.88.88,0,0,1-.54,1.1.84.84,0,0,1-.52,0l-1.39-.44a1.69,1.69,0,0,0-2,1l-1,2.28a.83.83,0,0,1-1.08.47.84.84,0,0,1-.43-.4l-1.18-2.21a1,1,0,0,0-1.35-.43,1.11,1.11,0,0,0-.43.43l-.84,1.4a1,1,0,0,1-1.38.3,1,1,0,0,1-.3-.3l-.58-.89-.11-.15a9.22,9.22,0,0,1,6-6.58,9,9,0,0,1,8,1.15Z"/><polygon class="cls-7" points="87.57 142.34 53.36 142.34 45.05 133.82 94.9 133.82 87.57 142.34"/><polygon class="cls-12" points="83.47 119.69 65.18 142.34 89.92 142.34 83.47 119.69"/><rect class="cls-1" x="83.12" y="117.54" width="39.63" height="24.79" rx="5.66"/><rect class="cls-3" x="86.55" y="117.54" width="39.14" height="24.79" rx="5.66"/><path class="cls-1" d="M99.39,117.54l2.11-2.25a2.89,2.89,0,0,1,2.07-.89H107a3.15,3.15,0,0,1,2,.71l3,2.43Z"/><path class="cls-13" d="M101.32,117.54l2.18-2.25a2.85,2.85,0,0,1,2-.89H109a3.15,3.15,0,0,1,2,.71l3,2.43Z"/><polygon class="cls-14" points="100.98 125.86 89.92 142.34 113.6 142.34 117.22 136.25 100.98 125.86"/><rect class="cls-1" x="99.29" y="122.14" width="17.93" height="17.16" rx="8.33"/><ellipse class="cls-13" cx="110.74" cy="130.72" rx="8.47" ry="8.58"/><path class="cls-3" d="M116.72,130.72a6,6,0,0,1-6,6,5.93,5.93,0,0,1-4.07-1.62,6.1,6.1,0,0,1,2.49-10.27,5.73,5.73,0,0,1,1.6-.17,6,6,0,0,1,5.65,4.07A6.2,6.2,0,0,1,116.72,130.72Z"/><path class="cls-15" d="M112.93,136.39l-8.05-4.16a6,6,0,0,1-.17-1.13,6.24,6.24,0,0,1,.6-3L116,133.66A6,6,0,0,1,112.93,136.39Z"/><path class="cls-15" d="M116.5,132.26l-10.4-5.37a5.9,5.9,0,0,1,2.77-1.88l7.48,3.87a6.2,6.2,0,0,1,.3,1.59A6,6,0,0,1,116.5,132.26Z"/><ellipse class="cls-11" cx="121.78" cy="121.24" rx="1.3" ry="1.32"/></g></g></svg>