<svg xmlns="http://www.w3.org/2000/svg" xmlns:xlink="http://www.w3.org/1999/xlink" viewBox="0 0 98.76 84"><defs><style>.cls-1{fill:#d33d73;}.cls-2{fill:#f7bacb;}.cls-3{fill:#f9edf1;}.cls-4,.cls-9{fill:#ac1a43;}.cls-4{opacity:0.25;}.cls-5{fill:#d6a1b5;}.cls-6{fill:#afd14c;}.cls-7{fill:#a3cd39;}.cls-8{fill:#88aa39;}.cls-10{fill:url(#linear-gradient);}.cls-11{fill:#f1c014;}</style><linearGradient id="linear-gradient" x1="46.82" y1="66.34" x2="98.76" y2="66.34" gradientUnits="userSpaceOnUse"><stop offset="0.06" stop-color="#d33d73" stop-opacity="0.2"/><stop offset="0.1" stop-color="#d33d73" stop-opacity="0.31"/><stop offset="0.19" stop-color="#d33d73" stop-opacity="0.49"/><stop offset="0.29" stop-color="#d33d73" stop-opacity="0.65"/><stop offset="0.39" stop-color="#d33d73" stop-opacity="0.78"/><stop offset="0.5" stop-color="#d33d73" stop-opacity="0.88"/><stop offset="0.62" stop-color="#d33d73" stop-opacity="0.95"/><stop offset="0.77" stop-color="#d33d73" stop-opacity="0.99"/><stop offset="1" stop-color="#d33d73"/></linearGradient></defs><g id="Layer_2" data-name="Layer 2"><g id="Layer_1-2" data-name="Layer 1"><rect class="cls-1" y="9.41" width="37.84" height="74.59" rx="5.81"/><rect class="cls-2" x="3.44" y="9.41" width="37.84" height="74.59" rx="5.81"/><rect class="cls-3" x="6.94" y="13.75" width="33.46" height="66.91" rx="5.81"/><polygon class="cls-4" points="15.16 10.03 7.4 84 21.4 84 19.68 10 15.16 10.03"/><rect class="cls-1" x="14.98" width="42.62" height="84" rx="5.81"/><rect class="cls-2" x="18.85" width="42.62" height="84" rx="5.81"/><rect class="cls-3" x="21.75" y="6.51" width="37.12" height="74.23" rx="5.81"/><rect class="cls-5" x="32.17" y="2.5" width="16.93" height="1.41" rx="0.7"/><polygon class="cls-4" points="27.32 83.83 45.08 50.46 53.8 84 27.32 83.83"/><polygon class="cls-6" points="92.53 56.29 67.21 79.09 48.8 53.64 74.12 30.84 92.53 56.29"/><polygon class="cls-7" points="96.72 61.79 62.93 80.75 50.53 51.88 84.31 32.92 96.72 61.79"/><polygon class="cls-8" points="98.43 72.23 53.04 81.31 48.18 49.63 93.58 40.55 98.43 72.23"/><rect class="cls-9" x="44.5" y="48.69" width="54.26" height="35.31" rx="4.89"/><rect class="cls-10" x="46.82" y="48.69" width="51.94" height="35.31" rx="4.89"/><circle class="cls-11" cx="91.01" cy="66.77" r="3.45"/></g></g></svg>