<svg id="Layer_2" data-name="Layer 2" xmlns="http://www.w3.org/2000/svg" viewBox="0 0 200 200"><defs><style>.cls-1{fill:#f9edf1;}.cls-2{opacity:0.38;}.cls-3{fill:#b53368;}.cls-4{opacity:0.16;}.cls-5{fill:#fff;}.cls-6{fill:#7a9837;}.cls-7{fill:#738f36;}.cls-8{fill:#88aa39;}.cls-9{fill:#f7bacb;}.cls-10{fill:#ef81a9;}.cls-11{fill:#d33d73;}.cls-12{opacity:0.7;}.cls-13{opacity:0.45;}.cls-14{fill:#587131;}.cls-15{fill:#f8d775;}</style></defs><g id="Layer_2-2" data-name="Layer 2"><g id="Layer_1-2" data-name="Layer 1-2"><path class="cls-1" d="M140.82,101.56a41.27,41.27,0,0,1-4.65,19c-.45.86-.91,1.69-1.41,2.51a43.4,43.4,0,0,1-7.55,9.3l-.11.1A46.89,46.89,0,0,1,111.91,142H77.39c-.6-.22-1.18-.47-1.77-.71l-.39-.17c-.81-.36-1.6-.72-2.39-1.13-.14-.07-.29-.14-.42-.22a35.31,35.31,0,0,1-3.13-1.79l-.23-.12h0c-.52-.34-1-.68-1.55-1s-1-.67-1.43-1A43.72,43.72,0,0,1,51,115.75c-.22-.59-.43-1.21-.61-1.82a37.92,37.92,0,0,1-1.12-4.59,41.54,41.54,0,0,1-.65-4.85c-.07-1-.1-1.94-.1-2.93C48.48,77.5,69.15,58,94.65,58a47.56,47.56,0,0,1,31.08,11.34,45.56,45.56,0,0,1,3.54,3.41c.36.37.7.75,1,1.14a41.65,41.65,0,0,1,5.34,7.63,40,40,0,0,1,2.82,6.26h0A41.16,41.16,0,0,1,140.82,101.56Z"/><g class="cls-2"><path class="cls-3" d="M121.61,84.22A13.71,13.71,0,0,1,113,81.46a.25.25,0,0,1,0-.36h0a.27.27,0,0,1,.37,0,13.84,13.84,0,0,0,10.44,2.52c8-1.09,16.13-7.83,24.19-20a.25.25,0,0,1,.34-.1l0,0a.26.26,0,0,1,.07.36C140.2,76.15,132,83,123.86,84.1A16.88,16.88,0,0,1,121.61,84.22Z"/></g><g class="cls-2"><path class="cls-3" d="M121.62,91.59a15,15,0,0,1-8.63-2.4.27.27,0,0,1-.06-.37h0a.27.27,0,0,1,.36,0c.15.11,14.89,10.74,34.62-15.12a.27.27,0,0,1,.37,0,.26.26,0,0,1,0,.31c-5.77,7.59-14.83,16.79-25.19,17.63A13.08,13.08,0,0,0,121.62,91.59Z"/></g><g class="cls-4"><path class="cls-3" d="M88.8,98.61a13.5,13.5,0,0,1-8.07-2.37.26.26,0,0,1,0-.33.25.25,0,0,1,.34,0,13.81,13.81,0,0,0,10,2.11c7.34-1,14.87-6.75,22.29-17.06a.25.25,0,0,1,.33,0,.22.22,0,0,1,0,.32C106.15,91.64,98.56,97.42,91,98.45A18.27,18.27,0,0,1,88.8,98.61Z"/></g><g class="cls-4"><path class="cls-3" d="M89.53,105a14.1,14.1,0,0,1-8.67-2.7.24.24,0,0,1,0-.34h0a.25.25,0,0,1,.34,0,14.5,14.5,0,0,0,10.27,2.44c7.2-.82,14.57-6.1,21.88-15.69a.24.24,0,0,1,.34-.05h0a.26.26,0,0,1,0,.35c-7.39,9.7-14.86,15-22.17,15.88A18.81,18.81,0,0,1,89.53,105Z"/></g><path class="cls-5" d="M111.5,104.18a2.07,2.07,0,0,1-.06-.5c0-1.38,1.43-2.52,3.28-2.73h0a2.75,2.75,0,0,1,2.73-2.77,2.58,2.58,0,0,1,1.19.26,4.52,4.52,0,0,1,7.82,2.12,4.05,4.05,0,0,1,.85-.12,3,3,0,0,1,3,3,2.71,2.71,0,0,1-.1.75Z"/><circle class="cls-6" cx="99.37" cy="130.94" r="4.73"/><circle class="cls-6" cx="121.41" cy="122.55" r="9.97"/><circle class="cls-7" cx="108.81" cy="125.69" r="7.87"/><path class="cls-8" d="M142.92,137.24a14.07,14.07,0,0,1-.81,4.72H115.4a14.1,14.1,0,0,1-.73-3.21,15.11,15.11,0,0,1-.08-1.51A14.2,14.2,0,0,1,128.76,123a10.28,10.28,0,0,1,1.11,0,12.22,12.22,0,0,1,1.48.19,11.81,11.81,0,0,1,2,.54,13.77,13.77,0,0,1,4.53,2.57A14.16,14.16,0,0,1,142.92,137.24Z"/><path class="cls-8" d="M123,135.13a9.91,9.91,0,0,1-2.7,6.83H105.74a10.33,10.33,0,0,1-1.62-2.31,9.86,9.86,0,0,1-1.07-4.52,10.47,10.47,0,0,1,.09-1.36,10.28,10.28,0,0,1,.53-2.12h0a8.06,8.06,0,0,1,.42-1v-.16a10,10,0,0,1,7.65-5.29,8.65,8.65,0,0,1,1.25-.08,9.79,9.79,0,0,1,3.66.69,10.7,10.7,0,0,1,2.2,1.21,10,10,0,0,1,3.73,5.37v.08A9.66,9.66,0,0,1,123,135.13Z"/><path class="cls-8" d="M108.29,137.77a8.14,8.14,0,0,1-1.13,4.19H92.64a.55.55,0,0,1-.08-.15,8.11,8.11,0,0,1-1-3.56v-.48a8.39,8.39,0,0,1,8.33-8.4h.73a8.25,8.25,0,0,1,1.39.24,7.8,7.8,0,0,1,2,.85h0a8.35,8.35,0,0,1,4.12,7.23Z"/><circle class="cls-6" cx="65.36" cy="138.33" r="2.58"/><circle class="cls-6" cx="77.39" cy="133.75" r="5.44"/><circle class="cls-7" cx="70.51" cy="135.47" r="4.29"/><path class="cls-8" d="M92.56,141.77V142H73.68v-.19a4,4,0,0,1,0-.69,6.16,6.16,0,0,1,.37-1.58,6.4,6.4,0,0,1,.52-1.09,7.94,7.94,0,0,1,1.68-2A10.45,10.45,0,0,1,82.78,134h.3a9.81,9.81,0,0,1,8.41,4.2A6.57,6.57,0,0,1,92.56,141.77Z"/><path class="cls-8" d="M78.26,140.66a4.6,4.6,0,0,1-.19,1.33H67.55a4.59,4.59,0,0,1-.18-1.33,4.74,4.74,0,0,1,.06-.75h0a5.3,5.3,0,0,1,.28-1.16c.07-.16.15-.32.23-.47h0v-.08a1.22,1.22,0,0,1,.12-.19,5.26,5.26,0,0,1,3.36-2.57,3.32,3.32,0,0,1,.7-.13,3.45,3.45,0,0,1,.64-.05,5,5,0,0,1,1.28.16,3.86,3.86,0,0,1,.73.23,5.72,5.72,0,0,1,1.47.86,6,6,0,0,1,2,4.15Z"/><path class="cls-8" d="M70.23,142H61.07a4.62,4.62,0,0,1,4.55-4.49,5,5,0,0,1,1.21.16,4,4,0,0,1,1.1.47h0a4.24,4.24,0,0,1,1.57,1.55A4.48,4.48,0,0,1,70.23,142Z"/><path class="cls-9" d="M137.9,59.75V142h-4.53v-82a1.91,1.91,0,0,1,1.9-1.93h.9a1.73,1.73,0,0,1,1.73,1.74Z"/><rect class="cls-9" x="120.89" y="62.55" width="30.63" height="1.14" rx="0.56"/><rect class="cls-9" x="120.89" y="72.76" width="30.63" height="1.14" rx="0.56"/><path class="cls-10" d="M104.12,78.23V142h-3.49V78.38a1.48,1.48,0,0,1,1.48-1.48h.68A1.34,1.34,0,0,1,104.12,78.23Z"/><rect class="cls-9" x="91.03" y="80.39" width="23.55" height="0.88" rx="0.43"/><rect class="cls-9" x="91.03" y="88.24" width="23.55" height="0.88" rx="0.43"/><path class="cls-11" d="M74.08,93.78V142H71.46V93.89a1.13,1.13,0,0,1,1.11-1.12h.5a1,1,0,0,1,1,1Z"/><path class="cls-9" d="M64.56,95.41H81.65a.33.33,0,0,1,.33.33h0a.33.33,0,0,1-.33.33H64.56a.33.33,0,0,1-.33-.33h0A.33.33,0,0,1,64.56,95.41Z"/><path class="cls-9" d="M64.56,101.33H81.65a.33.33,0,0,1,.33.33h0a.33.33,0,0,1-.33.33H64.56a.33.33,0,0,1-.33-.33h0A.33.33,0,0,1,64.56,101.33Z"/><g class="cls-12"><path class="cls-11" d="M100.89,84.39A12,12,0,0,1,93,81.55.4.4,0,0,1,93,81a.38.38,0,0,1,.54,0h0a11.71,11.71,0,0,0,9.15,2.5c7.14-1,14.75-7.88,22-20a.37.37,0,0,1,.52-.15h0a.4.4,0,0,1,.15.54h0c-7.51,12.51-15.1,19.36-22.6,20.32A14.61,14.61,0,0,1,100.89,84.39Z"/></g><g class="cls-12"><path class="cls-11" d="M100.89,92.22a11.45,11.45,0,0,1-8.36-3.4.38.38,0,0,1,0-.55.38.38,0,0,1,.54,0h0a11.08,11.08,0,0,0,8.61,3.09c4.87-.32,12.77-3.8,22.72-18.51a.38.38,0,0,1,.55,0,.4.4,0,0,1,.09.49c-8.14,12.08-16,18.43-23.34,18.9Z"/></g><g class="cls-12"><path class="cls-11" d="M72.9,99.43a10.61,10.61,0,0,1-7.35-2.88.35.35,0,0,1,.5-.48,10.28,10.28,0,0,0,8.19,2.58c6.2-.77,12.79-6.89,19.06-17.73a.34.34,0,0,1,.47-.13h0a.37.37,0,0,1,.13.48C87.43,92.47,80.84,98.55,74.3,99.34,73.84,99.39,73.37,99.42,72.9,99.43Z"/></g><g class="cls-12"><path class="cls-11" d="M74.2,105.45a12.52,12.52,0,0,1-8.66-3.66.34.34,0,0,1-.05-.49.35.35,0,0,1,.49,0,.23.23,0,0,1,.07.07,12,12,0,0,0,9.48,3.36c5.94-.71,11.74-6.05,17.25-15.89a.35.35,0,0,1,.47-.13.35.35,0,0,1,.13.48c-5.59,10-11.64,15.51-17.78,16.24A9.32,9.32,0,0,1,74.2,105.45Z"/></g><g class="cls-2"><path class="cls-11" d="M49.65,109.62h-.43a.26.26,0,0,1-.25-.26v0a.25.25,0,0,1,.25-.25h0a11.14,11.14,0,0,0,7.56-3c2.77-2.25,5.52-5.79,8.24-10.47a.27.27,0,0,1,.36-.11.26.26,0,0,1,.1.35v0c-2.76,4.77-5.57,8.33-8.37,10.61A12.06,12.06,0,0,1,49.65,109.62Z"/></g><g class="cls-2"><path class="cls-11" d="M50.68,114.17h-.3a.26.26,0,0,1-.26-.26h0a.24.24,0,0,1,.25-.25h0c3.32.11,6.64-1.78,9.89-5.6a41.78,41.78,0,0,0,4.33-6.45.27.27,0,0,1,.36-.1.26.26,0,0,1,.11.34h0a42.34,42.34,0,0,1-4.38,6.56C57.42,112.23,54.06,114.17,50.68,114.17Z"/></g><path class="cls-5" d="M66.32,114.94a2.93,2.93,0,0,1-.1.78H51c-.22-.59-.43-1.21-.61-1.82a37.56,37.56,0,0,1-1.15-4.56,41.54,41.54,0,0,1-.65-4.85,6.93,6.93,0,0,1,1.28-.12,7,7,0,0,1,5.25,2.36,4.38,4.38,0,0,1,1.81-.4h0a4.32,4.32,0,0,1,4.27,4.31h0C64.11,111,66.32,112.8,66.32,114.94Z"/><path class="cls-11" d="M98.34,67.4l-.08-.1a2,2,0,0,0-1.8-.35.09.09,0,1,1-.06-.18,2.11,2.11,0,0,1,1.91.33,1.79,1.79,0,0,1,1.94-.7.09.09,0,0,1,.06.11h0a.1.1,0,0,1-.12.06,1.7,1.7,0,0,0-1.79.71Z"/><path class="cls-11" d="M91,73.68l-.08-.08a1.87,1.87,0,0,0-1.79-.35.09.09,0,0,1-.12-.06.09.09,0,0,1,0-.12h0a2.08,2.08,0,0,1,1.9.32,1.85,1.85,0,0,1,2-.7.1.1,0,0,1,0,.12.08.08,0,0,1-.09.06h0a1.72,1.72,0,0,0-1.79.72Z"/><path class="cls-11" d="M102,72.51v-.05a1.06,1.06,0,0,0-1-.21m-.11-.13a1.15,1.15,0,0,1,1.06.18,1,1,0,0,1,1.07-.39s0,0,0,.06a.09.09,0,0,1-.07,0,.93.93,0,0,0-1,.39Z"/><g class="cls-13"><polygon class="cls-14" points="133.48 141.96 113.18 117.37 115.16 114.79 133.37 135.76 133.48 141.96"/></g><g class="cls-13"><polygon class="cls-14" points="100.63 137.35 100.63 141.96 92.63 133.56 94.45 131.39 100.63 137.35"/></g><g class="cls-13"><path class="cls-14" d="M71.46,138.57V142l-5.14-6.34a8.14,8.14,0,0,1,.63-2.57Z"/></g><circle class="cls-15" cx="79.45" cy="75.94" r="4.54"/><path class="cls-5" d="M64.31,85.3a2.2,2.2,0,0,1-.08-.62c0-1.68,1.73-3.07,4-3.34h0a3.37,3.37,0,0,1,3.31-3.43h.09a3.26,3.26,0,0,1,1.41.31,5.53,5.53,0,0,1,9.56,2.61,3.48,3.48,0,0,1,1-.15,3.69,3.69,0,0,1,3.57,4.62Z"/></g></g></svg>