<svg id="Layer_2" data-name="Layer 2" xmlns="http://www.w3.org/2000/svg" xmlns:xlink="http://www.w3.org/1999/xlink" viewBox="0 0 200 200"><defs><style>.cls-1{fill:#d33d73;}.cls-2{fill:#f7bacb;}.cls-3{fill:#f9edf1;}.cls-4,.cls-9{fill:#ac1a43;}.cls-4{opacity:0.25;isolation:isolate;}.cls-5{fill:#d6a1b5;}.cls-6{fill:#afd14c;}.cls-7{fill:#a3cd39;}.cls-8{fill:#88aa39;}.cls-10{fill:url(#linear-gradient);}.cls-11{fill:#f1c014;}</style><linearGradient id="linear-gradient" x1="97.44" y1="-2999.15" x2="149.38" y2="-2999.15" gradientTransform="matrix(1, 0, 0, -1, 0, -2874.8)" gradientUnits="userSpaceOnUse"><stop offset="0.06" stop-color="#d33d73" stop-opacity="0.2"/><stop offset="0.1" stop-color="#d33d73" stop-opacity="0.31"/><stop offset="0.19" stop-color="#d33d73" stop-opacity="0.49"/><stop offset="0.29" stop-color="#d33d73" stop-opacity="0.65"/><stop offset="0.39" stop-color="#d33d73" stop-opacity="0.78"/><stop offset="0.5" stop-color="#d33d73" stop-opacity="0.88"/><stop offset="0.62" stop-color="#d33d73" stop-opacity="0.95"/><stop offset="0.77" stop-color="#d33d73" stop-opacity="0.99"/><stop offset="1" stop-color="#d33d73"/></linearGradient></defs><g id="Layer_2-2" data-name="Layer 2"><g id="Layer_1-2" data-name="Layer 1-2"><rect class="cls-1" x="50.62" y="67.41" width="37.84" height="74.59" rx="5.81"/><rect class="cls-2" x="54.06" y="67.41" width="37.84" height="74.59" rx="5.81"/><rect class="cls-3" x="57.56" y="71.75" width="33.46" height="66.91" rx="5.81"/><polygon class="cls-4" points="65.78 68.03 58.02 142 72.02 142 70.3 68 65.78 68.03"/><rect class="cls-1" x="65.6" y="58" width="42.62" height="84" rx="5.81"/><rect class="cls-2" x="69.47" y="58" width="42.62" height="84" rx="5.81"/><rect class="cls-3" x="72.37" y="64.51" width="37.12" height="74.23" rx="5.81"/><rect class="cls-5" x="82.79" y="60.5" width="16.93" height="1.41" rx="0.7"/><polygon class="cls-4" points="77.94 141.83 95.7 108.46 104.42 142 77.94 141.83"/><polygon class="cls-6" points="143.15 114.29 117.83 137.09 99.42 111.64 124.74 88.84 143.15 114.29"/><polygon class="cls-7" points="147.34 119.79 113.55 138.75 101.15 109.88 134.93 90.92 147.34 119.79"/><polygon class="cls-8" points="149.05 130.23 103.66 139.31 98.8 107.63 144.2 98.55 149.05 130.23"/><rect class="cls-9" x="95.12" y="106.69" width="54.26" height="35.31" rx="4.89"/><rect class="cls-10" x="97.44" y="106.69" width="51.94" height="35.31" rx="4.89"/><circle class="cls-11" cx="141.63" cy="124.77" r="3.45"/></g></g></svg>