<svg xmlns="http://www.w3.org/2000/svg" xmlns:xlink="http://www.w3.org/1999/xlink" viewBox="0 0 104 74.19"><defs><style>.cls-1{fill:#d33d73;}.cls-2{fill:#c11b48;}.cls-3{fill:url(#linear-gradient);}.cls-4{fill:#f7bacb;}.cls-5{fill:#88aa39;}.cls-6{fill:#f9edf1;}.cls-7{fill:#ac1a43;opacity:0.41;}.cls-8,.cls-9{fill:#d6a1b5;}.cls-9{opacity:0.37;}.cls-10{fill:#f1c014;}.cls-11{fill:#d3a623;opacity:0.56;}</style><linearGradient id="linear-gradient" y1="56.65" x2="16.78" y2="56.65" gradientUnits="userSpaceOnUse"><stop offset="0.06" stop-color="#d33d73" stop-opacity="0.2"/><stop offset="0.1" stop-color="#d33d73" stop-opacity="0.31"/><stop offset="0.19" stop-color="#d33d73" stop-opacity="0.49"/><stop offset="0.29" stop-color="#d33d73" stop-opacity="0.65"/><stop offset="0.39" stop-color="#d33d73" stop-opacity="0.78"/><stop offset="0.5" stop-color="#d33d73" stop-opacity="0.88"/><stop offset="0.62" stop-color="#d33d73" stop-opacity="0.95"/><stop offset="0.77" stop-color="#d33d73" stop-opacity="0.99"/><stop offset="1" stop-color="#d33d73"/></linearGradient></defs><g id="Layer_2" data-name="Layer 2"><g id="Layer_1-2" data-name="Layer 1"><rect class="cls-1" x="26.16" y="25.8" width="26.16" height="12.34"/><path class="cls-2" d="M26.28,25.8h0a5.81,5.81,0,0,1,5.81,5.81V74.17a0,0,0,0,1,0,0H20.61a0,0,0,0,1,0,0V31.47A5.67,5.67,0,0,1,26.28,25.8Z"/><rect class="cls-2" x="0.22" y="39.12" width="33.53" height="35.05"/><rect class="cls-3" y="39.12" width="16.78" height="35.05"/><rect class="cls-4" x="10.49" y="39.12" width="29.78" height="35.05"/><polygon class="cls-5" points="20.47 39.12 20.47 42.91 23.67 41.88 27.39 42.91 27.39 39.12 20.47 39.12"/><polygon class="cls-5" points="20.89 74.17 20.89 70.38 24.09 71.41 27.82 70.38 27.82 74.17 20.89 74.17"/><path class="cls-6" d="M43.44,0H86.1a0,0,0,0,1,0,0V58.57a15.6,15.6,0,0,1-15.6,15.6H43.44a0,0,0,0,1,0,0V0A0,0,0,0,1,43.44,0Z"/><polygon class="cls-7" points="10.53 39.12 0.23 70.05 0.23 39.12 10.53 39.12"/><rect class="cls-1" x="68.37" y="46.25" width="29.83" height="27.92"/><rect class="cls-4" x="79.93" y="46.25" width="24.07" height="27.92"/><polygon class="cls-5" points="90.52 46.25 90.52 49.13 92.6 48.35 95.02 49.13 95.02 46.25 90.52 46.25"/><polygon class="cls-5" points="90.52 74.17 90.52 71.28 92.74 72.07 95.33 71.28 95.33 74.17 90.52 74.17"/><polygon class="cls-7" points="68.37 46.25 79.93 46.25 68.44 74.17 68.37 46.25"/><rect class="cls-6" x="38.01" y="65.78" width="14.31" height="8.39"/><path class="cls-1" d="M43.44,33.69V68.37c0,.11,0,.23,0,.35a5.8,5.8,0,0,1-5.79,5.45A5.67,5.67,0,0,1,32,68.5V33.69Z"/><path class="cls-7" d="M43.42,68.72a5.8,5.8,0,0,1-5.79,5.45A5.67,5.67,0,0,1,32,68.5V64.73l9-31,2.3-7.89,0,7.89Z"/><rect class="cls-8" x="51.34" y="19.9" width="27.15" height="0.99" rx="0.49"/><rect class="cls-8" x="51.34" y="14.9" width="27.15" height="0.99" rx="0.49"/><rect class="cls-8" x="51.34" y="9.9" width="27.15" height="0.99" rx="0.49"/><rect class="cls-8" x="51.34" y="25.33" width="27.15" height="0.99" rx="0.49"/><rect class="cls-8" x="51.34" y="30.76" width="27.15" height="0.99" rx="0.49"/><rect class="cls-8" x="51.34" y="36.19" width="27.15" height="0.99" rx="0.49"/><polygon class="cls-9" points="69.94 59.85 69.94 74.17 48.01 74.19 56.72 63.3 59.08 61.83 59.2 60.28 69.94 59.85"/><rect class="cls-10" x="45.15" y="66.72" width="14.77" height="3.72" rx="1.86" transform="translate(-31.26 47.56) rotate(-38.47)"/><path class="cls-10" d="M75.86,64.22V65.5a1.22,1.22,0,0,1-1.22,1.23H70.42a1.21,1.21,0,0,1,1.22,1.21v1.29a1.22,1.22,0,0,1-1.22,1.22h3.8a1.21,1.21,0,0,1,1.22,1.22V73a1.22,1.22,0,0,1-1.22,1.22H61.9A1.23,1.23,0,0,1,60.67,73V71.67a1.22,1.22,0,0,1,1.23-1.22H58.1a1.22,1.22,0,0,1-1.22-1.22V67.94a1.21,1.21,0,0,1,1.22-1.21h4.22A1.22,1.22,0,0,1,61.1,65.5V64.22a1.21,1.21,0,0,1,.57-1H60.33A1.14,1.14,0,0,1,59.7,63a1.19,1.19,0,0,1-.59-1V60.68a1.22,1.22,0,0,1,1.22-1.21H72.66a1.22,1.22,0,0,1,1.22,1.21V62a1.22,1.22,0,0,1-.58,1h1.34A1.22,1.22,0,0,1,75.86,64.22Z"/><path class="cls-11" d="M61.1,70.45h-3a1.22,1.22,0,0,1-1.22-1.22V67.94a1.21,1.21,0,0,1,1.22-1.21h4.22A1.22,1.22,0,0,1,61.1,65.5V64.22a1.21,1.21,0,0,1,.57-1H60.33A1.14,1.14,0,0,1,59.7,63h9.72l-4.23,3.73h2.87Z"/><path class="cls-11" d="M83.83,70.45l-6.35,3.72H73.9A1.23,1.23,0,0,1,72.67,73V71.67a1.22,1.22,0,0,1,1.23-1.22Z"/></g></g></svg>