<svg id="Layer_2" data-name="Layer 2" xmlns="http://www.w3.org/2000/svg" viewBox="0 0 200 200"><defs><style>.cls-1{fill:#77183f;opacity:0.09;}.cls-1,.cls-5,.cls-8{isolation:isolate;}.cls-2{fill:#88aa39;}.cls-3{fill:#738f36;}.cls-4{fill:#f9d2de;}.cls-5{fill:#fcf5f8;opacity:0.56;}.cls-6{fill:#d33d73;}.cls-7{fill:#fdcd32;}.cls-8{fill:#7f0f42;opacity:0.1;}.cls-9{fill:#fff;}</style></defs><g id="Layer_2-2" data-name="Layer 2"><g id="Layer_1-2" data-name="Layer 1-2"><ellipse class="cls-1" cx="102.86" cy="141.75" rx="46.54" ry="1.15"/><path class="cls-2" d="M102.61,86.31A29.46,29.46,0,1,0,48.1,102.07h0L68,138.73a5.85,5.85,0,0,0,10.34,0l.91-1.72,1.22-2.58,15.78-29.51a29.3,29.3,0,0,0,6.37-17.24V86.53C102.6,86.46,102.61,86.39,102.61,86.31ZM73.16,100a13.4,13.4,0,1,1,13.4-13.4A13.4,13.4,0,0,1,73.16,100Z"/><path class="cls-3" d="M102.62,86.61v1.15A29.3,29.3,0,0,1,96.25,105l-15.8,29.43A35.37,35.37,0,0,1,94.16,90.16h0c.6-.37,1.29-.77,2-1.15l.1-.05c.62-.34,1.3-.67,2-1l.16-.08c.65-.29,1.34-.57,2.06-.84l.28-.09c.57-.21,1.15-.42,1.78-.61A2.17,2.17,0,0,1,102.62,86.61Z"/><path class="cls-4" d="M156.29,106.39A35.35,35.35,0,0,1,121,141.75h0a23.21,23.21,0,0,1-2.52-.09,35.37,35.37,0,1,1,37.91-35.27Z"/><path class="cls-5" d="M156.29,106.39a35.24,35.24,0,0,1-5.35,18.7A35.37,35.37,0,0,1,100.24,80c.43-.89.84-1.69,1.25-2.39.24-.44.49-.84.72-1.21a35.23,35.23,0,0,1,16.48-5.28c.74,0,1.49-.07,2.23-.07A35.37,35.37,0,0,1,156.29,106.39Z"/><path class="cls-6" d="M133,77.83a5.79,5.79,0,0,0-4.36,1.52,10.58,10.58,0,0,1-1.89,1.77,7.37,7.37,0,0,0-.87.48,2.41,2.41,0,0,0-.73,2.09,16.07,16.07,0,0,1,.17,2.3,5.39,5.39,0,0,1-2.68-1.5,3.82,3.82,0,0,0-1.15-1,2.69,2.69,0,0,0-1.29-.07l-4,.43a4.28,4.28,0,0,0-2.47.78c-1.31,1.15-.89,3.18-.35,4.81a17.17,17.17,0,0,0,5-.48c.91-.26,2.15-.55,2.61.28a3.56,3.56,0,0,0-1.34,4.82,4.6,4.6,0,0,1,.58,1c.28.81-.15,1.88.5,2.46.24.22.58.3.79.54.48.56.14,1.8.87,1.9-1.71-.31-2.55-2.2-3.26-3.75s-2-3.36-3.69-3.15a6.75,6.75,0,0,1-1.4.25c-1.15-.06-1.85-1.48-3-1.79s-2.17.38-3-.21c-.59-.4-.7-1.22-1.15-1.76-.79-1-2.49-1-2.92-2.2-.22-.61,0-1.42-.47-1.87s-.77-.33-1.15-.56c-.83-.52-.65-1.79-.19-2.65a4.86,4.86,0,0,0,1-2.71c-.15-1-1.15-1.31-1.67-2,.24-.44.48-.84.71-1.2a35.16,35.16,0,0,1,16.49-5.29,9.91,9.91,0,0,0,2.51,1.06c-1.66.64-3.34,1.23-5,1.75A2.78,2.78,0,0,0,118,75.06c-.23.42.4.75.87.8l3.75.36,2.86-2.89a1.85,1.85,0,0,1,.72-.52,1.67,1.67,0,0,1,.63,0,10,10,0,0,1,4.6,1A3.36,3.36,0,0,1,133,77.83Z"/><path class="cls-6" d="M121.43,104.26c.45.07.62.62.61,1.08a2.22,2.22,0,0,0,.16,1.22c.27.39.83.47,1.22.77,1,.78.35,2.45.75,3.66a4.21,4.21,0,0,0,1.68,1.86l3.89,2.9a7.78,7.78,0,0,1,1.77,1.62c1.34,1.89.73,4.5-.21,6.63s-2.2,4.26-2,6.57a8.41,8.41,0,0,0-2.39,6.7,2.53,2.53,0,0,0,1.06.47.88.88,0,0,0,.94-.53,2.13,2.13,0,0,1,.08-.71,1.1,1.1,0,0,1,.75-.47l2.39-.63c-.32-1.07.4-2.14,1.08-3l2.68-3.45a2.34,2.34,0,0,1,.76-.74,3.78,3.78,0,0,1,.95-.24,7.61,7.61,0,0,0,3-1.58,4.71,4.71,0,0,0,1.72-1.85c.16-.37.21-.78.38-1.15a11,11,0,0,1,1.3-1.59c1-1.32.9-3.23,1.79-4.59a12.4,12.4,0,0,1,1.28-1.52,21.48,21.48,0,0,0,3.67-6.7,2.33,2.33,0,0,0,.26-1.53c-.19-.67-.92-1.15-1.15-1.75a1.64,1.64,0,0,0-.28-.68,1,1,0,0,0-.56-.27,29.3,29.3,0,0,0-4.67-.74,1.59,1.59,0,0,0-2-.89c-.39-.83-.82-1.65-1.28-2.45a3.19,3.19,0,0,0-1.56.41,4.68,4.68,0,0,1-2.11-1.67c-1.34.46-2.83-.75-4.15-.26-.43.15-.78.47-1.15.59-1,.31-2-.46-3.09-.47a7.1,7.1,0,0,0-1.77.4,6.82,6.82,0,0,1-3.08.1s-.87.57-1.42.43-1-.77-1.73-.59C121.36,101.38,122.82,102.28,121.43,104.26Z"/><path class="cls-7" d="M129.55,103.84a2,2,0,0,0-2,2,2,2,0,0,0,.3,1.07h0l1.38,2.53a.41.41,0,0,0,.55.15.43.43,0,0,0,.15-.15l1.26-2.3a2.05,2.05,0,0,0-1.6-3.31Zm0,3a.93.93,0,1,1,0-1.86.92.92,0,0,1,.94.92v0a.92.92,0,0,1-.92.92Z"/><path class="cls-7" d="M139.65,115.07a2,2,0,0,0-2,2,2,2,0,0,0,.31,1.06h0l1.38,2.53a.39.39,0,0,0,.54.17.4.4,0,0,0,.17-.17l1.24-2.3a2,2,0,0,0-1.6-3.29Zm0,3a.94.94,0,1,1,.93-.94v0a.92.92,0,0,1-.89.94h0Z"/><path class="cls-7" d="M110.08,75.89a2.78,2.78,0,0,0-2.78,2.78,2.7,2.7,0,0,0,.42,1.46h0l1.89,3.45a.54.54,0,0,0,.74.21.5.5,0,0,0,.22-.21l1.69-3.17a2.78,2.78,0,0,0-.42-3.9,2.86,2.86,0,0,0-1.75-.61Zm0,4a1.26,1.26,0,1,1,1.26-1.26h0a1.25,1.25,0,0,1-1.25,1.25Z"/><path class="cls-6" d="M118.37,141.66A35.31,35.31,0,0,1,90.2,123.92c.15-.3.5-.43,1.24-.22a7.78,7.78,0,0,0,5.91,4.84,10.51,10.51,0,0,1,3.79.77,3.81,3.81,0,0,1,3.08-.54,8.13,8.13,0,0,0,1.51,4.38c.21.25.46.47.67.71s.37.49.56.73a6,6,0,0,0,4.32,2.25,2.87,2.87,0,0,1,1.3.21,10.8,10.8,0,0,1,.89.76c.77.56,2,.39,2.55,1.22.24.38.25.93.64,1.15a2.88,2.88,0,0,0,.87.19A1.26,1.26,0,0,1,118.37,141.66Z"/><polygon class="cls-8" points="117.47 89.36 100.33 92.78 100.99 98.15 114.52 90.71 100.87 100.02 102.72 105.38 117.47 89.36"/><polygon class="cls-9" points="115.69 86.63 98.55 90.06 99.21 95.42 112.74 87.99 99.09 97.3 100.95 102.65 115.69 86.63"/><path class="cls-9" d="M97.46,135.28c-8.25-5.34-12.41-11.25-12.41-17.62,0-11.72,14.1-20.68,14.7-21.09l.46.74c-.14.09-14.26,9.11-14.3,20.36,0,6,4,11.72,12,16.82Z"/></g></g></svg>