<svg xmlns="http://www.w3.org/2000/svg" viewBox="0 0 102.23 83.29"><defs><style>.cls-1{fill:#f9edf1;}.cls-2{opacity:0.38;}.cls-3{fill:#b53368;}.cls-4{opacity:0.16;}.cls-5{fill:#fff;}.cls-6{fill:#7a9837;}.cls-7{fill:#738f36;}.cls-8{fill:#88aa39;}.cls-9{fill:#f7bacb;}.cls-10{fill:#ef81a9;}.cls-11{fill:#d33d73;}.cls-12{opacity:0.7;}.cls-13{opacity:0.45;}.cls-14{fill:#587131;}.cls-15{fill:#f8d775;}</style></defs><g id="Layer_2" data-name="Layer 2"><g id="Layer_1-2" data-name="Layer 1"><path class="cls-1" d="M91.62,43.21A41,41,0,0,1,87,62.11c-.44.85-.9,1.68-1.4,2.49a43.11,43.11,0,0,1-7.49,9.23l-.11.1a46.55,46.55,0,0,1-15.07,9.36H28.68c-.59-.22-1.17-.46-1.75-.7l-.39-.17c-.81-.36-1.59-.72-2.37-1.12-.14-.07-.29-.14-.42-.22-1.07-.55-2.12-1.14-3.11-1.78l-.22-.12h0c-.52-.33-1-.67-1.54-1s-.95-.66-1.42-1a43.31,43.31,0,0,1-15-19.89c-.22-.59-.43-1.2-.61-1.81A37.83,37.83,0,0,1,.74,50.93,40.19,40.19,0,0,1,.1,46.11c-.07-1-.1-1.92-.1-2.9C0,19.34,20.51,0,45.81,0A47.15,47.15,0,0,1,76.64,11.25a45,45,0,0,1,3.52,3.38c.35.37.69.75,1,1.13a42.19,42.19,0,0,1,5.3,7.57,39.49,39.49,0,0,1,2.79,6.22s0,0,0,0A40.71,40.71,0,0,1,91.62,43.21Z"/><g class="cls-2"><path class="cls-3" d="M72.56,26A13.56,13.56,0,0,1,64,23.26a.25.25,0,0,1,0-.36.27.27,0,0,1,.37,0,13.73,13.73,0,0,0,10.36,2.5c7.91-1.08,16-7.77,24-19.88a.25.25,0,0,1,.36-.08.26.26,0,0,1,.07.36C91,18,82.85,24.79,74.79,25.88A15.92,15.92,0,0,1,72.56,26Z"/></g><g class="cls-2"><path class="cls-3" d="M72.57,33.32A14.93,14.93,0,0,1,64,30.93a.26.26,0,0,1-.05-.37.27.27,0,0,1,.36,0c.15.11,14.77,10.65,34.35-15a.26.26,0,0,1,.41.31c-5.73,7.53-14.72,16.66-25,17.49C73.56,33.31,73.05,33.32,72.57,33.32Z"/></g><g class="cls-4"><path class="cls-3" d="M40,40.28a13.34,13.34,0,0,1-8-2.35.24.24,0,0,1,0-.33.25.25,0,0,1,.33,0,13.73,13.73,0,0,0,9.91,2.1C49.53,38.65,57,33,64.36,22.77a.24.24,0,0,1,.33-.05.23.23,0,0,1,0,.32c-7.47,10.32-15,16.06-22.48,17.08A17.12,17.12,0,0,1,40,40.28Z"/></g><g class="cls-4"><path class="cls-3" d="M40.73,46.59a14,14,0,0,1-8.61-2.68.24.24,0,0,1,0-.34.25.25,0,0,1,.34,0A14.39,14.39,0,0,0,42.65,46c7.15-.82,14.46-6.06,21.71-15.57a.24.24,0,0,1,.34-.05.26.26,0,0,1,0,.35c-7.33,9.62-14.75,14.92-22,15.75A16.88,16.88,0,0,1,40.73,46.59Z"/></g><path class="cls-5" d="M62.53,45.81a2.07,2.07,0,0,1-.06-.5c0-1.37,1.41-2.5,3.25-2.71v0a2.73,2.73,0,0,1,3.89-2.49,4.49,4.49,0,0,1,7.76,2.11,3.34,3.34,0,0,1,.84-.12,3,3,0,0,1,3,3,3.08,3.08,0,0,1-.1.75Z"/><circle class="cls-6" cx="50.49" cy="72.36" r="4.69"/><circle class="cls-6" cx="72.36" cy="64.03" r="9.89"/><circle class="cls-7" cx="59.86" cy="67.15" r="7.81"/><path class="cls-8" d="M93.7,78.61a13.94,13.94,0,0,1-.8,4.68H66.39a14.43,14.43,0,0,1-.72-3.18,14.91,14.91,0,0,1-.08-1.5,14.15,14.15,0,0,1,4.26-10.09,14,14,0,0,1,9.8-4,10,10,0,0,1,1.1,0,11.81,11.81,0,0,1,1.47.19,12.54,12.54,0,0,1,2,.53,13.82,13.82,0,0,1,4.5,2.55A14.07,14.07,0,0,1,93.7,78.61Z"/><path class="cls-8" d="M73.92,76.52a9.82,9.82,0,0,1-2.68,6.77H56.81A10.27,10.27,0,0,1,55.2,81a9.86,9.86,0,0,1-1.06-4.48,10.09,10.09,0,0,1,.09-1.35,9.88,9.88,0,0,1,.53-2.11h0a9.88,9.88,0,0,1,.41-.94l0-.06a.93.93,0,0,0,0-.1,9.91,9.91,0,0,1,7.59-5.25A9.28,9.28,0,0,1,64,66.63a9.73,9.73,0,0,1,3.63.69,10.58,10.58,0,0,1,2.19,1.2,9.88,9.88,0,0,1,3.7,5.33s0,.05,0,.08A9.63,9.63,0,0,1,73.92,76.52Z"/><path class="cls-8" d="M59.34,79.13a8.14,8.14,0,0,1-1.12,4.16H43.81a.53.53,0,0,1-.08-.15,8.06,8.06,0,0,1-1-3.53c0-.15,0-.32,0-.48A8.33,8.33,0,0,1,51,70.8c.25,0,.48,0,.72,0a8,8,0,0,1,1.38.24,7.77,7.77,0,0,1,2,.84.05.05,0,0,1,0,0l0,0a8.28,8.28,0,0,1,4.09,7.18Z"/><circle class="cls-6" cx="16.75" cy="79.69" r="2.56"/><circle class="cls-6" cx="28.68" cy="75.15" r="5.4"/><circle class="cls-7" cx="21.86" cy="76.85" r="4.26"/><path class="cls-8" d="M43.73,83.1v.19H25V83.1a5.07,5.07,0,0,1,0-.68,5.9,5.9,0,0,1,.37-1.57,7.1,7.1,0,0,1,.51-1.08,7.91,7.91,0,0,1,1.67-2,10.33,10.33,0,0,1,6.48-2.36h.3a9.76,9.76,0,0,1,8.34,4.17A6.5,6.5,0,0,1,43.73,83.1Z"/><path class="cls-8" d="M29.54,82a4.83,4.83,0,0,1-.18,1.32H18.92A4.48,4.48,0,0,1,18.74,82a4.52,4.52,0,0,1,.06-.74h0a4.84,4.84,0,0,1,.28-1.15,4.09,4.09,0,0,1,.23-.47v0a.12.12,0,0,1,0-.08,1.3,1.3,0,0,1,.11-.19,5.27,5.27,0,0,1,3.34-2.55,3.83,3.83,0,0,1,.69-.13,4.48,4.48,0,0,1,.64-.05,5.26,5.26,0,0,1,1.27.16,4.32,4.32,0,0,1,.72.23,5.75,5.75,0,0,1,1.46.85,5.43,5.43,0,0,1,1.75,2.69A5.5,5.5,0,0,1,29.54,82Z"/><path class="cls-8" d="M21.58,83.29H12.49A4.58,4.58,0,0,1,17,78.84,4.53,4.53,0,0,1,18.2,79a4,4,0,0,1,1.1.46s0,0,.05,0A4.23,4.23,0,0,1,20.9,81,4.48,4.48,0,0,1,21.58,83.29Z"/><path class="cls-9" d="M88.72,1.72V83.29h-4.5V1.91A1.9,1.9,0,0,1,86.12,0H87A1.72,1.72,0,0,1,88.72,1.72Z"/><rect class="cls-9" x="71.84" y="4.5" width="30.39" height="1.13" rx="0.56"/><rect class="cls-9" x="71.84" y="14.63" width="30.39" height="1.13" rx="0.56"/><path class="cls-10" d="M55.2,20.06V83.29H51.74V20.21a1.47,1.47,0,0,1,1.47-1.47h.67A1.32,1.32,0,0,1,55.2,20.06Z"/><rect class="cls-9" x="42.22" y="22.2" width="23.37" height="0.87" rx="0.43"/><rect class="cls-9" x="42.22" y="29.99" width="23.37" height="0.87" rx="0.43"/><path class="cls-11" d="M25.4,35.49v47.8H22.8V35.6a1.11,1.11,0,0,1,1.1-1.11h.5A1,1,0,0,1,25.4,35.49Z"/><rect class="cls-9" x="15.62" y="37.11" width="17.62" height="0.65" rx="0.33"/><rect class="cls-9" x="15.62" y="42.98" width="17.62" height="0.65" rx="0.33"/><g class="cls-12"><path class="cls-11" d="M52,26.17a11.88,11.88,0,0,1-7.87-2.82.39.39,0,0,1,0-.55.38.38,0,0,1,.55,0,11.61,11.61,0,0,0,9.07,2.48c7.09-1,14.64-7.82,21.85-19.84a.38.38,0,0,1,.53-.14.39.39,0,0,1,.14.54C68.82,18.25,61.28,25.05,53.84,26A13.13,13.13,0,0,1,52,26.17Z"/></g><g class="cls-12"><path class="cls-11" d="M52,33.94a11.4,11.4,0,0,1-8.3-3.37.39.39,0,0,1,0-.55.38.38,0,0,1,.55,0,11,11,0,0,0,8.54,3.07c4.83-.32,12.67-3.77,22.54-18.37a.39.39,0,0,1,.64.44C67.89,27.14,60.1,33.44,52.81,33.91Z"/></g><g class="cls-12"><path class="cls-11" d="M24.23,41.09a10.57,10.57,0,0,1-7.3-2.85.35.35,0,0,1,.5-.48,10.21,10.21,0,0,0,8.13,2.56c6.15-.76,12.69-6.84,18.91-17.59a.34.34,0,0,1,.47-.13.36.36,0,0,1,.13.48C38.64,34.19,32.1,40.22,25.62,41A11.17,11.17,0,0,1,24.23,41.09Z"/></g><g class="cls-12"><path class="cls-11" d="M25.52,47.07a12.46,12.46,0,0,1-8.6-3.63.35.35,0,1,1,.51-.47,11.82,11.82,0,0,0,9.41,3.33c5.89-.7,11.64-6,17.11-15.76a.34.34,0,0,1,.6.34C39,40.85,33,46.27,26.91,47A11.11,11.11,0,0,1,25.52,47.07Z"/></g><g class="cls-2"><path class="cls-11" d="M1.16,51.2H.73a.25.25,0,0,1-.25-.27.25.25,0,0,1,.27-.25c2.42.13,5-.87,7.5-2.94C11,45.51,13.73,42,16.43,37.35a.26.26,0,1,1,.45.26c-2.73,4.73-5.52,8.27-8.3,10.53A11.93,11.93,0,0,1,1.16,51.2Z"/></g><g class="cls-2"><path class="cls-11" d="M2.18,55.72h-.3a.26.26,0,0,1-.26-.27.25.25,0,0,1,.27-.25c3.3.11,6.59-1.76,9.82-5.55A41.18,41.18,0,0,0,16,43.25a.27.27,0,0,1,.36-.1.25.25,0,0,1,.1.35A41.86,41.86,0,0,1,12.11,50C8.87,53.79,5.53,55.72,2.18,55.72Z"/></g><path class="cls-5" d="M17.7,56.48a3.33,3.33,0,0,1-.1.78H2.49c-.22-.59-.43-1.2-.61-1.81A37.83,37.83,0,0,1,.74,50.93,40.19,40.19,0,0,1,.1,46.11,6.67,6.67,0,0,1,1.37,46a6.93,6.93,0,0,1,5.21,2.34,4.34,4.34,0,0,1,1.79-.4h0a4.29,4.29,0,0,1,4.24,4.28.43.43,0,0,1,0,0C15.51,52.6,17.7,54.36,17.7,56.48Z"/><path class="cls-11" d="M49.47,9.31l-.08-.09a1.91,1.91,0,0,0-1.79-.35.1.1,0,0,1-.12-.06.1.1,0,0,1,.06-.12,2.09,2.09,0,0,1,1.9.33,1.77,1.77,0,0,1,1.92-.7.09.09,0,0,1,.06.12.1.1,0,0,1-.12.06,1.68,1.68,0,0,0-1.77.71Z"/><path class="cls-11" d="M42.18,15.55l-.08-.08a1.86,1.86,0,0,0-1.78-.35.1.1,0,0,1-.12-.06.09.09,0,0,1,.06-.12,2.06,2.06,0,0,1,1.89.32,1.82,1.82,0,0,1,1.93-.7.1.1,0,0,1,.05.12.08.08,0,0,1-.11.06,1.7,1.7,0,0,0-1.78.72Z"/><path class="cls-11" d="M53.11,14.38l0-.05a1.06,1.06,0,0,0-1-.2A0,0,0,0,1,52,14a1.11,1.11,0,0,1,1.05.18,1,1,0,0,1,1.06-.39s.05,0,0,.06a.07.07,0,0,1-.07,0,.92.92,0,0,0-1,.39Z"/><g class="cls-13"><polygon class="cls-14" points="84.33 83.29 64.19 58.89 66.16 56.33 84.22 77.14 84.33 83.29"/></g><g class="cls-13"><polygon class="cls-14" points="51.74 78.72 51.74 83.29 43.8 74.96 45.61 72.8 51.74 78.72"/></g><g class="cls-13"><path class="cls-14" d="M22.8,79.93v3.36L17.7,77a8.22,8.22,0,0,1,.62-2.55Z"/></g><circle class="cls-15" cx="30.73" cy="17.79" r="4.5"/><path class="cls-5" d="M15.7,27.07a2.49,2.49,0,0,1-.08-.61c0-1.67,1.72-3.05,4-3.31v0A3.35,3.35,0,0,1,23,19.74a3.3,3.3,0,0,1,1.4.31,5.48,5.48,0,0,1,9.48,2.59,3.52,3.52,0,0,1,1-.15,3.66,3.66,0,0,1,3.66,3.66,3.46,3.46,0,0,1-.12.92Z"/></g></g></svg>