<svg xmlns="http://www.w3.org/2000/svg" viewBox="0 0 98 74.63"><defs><style>.cls-1{fill:#77183f;opacity:0.09;}.cls-2{fill:#88aa39;}.cls-3{fill:#738f36;}.cls-4{fill:#f9d2de;}.cls-5{fill:#fcf5f8;opacity:0.56;}.cls-6{fill:#d33d73;}.cls-7{fill:#fdcd32;}.cls-8{fill:#7f0f42;opacity:0.1;}.cls-9{fill:#fff;}</style></defs><g id="Layer_2" data-name="Layer 2"><g id="Layer_1-2" data-name="Layer 1"><ellipse class="cls-1" cx="51.5" cy="73.63" rx="40.5" ry="1"/><path class="cls-2" d="M51.28,25.38A25.64,25.64,0,1,0,3.84,39.09h0L21.14,71a5.09,5.09,0,0,0,9,0l.79-1.5L32,67.26,45.73,41.57a25.48,25.48,0,0,0,5.54-15c0-.32,0-.64,0-1A2.26,2.26,0,0,0,51.28,25.38ZM25.65,37.3A11.66,11.66,0,1,1,37.31,25.64,11.66,11.66,0,0,1,25.65,37.3Z"/><path class="cls-3" d="M51.29,25.64c0,.32,0,.64,0,1a25.48,25.48,0,0,1-5.54,15L32,67.26A30.78,30.78,0,0,1,43.93,28.73h0c.52-.32,1.12-.67,1.77-1l.09-.05c.54-.29,1.13-.58,1.77-.86l.14-.07c.56-.25,1.16-.49,1.79-.73l.24-.08c.5-.18,1-.36,1.55-.53A2.26,2.26,0,0,1,51.29,25.64Z"/><path class="cls-4" d="M98,42.85A30.77,30.77,0,0,1,67.22,73.63c-.75,0-1.48,0-2.2-.08a30.78,30.78,0,1,1,33-30.7Z"/><path class="cls-5" d="M98,42.85a30.62,30.62,0,0,1-4.66,16.28A30.78,30.78,0,0,1,49.22,19.85c.37-.77.73-1.47,1.09-2.08.21-.38.42-.73.62-1.05a30.7,30.7,0,0,1,14.35-4.6c.64,0,1.29-.06,1.94-.06A30.79,30.79,0,0,1,98,42.85Z"/><path class="cls-6" d="M77.73,18a5,5,0,0,0-3.79,1.32,9.23,9.23,0,0,1-1.65,1.54,7.85,7.85,0,0,0-.76.42,2.1,2.1,0,0,0-.63,1.82,14.66,14.66,0,0,1,.15,2,4.75,4.75,0,0,1-2.34-1.31,3.27,3.27,0,0,0-1-.84,2.35,2.35,0,0,0-1.12-.06l-3.49.37a3.81,3.81,0,0,0-2.15.68c-1.14,1-.77,2.77-.3,4.19A15,15,0,0,0,65,27.71c.79-.23,1.87-.48,2.27.24a3.1,3.1,0,0,0-1.17,4.2,3.91,3.91,0,0,1,.51.85c.24.71-.13,1.64.43,2.14.21.19.51.26.69.47.42.49.12,1.57.76,1.66C67,37,66.27,35.35,65.65,34s-1.71-2.92-3.21-2.74a5.8,5.8,0,0,1-1.22.22c-1-.05-1.61-1.29-2.6-1.56s-1.89.33-2.63-.18c-.51-.35-.61-1.06-1-1.53-.69-.84-2.17-.9-2.54-1.92-.19-.53,0-1.23-.41-1.63s-.67-.28-1-.48c-.72-.46-.57-1.56-.17-2.31a4.23,4.23,0,0,0,.87-2.36c-.13-.9-1-1.14-1.45-1.72.21-.38.42-.73.62-1.05a30.7,30.7,0,0,1,14.35-4.6,8.5,8.5,0,0,0,2.18.92c-1.44.56-2.9,1.07-4.37,1.53a2.43,2.43,0,0,0,1.57,1c-.2.36.35.65.76.69l3.26.32,2.49-2.52a1.63,1.63,0,0,1,.63-.45,1.44,1.44,0,0,1,.55,0,8.61,8.61,0,0,1,4,.89A2.92,2.92,0,0,1,77.73,18Z"/><path class="cls-6" d="M67.66,41c.39.06.54.54.53.94A1.93,1.93,0,0,0,68.33,43c.24.34.72.41,1.06.67.88.68.31,2.13.66,3.19a3.67,3.67,0,0,0,1.46,1.62L74.89,51a6.67,6.67,0,0,1,1.54,1.41c1.17,1.64.64,3.92-.18,5.77s-1.91,3.71-1.71,5.72a7.29,7.29,0,0,0-2.08,5.83,2.25,2.25,0,0,0,.92.41.78.78,0,0,0,.82-.46c0-.2,0-.43.07-.62a.94.94,0,0,1,.65-.41L77,68.1c-.28-.93.35-1.86.94-2.63l2.33-3a2,2,0,0,1,.66-.64,3.37,3.37,0,0,1,.83-.21,6.66,6.66,0,0,0,2.61-1.38,4.07,4.07,0,0,0,1.5-1.61c.14-.32.18-.68.33-1a9.21,9.21,0,0,1,1.13-1.38c.88-1.15.78-2.81,1.56-4A10.91,10.91,0,0,1,90,50.93,18.8,18.8,0,0,0,93.2,45.1a2.08,2.08,0,0,0,.22-1.33c-.16-.59-.8-1-1-1.53a1.53,1.53,0,0,0-.24-.59.86.86,0,0,0-.49-.23,26.41,26.41,0,0,0-4.06-.65A1.39,1.39,0,0,0,85.92,40q-.51-1.09-1.11-2.13a2.7,2.7,0,0,0-1.36.35,4,4,0,0,1-1.84-1.45c-1.16.4-2.46-.65-3.61-.23-.37.13-.68.41-1,.52-.88.27-1.77-.4-2.69-.41a5.92,5.92,0,0,0-1.54.35,5.92,5.92,0,0,1-2.68.08s-.76.5-1.24.38-.88-.67-1.5-.52C67.6,38.49,68.87,39.28,67.66,41Z"/><path class="cls-7" d="M74.73,40.63A1.78,1.78,0,0,0,73,42.41a1.74,1.74,0,0,0,.26.93h0l1.2,2.2a.35.35,0,0,0,.61,0l1.09-2a1.78,1.78,0,0,0-1.39-2.88Zm0,2.58a.81.81,0,1,1,.8-.8A.8.8,0,0,1,74.73,43.21Z"/><path class="cls-7" d="M83.52,50.41a1.77,1.77,0,0,0-1.77,1.77,1.74,1.74,0,0,0,.27.93h0l1.2,2.2a.35.35,0,0,0,.62,0l1.08-2a1.76,1.76,0,0,0-1.39-2.87Zm0,2.57a.81.81,0,1,1,.81-.8A.8.8,0,0,1,83.52,53Z"/><path class="cls-7" d="M57.78,16.31a2.42,2.42,0,0,0-2.42,2.42A2.38,2.38,0,0,0,55.73,20h0l1.64,3a.48.48,0,0,0,.84,0l1.47-2.76a2.41,2.41,0,0,0-1.89-3.92Zm0,3.51a1.1,1.1,0,1,1,1.1-1.09A1.09,1.09,0,0,1,57.78,19.82Z"/><path class="cls-6" d="M65,73.55A30.75,30.75,0,0,1,40.48,58.11c.13-.26.44-.37,1.08-.19a6.77,6.77,0,0,0,5.14,4.21A9.08,9.08,0,0,1,50,62.8a3.34,3.34,0,0,1,2.68-.47A7.08,7.08,0,0,0,54,66.14c.18.22.4.41.58.62s.32.43.49.64a5.16,5.16,0,0,0,3.76,1.95,2.54,2.54,0,0,1,1.13.19,7.91,7.91,0,0,1,.77.66c.67.49,1.78.34,2.22,1.06.21.33.22.81.56,1a2.64,2.64,0,0,0,.76.17A1.1,1.1,0,0,1,65,73.55Z"/><polygon class="cls-8" points="64.21 28.03 49.3 31.01 49.87 35.68 61.65 29.21 49.77 37.31 51.38 41.97 64.21 28.03"/><polygon class="cls-9" points="62.67 25.66 47.75 28.64 48.32 33.31 60.1 26.84 48.22 34.94 49.84 39.6 62.67 25.66"/><path class="cls-9" d="M46.8,68C39.62,63.35,36,58.21,36,52.66c0-10.2,12.27-18,12.79-18.35l.4.64c-.12.08-12.41,7.93-12.44,17.72,0,5.27,3.49,10.2,10.44,14.64Z"/></g></g></svg>