<svg xmlns="http://www.w3.org/2000/svg" viewBox="0 0 119 84.67"><defs><style>.cls-1{fill:#d33d73;}.cls-12,.cls-2{fill:#c11b48;}.cls-3{fill:#f9edf1;}.cls-14,.cls-4,.cls-6{fill:#ac1a43;}.cls-4{opacity:0.41;}.cls-5{fill:#d6a1b5;}.cls-12,.cls-6{opacity:0.13;}.cls-7{fill:#edaec1;}.cls-8{fill:#f1c014;}.cls-9{fill:#80a138;}.cls-10{fill:#758e30;}.cls-11{fill:#88aa39;}.cls-13{fill:#f7bacb;}.cls-14{opacity:0.17;}.cls-15{fill:#fff;opacity:0.57;}</style></defs><g id="Layer_2" data-name="Layer 2"><g id="Layer_1-2" data-name="Layer 1"><rect class="cls-1" x="5.46" y="36.42" width="25.75" height="12.31"/><path class="cls-2" d="M5.49,36.42h.19A5.62,5.62,0,0,1,11.29,42V53.77a0,0,0,0,1,0,0H0a0,0,0,0,1,0,0V41.91A5.49,5.49,0,0,1,5.49,36.42Z"/><path class="cls-3" d="M22.76,0H79a0,0,0,0,1,0,0V69.06a15.6,15.6,0,0,1-15.6,15.6H22.76a0,0,0,0,1,0,0V0A0,0,0,0,1,22.76,0Z"/><rect class="cls-3" x="15.61" y="73.46" width="18.86" height="11.2"/><path class="cls-1" d="M22.76,43.81v35c0,.12,0,.24,0,.36A5.81,5.81,0,0,1,17,84.67a5.69,5.69,0,0,1-5.65-5.73V43.81Z"/><path class="cls-4" d="M22.76,79.23a5.84,5.84,0,0,1-5.85,5.44A5.7,5.7,0,0,1,11.17,79V75.25L20.32,44.3l2.33-7.88,0,7.88Z"/><rect class="cls-5" x="33.16" y="9.54" width="35.77" height="1.32" rx="0.64"/><rect class="cls-5" x="33.16" y="17.45" width="13.66" height="9.88" rx="2.33"/><rect class="cls-5" x="33.81" y="29.31" width="12.36" height="1.32" rx="0.64"/><rect class="cls-5" x="53.97" y="17.45" width="13.66" height="9.88" rx="2.33"/><rect class="cls-5" x="54.62" y="29.31" width="12.36" height="1.32" rx="0.64"/><rect class="cls-5" x="33.16" y="35.9" width="13.66" height="9.88" rx="2.33"/><rect class="cls-5" x="33.81" y="47.76" width="12.36" height="1.32" rx="0.64"/><rect class="cls-5" x="53.97" y="35.9" width="13.66" height="9.88" rx="2.33"/><rect class="cls-5" x="54.62" y="47.76" width="12.36" height="1.32" rx="0.64"/><polygon class="cls-6" points="73.08 27.67 50.72 70.92 78.68 72.81 73.08 27.67"/><rect class="cls-2" x="87.79" y="18.11" width="14.96" height="17.79"/><rect class="cls-7" x="71.53" y="23.38" width="47.47" height="60.63" rx="9.14"/><rect class="cls-2" x="92.99" y="23.38" width="4.55" height="60.63"/><polygon class="cls-1" points="95.27 23.38 89.09 29.31 84.22 23.38 87.79 18.11 95.27 23.38"/><polygon class="cls-1" points="95.27 23.38 101.45 29.31 106.32 23.38 102.75 18.11 95.27 23.38"/><ellipse class="cls-8" cx="95.27" cy="30.96" rx="0.98" ry="0.99"/><ellipse class="cls-8" cx="95.27" cy="41.5" rx="0.98" ry="0.99"/><ellipse class="cls-8" cx="95.27" cy="53.37" rx="0.98" ry="0.99"/><ellipse class="cls-8" cx="95.27" cy="65.23" rx="0.98" ry="0.99"/><ellipse class="cls-8" cx="95.27" cy="77.09" rx="0.98" ry="0.99"/><path class="cls-9" d="M44.05,61.24a7,7,0,1,1-14,1.58A7.19,7.19,0,0,1,30.73,59a7,7,0,0,1,5.56-4,6.88,6.88,0,0,1,5.82,2.13A7.07,7.07,0,0,1,44.05,61.24Z"/><path class="cls-8" d="M42.19,57.3a.38.38,0,0,1-.31.5.44.44,0,0,1-.16,0,.67.67,0,0,0-.89.7l.11,1a.66.66,0,0,1-1,.65l-1-.55a1.28,1.28,0,0,0-1.69.39l-1.07,1.57a.64.64,0,0,1-1.15-.19l-.55-1.85a.78.78,0,0,0-1.33-.32l-.85.92a.76.76,0,0,1-1.27-.24l-.3-.75L30.73,59a7,7,0,0,1,5.56-4,6.88,6.88,0,0,1,5.82,2.13Z"/><path class="cls-9" d="M30.1,64.35a7.87,7.87,0,0,1-9.61,5.7,8,8,0,0,1-3.41-13.51,7.76,7.76,0,0,1,7.4-1.92,7.88,7.88,0,0,1,5.25,4.6A8,8,0,0,1,30.1,64.35Z"/><path class="cls-8" d="M29.72,59.48a.42.42,0,0,1-.52.39.51.51,0,0,1-.16-.09.74.74,0,0,0-1.21.37l-.27,1.07a.73.73,0,0,1-1.27.29l-.8-1a1.42,1.42,0,0,0-1.92-.27l-1.75,1.2a.73.73,0,0,1-1.13-.67l.16-2.15a.88.88,0,0,0-1.26-.88l-1.25.62a.87.87,0,0,1-1.24-.77l0-.91v-.16a7.76,7.76,0,0,1,7.4-1.92,7.88,7.88,0,0,1,5.25,4.6Z"/><path class="cls-9" d="M24,73A8.92,8.92,0,1,1,6.13,73a9.07,9.07,0,0,1,1.35-4.79,8.84,8.84,0,0,1,14.62-.73A9,9,0,0,1,24,73Z"/><path class="cls-8" d="M22.17,67.74a.47.47,0,0,1-.46.57.45.45,0,0,1-.2,0,.84.84,0,0,0-1.22.75v1.25A.83.83,0,0,1,19,71l-1.15-.84a1.61,1.61,0,0,0-2.18.26L14.07,72.2a.82.82,0,0,1-1.43-.4l-.43-2.41a1,1,0,0,0-1.63-.59l-1.2,1a1,1,0,0,1-1.57-.48l-.28-1,0-.18a8.84,8.84,0,0,1,14.62-.73Z"/><path class="cls-9" d="M52.3,73a7.85,7.85,0,1,1-7.87-8,7.81,7.81,0,0,1,6.23,3.11A8,8,0,0,1,52.3,73Z"/><path class="cls-8" d="M50.72,68.35a.42.42,0,0,1-.41.51.39.39,0,0,1-.18,0,.74.74,0,0,0-1.07.67v1.1a.73.73,0,0,1-1.15.6l-1-.73a1.44,1.44,0,0,0-1.93.22l-1.39,1.61a.72.72,0,0,1-1.26-.35l-.38-2.13a.88.88,0,0,0-1.44-.52l-1.06.91A.86.86,0,0,1,38,69.78l-.24-.88,0-.16a7.8,7.8,0,0,1,12.9-.64Z"/><polygon class="cls-10" points="22.67 68.28 18.21 76.16 24.68 76.16 22.67 68.28"/><path class="cls-11" d="M39.86,68.78A9.27,9.27,0,0,1,34,80.45a9.1,9.1,0,0,1-11.52-5.93,9.28,9.28,0,0,1,5.85-11.67,9,9,0,0,1,8,1.15A9.18,9.18,0,0,1,39.86,68.78Z"/><path class="cls-8" d="M36.47,64.26a.49.49,0,0,1-.27.71A.47.47,0,0,1,36,65a.86.86,0,0,0-.94,1.13l.39,1.21a.86.86,0,0,1-1.06,1.1L33,68a1.68,1.68,0,0,0-2.05,1l-1,2.28a.83.83,0,0,1-1.51.07l-1.18-2.21a1,1,0,0,0-1.78,0l-.84,1.4a1,1,0,0,1-1.68,0l-.58-.89-.11-.15a9.2,9.2,0,0,1,6-6.58,9,9,0,0,1,8,1.15Z"/><polygon class="cls-7" points="47.07 84.67 12.86 84.67 4.55 76.16 54.4 76.16 47.07 84.67"/><polygon class="cls-12" points="42.97 62.03 24.68 84.67 49.42 84.67 42.97 62.03"/><rect class="cls-1" x="42.62" y="59.88" width="39.63" height="24.79" rx="5.66"/><rect class="cls-3" x="46.05" y="59.88" width="39.14" height="24.79" rx="5.66"/><path class="cls-1" d="M58.89,59.88,61,57.63a2.85,2.85,0,0,1,2.07-.89h3.47a3.09,3.09,0,0,1,2,.71l3,2.43Z"/><path class="cls-13" d="M60.82,59.88,63,57.63A2.85,2.85,0,0,1,65,56.74h3.47a3.12,3.12,0,0,1,2,.71l3,2.43Z"/><polygon class="cls-14" points="60.48 68.19 49.42 84.67 73.1 84.67 76.72 78.58 60.48 68.19"/><rect class="cls-1" x="58.79" y="64.48" width="17.93" height="17.16" rx="8.33"/><ellipse class="cls-13" cx="70.24" cy="73.06" rx="8.47" ry="8.58"/><path class="cls-3" d="M76.22,73.06a6,6,0,0,1-6,6,5.94,5.94,0,0,1-4.07-1.62,6.09,6.09,0,0,1,2.49-10.27A5.53,5.53,0,0,1,70.24,67a6,6,0,0,1,5.65,4.07A6.15,6.15,0,0,1,76.22,73.06Z"/><path class="cls-15" d="M72.43,78.73l-8.05-4.16a5.92,5.92,0,0,1-.17-1.13,6.2,6.2,0,0,1,.6-3L75.45,76A6,6,0,0,1,72.43,78.73Z"/><path class="cls-15" d="M76,74.6,65.6,69.23a5.88,5.88,0,0,1,2.77-1.88l7.48,3.87a6,6,0,0,1,.3,1.59A6.23,6.23,0,0,1,76,74.6Z"/><ellipse class="cls-11" cx="81.28" cy="63.58" rx="1.3" ry="1.32"/></g></g></svg>