<svg xmlns="http://www.w3.org/2000/svg" viewBox="0 0 117.95 84.87"><defs><style>.cls-1{fill:#f9edf1;}.cls-2{fill:#f7bacb;}.cls-3,.cls-4{fill:#ac1a43;}.cls-3{opacity:0.1;}.cls-4{opacity:0.41;}.cls-5{fill:#b2245e;}.cls-6{fill:#7a9837;}.cls-7{fill:#738f36;}.cls-8{fill:#88aa39;}.cls-12,.cls-9{fill:#7f0f42;}.cls-10{fill:#d33d73;}.cls-11{fill:#dd8ea6;}.cls-12{opacity:0.6;}.cls-13{fill:#f8d775;}</style></defs><g id="Layer_2" data-name="Layer 2"><g id="Layer_1-2" data-name="Layer 1"><path class="cls-1" d="M81.53,49.17a36.3,36.3,0,0,1-2.08,12.14,34.76,34.76,0,0,1-2,4.69c-.39.75-.79,1.49-1.24,2.21a38.34,38.34,0,0,1-6.67,8.21l-.09.09A40.31,40.31,0,0,1,62,82a41.18,41.18,0,0,1-6,2.82H25.52c-.52-.19-1-.41-1.55-.62l-.36-.16c-.72-.31-1.41-.64-2.1-1l-.38-.19c-.95-.49-1.88-1-2.77-1.59a1.18,1.18,0,0,1-.19-.11h0c-.47-.28-.92-.59-1.37-.9s-.85-.59-1.26-.89A38.58,38.58,0,0,1,2.21,61.68c-.19-.53-.38-1.06-.53-1.61a32,32,0,0,1-1-4,34,34,0,0,1-.57-4.29C0,50.91,0,50.05,0,49.17,0,27.94,18.25,10.73,40.76,10.73a41.93,41.93,0,0,1,27.43,10,40.53,40.53,0,0,1,3.14,3c.31.34.62.67.91,1A37.8,37.8,0,0,1,77,31.49,35.22,35.22,0,0,1,79.44,37s0,0,0,0A36.24,36.24,0,0,1,81.53,49.17Z"/><rect class="cls-2" x="14.58" y="19.51" width="5.85" height="7.59" transform="translate(0.08 -0.06) rotate(0.2)"/><rect class="cls-1" x="17.5" y="19.52" width="5.85" height="7.59" transform="translate(0.08 -0.07) rotate(0.2)"/><polygon class="cls-3" points="17.52 19.51 14.58 23.64 14.59 19.5 17.52 19.51"/><rect class="cls-2" x="25.31" width="15.6" height="84.84"/><rect class="cls-1" x="33.11" width="15.6" height="84.84"/><polygon class="cls-3" points="33.11 0 25.3 46.19 25.3 0 33.11 0"/><rect class="cls-4" x="36.03" y="2.93" width="0.98" height="71.19"/><rect class="cls-4" x="38.96" y="2.93" width="0.98" height="71.19"/><rect class="cls-4" x="41.88" y="2.93" width="0.98" height="71.19"/><rect class="cls-4" x="44.81" y="2.93" width="0.98" height="71.19"/><path class="cls-5" d="M37.8,71.66h6.87a0,0,0,0,1,0,0v5.49a0,0,0,0,1,0,0H37.8a2.75,2.75,0,0,1-2.75-2.75v0a2.75,2.75,0,0,1,2.75-2.75Z" transform="translate(79.73 148.82) rotate(180)"/><rect class="cls-2" x="11.66" y="27.32" width="10.47" height="57.51" transform="translate(0.2 -0.06) rotate(0.2)"/><rect class="cls-1" x="16.9" y="27.34" width="10.47" height="57.51" transform="translate(0.2 -0.08) rotate(0.2)"/><polygon class="cls-3" points="17 27.32 11.65 58.62 11.77 27.3 17 27.32"/><rect class="cls-2" x="51.64" y="11.7" width="15.6" height="73.14"/><rect class="cls-1" x="59.44" y="11.7" width="15.6" height="73.14"/><polygon class="cls-3" points="59.44 11.7 51.63 51.52 51.63 11.7 59.44 11.7"/><rect class="cls-4" x="61.39" y="14.63" width="11.7" height="1.95"/><rect class="cls-4" x="61.39" y="18.53" width="11.7" height="1.95"/><rect class="cls-4" x="61.39" y="22.43" width="11.7" height="1.95"/><rect class="cls-4" x="61.39" y="26.33" width="11.7" height="1.95"/><rect class="cls-4" x="61.39" y="30.23" width="11.7" height="1.95"/><polygon class="cls-3" points="23.34 26.37 23.34 23.64 17.5 26.33 23.34 26.37"/><circle class="cls-6" cx="14.02" cy="76.07" r="3.76"/><circle class="cls-6" cx="31.57" cy="69.38" r="7.94"/><circle class="cls-7" cx="21.54" cy="71.89" r="6.27"/><path class="cls-8" d="M48.71,81.08a11.37,11.37,0,0,1-.64,3.76H26.78a11.25,11.25,0,0,1-.57-2.55,12.09,12.09,0,0,1-.07-1.21,11.18,11.18,0,0,1,1.17-5A11.23,11.23,0,0,1,37.43,69.8a6.41,6.41,0,0,1,.88,0,7.61,7.61,0,0,1,1.18.15,10.44,10.44,0,0,1,1.6.42,11.27,11.27,0,0,1,7.62,10.67Z"/><path class="cls-8" d="M32.83,79.41a7.88,7.88,0,0,1-2.15,5.43H19.09A7.71,7.71,0,0,1,17.8,83,8,8,0,0,1,17,79.41,7.88,7.88,0,0,1,17,78.32a8.06,8.06,0,0,1,.43-1.69h0c.09-.26.21-.5.32-.76l0,0a.25.25,0,0,0,0-.07,7.94,7.94,0,0,1,6.09-4.21,6,6,0,0,1,1-.06A7.81,7.81,0,0,1,27.8,72a8.55,8.55,0,0,1,1.76,1,8,8,0,0,1,3,4.28.64.64,0,0,1,0,.07A7.52,7.52,0,0,1,32.83,79.41Z"/><path class="cls-8" d="M21.13,81.5a6.53,6.53,0,0,1-.91,3.34H8.65a.39.39,0,0,1-.06-.11,6.65,6.65,0,0,1-.83-2.84c0-.12,0-.26,0-.39a6.69,6.69,0,0,1,6.69-6.69,5.49,5.49,0,0,1,.58,0,6.77,6.77,0,0,1,1.11.19,6,6,0,0,1,1.64.68h0l0,0a6.71,6.71,0,0,1,3.29,5.76Z"/><circle class="cls-6" cx="75.55" cy="80.04" r="2.06"/><circle class="cls-6" cx="85.16" cy="76.37" r="4.35"/><circle class="cls-7" cx="79.67" cy="77.75" r="3.43"/><path class="cls-8" d="M94.54,82.78a6.06,6.06,0,0,1-.35,2.06H82.54a5.86,5.86,0,0,1-.32-1.39c0-.22,0-.44,0-.67a6.23,6.23,0,0,1,1.88-4.43,6.16,6.16,0,0,1,4.3-1.75,3.91,3.91,0,0,1,.49,0,4.81,4.81,0,0,1,.65.08,5.06,5.06,0,0,1,.87.23,6.1,6.1,0,0,1,2,1.12A6.2,6.2,0,0,1,94.54,82.78Z"/><path class="cls-8" d="M85.85,81.87a4.33,4.33,0,0,1-1.18,3H78.33a4.13,4.13,0,0,1-.71-1,4.37,4.37,0,0,1-.47-2,4,4,0,0,1,0-.6,4.22,4.22,0,0,1,.23-.93h0c0-.14.12-.28.18-.41l0,0s0,0,0,0A4.33,4.33,0,0,1,81,77.55a4.41,4.41,0,0,1,.52,0,4.29,4.29,0,0,1,1.6.3,5,5,0,0,1,1,.53,4.24,4.24,0,0,1,1.62,2.34l0,0A4.24,4.24,0,0,1,85.85,81.87Z"/><path class="cls-8" d="M79.44,83a3.53,3.53,0,0,1-.5,1.83H72.61l0-.06a3.67,3.67,0,0,1-.45-1.55,1.62,1.62,0,0,1,0-.22,3.67,3.67,0,0,1,3.67-3.66h.32a4.21,4.21,0,0,1,.6.11,3.22,3.22,0,0,1,.9.37h0a3.68,3.68,0,0,1,1.25,1.23A3.62,3.62,0,0,1,79.44,83Z"/><path class="cls-9" d="M113.83,77.19v.51a7.14,7.14,0,0,1-7.14,7.14h-2.21a7.14,7.14,0,0,1-6.93-7.14v-.51a7.13,7.13,0,0,1,6.93-7.13h2.21A7.14,7.14,0,0,1,113.83,77.19Z"/><path class="cls-5" d="M111.42,77.19v.51a6.94,6.94,0,1,1-13.87,0v-.51a6.94,6.94,0,1,1,13.87,0Z"/><path class="cls-10" d="M108.4,77.45a4.15,4.15,0,1,1-3.2-4A4.11,4.11,0,0,1,108.4,77.45Z"/><path class="cls-11" d="M108.4,77.45a4.11,4.11,0,0,1-3.2,4,4.12,4.12,0,0,1,0-8A4.12,4.12,0,0,1,108.4,77.45Z"/><path class="cls-9" d="M39.84,77v.53a7.3,7.3,0,0,1-7.31,7.3H30.27a7.31,7.31,0,0,1-7.09-7.3V77a7.31,7.31,0,0,1,7.09-7.31h2.26A7.31,7.31,0,0,1,39.84,77Z"/><path class="cls-5" d="M37.37,77v.53a7.31,7.31,0,0,1-7.1,7.3,7.31,7.31,0,0,1-7.09-7.3V77a7.31,7.31,0,0,1,7.09-7.31A7.32,7.32,0,0,1,37.37,77Z"/><path class="cls-10" d="M34.28,77.27A4.24,4.24,0,1,1,31,73.16,4.21,4.21,0,0,1,34.28,77.27Z"/><path class="cls-11" d="M34.28,77.27A4.21,4.21,0,0,1,31,81.38a4.22,4.22,0,0,1,0-8.22A4.21,4.21,0,0,1,34.28,77.27Z"/><path class="cls-9" d="M65.76,77v.53a7.31,7.31,0,0,1-7.31,7.3H56.19a7.31,7.31,0,0,1-7.1-7.3V77a7.32,7.32,0,0,1,7.1-7.31h2.26A7.31,7.31,0,0,1,65.76,77Z"/><path class="cls-9" d="M63.29,77v.53a7.1,7.1,0,1,1-14.2,0V77a7.1,7.1,0,1,1,14.2,0Z"/><path class="cls-10" d="M60.2,77.27a4.24,4.24,0,1,1-3.28-4.11A4.21,4.21,0,0,1,60.2,77.27Z"/><path class="cls-11" d="M60.2,77.27a4.21,4.21,0,0,1-3.28,4.11,4.22,4.22,0,0,1,0-8.22A4.21,4.21,0,0,1,60.2,77.27Z"/><rect class="cls-10" x="20.43" y="34.13" width="55.62" height="43.03"/><rect class="cls-2" x="47.89" y="34.13" width="32.98" height="43.03"/><polygon class="cls-8" points="60.78 34.13 60.78 38.58 64.35 37.37 68.5 38.58 68.5 34.13 60.78 34.13"/><polygon class="cls-8" points="60.78 77.16 60.78 72.71 64.2 73.92 68.2 72.71 68.2 77.16 60.78 77.16"/><polygon class="cls-4" points="20.43 34.34 47.89 34.34 20.59 77.16 20.43 34.34"/><polygon class="cls-1" points="69.98 44.69 88.42 61.12 91.85 74.86 113.84 74.93 113.83 59.75 93.91 44.64 69.98 44.69"/><path class="cls-1" d="M82.86,44.64v33h33.73V66.78a11.39,11.39,0,0,0-4-8.69L100.1,47.55a12.3,12.3,0,0,0-7.95-2.91Z"/><path class="cls-2" d="M59.64,44.64v33H93.37V66.78a11.43,11.43,0,0,0-4-8.69L76.87,47.55a12.28,12.28,0,0,0-7.94-2.91Z"/><path class="cls-5" d="M88.42,73.48h6.87a0,0,0,0,1,0,0V79a0,0,0,0,1,0,0H88.42a2.75,2.75,0,0,1-2.75-2.75v0a2.75,2.75,0,0,1,2.75-2.75Z"/><path class="cls-11" d="M95.29,73.48h21.15A1.51,1.51,0,0,1,117.95,75v2.47A1.51,1.51,0,0,1,116.44,79H95.29a0,0,0,0,1,0,0V73.48A0,0,0,0,1,95.29,73.48Z"/><path class="cls-9" d="M63,59.75H81.55V58.23A4.62,4.62,0,0,0,80.19,55l-4.43-4.44a6,6,0,0,0-4.25-1.76H63Z"/><polygon class="cls-4" points="59.57 44.64 59.57 77.6 47.9 76.92 59.57 44.64"/><polygon class="cls-12" points="90.68 59.44 113.84 59.37 99.26 46.9 76.04 46.9 90.68 59.44"/><path class="cls-9" d="M82.24,77.19v.51a7.14,7.14,0,0,1-7.14,7.14H72.89A7.14,7.14,0,0,1,66,77.7v-.51a7.13,7.13,0,0,1,6.93-7.13H75.1A7.14,7.14,0,0,1,82.24,77.19Z"/><path class="cls-5" d="M79.83,77.19v.51A6.94,6.94,0,1,1,66,77.7v-.51a6.94,6.94,0,1,1,13.87,0Z"/><path class="cls-10" d="M76.81,77.45a4.15,4.15,0,1,1-3.2-4A4.11,4.11,0,0,1,76.81,77.45Z"/><path class="cls-11" d="M76.81,77.45a4.11,4.11,0,0,1-3.2,4,4.12,4.12,0,0,1,0-8A4.12,4.12,0,0,1,76.81,77.45Z"/><ellipse class="cls-13" cx="97.47" cy="66.76" rx="1.95" ry="2.93"/><ellipse class="cls-13" cx="113.56" cy="66.76" rx="1.46" ry="2.93"/><rect class="cls-12" x="101.37" y="65.79" width="9.75" height="2.93" rx="1.46"/></g></g></svg>