<svg xmlns="http://www.w3.org/2000/svg" viewBox="0 0 52 79"><defs><style>.cls-1{fill:#f9edf1;}.cls-2{fill:#fff;}.cls-3{fill:#d86c98;}.cls-4{fill:#e27da1;}.cls-5{fill:#ea9bb4;}.cls-6{fill:#f7bacb;}.cls-7{fill:#88aa39;}.cls-8{fill:#a3cd39;}.cls-9{fill:#f4ced9;}.cls-10{fill:#d33d73;}.cls-11{fill:#ccacb6;opacity:0.3;}.cls-12{fill:#f1c014;}</style></defs><g id="Layer_2" data-name="Layer 2"><g id="Layer_1-2" data-name="Layer 1"><path class="cls-1" d="M52,55.4A26,26,0,0,1,36.92,79H15.08A26,26,0,0,1,12.9,33a24.82,24.82,0,0,1,4.4-2.05,21.19,21.19,0,0,1,2.85-.83,23.08,23.08,0,0,1,3-.52c.56-.06,1.12-.1,1.69-.12.38,0,.76,0,1.15,0h.33c.21,0,.43,0,.64,0s.66,0,1,.06a22.86,22.86,0,0,1,3,.4,23.52,23.52,0,0,1,2.92.73l.49.17A26,26,0,0,1,52,55.4Z"/><path class="cls-2" d="M32.35,38.53s.23,2.47,1.13,3.16a4.43,4.43,0,0,0,4-1.47A4.23,4.23,0,0,1,36,37.53S33.69,39.57,32.35,38.53Z"/><path class="cls-2" d="M13.49,54.35s-2.34,2.59-2.26,4.23c0,0,1.82,3.2,5.1,3a6.44,6.44,0,0,1,1.44-4.19S13.62,56.81,13.49,54.35Z"/><path class="cls-3" d="M25.45,30.53l1.89-1.38A2,2,0,0,1,29.48,29l6.66,3.82s-.23,1.69-1.75,1.79S29,32.79,29,32.79l-3,2.9-4.05-2.44Z"/><path class="cls-4" d="M25,29.26l1.43-1.85a2,2,0,0,1,2-.71l7.46,1.78a2,2,0,0,1-1.16,2.21c-1.43.52-5.72-.26-5.72-.26l-2.08,3.64-4.58-1.2Z"/><path class="cls-5" d="M22.87,26.34l1.58-2.05a2.19,2.19,0,0,1,2.24-.79l8.29,2a2.26,2.26,0,0,1-1.3,2.45c-1.59.57-6.34-.29-6.34-.29l-2.31,4L20,30.35Z"/><path class="cls-6" d="M33.29,38.89A11.55,11.55,0,0,1,35,49.72c-2.88,8.46-1.6,28.73-1.6,28.73l-3.89-.16-11.6.32s6.23-23.78,3-29.85l-2.62-5-5-9.47a4.56,4.56,0,0,1,.14-4.48s0,0,0,0l6.38-10.36a3.62,3.62,0,0,1,3.47-1.71l.94.11,11.47,1.24s-1.27,3.52-4.47,3.52-6.86.32-6.86.32l-2.87,5.26L30.51,36A13.86,13.86,0,0,1,33.29,38.89Z"/><rect class="cls-7" x="22.12" y="1.81" width="13.6" height="18.77" rx="0.91" transform="translate(-1.72 15.96) rotate(-30)"/><rect class="cls-8" x="24.44" y="3.42" width="14.37" height="19.97" rx="0.95" transform="translate(-1.49 4.26) rotate(-7.54)"/><path class="cls-9" d="M32.31,21.14a2.38,2.38,0,0,0-2.66,1.76L26.51,35c-1.75,2.32-3.72,2.59-5.59,1.89-9.87-7.4,3.38-19.1,3.38-19.1l-.94-.11a3.62,3.62,0,0,0-3.47,1.71L13.51,29.78s0,0,0,0a4.56,4.56,0,0,0-.14,4.48l5,9.47h0l2.62,5c3.19,6.07-3,29.85-3,29.85l11.6-.32c-.19-6.38-.55-25.81,2.13-28.09,3.19-2.71,1.67-11.29,1.67-11.31l1.05-15.23A2.38,2.38,0,0,0,32.31,21.14Z"/><polygon class="cls-10" points="35.11 79 17.56 79 18.39 65 34.71 65 34.77 66.97 34.93 72.58 35.11 79"/><rect class="cls-2" x="19.23" y="61" width="15.04" height="4"/><rect class="cls-11" x="19.23" y="64" width="15.04" height="1"/><circle class="cls-12" cx="21.15" cy="69.83" r="1.2"/><circle class="cls-1" cx="31.92" cy="23.97" r="1.6"/><path class="cls-2" d="M31.35,68.15s1.7,3.82,3.49,4.45c0,0,4.27-.66,5.61-4.48a7.2,7.2,0,0,1-3.83-3.49S34.05,69.1,31.35,68.15Z"/></g></g></svg>