<svg id="Layer_2" data-name="Layer 2" xmlns="http://www.w3.org/2000/svg" viewBox="0 0 200 200"><defs><style>.cls-1{fill:#f9edf1;}.cls-2{fill:#f7bacb;}.cls-3,.cls-4{fill:#ac1a43;}.cls-3{opacity:0.1;}.cls-12,.cls-3,.cls-4{isolation:isolate;}.cls-4{opacity:0.41;}.cls-5{fill:#b2245e;}.cls-6{fill:#7a9837;}.cls-7{fill:#738f36;}.cls-8{fill:#88aa39;}.cls-12,.cls-9{fill:#7f0f42;}.cls-10{fill:#d33d73;}.cls-11{fill:#dd8ea6;}.cls-12{opacity:0.6;}.cls-13{fill:#f8d775;}</style></defs><g id="Layer_2-2" data-name="Layer 2"><g id="Layer_1-2" data-name="Layer 1-2"><path class="cls-1" d="M122.55,106.56a36.16,36.16,0,0,1-2.08,12.14,33.89,33.89,0,0,1-2,4.69c-.39.75-.79,1.49-1.24,2.21a38.16,38.16,0,0,1-6.67,8.21l-.09.09a40.12,40.12,0,0,1-7.45,5.49,41,41,0,0,1-6,2.82H66.54c-.52-.19-1-.41-1.55-.62l-.36-.16c-.72-.31-1.41-.64-2.1-1l-.38-.19a29.18,29.18,0,0,1-2.77-1.59l-.19-.11h0c-.47-.28-.92-.59-1.37-.9s-.85-.59-1.26-.89a38.76,38.76,0,0,1-13.33-17.68c-.19-.53-.38-1.06-.53-1.61a37.45,37.45,0,0,1-1.57-8.29,20.64,20.64,0,0,1-.11-2.61c0-21.23,18.25-38.44,40.76-38.44a41.88,41.88,0,0,1,27.43,10,38.66,38.66,0,0,1,3.14,3c.31.34.62.67.91,1A37.1,37.1,0,0,1,118,88.88a34.32,34.32,0,0,1,2.44,5.51h0A36,36,0,0,1,122.55,106.56Z"/><rect class="cls-2" x="54.73" y="77.77" width="7.59" height="5.85" transform="translate(-22.37 138.94) rotate(-89.8)"/><rect class="cls-1" x="57.65" y="77.78" width="7.59" height="5.85" transform="translate(-19.47 141.87) rotate(-89.8)"/><polygon class="cls-3" points="58.55 76.9 55.6 81.03 55.62 76.89 58.55 76.9"/><rect class="cls-2" x="66.33" y="57.39" width="15.6" height="84.84"/><rect class="cls-1" x="74.13" y="57.39" width="15.6" height="84.84"/><polygon class="cls-3" points="74.14 57.39 66.33 103.58 66.33 57.39 74.14 57.39"/><rect class="cls-4" x="77.05" y="60.32" width="0.98" height="71.19"/><rect class="cls-4" x="79.98" y="60.32" width="0.98" height="71.19"/><rect class="cls-4" x="82.9" y="60.32" width="0.98" height="71.19"/><rect class="cls-4" x="85.83" y="60.32" width="0.98" height="71.19"/><path class="cls-5" d="M83,134.55H76.08v-5.49H83a2.75,2.75,0,0,1,2.75,2.75h0A2.75,2.75,0,0,1,83,134.56Z"/><rect class="cls-2" x="29.17" y="108.22" width="57.51" height="10.47" transform="translate(-55.74 170.99) rotate(-89.8)"/><rect class="cls-1" x="34.41" y="108.24" width="57.51" height="10.47" transform="translate(-50.53 176.24) rotate(-89.8)"/><polygon class="cls-3" points="58.02 84.71 52.67 116.01 52.8 84.69 58.02 84.71"/><rect class="cls-2" x="92.66" y="69.09" width="15.6" height="73.14"/><rect class="cls-1" x="100.46" y="69.09" width="15.6" height="73.14"/><polygon class="cls-3" points="100.47 69.09 92.66 108.91 92.66 69.09 100.47 69.09"/><rect class="cls-4" x="102.41" y="72.02" width="11.7" height="1.95"/><rect class="cls-4" x="102.41" y="75.92" width="11.7" height="1.95"/><rect class="cls-4" x="102.41" y="79.82" width="11.7" height="1.95"/><rect class="cls-4" x="102.41" y="83.72" width="11.7" height="1.95"/><rect class="cls-4" x="102.41" y="87.62" width="11.7" height="1.95"/><polygon class="cls-3" points="64.36 83.76 64.36 81.03 58.52 83.72 64.36 83.76"/><circle class="cls-6" cx="55.04" cy="133.46" r="3.76"/><circle class="cls-6" cx="72.59" cy="126.77" r="7.94"/><circle class="cls-7" cx="62.56" cy="129.28" r="6.27"/><path class="cls-8" d="M89.73,138.47a11.21,11.21,0,0,1-.64,3.76H67.8a12.52,12.52,0,0,1-.57-2.55c0-.41-.06-.81-.07-1.21a11.28,11.28,0,0,1,11.29-11.28,6.46,6.46,0,0,1,.88,0,5.77,5.77,0,0,1,1.18.15,8.76,8.76,0,0,1,1.6.42,11.25,11.25,0,0,1,7.62,10.67Z"/><path class="cls-8" d="M73.85,136.8a7.86,7.86,0,0,1-2.15,5.43H60.11A7.61,7.61,0,0,1,58,136.8a9.91,9.91,0,0,1,0-1.09,8.73,8.73,0,0,1,.43-1.69h0c.09-.26.21-.5.32-.76h0a.08.08,0,0,0,0-.07A7.93,7.93,0,0,1,64.86,129a5.65,5.65,0,0,1,1-.06,7.63,7.63,0,0,1,3,.47,8.3,8.3,0,0,1,4.76,5.28.08.08,0,0,1,0,.07A7.15,7.15,0,0,1,73.85,136.8Z"/><path class="cls-8" d="M62.15,138.89a6.48,6.48,0,0,1-.91,3.34H49.67l-.06-.11a6.81,6.81,0,0,1-.83-2.84v-.39a6.69,6.69,0,0,1,6.69-6.69h.58a5.85,5.85,0,0,1,1.11.19,5.63,5.63,0,0,1,1.64.68h0a6.68,6.68,0,0,1,3.29,5.76Z"/><circle class="cls-6" cx="116.57" cy="137.43" r="2.06"/><circle class="cls-6" cx="126.18" cy="133.76" r="4.35"/><circle class="cls-7" cx="120.69" cy="135.14" r="3.43"/><path class="cls-8" d="M135.56,140.17a5.83,5.83,0,0,1-.35,2.06H123.56a6.09,6.09,0,0,1-.32-1.39v-.67a6.25,6.25,0,0,1,1.88-4.43,6.15,6.15,0,0,1,4.3-1.75,4,4,0,0,1,.49,0,3.5,3.5,0,0,1,.65.08,4.29,4.29,0,0,1,.87.23,5.8,5.8,0,0,1,2,1.12A6.14,6.14,0,0,1,135.56,140.17Z"/><path class="cls-8" d="M126.87,139.26a4.32,4.32,0,0,1-1.18,3h-6.34a4.66,4.66,0,0,1-.71-1,4.49,4.49,0,0,1-.47-2q0-.3,0-.6a4.86,4.86,0,0,1,.23-.93h0c0-.14.12-.28.18-.41h0a4.34,4.34,0,0,1,3.44-2.38h.52a4,4,0,0,1,1.6.3,4.22,4.22,0,0,1,2.62,2.87h0A4,4,0,0,1,126.87,139.26Z"/><path class="cls-8" d="M120.46,140.39a3.41,3.41,0,0,1-.5,1.83h-6.33v-.06a3.85,3.85,0,0,1-.45-1.55v-.22a3.67,3.67,0,0,1,3.67-3.66h.32a2.9,2.9,0,0,1,.6.11,2.85,2.85,0,0,1,.9.37h0a3.59,3.59,0,0,1,1.25,1.23A3.52,3.52,0,0,1,120.46,140.39Z"/><path class="cls-9" d="M154.85,134.58v.51a7.14,7.14,0,0,1-7.14,7.14H145.5a7.15,7.15,0,0,1-6.93-7.14v-.51a7.13,7.13,0,0,1,6.93-7.13h2.21A7.14,7.14,0,0,1,154.85,134.58Z"/><path class="cls-5" d="M152.44,134.58v.51a6.94,6.94,0,0,1-13.87.52v-1a6.94,6.94,0,0,1,13.87-.53A4.68,4.68,0,0,1,152.44,134.58Z"/><path class="cls-10" d="M149.42,134.84a4.15,4.15,0,1,1-4.18-4.11,3.6,3.6,0,0,1,1,.11A4.1,4.1,0,0,1,149.42,134.84Z"/><path class="cls-11" d="M149.42,134.84a4.11,4.11,0,0,1-3.2,4,4.12,4.12,0,0,1,0-8A4.1,4.1,0,0,1,149.42,134.84Z"/><path class="cls-9" d="M80.86,134.39v.53a7.3,7.3,0,0,1-7.3,7.3H71.29a7.33,7.33,0,0,1-7.09-7.3v-.53a7.3,7.3,0,0,1,7.09-7.31h2.26A7.31,7.31,0,0,1,80.86,134.39Z"/><path class="cls-5" d="M78.39,134.39v.53a7.1,7.1,0,1,1-14.19,0v-.53a7.1,7.1,0,1,1,14.19,0Z"/><path class="cls-10" d="M75.3,134.66a4.24,4.24,0,1,1-4.25-4.22,3.57,3.57,0,0,1,1,.11A4.2,4.2,0,0,1,75.3,134.66Z"/><path class="cls-11" d="M75.3,134.66A4.21,4.21,0,0,1,72,138.77a4.22,4.22,0,0,1,0-8.22A4.2,4.2,0,0,1,75.3,134.66Z"/><path class="cls-9" d="M106.78,134.39v.53a7.3,7.3,0,0,1-7.31,7.3H97.21a7.32,7.32,0,0,1-7.1-7.3v-.53a7.32,7.32,0,0,1,7.1-7.31h2.26a7.31,7.31,0,0,1,7.31,7.31Z"/><path class="cls-9" d="M104.31,134.39v.53a7.1,7.1,0,0,1-14.2,0v-.53a7.1,7.1,0,0,1,14.2,0Z"/><path class="cls-10" d="M101.22,134.66A4.24,4.24,0,1,1,97,130.44a3.57,3.57,0,0,1,1,.11A4.2,4.2,0,0,1,101.22,134.66Z"/><path class="cls-11" d="M101.22,134.66a4.21,4.21,0,0,1-3.28,4.11,4.22,4.22,0,0,1,0-8.22A4.2,4.2,0,0,1,101.22,134.66Z"/><rect class="cls-10" x="61.45" y="91.52" width="55.62" height="43.03"/><rect class="cls-2" x="88.91" y="91.52" width="32.98" height="43.03"/><polygon class="cls-8" points="101.81 91.52 101.81 95.97 105.38 94.76 109.53 95.97 109.53 91.52 101.81 91.52"/><polygon class="cls-8" points="101.81 134.55 101.81 130.1 105.22 131.31 109.22 130.1 109.22 134.55 101.81 134.55"/><polygon class="cls-4" points="61.45 91.73 88.92 91.73 61.62 134.55 61.45 91.73"/><polygon class="cls-1" points="111 102.08 129.44 118.51 132.88 132.25 154.87 132.32 154.85 117.14 134.94 102.03 111 102.08"/><path class="cls-1" d="M123.88,102v33h33.73V124.17a11.34,11.34,0,0,0-4-8.69l-12.49-10.54a12.23,12.23,0,0,0-8-2.91Z"/><path class="cls-2" d="M100.66,102v33h33.73V124.17a11.38,11.38,0,0,0-4-8.69l-12.5-10.54A12.21,12.21,0,0,0,110,102Z"/><path class="cls-5" d="M129.44,130.87h6.87v5.52h-6.87a2.76,2.76,0,0,1-2.75-2.75h0a2.75,2.75,0,0,1,2.75-2.75h0Z"/><path class="cls-11" d="M136.31,130.87h21.15a1.5,1.5,0,0,1,1.51,1.51h0v2.47a1.51,1.51,0,0,1-1.48,1.53H136.31v-5.52Z"/><path class="cls-9" d="M104,117.14h18.55v-1.52a4.59,4.59,0,0,0-1.36-3.23L116.78,108a5.93,5.93,0,0,0-4.25-1.76H104Z"/><polygon class="cls-4" points="100.59 102.03 100.59 134.99 88.92 134.31 100.59 102.03"/><polygon class="cls-12" points="131.71 116.83 154.87 116.76 140.28 104.29 117.06 104.29 131.71 116.83"/><path class="cls-9" d="M123.26,134.58v.51a7.14,7.14,0,0,1-7.14,7.14h-2.21a7.15,7.15,0,0,1-6.89-7.14v-.51a7.13,7.13,0,0,1,6.93-7.13h2.17A7.14,7.14,0,0,1,123.26,134.58Z"/><path class="cls-5" d="M120.85,134.58v.51A6.94,6.94,0,1,1,107,136.26a7.62,7.62,0,0,1,0-1.17v-.51a6.94,6.94,0,0,1,13.87-.53,4.68,4.68,0,0,1,0,.53Z"/><path class="cls-10" d="M117.83,134.84a4.15,4.15,0,1,1-4.18-4.11,3.6,3.6,0,0,1,1,.11A4.1,4.1,0,0,1,117.83,134.84Z"/><path class="cls-11" d="M117.83,134.84a4.11,4.11,0,0,1-3.2,4,4.12,4.12,0,0,1,0-8A4.1,4.1,0,0,1,117.83,134.84Z"/><ellipse class="cls-13" cx="138.49" cy="124.15" rx="1.95" ry="2.93"/><ellipse class="cls-13" cx="154.58" cy="124.15" rx="1.46" ry="2.93"/><rect class="cls-12" x="142.39" y="123.18" width="9.75" height="2.93" rx="1.46"/></g></g></svg>