<svg id="Layer_2" data-name="Layer 2" xmlns="http://www.w3.org/2000/svg" xmlns:xlink="http://www.w3.org/1999/xlink" viewBox="0 0 199.06 199.06"><defs><style>.cls-1{fill:#d33d73;}.cls-2{fill:#c11b48;}.cls-3{fill:url(#linear-gradient);}.cls-4{fill:#f7bacb;}.cls-5{fill:#94a85d;}.cls-6{fill:#f9edf1;}.cls-7{fill:#ac1a43;opacity:0.41;}.cls-11,.cls-7,.cls-9{isolation:isolate;}.cls-8,.cls-9{fill:#d6a1b5;}.cls-9{opacity:0.37;}.cls-10{fill:#f1c014;}.cls-11{fill:#d3a623;opacity:0.56;}</style><linearGradient id="linear-gradient" x1="40.04" y1="-2997.57" x2="59.27" y2="-2997.57" gradientTransform="matrix(1, 0, 0, -1, 0, -2875.57)" gradientUnits="userSpaceOnUse"><stop offset="0.06" stop-color="#d33d73" stop-opacity="0.2"/><stop offset="0.1" stop-color="#d33d73" stop-opacity="0.31"/><stop offset="0.19" stop-color="#d33d73" stop-opacity="0.49"/><stop offset="0.29" stop-color="#d33d73" stop-opacity="0.65"/><stop offset="0.39" stop-color="#d33d73" stop-opacity="0.78"/><stop offset="0.5" stop-color="#d33d73" stop-opacity="0.88"/><stop offset="0.62" stop-color="#d33d73" stop-opacity="0.95"/><stop offset="0.77" stop-color="#d33d73" stop-opacity="0.99"/><stop offset="1" stop-color="#d33d73"/></linearGradient></defs><g id="Layer_2-2" data-name="Layer 2"><g id="Layer_1-2" data-name="Layer 1-2"><rect class="cls-1" x="70.01" y="86.66" width="29.97" height="14.14"/><path class="cls-2" d="M70.15,86.66h0a6.66,6.66,0,0,1,6.66,6.65v48.76H63.65V93.15a6.5,6.5,0,0,1,6.5-6.49Z"/><rect class="cls-2" x="40.3" y="101.92" width="38.41" height="40.15"/><rect class="cls-3" x="40.04" y="101.92" width="19.22" height="40.15"/><rect class="cls-4" x="52.06" y="101.92" width="34.12" height="40.15"/><polygon class="cls-5" points="63.49 101.92 63.49 106.26 67.16 105.08 71.42 106.26 71.42 101.92 63.49 101.92"/><polygon class="cls-5" points="63.98 142.07 63.98 137.73 67.64 138.91 71.91 137.73 71.91 142.07 63.98 142.07"/><path class="cls-6" d="M89.81,57.1h48.87v67.1a17.87,17.87,0,0,1-17.87,17.87h-31v-85Z"/><polygon class="cls-7" points="52.11 101.92 40.31 137.35 40.31 101.92 52.11 101.92"/><rect class="cls-1" x="118.37" y="110.08" width="34.17" height="31.98"/><rect class="cls-4" x="131.61" y="110.08" width="27.57" height="31.98"/><polygon class="cls-5" points="143.74 110.08 143.74 113.38 146.12 112.49 148.9 113.38 148.9 110.08 143.74 110.08"/><polygon class="cls-5" points="143.74 142.07 143.74 138.76 146.28 139.66 149.25 138.76 149.25 142.07 143.74 142.07"/><polygon class="cls-7" points="118.37 110.08 131.61 110.08 118.45 142.07 118.37 110.08"/><rect class="cls-6" x="83.59" y="132.46" width="16.39" height="9.61"/><path class="cls-1" d="M89.81,95.7v40.12a6.65,6.65,0,0,1-6.64,6.25,6.5,6.5,0,0,1-6.47-6.5V95.7Z"/><path class="cls-7" d="M89.78,135.82a6.64,6.64,0,0,1-6.63,6.25,6.5,6.5,0,0,1-6.45-6.5v-4.32L87,95.74l2.64-9v9Z"/><rect class="cls-8" x="98.86" y="79.9" width="31.1" height="1.13" rx="0.56"/><rect class="cls-8" x="98.86" y="74.17" width="31.1" height="1.13" rx="0.56"/><rect class="cls-8" x="98.86" y="68.44" width="31.1" height="1.13" rx="0.56"/><rect class="cls-8" x="98.86" y="86.12" width="31.1" height="1.13" rx="0.56"/><rect class="cls-8" x="98.86" y="92.34" width="31.1" height="1.13" rx="0.56"/><rect class="cls-8" x="98.86" y="98.56" width="31.1" height="1.13" rx="0.56"/><polygon class="cls-9" points="120.17 125.66 120.17 142.07 95.04 142.09 105.02 129.62 107.72 127.93 107.86 126.16 120.17 125.66"/><path class="cls-10" d="M94,137.92l9.91-7.87a2.13,2.13,0,0,1,3,.34h0a2.14,2.14,0,0,1-.34,3l-9.91,7.87a2.14,2.14,0,0,1-3-.34h0A2.13,2.13,0,0,1,94,137.92Z"/><path class="cls-10" d="M127,130.67v1.47a1.41,1.41,0,0,1-1.39,1.41h-4.85a1.37,1.37,0,0,1,1.4,1.37h0v1.48a1.4,1.4,0,0,1-1.4,1.4h4.36a1.39,1.39,0,0,1,1.4,1.37v1.55a1.4,1.4,0,0,1-1.4,1.4H111a1.4,1.4,0,0,1-1.4-1.4V139.2a1.39,1.39,0,0,1,1.39-1.39H106.6a1.4,1.4,0,0,1-1.4-1.4h0v-1.48a1.38,1.38,0,0,1,1.39-1.38h4.85a1.4,1.4,0,0,1-1.4-1.4h0v-1.47a1.38,1.38,0,0,1,.65-1.15h-1.53a1.28,1.28,0,0,1-.73-.25,1.37,1.37,0,0,1-.67-1.14v-1.52a1.39,1.39,0,0,1,1.4-1.38h14.12a1.4,1.4,0,0,1,1.4,1.38v1.52a1.4,1.4,0,0,1-.67,1.14h1.54a1.4,1.4,0,0,1,1.4,1.4Z"/><path class="cls-11" d="M110,137.81H106.6a1.4,1.4,0,0,1-1.4-1.4h0v-1.48a1.38,1.38,0,0,1,1.39-1.38h4.85a1.4,1.4,0,0,1-1.4-1.4h0v-1.47a1.38,1.38,0,0,1,.65-1.15h-1.53a1.28,1.28,0,0,1-.73-.25h11.14l-4.85,4.28H118Z"/><path class="cls-11" d="M122.47,137.81l-7.28,4.26h-4.1a1.41,1.41,0,0,1-1.41-1.34V139.2a1.4,1.4,0,0,1,1.4-1.39h11.39Z"/></g></g></svg>