<svg xmlns="http://www.w3.org/2000/svg" viewBox="0 0 108.95 80.58"><defs><style>.cls-1{fill:#d33d73;}.cls-2{fill:#f7bacb;}.cls-3{fill:#d6a1b5;}.cls-4{fill:#f9edf1;}.cls-5{opacity:0.28;}.cls-6{fill:#88aa39;}.cls-7,.cls-8{fill:#ac1a43;}.cls-7{opacity:0.41;}.cls-8{opacity:0.18;}</style></defs><g id="Layer_2" data-name="Layer 2"><g id="Layer_1-2" data-name="Layer 1"><rect class="cls-1" x="32.34" width="40.88" height="80.58" rx="5.81"/><rect class="cls-2" x="36.06" width="40.88" height="80.58" rx="5.81"/><rect class="cls-3" x="48.83" y="2.4" width="16.24" height="1.35" rx="0.68"/><rect class="cls-4" x="38.84" y="6.25" width="35.61" height="71.21" rx="5.81"/><g class="cls-5"><polygon class="cls-3" points="40.09 14.99 47.58 14.99 47.58 19.99 45.8 21.86 45.8 24.36 40.09 24.36 40.09 14.99"/></g><polygon class="cls-3" points="55.08 63.09 53.83 63.09 53.83 56.84 63.83 56.84 63.83 39.98 56.33 39.98 56.33 29.98 48.83 29.98 48.83 23.4 52.58 20.91 52.58 18.11 53.83 18.11 53.83 21.57 50.08 24.07 50.08 28.73 57.58 28.73 57.58 38.73 65.08 38.73 65.08 58.09 55.08 58.09 55.08 63.09"/><g class="cls-5"><rect class="cls-3" x="45.09" y="32.48" width="8.75" height="6.25"/></g><g class="cls-5"><rect class="cls-3" x="40.09" y="32.48" width="3.12" height="12.49"/></g><g class="cls-5"><rect class="cls-3" x="40.09" y="26.86" width="6.25" height="3.75"/></g><g class="cls-5"><rect class="cls-3" x="55.08" y="43.1" width="5.62" height="9.99"/></g><g class="cls-5"><rect class="cls-3" x="41.34" y="51.22" width="9.37" height="11.24"/></g><g class="cls-5"><rect class="cls-3" x="45.09" y="41.85" width="6.87" height="6.87"/></g><g class="cls-5"><rect class="cls-3" x="58.2" y="16.24" width="12.49" height="4.37"/></g><g class="cls-5"><rect class="cls-3" x="51.96" y="24.36" width="6.25" height="2.5"/></g><g class="cls-5"><rect class="cls-3" x="55.7" y="21.86" width="9.99" height="1.25"/></g><g class="cls-5"><rect class="cls-3" x="60.08" y="24.99" width="6.87" height="11.24"/></g><g class="cls-5"><rect class="cls-3" x="69.45" y="22.49" width="3.75" height="8.75"/></g><g class="cls-5"><rect class="cls-3" x="66.95" y="39.35" width="6.25" height="17.49"/></g><g class="cls-5"><rect class="cls-3" x="41.86" y="64.97" width="8.85" height="5"/></g><g class="cls-5"><rect class="cls-3" x="58.2" y="65.59" width="12.49" height="5"/></g><g class="cls-5"><rect class="cls-3" x="57.58" y="59.34" width="8.12" height="4.37"/></g><g class="cls-5"><rect class="cls-3" x="68.2" y="59.34" width="5" height="4.37"/></g><path class="cls-1" d="M53.21,14a1.88,1.88,0,0,0-1.88,1.87,1.94,1.94,0,0,0,.28,1h0l1.27,2.33a.37.37,0,0,0,.65,0L54.67,17a1.83,1.83,0,0,0,.41-1.17A1.87,1.87,0,0,0,53.21,14Zm0,2.73a.86.86,0,1,1,0-1.71.86.86,0,0,1,0,1.71Z"/><path class="cls-1" d="M54.46,62.11A1.88,1.88,0,0,0,52.58,64a2,2,0,0,0,.28,1h0l1.27,2.33a.37.37,0,0,0,.65,0l1.14-2.14A1.85,1.85,0,0,0,56.33,64,1.87,1.87,0,0,0,54.46,62.11Zm0,2.73a.86.86,0,1,1,0-1.71.85.85,0,0,1,.85.85A.86.86,0,0,1,54.46,64.84Z"/><rect class="cls-1" y="49.16" width="33.56" height="31.42"/><rect class="cls-2" x="13" y="49.16" width="27.09" height="31.42"/><polygon class="cls-6" points="24.92 49.16 24.92 52.41 27.26 51.53 29.98 52.41 29.98 49.16 24.92 49.16"/><polygon class="cls-6" points="24.92 80.58 24.92 77.33 27.42 78.22 30.34 77.33 30.34 80.58 24.92 80.58"/><polygon class="cls-7" points="0 49.16 13 49.16 0.08 80.58 0 49.16"/><rect class="cls-1" x="20.08" y="60.59" width="21.35" height="19.99"/><rect class="cls-2" x="28.36" y="60.59" width="17.23" height="19.99"/><polygon class="cls-6" points="35.94 60.59 35.94 62.66 37.43 62.1 39.16 62.66 39.16 60.59 35.94 60.59"/><polygon class="cls-6" points="35.94 80.58 35.94 78.52 37.53 79.08 39.38 78.52 39.38 80.58 35.94 80.58"/><polygon class="cls-7" points="20.08 60.59 28.36 60.59 20.13 80.58 20.08 60.59"/><rect class="cls-1" x="69.96" y="50.03" width="32.64" height="30.55"/><rect class="cls-2" x="82.61" y="50.03" width="26.34" height="30.55"/><polygon class="cls-6" points="94.19 50.03 94.19 53.19 96.47 52.33 99.12 53.19 99.12 50.03 94.19 50.03"/><polygon class="cls-6" points="94.19 80.58 94.19 77.42 96.63 78.28 99.46 77.42 99.46 80.58 94.19 80.58"/><polygon class="cls-7" points="69.96 50.03 82.61 50.03 70.04 80.58 69.96 50.03"/><rect class="cls-1" x="79.57" y="30.61" width="20.97" height="19.63"/><rect class="cls-2" x="87.7" y="30.61" width="16.93" height="19.63"/><polygon class="cls-6" points="95.14 30.61 95.14 32.64 96.61 32.09 98.31 32.64 98.31 30.61 95.14 30.61"/><polygon class="cls-6" points="95.14 50.24 95.14 48.21 96.71 48.77 98.53 48.21 98.53 50.24 95.14 50.24"/><polygon class="cls-7" points="79.57 30.61 87.7 30.61 79.62 50.24 79.57 30.61"/><polygon class="cls-8" points="70.07 49.97 54.45 80.58 70.07 80.58 70.07 49.97"/></g></g></svg>