<svg id="Layer_2" data-name="Layer 2" xmlns="http://www.w3.org/2000/svg" viewBox="0 0 200 200"><defs><style>.cls-1{fill:#d33d73;}.cls-2{fill:#f7bacb;}.cls-3{fill:#d6a1b5;}.cls-4{fill:#f9edf1;}.cls-5{opacity:0.28;}.cls-6{fill:#94a85d;}.cls-7{fill:#88aa39;}.cls-8,.cls-9{fill:#ac1a43;isolation:isolate;}.cls-8{opacity:0.41;}.cls-9{opacity:0.18;}</style></defs><g id="Layer_2-2" data-name="Layer 2"><g id="Layer_1-2" data-name="Layer 1-2"><rect class="cls-1" x="76.64" y="57.49" width="43.13" height="85.02" rx="6.13"/><rect class="cls-2" x="80.57" y="57.49" width="43.13" height="85.02" rx="6.13"/><path class="cls-3" d="M94.76,60h15.7a.71.71,0,0,1,.72.71h0a.71.71,0,0,1-.72.71H94.76a.71.71,0,0,1-.72-.71h0A.71.71,0,0,1,94.76,60Z"/><rect class="cls-4" x="83.5" y="64.08" width="37.57" height="75.14" rx="6.13"/><g class="cls-5"><polygon class="cls-3" points="84.82 73.31 92.72 73.31 92.72 78.58 90.85 80.55 90.85 83.19 84.82 83.19 84.82 73.31"/></g><polygon class="cls-3" points="100.64 124.06 99.32 124.06 99.32 117.46 109.87 117.46 109.87 99.67 101.96 99.67 101.96 89.12 94.04 89.12 94.04 82.18 98 79.55 98 76.6 99.32 76.6 99.32 80.25 95.36 82.89 95.36 87.8 103.28 87.8 103.28 98.35 111.19 98.35 111.19 118.78 100.64 118.78 100.64 124.06"/><g class="cls-5"><rect class="cls-3" x="90.1" y="91.76" width="9.23" height="6.59"/></g><g class="cls-5"><rect class="cls-3" x="84.82" y="91.76" width="3.29" height="13.18"/></g><g class="cls-5"><rect class="cls-3" x="84.82" y="85.83" width="6.59" height="3.96"/></g><g class="cls-5"><rect class="cls-3" x="100.64" y="102.96" width="5.93" height="10.54"/></g><g class="cls-5"><rect class="cls-3" x="86.14" y="111.53" width="9.89" height="11.86"/></g><g class="cls-5"><rect class="cls-3" x="90.1" y="101.65" width="7.25" height="7.25"/></g><g class="cls-5"><rect class="cls-3" x="103.93" y="74.62" width="13.18" height="4.61"/></g><g class="cls-5"><rect class="cls-3" x="97.35" y="83.19" width="6.59" height="2.64"/></g><g class="cls-5"><rect class="cls-3" x="101.29" y="80.55" width="10.54" height="1.32"/></g><g class="cls-5"><rect class="cls-3" x="105.91" y="83.86" width="7.25" height="11.86"/></g><g class="cls-5"><rect class="cls-3" x="115.8" y="81.22" width="3.96" height="9.23"/></g><g class="cls-5"><rect class="cls-3" x="113.16" y="99.01" width="6.59" height="18.45"/></g><g class="cls-5"><rect class="cls-3" x="86.69" y="126.04" width="9.34" height="5.28"/></g><g class="cls-5"><rect class="cls-3" x="103.93" y="126.7" width="13.18" height="5.28"/></g><g class="cls-5"><rect class="cls-3" x="103.28" y="120.1" width="8.57" height="4.61"/></g><g class="cls-5"><rect class="cls-3" x="114.48" y="120.1" width="5.28" height="4.61"/></g><path class="cls-1" d="M98.67,72.26a2,2,0,0,0-1.69,3h0l1.34,2.46a.38.38,0,0,0,.53.15.36.36,0,0,0,.15-.15l1.21-2.32a1.95,1.95,0,0,0-1.54-3.17Zm0,2.88a.91.91,0,0,1-1-.8.9.9,0,0,1,.8-1,.67.67,0,0,1,.2,0,.91.91,0,0,1,0,1.8Z"/><path class="cls-1" d="M100,123a2,2,0,0,0-2,2h0a2.06,2.06,0,0,0,.3,1h0l1.34,2.46a.39.39,0,0,0,.53.16.39.39,0,0,0,.15-.16l1.2-2.26A2,2,0,0,0,100,123Zm0,2.88a.91.91,0,1,1-.19-1.8H100a.9.9,0,1,1,0,1.8Z"/><rect class="cls-1" x="42.52" y="109.36" width="35.41" height="33.15"/><rect class="cls-2" x="56.24" y="109.36" width="28.58" height="33.15"/><polygon class="cls-6" points="68.81 109.36 68.81 112.79 71.28 111.86 74.15 112.79 74.15 109.36 68.81 109.36"/><polygon class="cls-7" points="68.81 142.51 68.81 139.08 71.45 140.02 74.53 139.08 74.53 142.51 68.81 142.51"/><polygon class="cls-8" points="42.52 109.36 56.24 109.36 42.6 142.51 42.52 109.36"/><rect class="cls-1" x="63.71" y="121.42" width="22.53" height="21.09"/><rect class="cls-2" x="72.44" y="121.42" width="18.18" height="21.09"/><polygon class="cls-6" points="80.44 121.42 80.44 123.6 82.02 123.01 83.84 123.6 83.84 121.42 80.44 121.42"/><polygon class="cls-6" points="80.44 142.51 80.44 140.34 82.12 140.93 84.07 140.34 84.07 142.51 80.44 142.51"/><polygon class="cls-8" points="63.71 121.42 72.44 121.42 63.76 142.51 63.71 121.42"/><rect class="cls-1" x="116.34" y="110.28" width="34.44" height="32.23"/><rect class="cls-2" x="129.69" y="110.28" width="27.79" height="32.23"/><polygon class="cls-6" points="141.91 110.28 141.91 113.61 144.31 112.7 147.11 113.61 147.11 110.28 141.91 110.28"/><polygon class="cls-6" points="141.91 142.51 141.91 139.18 144.48 140.09 147.47 139.18 147.47 142.51 141.91 142.51"/><polygon class="cls-8" points="116.34 110.28 129.69 110.28 116.42 142.51 116.34 110.28"/><rect class="cls-1" x="126.48" y="89.79" width="22.13" height="20.71"/><rect class="cls-2" x="135.06" y="89.79" width="17.86" height="20.71"/><polygon class="cls-6" points="142.91 89.79 142.91 91.93 144.46 91.35 146.25 91.93 146.25 89.79 142.91 89.79"/><polygon class="cls-6" points="142.91 110.5 142.91 108.36 144.56 108.95 146.49 108.36 146.49 110.5 142.91 110.5"/><polygon class="cls-8" points="126.48 89.79 135.06 89.79 126.53 110.5 126.48 89.79"/><polygon class="cls-9" points="116.45 110.21 99.97 142.51 116.45 142.51 116.45 110.21"/></g></g></svg>