<svg id="Layer_2" data-name="Layer 2" xmlns="http://www.w3.org/2000/svg" viewBox="0 0 200 200"><defs><style>.cls-1{fill:#f9edf1;}.cls-2{fill:#fff;}.cls-3{fill:#d86c98;}.cls-4{fill:#e27da1;}.cls-5{fill:#ea9bb4;}.cls-6{fill:#f7bacb;}.cls-7{fill:#88aa39;}.cls-8{fill:#a3cd39;}.cls-9{fill:#f4ced9;}.cls-10{fill:#d33d73;}.cls-11{fill:#ccacb6;opacity:0.3;isolation:isolate;}.cls-12{fill:#f1c014;}</style></defs><g id="Layer_2-2" data-name="Layer 2"><g id="Layer_1-2" data-name="Layer 1-2"><path class="cls-1" d="M127.65,116.93a27.68,27.68,0,0,1-16.05,25.12H88.35a27.68,27.68,0,0,1-2.32-49,26.51,26.51,0,0,1,4.68-2.18,23,23,0,0,1,3-.89,26.58,26.58,0,0,1,3.19-.55c.6-.06,1.19-.11,1.8-.13H101a6.15,6.15,0,0,1,1.06.07,24.81,24.81,0,0,1,3.2.42,27,27,0,0,1,3.1.78l.53.18A27.67,27.67,0,0,1,127.65,116.93Z"/><path class="cls-2" d="M106.74,99s.24,2.63,1.2,3.36a4.73,4.73,0,0,0,4.26-1.56,4.52,4.52,0,0,1-1.58-2.87S108.16,100.07,106.74,99Z"/><path class="cls-2" d="M86.66,115.81s-2.49,2.75-2.41,4.5c0,0,1.94,3.41,5.43,3.19A6.84,6.84,0,0,1,91.22,119S86.8,118.43,86.66,115.81Z"/><path class="cls-3" d="M99.39,90.45l2-1.47a2.14,2.14,0,0,1,2.28-.16l7.09,4.07s-.25,1.8-1.86,1.9-5.74-1.93-5.74-1.93L100,95.94l-4.32-2.59Z"/><path class="cls-4" d="M98.91,89.1l1.52-2a2.15,2.15,0,0,1,2.13-.76l7.94,1.9a2.12,2.12,0,0,1-1.23,2.35c-1.52.56-6.09-.28-6.09-.28L101,94.22l-4.88-1.28Z"/><path class="cls-5" d="M96.64,86l1.69-2.18a2.32,2.32,0,0,1,2.38-.84l8.82,2.13a2.4,2.4,0,0,1-1.38,2.6c-1.69.61-6.75-.3-6.75-.3l-2.46,4.25-5.35-1.39Z"/><path class="cls-6" d="M107.74,99.35a12.32,12.32,0,0,1,1.82,11.53c-3.07,9-1.71,30.58-1.71,30.58l-4.14-.17-12.35.34s6.64-25.31,3.2-31.77l-2.79-5.33L86.45,94.45a4.83,4.83,0,0,1,.15-4.77h0l6.79-11a3.83,3.83,0,0,1,3.69-1.82l1,.11,12.21,1.32S108.94,82,105.53,82s-7.3.34-7.3.34L95.17,88l9.61,8.31A15.16,15.16,0,0,1,107.74,99.35Z"/><rect class="cls-7" x="95.85" y="59.88" width="14.48" height="19.98" rx="0.97" transform="translate(-21.12 60.9) rotate(-30)"/><rect class="cls-8" x="98.31" y="61.59" width="15.3" height="21.26" rx="1.01" transform="matrix(0.99, -0.13, 0.13, 0.99, -8.56, 14.53)"/><path class="cls-9" d="M106.69,80.46a2.53,2.53,0,0,0-2.83,1.87l-3.34,12.88c-1.86,2.47-4,2.76-6,2-10.51-7.88,3.6-20.33,3.6-20.33l-1-.12a3.88,3.88,0,0,0-3.7,1.82L86.68,89.65h0a4.86,4.86,0,0,0-.15,4.77l5.32,10.08h0l2.79,5.32c3.4,6.47-3.19,31.78-3.19,31.78l12.35-.34c-.2-6.79-.59-27.48,2.26-29.9,3.4-2.89,1.78-12,1.78-12L109,83.11A2.53,2.53,0,0,0,106.69,80.46Z"/><polygon class="cls-10" points="109.67 142.05 90.99 142.05 91.88 127.14 109.25 127.14 109.31 129.24 109.48 135.21 109.67 142.05"/><rect class="cls-2" x="92.77" y="122.89" width="16.01" height="4.26"/><rect class="cls-11" x="92.77" y="126.08" width="16.01" height="1.06"/><circle class="cls-12" cx="94.81" cy="132.29" r="1.28"/><circle class="cls-1" cx="106.28" cy="83.47" r="1.7"/><path class="cls-2" d="M105.67,130.5s1.81,4.06,3.72,4.73c0,0,4.54-.7,6-4.76a7.66,7.66,0,0,1-4.08-3.72S108.54,131.51,105.67,130.5Z"/></g></g><circle class="cls-7" cx="105.96" cy="72.22" r="4.47"/></svg>