<svg id="Layer_2" data-name="Layer 2" xmlns="http://www.w3.org/2000/svg" viewBox="0 0 200 200"><defs><style>.cls-1{fill:#ec1651;}</style></defs><path class="cls-1" d="M100,42.23A36.37,36.37,0,0,0,63.63,78.59c0,18.28,30.12,59.59,35.54,72.09a.9.9,0,0,0,1.66,0c5.42-12.5,35.54-53.81,35.54-72.09A36.37,36.37,0,0,0,100,42.23Zm13.12,57a1.07,1.07,0,0,1-1.07,1.06h-7.86a.8.8,0,0,1-.8-.8V93.05a.34.34,0,0,0-.35-.34h-4.4a1.13,1.13,0,0,0-1.13,1.14v5.61a.8.8,0,0,1-.81.8H88.31a1.06,1.06,0,0,1-1.06-1.06V83.36a.26.26,0,0,1,.11-.21l12.38-9a.8.8,0,0,1,.91,0l12.36,9a.26.26,0,0,1,.11.21Zm2.95-10.49h0a.8.8,0,0,1-.8-.8V83.19a.79.79,0,0,0-.3-.62L100.7,71.07a.81.81,0,0,0-1,0L85.05,82.57a.82.82,0,0,0-.31.63v4.71a.8.8,0,0,1-.8.8h0a.8.8,0,0,1-.81-.8V82.42a.82.82,0,0,1,.31-.63l15.26-12a2.42,2.42,0,0,1,3,0l14.86,12a.8.8,0,0,1,.3.63v5.49A.8.8,0,0,1,116.07,88.71Z"/></svg>