<svg id="Layer_2" data-name="Layer 2" xmlns="http://www.w3.org/2000/svg" viewBox="0 0 200 200"><defs><style>.cls-1{fill:#f9c5d4;}.cls-2{fill:#ec1651;}</style></defs><path class="cls-1" d="M149.91,152H50.09L50,145a3,3,0,0,1,3-3h93.88a3,3,0,0,1,3,3Z"/><rect class="cls-2" x="59.9" y="131.76" width="80.21" height="10.24"/><rect class="cls-2" x="59.9" y="71.7" width="80.21" height="10.24"/><rect class="cls-1" x="62.02" y="126.8" width="13.43" height="4.96"/><rect class="cls-1" x="93.19" y="126.8" width="13.43" height="4.96"/><rect class="cls-1" x="124.91" y="126.8" width="13.43" height="4.96"/><rect class="cls-1" x="62.02" y="81.94" width="13.43" height="4.96"/><rect class="cls-1" x="93.19" y="81.94" width="13.43" height="4.96"/><rect class="cls-1" x="124.91" y="81.94" width="13.43" height="4.96"/><rect class="cls-2" x="64.33" y="86.9" width="8.76" height="39.89"/><rect class="cls-2" x="95.45" y="86.9" width="8.76" height="39.89"/><rect class="cls-2" x="127.24" y="86.9" width="8.76" height="39.89"/><path class="cls-1" d="M148.93,71.7H51.07A2.28,2.28,0,0,1,50,67.4L98.94,41.74a2.27,2.27,0,0,1,2.12,0L150,67.4A2.28,2.28,0,0,1,148.93,71.7Z"/></svg>