<svg id="Layer_2" data-name="Layer 2" xmlns="http://www.w3.org/2000/svg" viewBox="0 0 200 200"><defs><style>.cls-1{fill:#f9c5d4;}.cls-2{fill:#ec1651;}</style></defs><path class="cls-1" d="M150.23,53.06V78.17H55c-4.54,0-8.24,4.37-8.24,9.75v20.41a6.19,6.19,0,0,1-1.93-4.66V54.18c0-3.72,2.35-6.75,5.24-6.75h95.8C148.28,47.43,150.23,50,150.23,53.06Z"/><path class="cls-1" d="M55,84.17h95.23v22.5c0,3.11-1.95,5.62-4.36,5.62H49.76V90.92C49.76,87.19,52.11,84.17,55,84.17Z"/><path class="cls-1" d="M150.23,84.17v25.3l-100.47,5.6V90.92c0-3.73,2.35-6.75,5.24-6.75Z"/><path class="cls-2" d="M150.8,84.17H55c-2.89,0-5.23,3-5.23,6.75V140.4c0,3.11,1.95,5.63,4.36,5.63H150.8c2.41,0,4.37-2.52,4.37-5.63V89.79C155.17,86.69,153.21,84.17,150.8,84.17Z"/><path class="cls-2" d="M155.16,89.8v50.6c0,3.11-1.95,5.63-4.37,5.63H54.13c-2.41,0-4.37-2.52-4.37-5.63V90.92c0-3.73,2.35-6.75,5.24-6.75h95.79C153.21,84.17,155.16,86.69,155.16,89.8Z"/><rect class="cls-1" x="60.16" y="124.49" width="22.04" height="3" rx="1"/><rect class="cls-1" x="93.56" y="124.49" width="49.9" height="3" rx="1"/><rect class="cls-1" x="60.16" y="94.79" width="19.04" height="13.36" rx="2.59"/><rect class="cls-2" x="44.84" y="58.97" width="105.4" height="10"/></svg>