<svg id="Layer_2" data-name="Layer 2" xmlns="http://www.w3.org/2000/svg" viewBox="0 0 200 200"><defs><style>.cls-1{fill:#f9c5d4;}.cls-2{fill:#ec1651;}</style></defs><path class="cls-1" d="M90.91,44.14a2.85,2.85,0,0,0-2-.83H49.4A5.85,5.85,0,0,0,45.24,45h0l0,0s0,0,0,0v0a5.91,5.91,0,0,0-1,4.38l6.47,39.7A2.83,2.83,0,0,0,51.77,91l70.8,50.65.48.33,16.63-16.63,2-2.74,11.77-16.34ZM72.49,69.58a9.24,9.24,0,0,1-1.11.73,9.52,9.52,0,0,1-1.15.58l-.44.18c-.07.15-.13.29-.21.43a11.19,11.19,0,0,1-.64,1.12c-.24.36-.49.7-.76,1h0A11,11,0,0,1,54.68,56.83a12.24,12.24,0,0,1,1.17-.52,9.85,9.85,0,0,1,.61-1.16,11,11,0,1,1,16,14.43ZM90.91,44.14a2.85,2.85,0,0,0-2-.83H49.4A5.85,5.85,0,0,0,45.24,45h0l0,0s0,0,0,0v0a5.91,5.91,0,0,0-1,4.38l6.47,39.7A2.83,2.83,0,0,0,51.77,91l70.8,50.65,2.87-2.06,14.24-14.24,2-2.74,11.77-16.34ZM72.49,69.58a9.24,9.24,0,0,1-1.11.73,9.52,9.52,0,0,1-1.15.58l-.44.18c-.07.15-.13.29-.21.43a11.19,11.19,0,0,1-.64,1.12c-.24.36-.49.7-.76,1h0A11,11,0,0,1,54.68,56.83a12.24,12.24,0,0,1,1.17-.52,9.85,9.85,0,0,1,.61-1.16,11,11,0,1,1,16,14.43Zm90.13,19L90.17,36.8a2.9,2.9,0,0,0-2.12-.5l-36.84,6H88.9a3.86,3.86,0,0,1,2.71,1.12l62.4,62,9.26-12.86A2.85,2.85,0,0,0,162.62,88.63Z"/><path class="cls-1" d="M43.58,92.19a3.87,3.87,0,0,1-1.12-2.73V51L36.25,88.58a2.79,2.79,0,0,0,.49,2.13l51.8,71.84a2.85,2.85,0,0,0,4,.66l13.08-9.38Zm98.07,30.44-51.21-71a2.85,2.85,0,0,0-1.84-1.15L49.62,44a5.85,5.85,0,0,0-4.38,1h0l0,0s0,0,0,0v0a5.91,5.91,0,0,0-1.71,4.16V89.46a2.84,2.84,0,0,0,.83,2l62.13,61.76,16.15-11.57,2.87-2.06,14.24-14.24,2.29-2.29ZM48.92,64.79a11,11,0,0,1,5.76-8,12.24,12.24,0,0,1,1.17-.52,9.05,9.05,0,0,1,1.25-.39A11,11,0,0,1,69.79,71.07c-.07.15-.13.29-.21.43a11.19,11.19,0,0,1-.64,1.12c-.24.36-.49.7-.76,1h0a11,11,0,0,1-19.25-8.87Z"/><path class="cls-2" d="M154.08,107l-.66-.66L90.91,44.14a2.85,2.85,0,0,0-2-.83H49.4A5.85,5.85,0,0,0,45.24,45h0l0,0s0,0,0,0v0a5.91,5.91,0,0,0-1.71,4.16V89.46a2.84,2.84,0,0,0,.83,2l62.13,61.76.69.68a2.84,2.84,0,0,0,4,0l28.55-28.55,2.29-2.29L154.08,111A2.84,2.84,0,0,0,154.08,107Zm-91-32a11,11,0,1,1,5.1-1.26h0A10.92,10.92,0,0,1,63.08,74.91Z"/></svg>