<svg id="Layer_2" data-name="Layer 2" xmlns="http://www.w3.org/2000/svg" viewBox="0 0 200 200"><defs><style>.cls-1{fill:#f9c5d4;}.cls-2{fill:#ec1651;}</style></defs><circle class="cls-1" cx="100.05" cy="78.25" r="14.58"/><path class="cls-2" d="M95.41,96.63h9.37a32.9,32.9,0,0,1,32.89,32.89v.26H62.52A32.89,32.89,0,0,1,95.41,96.63Z"/><rect class="cls-2" x="92.5" y="143.32" width="15" height="24.12"/><rect class="cls-2" x="92.5" y="26.02" width="15" height="24.31"/><rect class="cls-2" x="29.29" y="89.23" width="24.31" height="15"/><rect class="cls-2" x="146.59" y="89.23" width="24.12" height="15"/><rect class="cls-2" x="133.98" y="126.16" width="15" height="24.1" transform="translate(-56.29 140.52) rotate(-45)"/><rect class="cls-2" x="51.12" y="43.16" width="15" height="24.38" transform="translate(-21.97 57.66) rotate(-45)"/><rect class="cls-2" x="46.45" y="130.66" width="24.24" height="15" transform="translate(-80.54 81.89) rotate(-45.01)"/><rect class="cls-2" x="129.31" y="47.8" width="24.24" height="15" transform="translate(2.32 116.2) rotate(-45)"/><path class="cls-2" d="M143.48,53.25A61.26,61.26,0,0,0,100.1,35.33H100a61.49,61.49,0,0,0-61.4,61.4v.1A61.51,61.51,0,0,0,100,158.32h.1a61.49,61.49,0,0,0,61.49-61.49v-.1A61.31,61.31,0,0,0,143.48,53.25Zm3.11,43.58a46.54,46.54,0,0,1-46.49,46.49H100A46.55,46.55,0,0,1,53.6,96.83v-.1A46.57,46.57,0,0,1,100,50.33h.1a46.55,46.55,0,0,1,46.49,46.4Z"/></svg>