<svg id="Layer_1" data-name="Layer 1" xmlns="http://www.w3.org/2000/svg" viewBox="0 0 500 500"><defs><style>.cls-1{opacity:0.05;}.cls-2{fill:#a5cd38;}.cls-3{fill:#88a02d;}.cls-4{fill:#016e52;}.cls-5{fill:#d4e707;}.cls-6{opacity:0.15;}.cls-7{fill:#ec1651;}.cls-8{fill:#fff;}.cls-9{fill:#ffca05;}.cls-10{fill:#6ea9ff;}</style></defs><title>Batch of 4</title><path class="cls-1" d="M391.89,254.64a7.83,7.83,0,0,1-.23,1.57l-3.35,13.48L350.23,388.08l-1.06,3.28a8,8,0,0,1-4.13,4.76l-6.58-1.64-25.24-6.27L109,337.44a8,8,0,0,1-5.84-9.71l1.63-6.56,30.7-123.43,1.22-4.92a7.66,7.66,0,0,1,1.22-2.67,8,8,0,0,1,8.49-3.17l19.83,4.94L355.72,239l30.1,7.48A8,8,0,0,1,391.89,254.64Z"/><path class="cls-2" d="M391.74,259l-3.43,10.67L350.23,388.08l-1.06,3.28a8,8,0,0,1-4.13,4.76l-.43.2h0a8.06,8.06,0,0,1-5.51.21l-9.75-3.14-16.12-5.18-208.42-67-.54-.17a8,8,0,0,1-5.17-10.08L135.5,197.74l2.44-7.59,3.72-11.57a8,8,0,0,1,10.08-5.17l19.46,6.26L355.72,239l30.85,9.92A8,8,0,0,1,391.74,259Z"/><circle class="cls-3" cx="245.51" cy="300.95" r="29.78"/><path class="cls-4" d="M252.49,313.86l-7.05-2.05c-1.15-.34-1.16-.35-.32-1.16l12-11.73c1.8-1.77,3.63-3.51,5.39-5.3,1.27-1.29,1.08-2.06-.57-2.76a25.09,25.09,0,0,1-13.17-12.5,23.09,23.09,0,0,1-.9-18.95c2.68-7.1,7.83-11.79,14.94-14.31a25.57,25.57,0,0,1,18.23.37,36.76,36.76,0,0,1,4.34,2.08c.38.2.43.37.18.76-1.72,2.69-3.44,5.38-5.09,8.11-.41.66-.74.72-1.34.33A13.61,13.61,0,1,0,266,280.47a14.68,14.68,0,0,0,12.28.22A12.7,12.7,0,0,0,286,270.17c.15-1.11.14-1.12,1.23-1.11,3.26,0,6.52.15,9.77.32.6,0,.79.25.76.82a24.19,24.19,0,0,1-1.62,7.28c-1.31,3.5-3.71,6.25-6.21,8.92-5.62,6-11.58,11.71-17.35,17.59q-5.81,5.89-11.59,11.82a1,1,0,0,1-1.13.28c-2.46-.74-4.93-1.45-7.39-2.17Z"/><path class="cls-5" d="M279.56,270.9a7.55,7.55,0,0,1-7,5.24,8.14,8.14,0,0,1-8.09-5.31,7.32,7.32,0,0,1,6-9.68,7.91,7.91,0,0,1,9.27,8.69C279.73,270.2,279.64,270.55,279.56,270.9Z"/><path class="cls-5" d="M288.15,249.39a5,5,0,0,1,.65.44,25.83,25.83,0,0,1,8.81,15.44,3.88,3.88,0,0,1,0,1.36c0,.33,0,.72-.49.73s-.88,0-1.06-.54a2.14,2.14,0,0,1-.11-.56,22.48,22.48,0,0,0-7.53-14.42,15.47,15.47,0,0,1-1.22-1.21.69.69,0,0,1-.17-.91A1,1,0,0,1,288.15,249.39Z"/><path class="cls-5" d="M285.1,253.52a5.14,5.14,0,0,1,.59.42,20.14,20.14,0,0,1,6.56,11.31,5.26,5.26,0,0,1,.12,1.43c0,.33,0,.7-.46.77a.87.87,0,0,1-1.07-.51,2.83,2.83,0,0,1-.19-.76A17.07,17.07,0,0,0,285.37,256a16.88,16.88,0,0,1-1.24-1.3.6.6,0,0,1-.06-.85A.88.88,0,0,1,285.1,253.52Z"/><path class="cls-5" d="M287.49,266.79a.8.8,0,0,1-.7.73.59.59,0,0,1-.73-.32,5,5,0,0,1-.41-1.3,12.55,12.55,0,0,0-3.93-6.81,2.94,2.94,0,0,1-.3-.31.78.78,0,0,1,0-1.15.69.69,0,0,1,1.07-.07,12.09,12.09,0,0,1,3.26,3.89,14.75,14.75,0,0,1,1.66,4.51A5.21,5.21,0,0,1,287.49,266.79Z"/><path class="cls-6" d="M420.44,277,419.22,279l-69,109.11-4.09,6.46a8,8,0,0,1-1.53,1.78h0a8.06,8.06,0,0,1-5.51.21l-9.75-3.14-36.11-22.83L126.6,265.18a8,8,0,0,1-2.49-11.05l47.09-74.46,27.21-43a8,8,0,0,1,11.06-2.49l30.46,19.26,154.76,97.87L418,266A8,8,0,0,1,420.44,277Z"/><path class="cls-7" d="M420.44,266,419.22,268,346.14,383.54A8,8,0,0,1,335.09,386l-41.86-26.47L126.6,254.18a8,8,0,0,1-2.49-11.05l74.3-117.49a8,8,0,0,1,11.06-2.49l30.46,19.26,154.76,97.87L418,255A8,8,0,0,1,420.44,266Z"/><path class="cls-8" d="M302.36,238.08c5.34,3.59,9.14,7.4,11.86,12.24A23.9,23.9,0,0,1,317.45,264a26.16,26.16,0,0,1-2.28,8.72,36.37,36.37,0,0,1-10.9,13.57,57.19,57.19,0,0,1-10.12,6.25,67.41,67.41,0,0,1-20.22,6.37,127.81,127.81,0,0,1-28.45,1.22,41.32,41.32,0,0,1-11-2.09,26.58,26.58,0,0,1-5.3-2.53,9,9,0,0,1-4.36-7.45,10.64,10.64,0,0,1,4.05-9.37,38.89,38.89,0,0,1,9.22-5.82,20.59,20.59,0,0,1,8.79-1.9,12.24,12.24,0,0,1,9,3.89,6.94,6.94,0,0,1,1.5,2.59,4,4,0,0,1-2.27,5.25,33.92,33.92,0,0,1-4.72,1.57c-1.94.51-3.93.86-5.9,1.25a44.25,44.25,0,0,0-8,2.07,35.77,35.77,0,0,0-3.52,1.72,3.83,3.83,0,0,0-1.46,1.5,2.08,2.08,0,0,0,.09,2.4,5.08,5.08,0,0,0,2.59,1.75,29.85,29.85,0,0,0,6.47,1.38,66.54,66.54,0,0,0,12.14.29,118.82,118.82,0,0,0,16-1.79,57.74,57.74,0,0,0,15.38-5,35.17,35.17,0,0,0,9.83-7.17,16.76,16.76,0,0,0,4.73-9.5,10.1,10.1,0,0,0-.21-3.67,8.16,8.16,0,0,0-3.31-4.71,19,19,0,0,0-6.31-3,42.68,42.68,0,0,0-9.54-1.33c-5.51-.23-11-.39-16.52-.52-4.56-.11-9.1.24-13.65.54a62.47,62.47,0,0,1-9,.11,23,23,0,0,1-7.74-1.85,10.68,10.68,0,0,1-5.15-4.8,12.08,12.08,0,0,1-.88-10.13,11.47,11.47,0,0,1,3-4.28,24.86,24.86,0,0,1,7.35-4.81,61.08,61.08,0,0,1,20.58-5,100.17,100.17,0,0,1,30.86,2.53,47.39,47.39,0,0,1,10.2,3.66C300,236.69,301.55,237.63,302.36,238.08Z"/><path class="cls-6" d="M419.22,268,346.14,383.54A8,8,0,0,1,335.09,386l-41.86-26.47L167.33,217.44a8,8,0,0,1,.68-11.31l71.92-63.72L272.06,114a8,8,0,0,1,11.31.68L394.69,240.28Z"/><rect class="cls-9" x="180.5" y="173.27" width="262.7" height="155.04" rx="8.01" transform="translate(292.77 -148.94) rotate(48.46)"/><ellipse class="cls-10" cx="309.41" cy="252.95" rx="24.64" ry="59.95" transform="translate(-89.92 268.79) rotate(-41.54)"/></svg>