<svg id="Layer_1" data-name="Layer 1" xmlns="http://www.w3.org/2000/svg" viewBox="0 0 500 500"><defs><style>.cls-1{opacity:0.15;}.cls-2{fill:#ffca05;}.cls-3{fill:#f4bb06;}.cls-4{fill:#f2f2f2;}.cls-5{fill:#ccc;}.cls-6{fill:#ec1651;}</style></defs><title>Batch of 4</title><g class="cls-1"><path d="M257.16,3.11c-85.24-.3-154.6,71.51-154.93,160.39-.2,61.47,39.45,90.91,67.61,140.3,14.39,25.21,13.22,119.29,13.22,119.29-.05,18.82,14.51,34.12,32.58,34.18l40,.16L257.17,3.11Z"/><path d="M411,164.55c.3-88.86-68.55-161.14-153.81-161.44l-1.56,454.32,39.94.12c18,.07,32.73-15.13,32.78-33.93,0,0-.5-95.05,14.07-120.17C370.9,254.25,410.75,226,411,164.55Z"/><path d="M228.15,389.91a39.1,39.1,0,0,1,55.37.19L305,411.72a39.2,39.2,0,0,1-.21,55.42l-21.62,21.47a39.1,39.1,0,0,1-55.36-.19L206.33,466.8a39.22,39.22,0,0,1,.2-55.42Z"/><path d="M344.73,441.39c0,9.24-11.43,16.7-25.52,16.64L192,457.6c-14-.06-25.42-7.58-25.38-16.85h0c0-9.25,11.45-16.69,25.49-16.64l127.29.43c14,.06,25.42,7.58,25.38,16.85Z"/><path d="M344.83,410c0,9.25-11.44,16.72-25.51,16.67l-127.26-.44c-14.05-.05-25.43-7.6-25.37-16.85h0c0-9.25,11.44-16.7,25.48-16.64l127.28.43c14.05.05,25.43,7.6,25.38,16.83Z"/><path d="M344.93,378.68c0,9.25-11.44,16.71-25.48,16.64l-127.28-.45c-14.06,0-25.42-7.55-25.39-16.81h0c0-9.25,11.45-16.7,25.52-16.65l127.26.44c14,.06,25.42,7.59,25.37,16.83Z"/><path d="M345.07,347.33c0,9.25-11.47,16.71-25.52,16.66l-127.27-.44c-14.05,0-25.43-7.59-25.39-16.84h0c0-9.24,11.45-16.69,25.51-16.66l127.28.45c14.05.05,25.41,7.59,25.39,16.83Z"/></g><path class="cls-2" d="M240.11,3.11C154.87,2.81,85.51,74.62,85.18,163.5,85,225,124.62,254.41,152.79,303.8,167.18,329,166,423.09,166,423.09c0,18.82,14.52,34.12,32.58,34.18l40,.16L240.12,3.11Z"/><path class="cls-3" d="M393.92,164.55c.31-88.86-68.54-161.14-153.8-161.44l-1.57,454.32,39.95.12c18,.07,32.73-15.13,32.78-33.93,0,0-.5-95.05,14.06-120.17C353.85,254.25,393.69,226,393.92,164.55Z"/><path class="cls-4" d="M211.09,389.91a39.11,39.11,0,0,1,55.38.19l21.46,21.62a39.21,39.21,0,0,1-.2,55.42l-21.62,21.47a39.1,39.1,0,0,1-55.36-.19L189.27,466.8a39.22,39.22,0,0,1,.2-55.42Z"/><path class="cls-5" d="M327.67,441.39c0,9.24-11.43,16.7-25.51,16.64l-127.27-.43c-14-.06-25.41-7.58-25.37-16.85h0c0-9.25,11.45-16.69,25.49-16.64l127.28.43c14.06.06,25.43,7.58,25.38,16.85Z"/><path class="cls-4" d="M327.78,410c0,9.25-11.45,16.72-25.52,16.67L175,426.26c-14.06-.05-25.43-7.6-25.38-16.85h0c0-9.25,11.44-16.7,25.49-16.64l127.27.43c14.06.05,25.44,7.6,25.39,16.83Z"/><path class="cls-5" d="M327.88,378.68c0,9.25-11.45,16.71-25.49,16.64l-127.27-.45c-14.06,0-25.43-7.55-25.39-16.81h0c0-9.25,11.44-16.7,25.51-16.65l127.27.44c14,.06,25.42,7.59,25.37,16.83Z"/><path class="cls-4" d="M328,347.33c0,9.25-11.47,16.71-25.53,16.66l-127.26-.44c-14.06,0-25.44-7.59-25.4-16.84h0c0-9.24,11.46-16.69,25.52-16.66l127.27.45c14.06.05,25.42,7.59,25.4,16.83Z"/><path class="cls-6" d="M293.76,153.6l-41.83,9.15,20.45-71.63c1.78-6.22-6.54-10.21-10.27-4.91l-81.6,115.92a5.79,5.79,0,0,0,6.11,8.94l37.27-9.18-20.38,71.7c-1.76,6.17,6.42,10.11,10.19,5l85.94-115.92a5.79,5.79,0,0,0-5.88-9.09Z"/></svg>