<?xml version="1.0" encoding="UTF-8"?>
<svg width="280px" height="296px" viewBox="0 0 280 296" version="1.1" xmlns="http://www.w3.org/2000/svg" xmlns:xlink="http://www.w3.org/1999/xlink">
    <title>request-payment</title>
    <g id="Page-1" stroke="none" stroke-width="1" fill="none" fill-rule="evenodd">
        <g id="request-payment">
            <path d="M72.28,67.08 L57.76,81.61 C56.3130895,83.0477257 53.9769105,83.0477257 52.53,81.61 L38,67.08" id="Path" stroke="#EC1751" stroke-width="4"></path>
            <rect id="Rectangle" fill="#FFFFFF" fill-rule="nonzero" x="145.7" y="66.03" width="3.2" height="18.84" rx="1.6"></rect>
            <rect id="Rectangle" fill="#FFFFFF" fill-rule="nonzero" x="0.07" y="83.43" width="3.2" height="12.09" rx="1.6"></rect>
            <rect id="Rectangle" fill="#FFFFFF" fill-rule="nonzero" x="0.07" y="64.1" width="3.2" height="12.09" rx="1.6"></rect>
            <path d="M13.48,0.42 L135.48,0.42 C142.002483,0.42 147.29,5.7075171 147.29,12.23 L147.29,283.76 C147.29,290.282483 142.002483,295.57 135.48,295.57 L11.22,295.57 C5.94568064,295.57 1.67,291.294319 1.67,286.02 L1.67,12.24 C1.67,5.7175171 6.9575171,0.43 13.48,0.43 L13.48,0.42 Z" id="Path" fill="#7DACFF" fill-rule="nonzero"></path>
            <rect id="Rectangle" fill="#FFFFFF" fill-rule="nonzero" x="8.21" y="17.59" width="132.54" height="249.7"></rect>
            <rect id="Rectangle" fill="#3E525B" fill-rule="nonzero" opacity="0.15" x="137.52" y="17.59" width="3.23" height="249.7"></rect>
            <ellipse id="Oval" fill="#FFFFFF" fill-rule="nonzero" cx="74.19" cy="283.15" rx="7.03" ry="7.02"></ellipse>
            <ellipse id="Oval" stroke="#C7EBFF" stroke-width="0.95" cx="74.21" cy="283.18" rx="7.31" ry="7.29"></ellipse>
            <rect id="Rectangle" fill="#817D7D" fill-rule="nonzero" x="67.39" y="8.88" width="21.68" height="2.71" rx="1.13"></rect>
            <circle id="Oval" fill="#817D7D" fill-rule="nonzero" cx="63.03" cy="10.24" r="2.3"></circle>
            <g id="Group" opacity="0.15" transform="translate(25.000000, 102.000000)" fill="#000000" fill-rule="nonzero">
                <path d="M0.05,47 C0.05,72.6425809 20.8374191,93.43 46.48,93.43 C72.1225809,93.43 92.91,72.6425809 92.91,47" id="Path"></path>
                <path d="M92.91,47 C92.91,21.3574191 72.1225809,0.57 46.48,0.57 C20.8374191,0.57 0.05,21.3574191 0.05,47" id="Path"></path>
                <path d="M92.91,47 C92.8222131,72.6061302 72.0861302,93.3422131 46.48,93.43 L46.48,0.57 C72.0861302,0.657786949 92.8222131,21.3938698 92.91,47" id="Path"></path>
                <path d="M46.48,11.63 C26.9456884,11.63 11.11,27.4656884 11.11,47 C11.11,66.5343116 26.9456884,82.37 46.48,82.37 C66.0143116,82.37 81.85,66.5343116 81.85,47 C81.8114859,27.4816637 65.9983363,11.6685141 46.48,11.63 L46.48,11.63 Z" id="Path"></path>
                <path d="M81.85,47 C81.8114859,66.5183363 65.9983363,82.3314859 46.48,82.37 L46.48,11.63 C65.9983363,11.6685141 81.8114859,27.4816637 81.85,47 Z" id="Path"></path>
                <path d="M65.53,44.28 L65.53,38.84 L60.08,38.84 L60.08,25.24 L54.64,25.24 L54.64,38.84 L45.07,38.84 L37.56,25.24 L32.88,25.24 L32.88,38.84 L27.44,38.84 L27.44,44.28 L32.88,44.28 L32.88,49.72 L27.44,49.72 L27.44,55.16 L32.88,55.16 L32.88,68.76 L38.32,68.76 L38.32,55.16 L47.9,55.16 L55.41,68.76 L60.08,68.76 L60.08,55.16 L65.53,55.16 L65.53,49.72 L60.08,49.72 L60.08,44.28 L65.53,44.28 Z M38.32,49.72 L38.32,44.28 L41.86,44.28 L44.86,49.72 L38.32,49.72 Z M54.64,56.14 L54.1,55.14 L54.64,55.14 L54.64,56.14 Z M54.64,49.72 L51.11,49.72 L48.06,44.28 L54.64,44.28 L54.64,49.72 Z" id="Shape"></path>
                <path d="M65.53,44.28 L65.53,38.84 L60.08,38.84 L60.08,25.24 L54.64,25.24 L54.64,38.84 L46.48,38.84 L46.48,55.16 L47.9,55.16 L55.41,68.76 L60.08,68.76 L60.08,55.16 L65.53,55.16 L65.53,49.72 L60.08,49.72 L60.08,44.28 L65.53,44.28 Z M54.64,49.72 L51.11,49.72 L48.06,44.28 L54.64,44.28 L54.64,49.72 Z" id="Shape"></path>
            </g>
            <path d="M28.05,148 C28.05,173.642581 48.8374191,194.43 74.48,194.43 C100.122581,194.43 120.91,173.642581 120.91,148" id="Path" fill="#FDBF00" fill-rule="nonzero"></path>
            <path d="M120.91,148 C120.91,122.357419 100.122581,101.57 74.48,101.57 C48.8374191,101.57 28.05,122.357419 28.05,148" id="Path" fill="#FDBF00" fill-rule="nonzero"></path>
            <path d="M120.91,148 C120.822213,173.60613 100.08613,194.342213 74.48,194.43 L74.48,101.57 C100.08613,101.657787 120.822213,122.39387 120.91,148" id="Path" fill="#FDBF00" fill-rule="nonzero"></path>
            <path d="M74.48,112.63 C54.9456884,112.63 39.11,128.465688 39.11,148 C39.11,167.534312 54.9456884,183.37 74.48,183.37 C94.0143116,183.37 109.85,167.534312 109.85,148 C109.811486,128.481664 93.9983363,112.668514 74.48,112.63 L74.48,112.63 Z" id="Path" fill="#FFDA2D" fill-rule="nonzero"></path>
            <path d="M109.85,148 C109.811486,167.518336 93.9983363,183.331486 74.48,183.37 L74.48,112.63 C93.9983363,112.668514 109.811486,128.481664 109.85,148 L109.85,148 Z" id="Path" fill="#FFDA2D" fill-rule="nonzero"></path>
            <path d="M93.53,145.28 L93.53,139.84 L88.08,139.84 L88.08,126.24 L82.64,126.24 L82.64,139.84 L73.07,139.84 L65.56,126.24 L60.88,126.24 L60.88,139.84 L55.44,139.84 L55.44,145.28 L60.88,145.28 L60.88,150.72 L55.44,150.72 L55.44,156.16 L60.88,156.16 L60.88,169.76 L66.32,169.76 L66.32,156.16 L75.9,156.16 L83.41,169.76 L88.08,169.76 L88.08,156.16 L93.53,156.16 L93.53,150.72 L88.08,150.72 L88.08,145.28 L93.53,145.28 Z M66.32,150.72 L66.32,145.28 L69.86,145.28 L72.86,150.72 L66.32,150.72 Z M82.64,157.14 L82.1,156.14 L82.64,156.14 L82.64,157.14 Z M82.64,150.72 L79.11,150.72 L76.06,145.28 L82.64,145.28 L82.64,150.72 Z" id="Shape" fill="#FF9100" fill-rule="nonzero"></path>
            <path d="M93.53,145.28 L93.53,139.84 L88.08,139.84 L88.08,126.24 L82.64,126.24 L82.64,139.84 L74.48,139.84 L74.48,156.16 L75.9,156.16 L83.41,169.76 L88.08,169.76 L88.08,156.16 L93.53,156.16 L93.53,150.72 L88.08,150.72 L88.08,145.28 L93.53,145.28 Z M82.64,150.72 L79.11,150.72 L76.06,145.28 L82.64,145.28 L82.64,150.72 Z" id="Shape" fill="#FF9100" fill-rule="nonzero"></path>
            <g id="Group" opacity="0.15" transform="translate(157.000000, 119.000000)">
                <line x1="43.62" y1="30.28" x2="122.14" y2="30.28" id="Path" stroke="#000000" stroke-width="28.75"></line>
                <polygon id="Path" fill="#000000" fill-rule="nonzero" points="52.43 60.38 0.29 30.28 52.43 0.17"></polygon>
            </g>
            <line x1="200.62" y1="145.28" x2="279.14" y2="145.28" id="Path" stroke="#A5CD38" stroke-width="28.75"></line>
            <polygon id="Path" fill="#A5CD38" fill-rule="nonzero" points="209.43 175.38 157.29 145.28 209.43 115.17"></polygon>
        </g>
    </g>
</svg>