<?xml version="1.0" encoding="UTF-8"?>
<svg width="288px" height="296px" viewBox="0 0 288 296" version="1.1" xmlns="http://www.w3.org/2000/svg" xmlns:xlink="http://www.w3.org/1999/xlink">
    <title>send-payment</title>
    <g id="Page-1" stroke="none" stroke-width="1" fill="none" fill-rule="evenodd">
        <g id="send-payment">
            <rect id="Rectangle" fill="#FFFFFF" fill-rule="nonzero" x="145.92" y="66.27" width="3.2" height="18.84" rx="1.6"></rect>
            <rect id="Rectangle" fill="#FFFFFF" fill-rule="nonzero" x="0.28" y="83.67" width="3.2" height="12.09" rx="1.6"></rect>
            <rect id="Rectangle" fill="#FFFFFF" fill-rule="nonzero" x="0.28" y="64.34" width="3.2" height="12.09" rx="1.6"></rect>
            <path d="M13.69,0.66 L135.69,0.66 C142.212483,0.66 147.5,5.9475171 147.5,12.47 L147.5,284 C147.5,290.522483 142.212483,295.81 135.69,295.81 L11.43,295.81 C6.15568064,295.81 1.88,291.534319 1.88,286.26 L1.88,12.48 C1.88,5.9575171 7.1675171,0.67 13.69,0.67 L13.69,0.66 Z" id="Path" fill="#7DACFF" fill-rule="nonzero"></path>
            <rect id="Rectangle" fill="#FFFFFF" fill-rule="nonzero" x="8.43" y="17.83" width="132.54" height="249.7"></rect>
            <rect id="Rectangle" fill="#3E525B" fill-rule="nonzero" opacity="0.15" x="137.74" y="17.83" width="3.23" height="249.7"></rect>
            <ellipse id="Oval" fill="#FFFFFF" fill-rule="nonzero" cx="74.41" cy="283.39" rx="7.03" ry="7.02"></ellipse>
            <ellipse id="Oval" stroke="#C7EBFF" stroke-width="0.95" cx="74.43" cy="283.42" rx="7.31" ry="7.29"></ellipse>
            <rect id="Rectangle" fill="#817D7D" fill-rule="nonzero" x="67.61" y="9.12" width="21.68" height="2.71" rx="1.13"></rect>
            <circle id="Oval" fill="#817D7D" fill-rule="nonzero" cx="63.25" cy="10.48" r="2.3"></circle>
            <g id="Group" opacity="0.15" transform="translate(25.000000, 102.000000)" fill="#000000" fill-rule="nonzero">
                <path d="M0.27,47.24 C0.27,72.8825806 21.0574194,93.669999 46.7,93.669999 C72.3425806,93.669999 93.13,72.8825806 93.13,47.24" id="Path"></path>
                <path d="M93.13,47.24 C93.13,21.5974191 72.3425809,0.81 46.7,0.81 C21.0574191,0.81 0.27,21.5974191 0.27,47.24" id="Path"></path>
                <path d="M93.13,47.24 C93.0422131,72.8461302 72.3061302,93.5822131 46.7,93.67 L46.7,0.81 C72.3061302,0.897786949 93.0422131,21.6338698 93.13,47.24" id="Path"></path>
                <path d="M46.7,11.87 C27.1656884,11.87 11.33,27.7056884 11.33,47.24 C11.33,66.7743116 27.1656884,82.61 46.7,82.61 C66.2343116,82.61 82.07,66.7743116 82.07,47.24 C82.0314859,27.7216637 66.2183363,11.9085141 46.7,11.87 L46.7,11.87 Z" id="Path"></path>
                <path d="M82.07,47.24 C82.0314859,66.7583363 66.2183363,82.5714859 46.7,82.61 L46.7,11.87 C66.2183363,11.9085141 82.0314859,27.7216637 82.07,47.24 L82.07,47.24 Z" id="Path"></path>
                <path d="M65.74,44.52 L65.74,39.08 L60.3,39.08 L60.3,25.48 L54.86,25.48 L54.86,39.08 L45.28,39.08 L37.77,25.48 L33.1,25.48 L33.1,39.08 L27.65,39.08 L27.65,44.52 L33.1,44.52 L33.1,50 L27.65,50 L27.65,55.44 L33.1,55.44 L33.1,69 L38.54,69 L38.54,55.4 L48.11,55.4 L55.62,69 L60.3,69 L60.3,55.4 L65.74,55.4 L65.74,50 L60.3,50 L60.3,44.56 L65.74,44.52 Z M38.54,50 L38.54,44.56 L42.07,44.56 L45.12,50 L38.54,50 Z M54.86,56.42 L54.32,55.42 L54.86,55.42 L54.86,56.42 Z M54.86,50 L51.32,50 L48.32,44.56 L54.9,44.56 L54.86,50 Z" id="Shape"></path>
                <path d="M65.74,44.52 L65.74,39.08 L60.3,39.08 L60.3,25.48 L54.86,25.48 L54.86,39.08 L46.7,39.08 L46.7,55.4 L48.11,55.4 L55.62,69 L60.3,69 L60.3,55.4 L65.74,55.4 L65.74,50 L60.3,50 L60.3,44.56 L65.74,44.52 Z M54.86,50 L51.32,50 L48.32,44.56 L54.9,44.56 L54.86,50 Z" id="Shape"></path>
            </g>
            <path d="M28.27,148.24 C28.27,173.882581 49.0574191,194.67 74.7,194.67 C100.342581,194.67 121.13,173.882581 121.13,148.24" id="Path" fill="#FDBF00" fill-rule="nonzero"></path>
            <path d="M121.13,148.24 C121.13,122.597419 100.342581,101.81 74.7,101.81 C49.0574191,101.81 28.27,122.597419 28.27,148.24" id="Path" fill="#FDBF00" fill-rule="nonzero"></path>
            <path d="M121.13,148.24 C121.042213,173.84613 100.30613,194.582213 74.7,194.67 L74.7,101.81 C100.30613,101.897787 121.042213,122.63387 121.13,148.24" id="Path" fill="#FDBF00" fill-rule="nonzero"></path>
            <path d="M74.7,112.87 C55.1656884,112.87 39.33,128.705688 39.33,148.24 C39.33,167.774312 55.1656884,183.61 74.7,183.61 C94.2343116,183.61 110.07,167.774312 110.07,148.24 C110.031486,128.721664 94.2183363,112.908514 74.7,112.87 Z" id="Path" fill="#FFDA2D" fill-rule="nonzero"></path>
            <path d="M110.07,148.24 C110.031486,167.758336 94.2183363,183.571486 74.7,183.61 L74.7,112.87 C94.2183363,112.908514 110.031486,128.721664 110.07,148.24 Z" id="Path" fill="#FFDA2D" fill-rule="nonzero"></path>
            <path d="M93.74,145.52 L93.74,140.08 L88.3,140.08 L88.3,126.48 L82.86,126.48 L82.86,140.08 L73.28,140.08 L65.77,126.48 L61.1,126.48 L61.1,140.08 L55.65,140.08 L55.65,145.52 L61.1,145.52 L61.1,151 L55.65,151 L55.65,156.44 L61.1,156.44 L61.1,170 L66.54,170 L66.54,156.4 L76.11,156.4 L83.62,170 L88.3,170 L88.3,156.4 L93.74,156.4 L93.74,151 L88.3,151 L88.3,145.56 L93.74,145.52 Z M66.54,151 L66.54,145.56 L70.07,145.56 L73.12,151 L66.54,151 Z M82.86,157.42 L82.32,156.42 L82.86,156.42 L82.86,157.42 Z M82.86,151 L79.32,151 L76.32,145.56 L82.9,145.56 L82.86,151 Z" id="Shape" fill="#FF9100" fill-rule="nonzero"></path>
            <path d="M93.74,145.52 L93.74,140.08 L88.3,140.08 L88.3,126.48 L82.86,126.48 L82.86,140.08 L74.7,140.08 L74.7,156.4 L76.11,156.4 L83.62,170 L88.3,170 L88.3,156.4 L93.74,156.4 L93.74,151 L88.3,151 L88.3,145.56 L93.74,145.52 Z M82.86,151 L79.32,151 L76.32,145.56 L82.9,145.56 L82.86,151 Z" id="Shape" fill="#FF9100" fill-rule="nonzero"></path>
            <g id="Group" opacity="0.15" transform="translate(165.000000, 119.000000)">
                <line x1="78.96" y1="30.28" x2="0.43" y2="30.28" id="Path" stroke="#000000" stroke-width="28.75"></line>
                <polygon id="Path" fill="#000000" fill-rule="nonzero" points="70.15 0.17 122.28 30.28 70.15 60.38"></polygon>
            </g>
            <line x1="243.96" y1="146.28" x2="165.43" y2="146.28" id="Path" stroke="#EC1751" stroke-width="28.75"></line>
            <polygon id="Path" fill="#EC1751" fill-rule="nonzero" points="235.15 116.17 287.28 146.28 235.15 176.38"></polygon>
        </g>
    </g>
</svg>