<svg id="Layer_1" data-name="Layer 1" xmlns="http://www.w3.org/2000/svg" viewBox="0 0 500 500"><defs><style>.cls-1{fill:#6d4412;}.cls-2{fill:#ec1751;}.cls-3{fill:#ffcc29;}.cls-4{fill:#f3ffe1;}.cls-11,.cls-5{opacity:0.15;}.cls-6{fill:#bede99;}.cls-7{fill:#fafafa;opacity:0.5;}.cls-10,.cls-12,.cls-8{fill:none;stroke-miterlimit:10;}.cls-8{stroke:#bede99;stroke-width:1.47px;}.cls-9{fill:#774c12;}.cls-10{stroke:#441f00;stroke-width:1.83px;stroke-dasharray:7.32 7.32;}.cls-10,.cls-12{stroke-linecap:round;}.cls-11{fill:#070707;}.cls-12{stroke:#fff;stroke-width:12.43px;}.cls-13{fill:#fff;}</style></defs><title>Batch of 4</title><rect class="cls-1" x="118.55" y="163.89" width="252.75" height="166.19" rx="19.45" transform="matrix(0.99, -0.16, 0.16, 0.99, -35.36, 41)"/><rect class="cls-2" x="154.28" y="122.63" width="223.74" height="132.04" rx="20.68" transform="translate(-35.25 63.81) rotate(-12.83)"/><rect class="cls-3" x="171.11" y="157.22" width="40.35" height="33.01" rx="8.66" transform="translate(-33.8 46.81) rotate(-12.83)"/><rect class="cls-4" x="184.64" y="229.88" width="33.01" height="7.34" rx="3.67" transform="translate(-46.84 50.49) rotate(-12.83)"/><rect class="cls-4" x="220.63" y="223.78" width="14.67" height="7.34" rx="3.67" transform="translate(-44.81 56.3) rotate(-12.83)"/><rect class="cls-4" x="205.78" y="240.12" width="33.01" height="7.34" rx="3.67" transform="translate(-48.58 55.44) rotate(-12.83)"/><rect class="cls-4" x="188.12" y="246.23" width="14.67" height="7.34" rx="3.67" transform="translate(-50.61 49.64) rotate(-12.83)"/><rect class="cls-5" x="222.25" y="114.58" width="108.25" height="200.05" transform="translate(453.87 -86.95) rotate(82.65)"/><rect class="cls-6" x="221.59" y="111.71" width="108.25" height="210.74" transform="translate(461.67 -80.51) rotate(83.79)"/><rect class="cls-7" x="221.59" y="111.71" width="108.25" height="210.74" transform="translate(461.67 -80.51) rotate(83.79)"/><rect class="cls-7" x="221.59" y="111.71" width="108.25" height="210.74" transform="translate(461.67 -80.51) rotate(83.79)"/><rect class="cls-8" x="227.47" y="118.89" width="95.52" height="197.13" transform="translate(461.62 -79.7) rotate(83.79)"/><ellipse class="cls-6" cx="276.79" cy="217.28" rx="24.87" ry="19.83" transform="translate(-21.89 31.23) rotate(-6.21)"/><path class="cls-5" d="M374.35,199.92V334.77a20.6,20.6,0,0,1-20.6,20.6H127.2a20.6,20.6,0,0,1-20.6-20.6V199.92a20.61,20.61,0,0,1,20.6-20.61H353.75A20.6,20.6,0,0,1,374.35,199.92Z"/><path class="cls-9" d="M374.35,201.92V336.77a20.6,20.6,0,0,1-20.6,20.6H127.2a20.6,20.6,0,0,1-20.6-20.6V201.92a20.61,20.61,0,0,1,20.6-20.61H353.75A20.6,20.6,0,0,1,374.35,201.92Z"/><rect class="cls-10" x="113.94" y="186.14" width="253.08" height="166.41" rx="19.47"/><path class="cls-11" d="M374.35,306.87v29.9a20.6,20.6,0,0,1-20.6,20.6H307.52a46.85,46.85,0,0,1,46-55.36A46.6,46.6,0,0,1,374.35,306.87Z"/><circle class="cls-2" cx="355.56" cy="351.84" r="46.82"/><line class="cls-12" x1="367.17" y1="352.84" x2="333.23" y2="352.84"/><polygon class="cls-13" points="363.36 339.82 385.9 352.84 363.36 365.85 363.36 339.82"/></svg>