<svg id="svg" version="1.1" xmlns="http://www.w3.org/2000/svg" xmlns:xlink="http://www.w3.org/1999/xlink" width="400" height="341.4634146341463" viewBox="0, 0, 400,341.4634146341463"><g id="svgg"><path id="path0" d="M190.016 21.212 C 182.610 21.872,170.601 24.940,164.816 27.651 C 164.441 27.827,162.827 28.572,161.230 29.308 C 109.306 53.221,96.687 120.732,136.635 160.890 C 146.785 171.093,159.461 178.882,172.161 182.718 C 178.642 184.676,181.160 185.242,186.678 185.980 C 195.163 187.115,196.305 188.743,193.058 195.078 C 191.343 198.423,186.979 206.264,185.666 208.357 C 185.249 209.021,183.702 211.716,182.226 214.347 C 178.214 221.499,174.960 227.256,168.518 238.599 C 163.503 247.429,161.641 250.728,156.953 259.095 C 153.811 264.702,151.324 269.319,151.324 269.544 C 151.324 269.845,206.929 270.136,207.608 269.838 C 207.966 269.682,219.866 248.033,226.562 235.354 C 227.505 233.570,228.686 231.418,229.186 230.572 C 229.686 229.727,230.838 227.575,231.746 225.790 C 235.647 218.120,242.330 205.806,251.583 189.240 C 257.606 178.455,261.746 170.858,264.893 164.816 C 269.980 155.051,271.705 151.761,272.598 150.128 C 285.080 127.290,288.653 112.530,286.447 92.912 C 285.918 88.202,285.032 84.237,284.391 83.705 C 283.943 83.333,281.438 83.767,275.662 85.217 C 273.877 85.666,269.880 86.669,266.781 87.447 C 263.681 88.225,259.761 89.230,258.070 89.680 C 256.379 90.130,254.611 90.598,254.142 90.719 C 251.817 91.321,247.766 92.611,247.329 92.890 C 246.900 93.164,246.912 93.715,247.414 97.078 C 251.652 125.430,229.668 149.616,199.658 149.616 C 158.869 149.616,136.917 103.769,163.333 73.750 C 174.488 61.073,192.834 54.927,209.052 58.436 C 210.837 58.822,212.918 59.221,213.676 59.323 L 215.055 59.509 217.716 50.164 C 219.180 45.025,220.828 39.283,221.379 37.404 C 224.176 27.863,225.078 24.429,224.847 24.198 C 224.596 23.947,220.679 23.065,215.371 22.064 C 209.297 20.918,197.687 20.528,190.016 21.212 M200.256 281.012 C 199.923 281.146,199.829 284.835,199.829 297.840 L 199.829 314.495 200.624 316.001 C 202.430 319.424,206.481 321.113,212.880 321.112 C 220.831 321.111,224.787 317.924,226.082 310.476 C 228.339 297.496,222.438 290.819,209.696 291.934 C 204.649 292.375,204.953 292.729,204.953 286.417 C 204.953 281.975,204.873 281.170,204.413 280.993 C 203.778 280.749,200.874 280.763,200.256 281.012 M247.310 300.729 L 247.310 320.751 249.872 320.751 L 252.434 320.751 252.434 301.938 L 252.434 283.124 251.435 282.126 C 250.886 281.577,250.079 281.125,249.642 281.123 C 249.205 281.120,248.501 281.025,248.079 280.912 L 247.310 280.706 247.310 300.729 M232.763 282.276 C 232.665 282.532,232.632 283.646,232.689 284.752 L 232.792 286.763 235.611 286.863 L 238.429 286.962 238.429 284.593 C 238.429 281.834,238.400 281.810,235.145 281.810 C 233.601 281.810,232.888 281.950,232.763 282.276 M120.410 292.028 C 116.919 292.685,114.747 293.350,113.452 294.159 C 112.730 294.610,112.724 294.717,112.724 307.496 L 112.724 320.379 113.842 320.589 C 114.457 320.704,115.648 320.749,116.489 320.690 L 118.019 320.581 118.109 308.920 L 118.198 297.259 118.963 297.020 C 121.345 296.273,129.276 296.421,130.468 297.235 C 132.982 298.950,133.036 299.221,133.153 310.589 L 133.257 320.751 135.749 320.751 L 138.241 320.751 138.472 314.518 C 138.601 311.038,138.548 306.028,138.352 303.177 C 137.947 297.300,137.722 297.781,141.247 296.998 C 152.254 294.551,153.496 295.911,153.652 310.589 L 153.760 320.751 156.253 320.751 L 158.746 320.751 158.978 312.980 C 159.279 302.883,158.902 298.727,157.486 296.520 C 154.327 291.597,147.443 290.307,137.446 292.765 L 134.669 293.448 132.035 292.563 C 128.471 291.367,124.819 291.199,120.410 292.028 M175.747 291.909 C 161.034 295.122,159.644 316.364,173.868 320.602 C 185.241 323.991,194.213 317.869,194.179 306.746 C 194.143 295.551,186.660 289.527,175.747 291.909 M270.671 291.728 C 262.910 293.266,259.539 297.828,259.539 306.792 C 259.539 316.991,264.157 321.271,275.149 321.258 C 277.897 321.255,280.440 321.082,281.127 320.850 C 281.785 320.629,282.976 320.280,283.775 320.074 L 285.226 319.700 285.226 317.453 C 285.226 315.285,285.199 315.214,284.458 315.429 C 273.083 318.729,265.414 316.733,265.414 310.474 L 265.414 309.554 274.210 309.406 C 286.256 309.204,287.530 308.629,287.204 303.543 C 286.703 295.737,278.830 290.111,270.671 291.728 M233.198 292.299 C 233.107 292.448,232.978 298.265,232.912 305.224 C 232.769 320.323,232.636 319.805,236.859 320.597 L 238.095 320.829 238.005 306.529 L 237.916 292.229 235.640 292.129 C 234.388 292.073,233.289 292.150,233.198 292.299 M183.118 296.547 C 191.403 299.029,190.566 314.849,182.055 316.655 C 175.211 318.107,170.865 315.084,170.098 308.340 C 169.058 299.182,174.738 294.036,183.118 296.547 M216.112 296.832 C 221.425 298.699,223.136 306.867,219.569 313.333 C 216.740 318.461,206.139 317.995,205.271 312.703 C 204.923 310.582,204.876 298.171,205.214 297.647 C 206.105 296.266,213.029 295.748,216.112 296.832 M276.440 296.519 C 279.055 297.246,281.381 300.454,281.565 303.589 L 281.640 304.868 273.479 304.959 L 265.318 305.051 265.499 303.056 C 265.995 297.586,270.528 294.878,276.440 296.519 " stroke="none" fill="#066c55" fill-rule="evenodd"></path><path id="path1" d="M231.998 28.118 C 230.232 29.997,231.458 31.256,238.357 34.648 C 255.480 43.069,267.808 55.872,275.791 73.525 C 277.170 76.573,277.972 77.167,280.025 76.660 C 285.874 75.214,270.770 51.254,257.216 40.477 C 245.348 31.040,234.327 25.639,231.998 28.118 M226.287 44.220 C 224.444 46.063,225.196 47.087,230.572 50.053 C 232.545 51.141,234.466 52.201,234.842 52.409 C 244.199 57.577,253.419 67.575,258.028 77.550 C 259.773 81.327,260.378 81.981,262.126 81.981 C 270.510 81.981,254.460 58.752,239.382 49.065 C 231.700 44.129,227.815 42.692,226.287 44.220 M220.846 59.761 C 219.661 62.052,220.244 62.911,224.527 65.186 C 232.056 69.183,237.228 74.405,242.514 83.348 C 244.709 87.060,245.990 87.802,247.776 86.397 C 249.410 85.112,248.572 82.465,244.755 76.857 C 237.241 65.817,222.985 55.623,220.846 59.761 M195.086 79.754 C 174.513 84.428,166.547 106.754,180.265 121.295 C 196.536 138.544,226.473 127.790,226.473 104.697 C 226.473 88.876,210.568 76.236,195.086 79.754 " stroke="none" fill="#d4e40b" fill-rule="evenodd"></path><path id="path2" d="M0.000 170.794 L 0.000 341.588 200.000 341.588 L 400.000 341.588 400.000 170.794 L 400.000 0.000 200.000 0.000 L 0.000 0.000 0.000 170.794 M205.012 20.164 C 210.165 20.514,214.933 21.141,219.129 22.021 C 220.444 22.296,222.397 22.705,223.468 22.929 C 225.972 23.453,226.184 24.921,224.446 29.718 C 224.276 30.188,223.902 31.418,223.614 32.451 C 222.589 36.142,220.695 42.714,219.137 47.993 C 218.860 48.933,218.178 51.315,217.621 53.288 C 217.064 55.260,216.397 57.566,216.139 58.412 L 215.669 59.949 213.631 59.895 C 212.511 59.865,210.676 59.558,209.554 59.212 C 206.318 58.213,193.720 58.317,189.240 59.379 C 174.210 62.943,161.672 73.154,156.242 86.251 C 155.774 87.378,155.253 88.608,155.083 88.984 C 152.216 95.321,151.758 107.666,154.112 115.115 C 158.766 129.842,167.691 139.731,181.554 145.524 C 189.432 148.816,201.497 149.715,210.589 147.688 C 235.107 142.224,249.772 121.900,246.725 97.610 C 246.040 92.149,246.026 92.188,249.046 91.331 C 254.229 89.860,270.522 85.627,275.320 84.504 C 276.541 84.218,278.540 83.746,279.761 83.455 C 280.982 83.163,282.673 82.904,283.518 82.880 L 285.056 82.835 285.820 85.122 C 289.489 96.100,287.984 118.893,282.836 130.316 C 282.666 130.692,281.888 132.536,281.106 134.415 C 279.765 137.635,275.277 146.842,273.029 150.982 C 272.468 152.015,270.889 155.013,269.519 157.643 C 264.688 166.919,261.659 172.624,259.000 177.455 C 257.966 179.334,256.700 181.640,256.185 182.579 C 255.671 183.518,251.909 190.282,247.826 197.609 C 243.743 204.936,240.266 211.238,240.099 211.614 C 239.933 211.990,239.649 212.528,239.469 212.810 C 239.003 213.541,235.208 220.667,232.195 226.473 C 230.781 229.197,229.208 232.195,228.698 233.134 C 228.189 234.073,227.150 235.995,226.390 237.404 C 225.629 238.813,224.586 240.734,224.072 241.674 C 223.557 242.613,222.639 244.304,222.032 245.431 C 221.424 246.558,219.967 249.249,218.793 251.409 C 217.620 253.570,216.081 256.413,215.373 257.728 C 209.727 268.224,208.564 270.251,208.023 270.540 C 207.099 271.035,150.716 270.545,150.522 270.040 C 150.441 269.828,150.637 269.123,150.957 268.473 C 151.772 266.822,154.077 262.581,154.382 262.169 C 154.522 261.981,155.295 260.598,156.101 259.095 C 158.271 255.048,167.156 239.307,173.647 228.010 C 175.159 225.380,176.726 222.611,177.129 221.857 C 177.839 220.530,178.740 218.949,184.813 208.369 C 186.376 205.645,188.192 202.417,188.848 201.196 C 189.504 199.974,190.380 198.431,190.795 197.766 C 196.091 189.278,195.075 187.615,183.809 186.338 C 172.673 185.075,151.555 175.772,144.418 168.985 C 144.177 168.755,142.750 167.544,141.247 166.292 C 137.881 163.488,133.880 159.379,130.310 155.061 C 126.859 150.885,122.308 143.637,119.707 138.173 C 117.180 132.863,115.678 128.257,113.750 119.898 C 110.728 106.802,112.295 87.224,117.316 75.320 C 117.553 74.757,118.104 73.373,118.539 72.246 C 120.280 67.733,125.029 59.245,127.584 56.080 C 139.306 41.557,152.398 31.366,165.630 26.466 C 166.310 26.214,167.711 25.684,168.745 25.287 C 175.388 22.740,185.069 20.716,193.168 20.182 C 199.121 19.790,199.512 19.790,205.012 20.164 M236.105 26.950 C 237.985 27.597,244.205 30.751,246.675 32.310 C 247.392 32.763,248.059 33.134,248.157 33.134 C 248.523 33.134,255.806 38.463,258.924 41.012 C 270.828 50.746,285.431 73.711,281.691 76.815 C 280.393 77.892,276.995 77.486,276.319 76.174 C 276.173 75.892,274.980 73.433,273.666 70.709 C 266.041 54.896,253.988 42.950,237.637 34.998 C 230.143 31.354,228.694 29.027,232.616 26.936 C 234.064 26.165,233.821 26.164,236.105 26.950 M233.013 44.673 C 239.271 47.836,244.318 51.372,250.170 56.696 C 258.553 64.322,267.322 80.026,264.356 82.103 C 261.742 83.934,259.686 82.593,257.225 77.455 C 251.691 65.896,243.661 57.892,230.401 50.715 C 225.198 47.899,224.241 46.838,225.080 44.814 C 226.158 42.210,228.073 42.176,233.013 44.673 M226.506 59.426 C 232.067 62.185,238.270 67.316,242.453 72.619 C 247.507 79.026,250.182 84.584,248.939 86.096 C 246.772 88.733,244.190 88.011,242.177 84.204 C 237.862 76.045,231.748 69.747,224.253 65.744 C 219.692 63.308,219.163 62.604,219.998 60.072 C 220.773 57.725,222.694 57.534,226.506 59.426 M207.453 79.572 C 230.101 86.049,234.345 114.992,214.347 126.583 C 193.541 138.643,167.931 120.767,173.693 98.207 C 177.191 84.514,193.416 75.558,207.453 79.572 M205.295 280.436 C 205.706 280.696,205.830 281.814,205.923 286.085 L 206.040 291.410 208.485 291.136 C 220.748 289.763,227.326 294.877,227.246 305.722 C 227.157 317.779,221.254 323.195,209.730 321.794 C 204.089 321.108,200.465 318.705,199.336 314.903 C 198.640 312.559,198.529 281.198,199.214 280.512 C 199.706 280.021,204.541 279.961,205.295 280.436 M251.453 281.037 C 253.420 282.199,253.459 282.619,253.459 302.738 L 253.459 321.080 252.690 321.235 C 251.123 321.552,247.657 321.757,247.150 321.563 C 246.583 321.345,246.321 280.867,246.883 280.299 C 247.271 279.907,250.394 280.411,251.453 281.037 M238.700 281.418 C 239.018 281.620,239.113 282.503,239.041 284.572 L 238.941 287.445 237.516 287.745 C 236.701 287.917,235.241 287.917,234.101 287.746 L 232.109 287.447 232.009 284.744 C 231.953 283.258,231.987 281.836,232.083 281.584 C 232.282 281.066,237.922 280.924,238.700 281.418 M131.512 291.517 C 132.357 291.817,133.389 292.238,133.804 292.453 C 134.394 292.757,134.957 292.722,136.366 292.292 C 148.422 288.611,157.861 291.586,159.404 299.552 C 159.874 301.979,160.010 317.475,159.583 319.898 L 159.342 321.264 157.048 321.559 C 155.787 321.721,154.376 321.759,153.912 321.643 L 153.069 321.431 152.965 311.271 C 152.815 296.647,152.429 296.085,143.497 297.464 C 138.446 298.245,138.603 298.110,139.017 301.297 C 139.198 302.697,139.352 307.536,139.358 312.050 C 139.370 322.057,139.471 321.779,135.847 321.771 C 132.315 321.764,132.589 322.637,132.470 311.008 C 132.354 299.646,132.235 299.023,129.957 297.865 C 128.756 297.254,121.325 297.218,119.817 297.816 L 118.882 298.186 118.792 309.725 L 118.702 321.264 116.144 321.366 C 114.737 321.422,113.237 321.380,112.810 321.273 L 112.033 321.078 112.122 307.508 L 112.212 293.938 113.407 293.370 C 115.748 292.259,116.334 292.051,118.190 291.674 C 119.223 291.465,120.683 291.167,121.435 291.013 C 123.533 290.583,129.756 290.894,131.512 291.517 M185.366 291.516 C 190.780 293.486,193.641 296.919,194.875 302.926 C 197.439 315.408,188.403 324.150,175.418 321.750 C 167.617 320.308,163.573 315.163,163.490 306.576 C 163.405 297.805,167.324 293.054,176.430 290.888 C 177.763 290.571,183.967 291.008,185.366 291.516 M278.395 291.564 C 284.197 293.443,288.019 298.415,288.019 304.083 C 288.019 309.195,286.370 309.952,274.893 310.103 L 266.439 310.215 266.439 311.059 C 266.439 313.357,268.748 315.479,271.993 316.164 C 274.146 316.618,280.372 316.054,281.837 315.271 C 282.133 315.113,283.160 314.880,284.119 314.752 L 285.863 314.521 286.099 315.779 C 286.937 320.245,284.887 321.602,276.687 322.009 C 265.537 322.563,260.028 318.706,258.917 309.569 C 257.284 296.138,266.427 287.686,278.395 291.564 M238.575 291.912 C 239.125 292.461,239.432 319.519,238.905 320.894 C 238.263 322.565,233.601 320.904,232.448 318.594 C 231.613 316.920,231.694 292.234,232.536 291.744 C 233.531 291.164,237.951 291.287,238.575 291.912 M175.030 297.658 C 168.179 300.848,169.545 314.469,176.868 315.989 C 183.451 317.356,188.215 313.292,188.215 306.310 C 188.215 298.862,181.669 294.567,175.030 297.658 M208.140 297.379 L 206.033 297.900 205.786 300.530 C 205.411 304.529,205.882 313.211,206.528 314.196 C 208.713 317.531,217.252 316.318,219.101 312.410 C 223.750 302.583,218.149 294.902,208.140 297.379 M269.855 297.477 C 267.698 298.368,266.106 300.958,266.099 303.587 L 266.097 304.355 273.488 304.355 L 280.879 304.355 280.664 302.788 C 280.030 298.168,274.621 295.509,269.855 297.477 " stroke="none" fill="#f3f4f3" fill-rule="evenodd"></path><path id="path3" d="M139.026 43.894 C 138.197 44.740,137.595 45.431,137.689 45.431 C 137.783 45.431,138.538 44.740,139.368 43.894 C 140.198 43.049,140.800 42.357,140.706 42.357 C 140.612 42.357,139.856 43.049,139.026 43.894 M198.389 57.981 C 199.382 58.050,200.919 58.049,201.805 57.979 C 202.691 57.909,201.879 57.852,200.000 57.853 C 198.121 57.854,197.396 57.911,198.389 57.981 M164.976 72.331 L 163.108 74.295 165.073 72.428 C 166.897 70.694,167.193 70.367,166.940 70.367 C 166.886 70.367,166.002 71.251,164.976 72.331 M152.133 103.501 C 152.133 105.474,152.190 106.281,152.259 105.295 C 152.328 104.308,152.328 102.694,152.259 101.708 C 152.190 100.722,152.133 101.529,152.133 103.501 M112.506 103.501 C 112.506 105.286,112.563 106.016,112.634 105.124 C 112.704 104.231,112.704 102.771,112.634 101.879 C 112.563 100.986,112.506 101.716,112.506 103.501 M163.962 134.073 C 164.600 134.731,165.198 135.269,165.292 135.269 C 165.386 135.269,164.941 134.731,164.304 134.073 C 163.667 133.416,163.068 132.878,162.974 132.878 C 162.881 132.878,163.325 133.416,163.962 134.073 M166.695 136.806 C 167.332 137.464,167.931 138.002,168.025 138.002 C 168.119 138.002,167.674 137.464,167.037 136.806 C 166.399 136.149,165.801 135.611,165.707 135.611 C 165.613 135.611,166.058 136.149,166.695 136.806 M232.945 136.892 L 231.768 138.173 233.049 136.995 C 234.241 135.900,234.487 135.611,234.226 135.611 C 234.169 135.611,233.592 136.187,232.945 136.892 M186.166 270.196 L 164.133 270.375 186.060 270.456 C 200.398 270.510,208.060 270.420,208.198 270.196 C 208.314 270.009,208.362 269.892,208.304 269.936 C 208.246 269.981,198.284 270.098,186.166 270.196 M200.769 280.694 C 201.567 280.766,202.874 280.766,203.672 280.694 C 204.471 280.622,203.817 280.563,202.220 280.563 C 200.623 280.563,199.970 280.622,200.769 280.694 M199.304 297.011 C 199.304 305.841,199.348 309.502,199.402 305.147 C 199.456 300.792,199.456 293.568,199.402 289.093 C 199.348 284.618,199.304 288.181,199.304 297.011 M252.934 302.818 C 252.934 312.588,252.978 316.535,253.031 311.590 C 253.085 306.645,253.085 298.652,253.031 293.827 C 252.978 289.003,252.934 293.049,252.934 302.818 M234.415 287.525 C 235.120 287.598,236.272 287.598,236.977 287.525 C 237.681 287.451,237.105 287.391,235.696 287.391 C 234.287 287.391,233.711 287.451,234.415 287.525 M124.262 291.284 C 125.065 291.356,126.295 291.355,126.995 291.282 C 127.694 291.208,127.037 291.149,125.534 291.150 C 124.031 291.152,123.458 291.212,124.262 291.284 M144.416 291.284 C 145.219 291.356,146.449 291.355,147.148 291.282 C 147.848 291.208,147.190 291.149,145.687 291.150 C 144.184 291.152,143.612 291.212,144.416 291.284 M178.558 291.280 C 179.164 291.355,180.240 291.357,180.949 291.283 C 181.658 291.209,181.161 291.147,179.846 291.145 C 178.531 291.144,177.951 291.204,178.558 291.280 M211.870 291.269 C 212.199 291.355,212.737 291.355,213.066 291.269 C 213.395 291.183,213.126 291.113,212.468 291.113 C 211.810 291.113,211.541 291.183,211.870 291.269 M272.167 291.281 C 272.781 291.357,273.703 291.355,274.216 291.277 C 274.729 291.199,274.227 291.137,273.100 291.139 C 271.973 291.141,271.553 291.205,272.167 291.281 M238.585 306.405 C 238.585 314.202,238.630 317.391,238.684 313.493 C 238.739 309.594,238.739 303.215,238.684 299.317 C 238.630 295.418,238.585 298.608,238.585 306.405 M190.606 295.303 C 191.244 295.961,191.842 296.499,191.936 296.499 C 192.030 296.499,191.585 295.961,190.948 295.303 C 190.311 294.646,189.712 294.108,189.618 294.108 C 189.524 294.108,189.969 294.646,190.606 295.303 M178.565 296.398 C 178.988 296.480,179.680 296.480,180.102 296.398 C 180.525 296.317,180.179 296.250,179.334 296.250 C 178.488 296.250,178.143 296.317,178.565 296.398 M146.285 296.743 C 146.802 296.822,147.647 296.822,148.164 296.743 C 148.681 296.665,148.258 296.601,147.225 296.601 C 146.191 296.601,145.769 296.665,146.285 296.743 M265.529 303.672 L 265.585 304.526 273.527 304.536 L 281.469 304.545 273.635 304.444 C 265.845 304.343,265.801 304.339,265.637 303.580 C 265.495 302.920,265.481 302.932,265.529 303.672 M287.697 304.355 C 287.697 305.013,287.767 305.282,287.853 304.953 C 287.939 304.624,287.939 304.086,287.853 303.757 C 287.767 303.429,287.697 303.698,287.697 304.355 M138.771 304.868 C 138.775 305.619,138.845 305.886,138.926 305.461 C 139.008 305.037,139.005 304.422,138.920 304.095 C 138.834 303.768,138.767 304.116,138.771 304.868 M170.223 305.892 C 170.225 307.208,170.286 307.704,170.360 306.995 C 170.434 306.286,170.433 305.210,170.358 304.604 C 170.282 303.997,170.222 304.577,170.223 305.892 M163.736 306.405 C 163.736 307.814,163.796 308.390,163.870 307.686 C 163.943 306.981,163.943 305.828,163.870 305.124 C 163.796 304.419,163.736 304.996,163.736 306.405 M259.003 305.038 C 259.003 305.696,259.074 305.965,259.159 305.636 C 259.245 305.307,259.245 304.769,259.159 304.441 C 259.074 304.112,259.003 304.381,259.003 305.038 M132.971 306.405 C 132.971 307.250,133.038 307.596,133.119 307.173 C 133.200 306.751,133.200 306.059,133.119 305.636 C 133.038 305.213,132.971 305.559,132.971 306.405 M259.003 308.454 C 259.003 309.112,259.074 309.381,259.159 309.052 C 259.245 308.723,259.245 308.185,259.159 307.857 C 259.074 307.528,259.003 307.797,259.003 308.454 M267.029 309.726 C 267.636 309.801,268.712 309.802,269.420 309.728 C 270.129 309.654,269.633 309.593,268.318 309.591 C 267.003 309.590,266.423 309.650,267.029 309.726 M280.021 309.721 C 280.446 309.802,281.061 309.799,281.387 309.714 C 281.714 309.628,281.366 309.561,280.615 309.565 C 279.863 309.569,279.596 309.639,280.021 309.721 M232.389 312.212 C 232.389 313.433,232.451 313.933,232.527 313.322 C 232.603 312.711,232.603 311.712,232.527 311.102 C 232.451 310.491,232.389 310.991,232.389 312.212 M205.381 311.699 C 205.385 312.451,205.455 312.718,205.536 312.293 C 205.618 311.868,205.615 311.253,205.529 310.927 C 205.444 310.600,205.377 310.948,205.381 311.699 M153.165 316.311 C 153.165 318.847,153.219 319.885,153.285 318.617 C 153.351 317.348,153.351 315.273,153.285 314.005 C 153.219 312.737,153.165 313.775,153.165 316.311 M159.283 314.261 C 159.283 315.295,159.347 315.717,159.425 315.201 C 159.503 314.684,159.503 313.839,159.425 313.322 C 159.347 312.805,159.283 313.228,159.283 314.261 M138.802 315.798 C 138.803 317.301,138.863 317.874,138.935 317.070 C 139.008 316.267,139.007 315.037,138.933 314.338 C 138.860 313.638,138.801 314.295,138.802 315.798 M246.752 316.823 C 246.752 318.702,246.810 319.427,246.879 318.434 C 246.948 317.442,246.948 315.905,246.877 315.018 C 246.807 314.132,246.751 314.944,246.752 316.823 M285.564 317.266 L 285.730 319.556 285.838 317.542 C 285.898 316.434,285.823 315.404,285.672 315.252 C 285.521 315.100,285.472 316.006,285.564 317.266 M273.872 316.894 C 274.297 316.976,274.912 316.973,275.239 316.887 C 275.565 316.802,275.218 316.735,274.466 316.739 C 273.715 316.742,273.448 316.812,273.872 316.894 M222.865 318.104 L 221.862 319.214 222.972 318.211 C 223.582 317.659,224.082 317.160,224.082 317.101 C 224.082 316.837,223.800 317.069,222.865 318.104 M132.634 318.873 C 132.637 319.812,132.703 320.156,132.781 319.637 C 132.860 319.117,132.858 318.349,132.777 317.929 C 132.696 317.509,132.631 317.933,132.634 318.873 M211.539 321.686 C 212.437 321.757,213.820 321.756,214.613 321.684 C 215.406 321.613,214.671 321.555,212.980 321.556 C 211.289 321.557,210.641 321.616,211.539 321.686 " stroke="none" fill="#95c8bb" fill-rule="evenodd"></path><path id="path4" d="M197.011 20.407 C 198.373 20.472,200.602 20.472,201.964 20.407 C 203.326 20.343,202.212 20.289,199.488 20.289 C 196.763 20.289,195.649 20.343,197.011 20.407 M136.797 45.858 L 134.415 48.335 136.892 45.953 C 138.254 44.643,139.368 43.528,139.368 43.476 C 139.368 43.226,139.009 43.558,136.797 45.858 M132.002 50.982 L 130.999 52.092 132.109 51.089 C 133.144 50.154,133.376 49.872,133.113 49.872 C 133.054 49.872,132.554 50.371,132.002 50.982 M167.186 70.453 L 166.183 71.563 167.293 70.559 C 168.328 69.624,168.560 69.342,168.296 69.342 C 168.237 69.342,167.738 69.842,167.186 70.453 M163.770 73.868 L 162.767 74.979 163.877 73.975 C 164.912 73.040,165.144 72.758,164.880 72.758 C 164.822 72.758,164.322 73.258,163.770 73.868 M287.013 94.620 C 287.013 95.278,287.084 95.547,287.170 95.218 C 287.256 94.889,287.256 94.351,287.170 94.022 C 287.084 93.693,287.013 93.962,287.013 94.620 M287.420 103.843 C 287.420 107.694,287.470 109.270,287.531 107.344 C 287.592 105.418,287.592 102.267,287.531 100.342 C 287.470 98.416,287.420 99.991,287.420 103.843 M112.480 98.890 C 112.483 99.829,112.549 100.173,112.628 99.654 C 112.706 99.134,112.704 98.366,112.623 97.946 C 112.542 97.526,112.478 97.950,112.480 98.890 M112.485 108.284 C 112.485 109.317,112.549 109.740,112.627 109.223 C 112.706 108.706,112.706 107.861,112.627 107.344 C 112.549 106.827,112.485 107.250,112.485 108.284 M134.586 159.693 C 135.223 160.350,135.821 160.888,135.915 160.888 C 136.009 160.888,135.565 160.350,134.927 159.693 C 134.290 159.035,133.692 158.497,133.598 158.497 C 133.504 158.497,133.948 159.035,134.586 159.693 M138.685 163.792 C 139.322 164.449,139.921 164.987,140.014 164.987 C 140.108 164.987,139.664 164.449,139.026 163.792 C 138.389 163.134,137.791 162.596,137.697 162.596 C 137.603 162.596,138.048 163.134,138.685 163.792 M150.938 270.289 C 151.083 270.434,154.189 270.511,157.839 270.459 L 164.475 270.366 157.574 270.196 C 153.779 270.102,150.792 270.144,150.938 270.289 M205.294 285.840 L 205.463 291.204 205.559 286.107 C 205.612 283.303,205.536 280.890,205.389 280.743 C 205.243 280.596,205.200 282.890,205.294 285.840 M246.785 297.182 C 246.785 306.294,246.829 310.021,246.883 305.465 C 246.937 300.909,246.937 293.454,246.883 288.898 C 246.829 284.342,246.785 288.070,246.785 297.182 M232.166 281.697 C 231.310 282.553,232.106 287.617,233.097 287.617 C 233.283 287.617,233.162 287.418,232.828 287.174 C 232.318 286.800,232.240 286.310,232.336 284.098 C 232.399 282.651,232.438 281.468,232.422 281.468 C 232.407 281.468,232.291 281.571,232.166 281.697 M238.885 284.543 C 238.885 285.952,238.945 286.529,239.019 285.824 C 239.093 285.120,239.093 283.967,239.019 283.262 C 238.945 282.558,238.885 283.134,238.885 284.543 M232.430 301.110 C 232.429 306.183,232.477 308.306,232.535 305.827 C 232.594 303.349,232.594 299.199,232.536 296.605 C 232.477 294.010,232.430 296.038,232.430 301.110 M112.420 294.233 C 112.143 294.568,112.059 298.367,112.126 307.640 L 112.220 320.581 112.301 307.583 C 112.361 298.023,112.491 294.477,112.792 294.176 C 113.018 293.950,113.114 293.766,113.005 293.766 C 112.897 293.766,112.633 293.976,112.420 294.233 M167.533 295.559 L 166.183 297.011 167.635 295.661 C 168.985 294.405,169.243 294.108,168.985 294.108 C 168.929 294.108,168.276 294.761,167.533 295.559 M211.358 296.740 C 211.781 296.821,212.472 296.821,212.895 296.740 C 213.318 296.658,212.972 296.592,212.126 296.592 C 211.281 296.592,210.935 296.658,211.358 296.740 M272.508 296.746 C 273.122 296.822,274.044 296.821,274.558 296.743 C 275.071 296.665,274.569 296.603,273.442 296.605 C 272.314 296.606,271.894 296.670,272.508 296.746 M118.605 309.052 C 118.678 320.612,118.794 319.317,118.957 305.124 C 119.004 300.943,118.928 297.523,118.787 297.523 C 118.646 297.523,118.564 302.711,118.605 309.052 M217.592 297.972 C 217.592 298.031,218.091 298.530,218.702 299.082 L 219.812 300.085 218.809 298.975 C 217.874 297.940,217.592 297.708,217.592 297.972 M205.434 304.868 C 205.434 308.061,205.485 309.414,205.548 307.873 C 205.612 306.333,205.612 303.719,205.549 302.066 C 205.486 300.413,205.435 301.674,205.434 304.868 M138.771 302.477 C 138.775 303.228,138.845 303.495,138.926 303.070 C 139.008 302.645,139.005 302.031,138.920 301.704 C 138.834 301.377,138.767 301.725,138.771 302.477 M132.682 309.821 C 132.682 314.048,132.731 315.777,132.791 313.664 C 132.851 311.550,132.851 308.091,132.791 305.978 C 132.731 303.864,132.682 305.594,132.682 309.821 M226.938 305.380 C 226.938 307.165,226.995 307.895,227.066 307.003 C 227.136 306.110,227.136 304.650,227.066 303.757 C 226.995 302.865,226.938 303.595,226.938 305.380 M153.164 307.600 C 153.165 310.043,153.219 310.997,153.285 309.721 C 153.351 308.445,153.351 306.447,153.284 305.280 C 153.218 304.114,153.164 305.158,153.164 307.600 M220.775 305.380 C 220.775 306.601,220.837 307.101,220.913 306.490 C 220.989 305.880,220.989 304.880,220.913 304.270 C 220.837 303.659,220.775 304.159,220.775 305.380 M194.822 306.917 C 194.824 308.420,194.884 308.993,194.956 308.189 C 195.028 307.386,195.027 306.156,194.954 305.456 C 194.880 304.757,194.821 305.414,194.822 306.917 M188.294 306.405 C 188.294 307.062,188.365 307.331,188.451 307.003 C 188.537 306.674,188.537 306.136,188.451 305.807 C 188.365 305.478,188.294 305.747,188.294 306.405 M159.615 307.088 C 159.615 307.933,159.681 308.279,159.763 307.857 C 159.844 307.434,159.844 306.742,159.763 306.319 C 159.681 305.897,159.615 306.243,159.615 307.088 M232.041 314.944 C 232.041 315.978,232.105 316.401,232.183 315.884 C 232.261 315.367,232.261 314.522,232.183 314.005 C 232.105 313.488,232.041 313.911,232.041 314.944 M159.295 318.360 C 159.295 319.769,159.355 320.346,159.429 319.641 C 159.503 318.937,159.503 317.784,159.429 317.079 C 159.355 316.375,159.295 316.951,159.295 318.360 M190.930 317.592 L 189.752 318.873 191.033 317.696 C 192.226 316.600,192.471 316.311,192.210 316.311 C 192.153 316.311,191.577 316.887,190.930 317.592 M211.020 316.552 C 211.445 316.634,212.060 316.631,212.387 316.546 C 212.713 316.460,212.365 316.393,211.614 316.397 C 210.863 316.401,210.595 316.471,211.020 316.552 M167.720 317.848 C 168.357 318.506,168.956 319.044,169.049 319.044 C 169.143 319.044,168.699 318.506,168.061 317.848 C 167.424 317.190,166.826 316.652,166.732 316.652 C 166.638 316.652,167.083 317.190,167.720 317.848 M138.740 319.641 L 138.685 321.093 135.810 321.093 C 134.187 321.093,132.859 320.941,132.761 320.743 C 132.666 320.550,132.627 320.589,132.675 320.828 C 132.736 321.132,133.662 321.294,135.729 321.363 C 139.015 321.472,139.184 321.365,138.934 319.332 C 138.808 318.302,138.789 318.332,138.740 319.641 M246.736 320.581 C 246.799 321.201,247.064 321.266,249.621 321.286 L 252.436 321.308 249.725 321.187 C 247.528 321.089,246.980 320.955,246.840 320.482 C 246.711 320.049,246.684 320.075,246.736 320.581 M153.336 321.194 C 153.486 321.343,154.824 321.419,156.309 321.362 L 159.009 321.258 156.036 321.090 C 154.401 320.998,153.185 321.044,153.336 321.194 M273.536 322.027 C 274.339 322.099,275.569 322.098,276.269 322.025 C 276.968 321.951,276.311 321.892,274.808 321.893 C 273.305 321.895,272.733 321.955,273.536 322.027 " stroke="none" fill="#c0e6dc" fill-rule="evenodd"></path><path id="path5" d="M232.616 26.936 C 228.694 29.027,230.143 31.354,237.637 34.998 C 253.988 42.950,266.041 54.896,273.666 70.709 C 274.980 73.433,276.173 75.892,276.319 76.174 C 276.995 77.486,280.393 77.892,281.691 76.815 C 285.431 73.711,270.828 50.746,258.924 41.012 C 255.806 38.463,248.523 33.134,248.157 33.134 C 248.059 33.134,247.392 32.763,246.675 32.310 C 242.989 29.984,235.232 26.302,234.015 26.302 C 233.900 26.302,233.271 26.588,232.616 26.936 M239.966 29.411 C 255.213 37.143,265.214 46.060,274.794 60.461 C 281.101 69.943,283.030 75.917,280.025 76.660 C 277.972 77.167,277.170 76.573,275.791 73.525 C 267.808 55.872,255.480 43.069,238.357 34.648 C 231.458 31.256,230.232 29.997,231.998 28.118 C 233.329 26.701,235.230 27.010,239.966 29.411 M226.399 43.292 C 223.207 45.272,224.387 47.460,230.401 50.715 C 243.661 57.892,251.691 65.896,257.225 77.455 C 259.686 82.593,261.742 83.934,264.356 82.103 C 267.322 80.026,258.553 64.322,250.170 56.696 C 240.307 47.724,229.280 41.506,226.399 43.292 M232.730 45.267 C 244.107 51.102,252.387 58.479,259.009 68.683 C 265.122 78.103,266.031 81.981,262.126 81.981 C 260.378 81.981,259.773 81.327,258.028 77.550 C 253.419 67.575,244.199 57.577,234.842 52.409 C 234.466 52.201,232.545 51.141,230.572 50.053 C 225.196 47.087,224.444 46.063,226.287 44.220 C 227.523 42.984,228.626 43.163,232.730 45.267 M220.982 58.386 C 220.248 58.842,219.504 61.233,219.768 62.287 C 220.016 63.274,220.892 63.950,224.253 65.744 C 231.748 69.747,237.862 76.045,242.177 84.204 C 244.190 88.011,246.772 88.733,248.939 86.096 C 250.182 84.584,247.507 79.026,242.453 72.619 C 235.945 64.370,224.047 56.482,220.982 58.386 M225.352 59.626 C 236.760 64.671,252.106 82.992,247.776 86.397 C 245.990 87.802,244.709 87.060,242.514 83.348 C 237.228 74.405,232.056 69.183,224.527 65.186 C 220.244 62.911,219.661 62.052,220.846 59.761 C 221.512 58.472,222.664 58.437,225.352 59.626 M196.413 78.893 C 175.235 82.079,165.753 104.981,179.014 120.915 C 191.292 135.669,216.434 132.645,224.710 115.419 C 233.606 96.904,217.227 75.761,196.413 78.893 M207.857 80.430 C 226.998 86.054,232.890 109.511,218.478 122.717 C 205.932 134.213,184.867 131.150,176.759 116.652 C 165.634 96.758,185.334 73.811,207.857 80.430 " stroke="none" fill="#eef699" fill-rule="evenodd"></path><path id="path6" d="M191.289 20.816 C 190.256 20.931,192.946 20.971,197.267 20.904 C 201.588 20.837,205.278 20.730,205.465 20.666 C 206.062 20.462,193.250 20.598,191.289 20.816 M206.751 21.082 C 207.270 21.161,208.039 21.158,208.459 21.077 C 208.879 20.996,208.454 20.932,207.515 20.935 C 206.576 20.937,206.232 21.003,206.751 21.082 M214.176 21.862 C 214.646 22.012,215.414 22.132,215.884 22.129 C 216.651 22.123,216.634 22.096,215.713 21.862 C 214.268 21.494,213.028 21.494,214.176 21.862 M169.940 25.460 C 169.086 25.872,169.058 25.919,169.769 25.745 C 170.737 25.509,171.825 24.954,171.307 24.962 C 171.119 24.965,170.504 25.189,169.940 25.460 M166.183 26.827 C 165.329 27.238,165.300 27.286,166.012 27.112 C 166.980 26.875,168.068 26.320,167.549 26.328 C 167.361 26.331,166.746 26.555,166.183 26.827 M223.936 28.205 C 223.810 28.706,223.773 29.182,223.854 29.262 C 223.934 29.343,224.103 28.999,224.228 28.498 C 224.354 27.998,224.391 27.522,224.310 27.442 C 224.230 27.361,224.061 27.705,223.936 28.205 M156.704 31.280 C 155.427 31.973,155.504 32.261,156.789 31.597 C 157.353 31.305,157.814 30.994,157.814 30.905 C 157.814 30.685,157.777 30.698,156.704 31.280 M222.747 32.482 C 222.516 33.253,222.390 33.947,222.466 34.024 C 222.543 34.100,222.795 33.532,223.026 32.761 C 223.257 31.990,223.383 31.297,223.306 31.220 C 223.230 31.143,222.978 31.711,222.747 32.482 M145.687 38.552 C 143.997 39.834,142.388 41.175,142.114 41.534 C 141.839 41.893,142.070 41.785,142.626 41.295 C 143.183 40.804,144.829 39.518,146.285 38.435 C 148.581 36.728,149.206 36.187,148.847 36.215 C 148.800 36.219,147.378 37.270,145.687 38.552 M139.526 43.809 L 137.831 45.602 139.624 43.907 C 140.611 42.975,141.418 42.168,141.418 42.114 C 141.418 41.859,141.101 42.142,139.526 43.809 M219.153 44.943 C 219.028 45.444,218.991 45.919,219.071 46.000 C 219.152 46.080,219.320 45.737,219.446 45.236 C 219.572 44.735,219.609 44.260,219.528 44.179 C 219.448 44.099,219.279 44.443,219.153 44.943 M134.569 48.762 C 131.901 51.557,130.674 52.946,130.873 52.946 C 130.968 52.946,132.315 51.563,133.865 49.872 C 137.013 46.439,137.463 45.729,134.569 48.762 M217.104 52.117 C 216.978 52.617,216.941 53.093,217.022 53.173 C 217.102 53.254,217.271 52.910,217.397 52.409 C 217.522 51.909,217.559 51.433,217.479 51.353 C 217.398 51.272,217.229 51.616,217.104 52.117 M129.370 54.740 C 127.767 56.743,126.148 59.033,126.776 58.412 C 127.523 57.671,130.868 53.288,130.686 53.288 C 130.602 53.288,130.010 53.941,129.370 54.740 M198.389 57.639 C 199.382 57.708,200.919 57.708,201.805 57.637 C 202.691 57.567,201.879 57.511,200.000 57.512 C 198.121 57.512,197.396 57.570,198.389 57.639 M184.287 59.936 C 182.968 60.540,183.581 60.549,185.141 59.949 C 185.798 59.696,186.106 59.484,185.824 59.478 C 185.542 59.472,184.851 59.678,184.287 59.936 M177.541 62.704 C 176.648 63.168,175.918 63.625,175.918 63.719 C 175.918 63.871,179.300 62.274,179.647 61.957 C 180.070 61.572,178.959 61.966,177.541 62.704 M169.814 67.664 C 168.850 68.431,168.061 69.141,168.061 69.242 C 168.061 69.342,168.792 68.842,169.684 68.130 C 171.801 66.440,171.993 66.268,171.761 66.268 C 171.654 66.268,170.778 66.896,169.814 67.664 M119.788 70.554 C 118.986 72.237,119.098 72.523,119.937 70.933 C 120.318 70.210,120.570 69.559,120.496 69.485 C 120.422 69.411,120.103 69.892,119.788 70.554 M165.147 71.819 L 163.108 73.954 165.243 71.915 C 167.227 70.021,167.535 69.684,167.282 69.684 C 167.229 69.684,166.269 70.645,165.147 71.819 M117.886 75.187 C 117.676 75.791,117.563 76.345,117.636 76.418 C 117.709 76.491,117.941 76.057,118.152 75.453 C 118.362 74.849,118.474 74.296,118.401 74.223 C 118.328 74.150,118.096 74.584,117.886 75.187 M162.042 75.235 C 161.033 76.386,160.444 77.199,160.618 77.199 C 160.704 77.199,161.268 76.584,161.872 75.833 C 163.044 74.374,163.163 73.955,162.042 75.235 M159.601 78.480 C 158.717 79.757,158.429 80.273,158.602 80.273 C 158.682 80.273,159.155 79.658,159.652 78.907 C 160.663 77.380,160.619 77.010,159.601 78.480 M115.310 83.201 C 115.185 83.702,115.148 84.177,115.228 84.258 C 115.309 84.338,115.478 83.995,115.603 83.494 C 115.729 82.993,115.766 82.518,115.685 82.437 C 115.605 82.357,115.436 82.701,115.310 83.201 M272.588 85.739 C 271.901 85.959,271.868 86.014,272.417 86.022 C 272.792 86.028,273.407 85.900,273.783 85.739 C 274.654 85.365,273.755 85.365,272.588 85.739 M285.284 85.739 C 285.302 86.626,285.840 88.084,285.851 87.276 C 285.857 86.900,285.729 86.285,285.568 85.909 C 285.388 85.491,285.278 85.425,285.284 85.739 M262.852 88.130 C 262.422 88.315,262.359 88.423,262.681 88.423 C 262.963 88.423,263.501 88.291,263.877 88.130 C 264.308 87.945,264.371 87.836,264.048 87.836 C 263.766 87.836,263.228 87.968,262.852 88.130 M259.095 89.155 C 258.664 89.340,258.601 89.448,258.924 89.448 C 259.206 89.448,259.744 89.316,260.120 89.155 C 260.550 88.970,260.613 88.861,260.290 88.861 C 260.009 88.861,259.471 88.993,259.095 89.155 M286.496 93.083 C 286.600 94.586,286.741 95.880,286.809 95.958 C 287.048 96.230,286.893 93.075,286.601 91.716 C 286.391 90.735,286.361 91.120,286.496 93.083 M153.227 92.082 C 153.101 92.583,153.064 93.059,153.145 93.139 C 153.225 93.220,153.394 92.876,153.520 92.375 C 153.645 91.875,153.682 91.399,153.602 91.319 C 153.521 91.238,153.352 91.582,153.227 92.082 M250.213 91.546 C 249.783 91.731,249.720 91.839,250.043 91.839 C 250.325 91.839,250.863 91.707,251.238 91.546 C 251.669 91.361,251.732 91.252,251.409 91.252 C 251.127 91.252,250.589 91.384,250.213 91.546 M113.159 94.962 C 113.159 95.807,113.225 96.153,113.307 95.730 C 113.388 95.307,113.388 94.616,113.307 94.193 C 113.225 93.770,113.159 94.116,113.159 94.962 M112.834 99.402 C 112.834 100.623,112.895 101.123,112.971 100.512 C 113.047 99.902,113.047 98.903,112.971 98.292 C 112.895 97.681,112.834 98.181,112.834 99.402 M152.093 98.548 C 152.097 99.300,152.167 99.567,152.248 99.142 C 152.330 98.717,152.327 98.102,152.242 97.776 C 152.156 97.449,152.089 97.797,152.093 98.548 M287.076 103.843 C 287.076 107.319,287.127 108.740,287.189 107.003 C 287.251 105.265,287.251 102.421,287.189 100.683 C 287.127 98.945,287.076 100.367,287.076 103.843 M247.749 101.281 C 247.752 102.220,247.818 102.564,247.897 102.045 C 247.975 101.526,247.973 100.757,247.892 100.337 C 247.811 99.917,247.747 100.342,247.749 101.281 M151.792 103.501 C 151.792 105.474,151.848 106.281,151.917 105.295 C 151.986 104.308,151.986 102.694,151.917 101.708 C 151.848 100.722,151.792 101.529,151.792 103.501 M112.834 107.600 C 112.834 108.822,112.895 109.321,112.971 108.711 C 113.047 108.100,113.047 107.101,112.971 106.490 C 112.895 105.880,112.834 106.379,112.834 107.600 M247.749 107.430 C 247.752 108.369,247.818 108.713,247.897 108.193 C 247.975 107.674,247.973 106.906,247.892 106.485 C 247.811 106.065,247.747 106.490,247.749 107.430 M152.093 108.796 C 152.097 109.547,152.167 109.815,152.248 109.390 C 152.330 108.965,152.327 108.350,152.242 108.023 C 152.156 107.697,152.089 108.044,152.093 108.796 M113.159 112.041 C 113.159 112.886,113.225 113.232,113.307 112.810 C 113.388 112.387,113.388 111.695,113.307 111.272 C 113.225 110.850,113.159 111.196,113.159 112.041 M286.679 112.553 C 286.683 113.305,286.753 113.572,286.834 113.147 C 286.916 112.722,286.913 112.107,286.827 111.781 C 286.742 111.454,286.675 111.802,286.679 112.553 M113.487 114.774 C 113.487 115.431,113.557 115.700,113.643 115.371 C 113.729 115.043,113.729 114.505,113.643 114.176 C 113.557 113.847,113.487 114.116,113.487 114.774 M245.298 118.569 C 245.088 119.173,244.976 119.726,245.049 119.800 C 245.122 119.873,245.354 119.438,245.564 118.835 C 245.775 118.231,245.887 117.677,245.814 117.604 C 245.741 117.531,245.509 117.965,245.298 118.569 M285.397 119.214 C 285.267 119.805,285.232 120.359,285.320 120.446 C 285.407 120.533,285.576 120.113,285.696 119.513 C 285.981 118.089,285.705 117.813,285.397 119.214 M155.105 120.410 C 155.105 120.598,155.325 121.136,155.594 121.605 C 155.862 122.075,156.082 122.306,156.082 122.118 C 156.082 121.930,155.862 121.392,155.594 120.922 C 155.325 120.453,155.105 120.222,155.105 120.410 M115.173 123.655 C 115.191 124.543,115.729 126.000,115.740 125.192 C 115.746 124.816,115.618 124.202,115.457 123.826 C 115.277 123.407,115.167 123.341,115.173 123.655 M157.643 125.705 C 157.934 126.268,158.250 126.729,158.344 126.729 C 158.438 126.729,158.276 126.268,157.985 125.705 C 157.693 125.141,157.378 124.680,157.284 124.680 C 157.190 124.680,157.352 125.141,157.643 125.705 M283.215 126.767 C 283.004 127.371,282.892 127.925,282.965 127.998 C 283.038 128.071,283.270 127.637,283.480 127.033 C 283.691 126.429,283.803 125.876,283.730 125.802 C 283.657 125.729,283.425 126.164,283.215 126.767 M240.339 128.693 C 239.646 129.774,239.436 130.237,239.872 129.723 C 240.734 128.709,241.970 126.729,241.741 126.729 C 241.663 126.729,241.032 127.613,240.339 128.693 M116.181 127.412 C 116.176 127.694,116.382 128.386,116.640 128.950 C 117.244 130.269,117.253 129.655,116.652 128.096 C 116.399 127.438,116.187 127.131,116.181 127.412 M159.075 128.122 C 159.415 128.700,159.911 129.353,160.178 129.574 C 160.444 129.794,160.232 129.321,159.705 128.523 C 158.600 126.846,158.163 126.569,159.075 128.122 M281.848 130.525 C 281.638 131.128,281.526 131.682,281.599 131.755 C 281.672 131.828,281.904 131.394,282.114 130.790 C 282.324 130.187,282.437 129.633,282.364 129.560 C 282.291 129.487,282.059 129.921,281.848 130.525 M161.464 131.504 C 161.993 132.252,162.548 132.867,162.698 132.871 C 162.847 132.875,162.476 132.263,161.872 131.512 C 160.460 129.754,160.223 129.750,161.464 131.504 M234.835 135.354 L 231.768 138.514 234.927 135.447 C 237.862 132.598,238.243 132.195,237.995 132.195 C 237.944 132.195,236.522 133.617,234.835 135.354 M118.214 133.390 C 118.214 133.578,118.433 134.116,118.702 134.586 C 118.970 135.056,119.190 135.286,119.190 135.098 C 119.190 134.910,118.970 134.372,118.702 133.903 C 118.433 133.433,118.214 133.202,118.214 133.390 M165.989 136.303 C 167.599 137.905,169.453 139.571,170.111 140.005 C 171.194 140.719,171.178 140.687,169.940 139.664 C 169.189 139.044,167.334 137.378,165.818 135.963 L 163.063 133.390 165.989 136.303 M229.889 139.586 C 228.030 141.046,227.799 141.281,228.693 140.804 C 229.437 140.408,231.874 138.369,231.597 138.375 C 231.503 138.377,230.734 138.922,229.889 139.586 M277.425 140.578 C 276.853 141.834,276.962 142.102,277.581 140.960 C 277.870 140.427,278.042 139.927,277.964 139.849 C 277.886 139.771,277.644 140.099,277.425 140.578 M275.491 144.492 C 274.829 145.807,274.364 146.883,274.458 146.883 C 274.552 146.883,275.170 145.807,275.833 144.492 C 276.495 143.177,276.960 142.101,276.866 142.101 C 276.772 142.101,276.153 143.177,275.491 144.492 M222.716 143.980 C 221.119 144.806,219.931 145.490,220.076 145.499 C 220.439 145.523,225.790 142.817,225.790 142.609 C 225.790 142.378,225.935 142.313,222.716 143.980 M122.972 143.215 C 122.972 143.551,125.041 146.883,125.249 146.883 C 125.342 146.883,125.071 146.307,124.646 145.602 C 123.491 143.686,122.972 142.946,122.972 143.215 M175.235 143.293 C 175.235 143.527,177.326 144.564,177.483 144.408 C 177.557 144.333,177.081 144.017,176.426 143.705 C 175.771 143.392,175.235 143.207,175.235 143.293 M189.069 148.591 C 189.633 148.734,190.478 148.852,190.948 148.852 C 191.710 148.852,191.691 148.824,190.777 148.591 C 190.213 148.448,189.368 148.330,188.898 148.330 C 188.137 148.330,188.155 148.358,189.069 148.591 M197.708 149.527 C 198.889 149.594,200.734 149.594,201.807 149.526 C 202.880 149.459,201.913 149.404,199.658 149.405 C 197.404 149.405,196.526 149.460,197.708 149.527 M128.088 151.313 C 128.486 151.871,128.985 152.436,129.198 152.567 C 129.412 152.699,129.156 152.243,128.629 151.553 C 127.488 150.056,127.057 149.865,128.088 151.313 M271.734 151.665 C 271.442 152.229,271.280 152.690,271.374 152.690 C 271.468 152.690,271.784 152.229,272.075 151.665 C 272.367 151.102,272.528 150.640,272.434 150.640 C 272.340 150.640,272.025 151.102,271.734 151.665 M130.487 154.398 C 131.082 155.149,131.646 155.764,131.740 155.764 C 131.834 155.764,131.424 155.149,130.828 154.398 C 130.233 153.646,129.669 153.032,129.575 153.032 C 129.481 153.032,129.892 153.646,130.487 154.398 M268.488 157.814 C 267.919 158.941,267.531 159.863,267.625 159.863 C 267.719 159.863,268.261 158.941,268.830 157.814 C 269.399 156.687,269.788 155.764,269.694 155.764 C 269.600 155.764,269.058 156.687,268.488 157.814 M133.219 157.643 C 133.857 158.301,134.455 158.839,134.549 158.839 C 134.643 158.839,134.198 158.301,133.561 157.643 C 132.924 156.985,132.325 156.447,132.231 156.447 C 132.138 156.447,132.582 156.985,133.219 157.643 M135.611 160.341 C 136.976 161.815,142.101 166.502,142.101 166.277 C 142.101 166.194,140.371 164.535,138.258 162.589 C 136.144 160.643,134.953 159.631,135.611 160.341 M143.638 167.559 C 145.084 168.880,146.883 170.247,146.883 170.025 C 146.883 169.952,145.845 169.086,144.577 168.101 C 143.303 167.111,142.883 166.869,143.638 167.559 M263.365 167.720 C 262.981 168.471,262.744 169.086,262.838 169.086 C 262.932 169.086,263.323 168.471,263.706 167.720 C 264.090 166.968,264.326 166.354,264.233 166.354 C 264.139 166.354,263.748 166.968,263.365 167.720 M261.144 171.819 C 260.853 172.383,260.691 172.844,260.785 172.844 C 260.879 172.844,261.194 172.383,261.486 171.819 C 261.777 171.255,261.939 170.794,261.845 170.794 C 261.751 170.794,261.436 171.255,261.144 171.819 M149.274 171.806 C 149.744 172.199,150.436 172.681,150.811 172.876 C 151.277 173.118,151.223 173.004,150.640 172.515 C 150.171 172.122,149.479 171.640,149.103 171.445 C 148.637 171.203,148.691 171.317,149.274 171.806 M152.178 173.694 C 152.941 174.329,155.105 175.498,154.569 174.987 C 154.381 174.808,153.612 174.316,152.861 173.894 C 152.109 173.472,151.802 173.382,152.178 173.694 M259.095 175.576 C 258.803 176.140,258.642 176.601,258.736 176.601 C 258.830 176.601,259.145 176.140,259.436 175.576 C 259.728 175.013,259.889 174.552,259.796 174.552 C 259.702 174.552,259.386 175.013,259.095 175.576 M155.081 175.388 C 155.081 175.482,155.542 175.797,156.106 176.089 C 156.670 176.380,157.131 176.542,157.131 176.448 C 157.131 176.354,156.670 176.039,156.106 175.747 C 155.542 175.456,155.081 175.294,155.081 175.388 M159.670 177.931 C 159.776 178.102,160.358 178.415,160.965 178.626 C 162.244 179.072,161.857 178.633,160.439 178.030 C 159.911 177.805,159.565 177.761,159.670 177.931 M162.938 179.505 C 163.407 179.773,163.945 179.993,164.133 179.993 C 164.321 179.993,164.091 179.773,163.621 179.505 C 163.151 179.236,162.613 179.017,162.425 179.017 C 162.237 179.017,162.468 179.236,162.938 179.505 M256.704 180.017 C 256.412 180.581,256.251 181.042,256.345 181.042 C 256.438 181.042,256.754 180.581,257.045 180.017 C 257.337 179.453,257.498 178.992,257.404 178.992 C 257.310 178.992,256.995 179.453,256.704 180.017 M255.167 182.750 C 254.783 183.501,254.546 184.116,254.640 184.116 C 254.734 184.116,255.125 183.501,255.508 182.750 C 255.891 181.998,256.128 181.383,256.034 181.383 C 255.940 181.383,255.550 181.998,255.167 182.750 M171.819 182.921 C 173.379 183.521,173.992 183.512,172.673 182.908 C 172.109 182.650,171.418 182.444,171.136 182.450 C 170.854 182.455,171.161 182.667,171.819 182.921 M180.017 185.141 C 180.487 185.291,181.178 185.414,181.554 185.414 C 182.095 185.414,182.060 185.357,181.383 185.141 C 180.914 184.990,180.222 184.867,179.846 184.867 C 179.305 184.867,179.341 184.924,180.017 185.141 M253.288 186.166 C 252.996 186.729,252.835 187.190,252.929 187.190 C 253.023 187.190,253.338 186.729,253.629 186.166 C 253.921 185.602,254.082 185.141,253.989 185.141 C 253.895 185.141,253.579 185.602,253.288 186.166 M185.401 186.066 C 185.826 186.147,186.441 186.144,186.767 186.059 C 187.094 185.973,186.746 185.906,185.995 185.910 C 185.243 185.914,184.976 185.984,185.401 186.066 M187.959 186.401 C 188.288 186.487,188.826 186.487,189.155 186.401 C 189.483 186.315,189.214 186.245,188.557 186.245 C 187.899 186.245,187.630 186.315,187.959 186.401 M192.549 187.515 C 194.326 188.599,194.831 190.349,194.001 192.548 C 193.718 193.297,193.728 193.420,194.049 193.103 C 195.575 191.594,193.959 186.844,191.921 186.850 C 191.668 186.851,191.950 187.150,192.549 187.515 M192.893 194.880 C 192.581 195.536,192.396 196.072,192.482 196.072 C 192.716 196.072,193.752 193.980,193.596 193.824 C 193.522 193.750,193.206 194.225,192.893 194.880 M248.335 195.047 C 247.951 195.798,247.715 196.413,247.808 196.413 C 247.902 196.413,248.293 195.798,248.676 195.047 C 249.060 194.295,249.297 193.681,249.203 193.681 C 249.109 193.681,248.718 194.295,248.335 195.047 M246.798 197.780 C 246.506 198.343,246.345 198.804,246.438 198.804 C 246.532 198.804,246.848 198.343,247.139 197.780 C 247.431 197.216,247.592 196.755,247.498 196.755 C 247.404 196.755,247.089 197.216,246.798 197.780 M245.431 200.171 C 245.140 200.734,244.978 201.196,245.072 201.196 C 245.166 201.196,245.481 200.734,245.773 200.171 C 246.064 199.607,246.226 199.146,246.132 199.146 C 246.038 199.146,245.723 199.607,245.431 200.171 M189.069 201.879 C 188.778 202.442,188.616 202.904,188.710 202.904 C 188.804 202.904,189.119 202.442,189.411 201.879 C 189.702 201.315,189.864 200.854,189.770 200.854 C 189.676 200.854,189.361 201.315,189.069 201.879 M243.382 203.928 C 243.090 204.492,242.929 204.953,243.023 204.953 C 243.117 204.953,243.432 204.492,243.723 203.928 C 244.015 203.365,244.176 202.904,244.082 202.904 C 243.989 202.904,243.673 203.365,243.382 203.928 M187.772 204.184 C 187.694 204.325,187.198 205.209,186.671 206.149 C 186.143 207.088,185.870 207.703,186.064 207.515 C 186.558 207.036,188.320 203.928,188.097 203.928 C 187.996 203.928,187.850 204.044,187.772 204.184 M241.503 207.344 C 241.120 208.096,240.883 208.711,240.977 208.711 C 241.071 208.711,241.461 208.096,241.845 207.344 C 242.228 206.593,242.465 205.978,242.371 205.978 C 242.277 205.978,241.886 206.593,241.503 207.344 M239.624 210.760 C 239.333 211.324,239.171 211.785,239.265 211.785 C 239.359 211.785,239.674 211.324,239.966 210.760 C 240.257 210.196,240.419 209.735,240.325 209.735 C 240.231 209.735,239.916 210.196,239.624 210.760 M236.892 215.884 C 236.416 216.823,236.103 217.592,236.197 217.592 C 236.291 217.592,236.757 216.823,237.233 215.884 C 237.709 214.944,238.022 214.176,237.928 214.176 C 237.834 214.176,237.368 214.944,236.892 215.884 M180.529 216.909 C 180.238 217.472,180.076 217.933,180.170 217.933 C 180.264 217.933,180.580 217.472,180.871 216.909 C 181.163 216.345,181.324 215.884,181.230 215.884 C 181.136 215.884,180.821 216.345,180.529 216.909 M233.988 221.349 C 233.605 222.101,233.368 222.716,233.462 222.716 C 233.556 222.716,233.946 222.101,234.330 221.349 C 234.713 220.598,234.950 219.983,234.856 219.983 C 234.762 219.983,234.371 220.598,233.988 221.349 M176.260 224.424 C 175.876 225.175,175.639 225.790,175.733 225.790 C 175.827 225.790,176.218 225.175,176.601 224.424 C 176.985 223.672,177.221 223.057,177.127 223.057 C 177.034 223.057,176.643 223.672,176.260 224.424 M174.722 227.156 C 174.431 227.720,174.269 228.181,174.363 228.181 C 174.457 228.181,174.773 227.720,175.064 227.156 C 175.356 226.593,175.517 226.132,175.423 226.132 C 175.329 226.132,175.014 226.593,174.722 227.156 M227.839 232.963 C 227.270 234.091,226.882 235.013,226.976 235.013 C 227.070 235.013,227.612 234.091,228.181 232.963 C 228.750 231.836,229.139 230.914,229.045 230.914 C 228.951 230.914,228.408 231.836,227.839 232.963 M170.623 234.330 C 170.332 234.893,170.170 235.354,170.264 235.354 C 170.358 235.354,170.674 234.893,170.965 234.330 C 171.256 233.766,171.418 233.305,171.324 233.305 C 171.230 233.305,170.915 233.766,170.623 234.330 M224.936 238.429 C 224.644 238.992,224.483 239.453,224.577 239.453 C 224.671 239.453,224.986 238.992,225.278 238.429 C 225.569 237.865,225.731 237.404,225.637 237.404 C 225.543 237.404,225.227 237.865,224.936 238.429 M167.891 239.112 C 167.599 239.675,167.438 240.137,167.532 240.137 C 167.625 240.137,167.941 239.675,168.232 239.112 C 168.524 238.548,168.685 238.087,168.591 238.087 C 168.497 238.087,168.182 238.548,167.891 239.112 M223.399 241.161 C 223.015 241.913,222.779 242.528,222.873 242.528 C 222.966 242.528,223.357 241.913,223.740 241.161 C 224.124 240.410,224.361 239.795,224.267 239.795 C 224.173 239.795,223.782 240.410,223.399 241.161 M164.665 244.791 C 164.264 245.472,163.990 246.086,164.059 246.154 C 164.127 246.222,164.527 245.664,164.948 244.915 C 165.905 243.213,165.660 243.106,164.665 244.791 M221.008 245.602 C 220.624 246.354,220.387 246.968,220.481 246.968 C 220.575 246.968,220.966 246.354,221.349 245.602 C 221.733 244.851,221.969 244.236,221.876 244.236 C 221.782 244.236,221.391 244.851,221.008 245.602 M218.617 250.043 C 218.048 251.170,217.659 252.092,217.753 252.092 C 217.847 252.092,218.389 251.170,218.958 250.043 C 219.527 248.915,219.916 247.993,219.822 247.993 C 219.728 247.993,219.186 248.915,218.617 250.043 M162.084 249.360 C 161.792 249.923,161.631 250.384,161.725 250.384 C 161.818 250.384,162.134 249.923,162.425 249.360 C 162.717 248.796,162.878 248.335,162.784 248.335 C 162.690 248.335,162.375 248.796,162.084 249.360 M160.786 251.665 C 159.106 254.698,158.122 256.632,158.398 256.362 C 158.878 255.892,161.332 251.409,161.108 251.409 C 161.009 251.409,160.865 251.524,160.786 251.665 M216.567 253.800 C 216.184 254.552,215.947 255.167,216.041 255.167 C 216.135 255.167,216.525 254.552,216.909 253.800 C 217.292 253.049,217.529 252.434,217.435 252.434 C 217.341 252.434,216.950 253.049,216.567 253.800 M214.347 257.899 C 214.055 258.463,213.894 258.924,213.988 258.924 C 214.082 258.924,214.397 258.463,214.688 257.899 C 214.980 257.336,215.141 256.874,215.047 256.874 C 214.953 256.874,214.638 257.336,214.347 257.899 M211.956 262.340 C 211.480 263.279,211.167 264.048,211.261 264.048 C 211.355 264.048,211.821 263.279,212.297 262.340 C 212.773 261.401,213.086 260.632,212.992 260.632 C 212.898 260.632,212.432 261.401,211.956 262.340 M153.715 264.389 C 153.331 265.141,153.095 265.756,153.189 265.756 C 153.282 265.756,153.673 265.141,154.056 264.389 C 154.440 263.638,154.677 263.023,154.583 263.023 C 154.489 263.023,154.098 263.638,153.715 264.389 M209.735 266.439 C 209.352 267.190,209.115 267.805,209.209 267.805 C 209.303 267.805,209.693 267.190,210.077 266.439 C 210.460 265.687,210.697 265.073,210.603 265.073 C 210.509 265.073,210.119 265.687,209.735 266.439 M152.007 267.464 C 151.623 268.215,151.387 268.830,151.481 268.830 C 151.575 268.830,151.965 268.215,152.348 267.464 C 152.732 266.712,152.969 266.097,152.875 266.097 C 152.781 266.097,152.390 266.712,152.007 267.464 M164.364 270.111 C 171.442 270.162,183.125 270.162,190.325 270.111 C 197.525 270.059,191.734 270.017,177.455 270.017 C 163.177 270.017,157.286 270.059,164.364 270.111 M199.644 281.213 C 199.554 281.447,199.522 288.941,199.573 297.865 L 199.665 314.091 199.747 297.637 C 199.811 284.857,199.925 281.146,200.256 281.012 C 200.591 280.877,200.588 280.834,200.245 280.813 C 200.005 280.798,199.734 280.978,199.644 281.213 M204.603 281.011 C 204.819 281.118,204.953 283.173,204.953 286.382 C 204.953 291.458,205.134 292.400,206.111 292.400 C 206.298 292.400,206.192 292.208,205.878 291.973 C 205.393 291.611,205.291 290.739,205.215 286.279 C 205.147 282.343,205.014 280.990,204.688 280.925 C 204.449 280.876,204.410 280.915,204.603 281.011 M247.135 300.769 L 247.139 320.922 249.872 320.922 L 252.605 320.922 252.609 302.306 L 252.613 283.689 252.521 302.220 L 252.428 320.751 249.872 320.751 L 247.315 320.751 247.223 300.683 L 247.131 280.615 247.135 300.769 M251.345 282.077 C 251.850 282.600,252.328 282.983,252.407 282.930 C 252.604 282.796,251.012 281.127,250.688 281.127 C 250.545 281.127,250.841 281.555,251.345 282.077 M234.415 281.713 C 234.932 281.792,235.777 281.792,236.294 281.713 C 236.810 281.635,236.388 281.571,235.354 281.571 C 234.321 281.571,233.898 281.635,234.415 281.713 M232.421 282.278 C 232.322 282.535,232.291 283.573,232.352 284.584 L 232.462 286.422 232.627 284.115 C 232.794 281.794,232.751 281.417,232.421 282.278 M238.535 284.372 C 238.536 285.500,238.600 285.920,238.676 285.306 C 238.752 284.692,238.751 283.769,238.673 283.256 C 238.595 282.743,238.533 283.245,238.535 284.372 M232.926 287.036 C 233.077 287.185,234.338 287.261,235.729 287.203 L 238.258 287.099 235.455 286.931 C 233.914 286.839,232.776 286.886,232.926 287.036 M142.528 291.610 C 142.857 291.696,143.395 291.696,143.723 291.610 C 144.052 291.524,143.783 291.454,143.126 291.454 C 142.468 291.454,142.199 291.524,142.528 291.610 M211.187 291.624 C 211.892 291.697,213.044 291.697,213.749 291.624 C 214.453 291.550,213.877 291.490,212.468 291.490 C 211.059 291.490,210.482 291.550,211.187 291.624 M174.039 292.058 C 173.169 292.432,174.067 292.432,175.235 292.058 C 175.921 291.838,175.955 291.783,175.406 291.775 C 175.030 291.769,174.415 291.897,174.039 292.058 M183.461 291.839 C 183.540 291.907,184.065 292.065,184.629 292.191 C 185.377 292.359,185.515 292.327,185.141 292.074 C 184.680 291.762,183.119 291.544,183.461 291.839 M207.600 291.958 C 208.023 292.039,208.715 292.039,209.137 291.958 C 209.560 291.876,209.214 291.810,208.369 291.810 C 207.523 291.810,207.178 291.876,207.600 291.958 M267.976 292.058 C 267.106 292.432,268.004 292.432,269.172 292.058 C 269.858 291.838,269.892 291.783,269.342 291.775 C 268.967 291.769,268.352 291.897,267.976 292.058 M232.776 292.489 C 232.685 292.726,232.652 297.376,232.702 302.822 L 232.793 312.724 232.964 302.391 C 233.057 296.708,233.091 292.058,233.038 292.058 C 232.985 292.058,232.867 292.252,232.776 292.489 M238.009 306.378 C 238.091 319.031,238.040 320.718,237.575 320.861 C 237.195 320.978,237.217 321.008,237.653 320.968 C 238.292 320.910,238.814 292.058,238.176 292.058 C 238.033 292.058,237.958 298.502,238.009 306.378 M133.892 293.219 C 134.304 293.403,135.023 293.395,135.692 293.199 C 136.732 292.894,136.687 292.873,135.006 292.892 C 133.650 292.907,133.376 292.988,133.892 293.219 M264.475 293.743 C 263.714 294.295,262.974 294.948,262.831 295.195 C 262.688 295.442,262.942 295.315,263.395 294.912 C 263.848 294.509,264.757 293.856,265.414 293.462 C 266.072 293.067,266.441 292.743,266.234 292.743 C 266.027 292.742,265.236 293.192,264.475 293.743 M280.102 292.881 C 280.102 292.983,280.573 293.309,281.148 293.606 C 281.722 293.903,282.837 294.708,283.624 295.394 L 285.056 296.641 283.932 295.430 C 282.898 294.315,280.102 292.455,280.102 292.881 M155.770 294.468 C 156.431 295.115,157.249 296.029,157.587 296.499 C 158.014 297.093,157.992 296.989,157.514 296.157 C 157.136 295.500,156.319 294.586,155.698 294.126 L 154.569 293.291 155.770 294.468 M189.350 294.485 C 190.068 295.123,191.120 296.183,191.688 296.840 C 192.556 297.845,192.612 297.873,192.036 297.011 C 191.335 295.960,189.940 294.600,188.728 293.785 C 188.352 293.532,188.632 293.847,189.350 294.485 M112.537 307.430 C 112.537 314.287,112.583 317.092,112.638 313.664 C 112.694 310.235,112.694 304.624,112.638 301.196 C 112.583 297.767,112.537 300.572,112.537 307.430 M262.085 296.243 C 261.602 296.853,260.922 298.207,261.099 298.207 C 261.181 298.207,261.565 297.669,261.953 297.011 C 262.658 295.816,262.723 295.437,262.085 296.243 M146.285 296.402 C 146.802 296.480,147.647 296.480,148.164 296.402 C 148.681 296.324,148.258 296.259,147.225 296.259 C 146.191 296.259,145.769 296.324,146.285 296.402 M210.845 296.406 C 211.550 296.480,212.703 296.480,213.407 296.406 C 214.112 296.332,213.535 296.272,212.126 296.272 C 210.717 296.272,210.141 296.332,210.845 296.406 M271.307 296.393 C 271.635 296.479,272.173 296.479,272.502 296.393 C 272.831 296.307,272.562 296.236,271.904 296.236 C 271.247 296.236,270.978 296.307,271.307 296.393 M274.039 296.393 C 274.368 296.479,274.906 296.479,275.235 296.393 C 275.564 296.307,275.295 296.236,274.637 296.236 C 273.980 296.236,273.711 296.307,274.039 296.393 M122.032 296.743 C 122.549 296.822,123.395 296.822,123.911 296.743 C 124.428 296.665,124.005 296.601,122.972 296.601 C 121.939 296.601,121.516 296.665,122.032 296.743 M128.266 296.816 C 130.004 297.112,130.913 297.614,131.858 298.799 C 132.517 299.626,132.549 299.638,132.112 298.890 C 131.332 297.556,129.529 296.493,128.131 296.541 L 126.900 296.584 128.266 296.816 M143.211 296.734 C 143.540 296.820,144.078 296.820,144.406 296.734 C 144.735 296.648,144.466 296.578,143.809 296.578 C 143.151 296.578,142.882 296.648,143.211 296.734 M166.004 298.103 C 165.445 298.985,164.989 299.869,164.991 300.067 C 164.994 300.265,165.390 299.736,165.873 298.891 C 166.356 298.046,166.911 297.163,167.106 296.927 C 167.302 296.691,167.363 296.499,167.242 296.499 C 167.121 296.499,166.564 297.221,166.004 298.103 M268.981 297.030 C 268.328 297.553,268.329 297.556,269.001 297.247 C 269.377 297.074,269.915 296.847,270.196 296.743 C 270.639 296.579,270.636 296.549,270.176 296.526 C 269.883 296.511,269.345 296.738,268.981 297.030 M277.028 297.043 C 277.686 297.328,278.684 297.975,279.247 298.482 L 280.271 299.402 279.418 298.430 C 278.517 297.404,277.020 296.490,276.277 296.512 C 276.032 296.519,276.371 296.758,277.028 297.043 M151.095 297.306 C 151.439 297.583,151.947 298.091,152.224 298.435 C 152.692 299.017,152.702 299.007,152.359 298.300 C 152.157 297.881,151.649 297.373,151.230 297.171 C 150.523 296.828,150.514 296.838,151.095 297.306 M285.192 297.353 C 285.768 298.467,286.241 299.085,286.238 298.719 C 286.237 298.531,285.922 297.993,285.537 297.523 C 285.073 296.956,284.957 296.899,285.192 297.353 M118.263 308.369 C 118.336 319.510,118.449 318.251,118.615 304.440 C 118.663 300.448,118.587 297.181,118.446 297.182 C 118.305 297.182,118.223 302.216,118.263 308.369 M172.862 298.073 C 172.280 298.563,171.643 299.293,171.447 299.695 C 171.156 300.291,171.217 300.269,171.776 299.574 C 172.153 299.105,172.893 298.376,173.421 297.953 C 173.949 297.531,174.277 297.185,174.151 297.184 C 174.024 297.183,173.445 297.583,172.862 298.073 M205.119 297.950 C 205.015 298.373,204.977 301.640,205.035 305.209 L 205.140 311.699 205.217 304.851 C 205.271 300.071,205.418 297.878,205.705 297.592 C 206.016 297.280,206.018 297.182,205.711 297.182 C 205.489 297.182,205.223 297.528,205.119 297.950 M217.421 297.581 C 217.797 297.788,218.419 298.206,218.804 298.510 C 219.189 298.813,219.071 298.638,218.542 298.121 C 218.014 297.605,217.391 297.187,217.159 297.192 C 216.928 297.198,217.045 297.373,217.421 297.581 M138.136 298.007 C 138.034 298.273,138.016 298.926,138.096 299.459 C 138.221 300.292,138.248 300.252,138.292 299.174 C 138.320 298.486,138.535 297.844,138.770 297.750 C 139.105 297.615,139.102 297.572,138.760 297.550 C 138.519 297.536,138.238 297.741,138.136 298.007 M267.398 298.121 C 266.796 298.822,266.345 299.573,266.525 299.573 C 266.595 299.573,266.993 299.112,267.410 298.548 C 268.233 297.435,268.225 297.158,267.398 298.121 M152.898 300.085 C 153.179 301.341,153.375 301.614,153.368 300.740 C 153.365 300.380,153.207 299.855,153.016 299.573 C 152.763 299.199,152.731 299.337,152.898 300.085 M260.144 300.110 C 260.018 300.610,259.981 301.086,260.062 301.166 C 260.142 301.247,260.311 300.903,260.437 300.403 C 260.562 299.902,260.599 299.427,260.519 299.346 C 260.438 299.265,260.270 299.609,260.144 300.110 M220.018 300.322 C 220.238 300.733,220.538 301.464,220.684 301.944 C 220.860 302.525,220.959 302.612,220.978 302.203 C 221.008 301.574,220.105 299.573,219.791 299.573 C 219.696 299.573,219.798 299.910,220.018 300.322 M225.848 299.915 C 225.865 300.802,226.403 302.260,226.415 301.452 C 226.421 301.076,226.293 300.461,226.132 300.085 C 225.952 299.667,225.842 299.601,225.848 299.915 M158.944 301.793 C 158.946 302.921,159.010 303.341,159.086 302.727 C 159.162 302.113,159.161 301.190,159.083 300.677 C 159.005 300.164,158.943 300.666,158.944 301.793 M138.460 303.501 C 138.462 305.004,138.522 305.577,138.594 304.773 C 138.666 303.970,138.665 302.740,138.592 302.041 C 138.518 301.341,138.459 301.998,138.460 303.501 M132.980 302.989 C 132.980 304.022,133.044 304.445,133.123 303.928 C 133.201 303.412,133.201 302.566,133.123 302.050 C 133.044 301.533,132.980 301.956,132.980 302.989 M170.282 302.306 C 170.152 302.896,170.117 303.451,170.204 303.538 C 170.291 303.625,170.461 303.205,170.581 302.605 C 170.865 301.181,170.590 300.905,170.282 302.306 M153.536 311.187 L 153.544 320.922 156.106 320.944 L 158.668 320.965 156.197 320.844 L 153.725 320.723 153.626 311.087 L 153.527 301.452 153.536 311.187 M164.181 302.378 C 164.066 302.808,163.985 303.467,164.001 303.843 C 164.018 304.219,164.172 303.926,164.344 303.194 C 164.677 301.774,164.534 301.059,164.181 302.378 M188.465 305.209 C 188.546 306.900,188.665 308.437,188.729 308.625 C 188.970 309.339,188.818 303.802,188.574 302.989 C 188.432 302.519,188.383 303.518,188.465 305.209 M226.596 305.380 C 226.596 307.165,226.654 307.895,226.724 307.003 C 226.795 306.110,226.795 304.650,226.724 303.757 C 226.654 302.865,226.596 303.595,226.596 305.380 M287.374 304.184 C 287.376 305.124,287.442 305.468,287.521 304.948 C 287.599 304.429,287.597 303.661,287.516 303.240 C 287.435 302.820,287.371 303.245,287.374 304.184 M221.123 305.380 C 221.123 306.789,221.183 307.365,221.257 306.661 C 221.330 305.956,221.330 304.804,221.257 304.099 C 221.183 303.395,221.123 303.971,221.123 305.380 M259.359 304.697 C 259.359 305.542,259.425 305.888,259.507 305.465 C 259.588 305.043,259.588 304.351,259.507 303.928 C 259.425 303.506,259.359 303.851,259.359 304.697 M281.496 303.940 L 281.469 304.721 273.441 304.623 C 269.026 304.570,265.414 304.641,265.414 304.782 C 265.414 304.923,269.031 305.038,273.452 305.038 C 281.812 305.038,282.247 304.962,281.699 303.598 C 281.602 303.357,281.511 303.511,281.496 303.940 M194.481 306.917 C 194.482 308.420,194.542 308.993,194.614 308.189 C 194.687 307.386,194.685 306.156,194.612 305.456 C 194.539 304.757,194.480 305.414,194.481 306.917 M169.849 305.722 C 169.849 306.379,169.919 306.648,170.005 306.319 C 170.091 305.991,170.091 305.453,170.005 305.124 C 169.919 304.795,169.849 305.064,169.849 305.722 M286.596 307.082 C 286.397 307.454,285.815 307.986,285.303 308.263 C 284.791 308.541,284.530 308.775,284.723 308.782 C 285.262 308.803,286.546 307.814,286.944 307.070 C 287.140 306.704,287.223 306.405,287.129 306.405 C 287.035 306.405,286.795 306.709,286.596 307.082 M259.359 308.796 C 259.359 309.641,259.425 309.987,259.507 309.564 C 259.588 309.142,259.588 308.450,259.507 308.027 C 259.425 307.605,259.359 307.950,259.359 308.796 M163.986 309.166 C 164.000 309.620,164.150 310.299,164.320 310.675 C 164.536 311.151,164.566 310.944,164.421 309.991 C 164.180 308.405,163.952 307.972,163.986 309.166 M170.185 309.137 C 170.182 309.607,170.302 310.376,170.453 310.845 C 170.820 311.994,170.820 310.753,170.453 309.308 C 170.218 308.388,170.191 308.370,170.185 309.137 M281.387 309.379 C 281.812 309.461,282.427 309.458,282.754 309.372 C 283.080 309.287,282.733 309.220,281.981 309.224 C 281.230 309.227,280.963 309.297,281.387 309.379 M133.036 315.200 L 133.049 320.922 135.781 320.922 L 138.514 320.922 138.532 316.994 L 138.551 313.066 138.436 316.909 L 138.321 320.751 135.778 320.751 L 133.236 320.751 133.130 315.115 L 133.023 309.478 133.036 315.200 M265.414 310.504 C 265.414 311.067,265.474 311.529,265.546 311.529 C 265.619 311.529,265.746 311.067,265.829 310.504 C 265.911 309.940,265.852 309.479,265.697 309.479 C 265.541 309.479,265.414 309.940,265.414 310.504 M158.970 316.311 C 158.970 318.659,159.025 319.620,159.092 318.446 C 159.158 317.272,159.158 315.350,159.092 314.176 C 159.025 313.002,158.970 313.962,158.970 316.311 M165.011 312.724 C 165.011 312.912,165.231 313.450,165.500 313.920 C 165.768 314.389,165.988 314.620,165.988 314.432 C 165.988 314.244,165.768 313.706,165.500 313.237 C 165.231 312.767,165.011 312.536,165.011 312.724 M205.316 313.317 C 205.304 313.642,205.717 314.341,206.234 314.870 C 206.751 315.399,206.914 315.516,206.596 315.132 C 206.279 314.747,205.866 314.048,205.678 313.578 C 205.444 312.990,205.331 312.909,205.316 313.317 M186.323 313.942 C 186.199 314.143,185.475 314.757,184.714 315.309 C 183.953 315.860,183.487 316.311,183.679 316.311 C 184.072 316.311,187.152 313.614,186.784 313.592 C 186.654 313.584,186.446 313.742,186.323 313.942 M218.660 314.379 C 218.451 314.632,217.662 315.117,216.907 315.458 C 216.153 315.798,215.599 316.140,215.676 316.217 C 215.894 316.434,218.435 315.063,218.937 314.457 C 219.183 314.162,219.307 313.920,219.213 313.920 C 219.119 313.920,218.870 314.127,218.660 314.379 M232.359 315.286 C 232.359 315.944,232.430 316.213,232.516 315.884 C 232.601 315.555,232.601 315.017,232.516 314.688 C 232.430 314.360,232.359 314.629,232.359 315.286 M282.664 315.628 C 282.234 315.813,282.171 315.921,282.494 315.921 C 282.775 315.921,283.313 315.789,283.689 315.628 C 284.120 315.443,284.183 315.334,283.860 315.334 C 283.578 315.334,283.040 315.466,282.664 315.628 M285.336 317.336 C 285.336 318.557,285.398 319.056,285.473 318.446 C 285.549 317.835,285.549 316.836,285.473 316.225 C 285.398 315.615,285.336 316.114,285.336 317.336 M200.171 315.752 C 200.171 316.702,203.726 320.068,204.730 320.068 C 204.926 320.068,204.379 319.619,203.513 319.070 C 202.648 318.522,201.542 317.487,201.055 316.771 C 200.569 316.055,200.171 315.596,200.171 315.752 M177.875 316.899 C 178.481 316.974,179.557 316.976,180.266 316.902 C 180.974 316.828,180.478 316.766,179.163 316.765 C 177.848 316.763,177.268 316.824,177.875 316.899 M211.016 316.894 C 211.439 316.975,212.131 316.975,212.553 316.894 C 212.976 316.812,212.630 316.745,211.785 316.745 C 210.939 316.745,210.594 316.812,211.016 316.894 M276.772 316.888 C 277.101 316.974,277.639 316.974,277.968 316.888 C 278.296 316.802,278.027 316.732,277.370 316.732 C 276.712 316.732,276.443 316.802,276.772 316.888 M222.523 318.104 L 221.520 319.214 222.630 318.211 C 223.241 317.659,223.740 317.160,223.740 317.101 C 223.740 316.837,223.459 317.069,222.523 318.104 M273.527 317.235 C 273.950 317.317,274.641 317.317,275.064 317.235 C 275.487 317.154,275.141 317.087,274.295 317.087 C 273.450 317.087,273.104 317.154,273.527 317.235 M267.635 320.593 C 268.198 320.851,268.890 321.058,269.172 321.052 C 269.453 321.046,269.146 320.834,268.488 320.581 C 266.929 319.980,266.315 319.989,267.635 320.593 M116.311 320.751 L 114.603 320.986 116.205 321.039 C 117.087 321.069,117.903 320.939,118.019 320.751 C 118.135 320.564,118.182 320.434,118.124 320.464 C 118.066 320.493,117.250 320.623,116.311 320.751 M184.287 320.751 C 183.856 320.937,183.793 321.045,184.116 321.045 C 184.398 321.045,184.936 320.913,185.312 320.751 C 185.742 320.566,185.805 320.458,185.482 320.458 C 185.201 320.458,184.663 320.590,184.287 320.751 M206.832 320.751 C 207.208 320.913,207.746 321.045,208.027 321.045 C 208.350 321.045,208.287 320.937,207.857 320.751 C 207.481 320.590,206.943 320.458,206.661 320.458 C 206.338 320.458,206.401 320.566,206.832 320.751 M281.298 320.751 C 280.867 320.937,280.804 321.045,281.127 321.045 C 281.409 321.045,281.947 320.913,282.323 320.751 C 282.753 320.566,282.817 320.458,282.494 320.458 C 282.212 320.458,281.674 320.590,281.298 320.751 M210.504 321.338 C 211.020 321.416,211.866 321.416,212.383 321.338 C 212.899 321.259,212.477 321.195,211.443 321.195 C 210.410 321.195,209.987 321.259,210.504 321.338 M214.091 321.334 C 214.513 321.416,215.205 321.416,215.628 321.334 C 216.050 321.253,215.705 321.186,214.859 321.186 C 214.014 321.186,213.668 321.253,214.091 321.334 M178.911 321.676 C 179.336 321.758,179.951 321.755,180.277 321.669 C 180.604 321.584,180.256 321.517,179.505 321.521 C 178.753 321.525,178.486 321.595,178.911 321.676 M273.536 321.685 C 274.339 321.757,275.569 321.756,276.269 321.683 C 276.968 321.610,276.311 321.551,274.808 321.552 C 273.305 321.553,272.733 321.613,273.536 321.685 " stroke="none" fill="#74b2a4" fill-rule="evenodd"></path><path id="path7" d="M136.443 46.541 L 135.440 47.652 136.550 46.648 C 137.585 45.713,137.817 45.431,137.553 45.431 C 137.494 45.431,136.995 45.931,136.443 46.541 M247.749 104.355 C 247.752 105.295,247.818 105.638,247.897 105.119 C 247.975 104.600,247.973 103.831,247.892 103.411 C 247.811 102.991,247.747 103.416,247.749 104.355 M232.837 291.987 C 232.745 292.135,233.235 292.203,233.927 292.138 C 236.039 291.938,236.288 291.798,234.606 291.756 C 233.725 291.734,232.928 291.838,232.837 291.987 M125.282 296.740 C 125.706 296.822,126.321 296.819,126.648 296.733 C 126.974 296.648,126.627 296.581,125.875 296.585 C 125.124 296.589,124.857 296.659,125.282 296.740 M159.314 308.113 C 159.314 310.649,159.368 311.687,159.433 310.418 C 159.499 309.150,159.499 307.075,159.433 305.807 C 159.368 304.539,159.314 305.576,159.314 308.113 M138.813 309.650 C 138.813 311.716,138.870 312.518,138.938 311.431 C 139.006 310.344,139.005 308.653,138.936 307.673 C 138.868 306.694,138.812 307.583,138.813 309.650 M272.673 309.732 C 273.941 309.798,276.016 309.798,277.284 309.732 C 278.553 309.667,277.515 309.613,274.979 309.613 C 272.442 309.613,271.405 309.667,272.673 309.732 " stroke="none" fill="#80aca0" fill-rule="evenodd"></path><path id="path8" d="M198.207 20.061 C 198.911 20.135,200.064 20.135,200.769 20.061 C 201.473 19.987,200.897 19.927,199.488 19.927 C 198.079 19.927,197.502 19.987,198.207 20.061 M191.893 20.401 C 192.507 20.477,193.430 20.476,193.943 20.398 C 194.456 20.320,193.954 20.258,192.827 20.260 C 191.699 20.261,191.279 20.325,191.893 20.401 M205.038 20.398 C 205.555 20.477,206.401 20.477,206.917 20.398 C 207.434 20.320,207.011 20.256,205.978 20.256 C 204.944 20.256,204.522 20.320,205.038 20.398 M188.301 20.731 C 188.629 20.817,189.167 20.817,189.496 20.731 C 189.825 20.645,189.556 20.575,188.898 20.575 C 188.241 20.575,187.972 20.645,188.301 20.731 M209.479 20.731 C 209.808 20.817,210.346 20.817,210.675 20.731 C 211.003 20.645,210.734 20.575,210.077 20.575 C 209.419 20.575,209.150 20.645,209.479 20.731 M177.626 22.560 C 177.252 22.814,177.390 22.845,178.138 22.678 C 179.394 22.397,179.667 22.201,178.793 22.208 C 178.433 22.211,177.908 22.370,177.626 22.560 M224.458 28.557 C 224.261 29.268,224.162 29.912,224.237 29.987 C 224.312 30.062,224.535 29.542,224.731 28.830 C 224.927 28.118,225.027 27.475,224.952 27.400 C 224.876 27.324,224.654 27.845,224.458 28.557 M145.346 38.125 L 143.980 39.347 145.431 38.262 C 146.681 37.327,147.131 36.877,146.798 36.897 C 146.751 36.899,146.097 37.452,145.346 38.125 M132.344 50.299 L 131.341 51.409 132.451 50.406 C 133.486 49.471,133.718 49.189,133.454 49.189 C 133.395 49.189,132.896 49.688,132.344 50.299 M126.470 57.562 C 125.475 59.097,125.704 59.095,126.877 57.558 C 127.378 56.900,127.666 56.364,127.515 56.366 C 127.365 56.369,126.894 56.907,126.470 57.562 M197.879 58.324 C 199.155 58.390,201.154 58.389,202.320 58.323 C 203.486 58.256,202.442 58.202,200.000 58.203 C 197.558 58.203,196.603 58.258,197.879 58.324 M210.248 59.436 C 210.623 59.598,211.161 59.730,211.443 59.730 C 211.766 59.730,211.703 59.621,211.272 59.436 C 210.897 59.275,210.359 59.143,210.077 59.143 C 209.754 59.143,209.817 59.251,210.248 59.436 M171.990 66.810 L 170.965 67.691 172.075 66.956 C 172.686 66.552,173.185 66.155,173.185 66.074 C 173.185 65.818,173.041 65.907,171.990 66.810 M281.810 83.022 C 281.436 83.275,281.574 83.306,282.323 83.139 C 283.579 82.858,283.851 82.663,282.978 82.670 C 282.617 82.672,282.092 82.831,281.810 83.022 M113.578 88.130 C 113.448 88.720,113.414 89.275,113.501 89.362 C 113.588 89.449,113.757 89.029,113.877 88.429 C 114.162 87.005,113.886 86.729,113.578 88.130 M246.921 92.249 L 246.114 92.953 247.139 92.353 C 248.488 91.563,248.508 91.546,248.088 91.546 C 247.890 91.546,247.364 91.862,246.921 92.249 M287.369 95.645 C 287.369 96.490,287.435 96.836,287.517 96.413 C 287.598 95.991,287.598 95.299,287.517 94.876 C 287.435 94.453,287.369 94.799,287.369 95.645 M112.462 96.328 C 112.462 96.985,112.532 97.254,112.618 96.926 C 112.704 96.597,112.704 96.059,112.618 95.730 C 112.532 95.401,112.462 95.670,112.462 96.328 M112.173 103.501 C 112.173 105.850,112.227 106.810,112.294 105.636 C 112.361 104.462,112.361 102.541,112.294 101.366 C 112.227 100.192,112.173 101.153,112.173 103.501 M287.748 103.672 C 287.749 105.927,287.804 106.804,287.871 105.623 C 287.938 104.441,287.937 102.597,287.869 101.524 C 287.802 100.451,287.747 101.418,287.748 103.672 M247.419 104.526 C 247.419 105.747,247.481 106.247,247.557 105.636 C 247.633 105.026,247.633 104.026,247.557 103.416 C 247.481 102.805,247.419 103.305,247.419 104.526 M112.462 111.016 C 112.462 111.674,112.532 111.943,112.618 111.614 C 112.704 111.285,112.704 110.747,112.618 110.418 C 112.532 110.090,112.462 110.359,112.462 111.016 M286.105 118.726 C 285.979 119.227,285.942 119.702,286.023 119.783 C 286.103 119.863,286.272 119.520,286.397 119.019 C 286.523 118.519,286.560 118.043,286.480 117.963 C 286.399 117.882,286.230 118.226,286.105 118.726 M243.266 122.132 C 242.694 123.389,242.803 123.657,243.422 122.515 C 243.711 121.981,243.884 121.481,243.806 121.403 C 243.727 121.325,243.485 121.653,243.266 122.132 M233.476 135.862 C 231.973 137.298,231.358 137.995,232.109 137.411 C 233.444 136.374,236.675 133.204,236.365 133.235 C 236.279 133.244,234.979 134.426,233.476 135.862 M165.500 135.220 C 166.439 136.214,167.515 137.191,167.891 137.390 C 168.266 137.590,168.497 137.686,168.403 137.604 C 168.309 137.522,167.233 136.545,166.012 135.433 L 163.792 133.411 165.500 135.220 M117.872 134.073 C 117.872 134.261,118.092 134.799,118.360 135.269 C 118.629 135.739,118.849 135.969,118.849 135.781 C 118.849 135.594,118.629 135.056,118.360 134.586 C 118.092 134.116,117.872 133.886,117.872 134.073 M118.897 136.465 C 118.897 136.652,119.117 137.190,119.385 137.660 C 119.654 138.130,119.873 138.360,119.873 138.173 C 119.873 137.985,119.654 137.447,119.385 136.977 C 119.117 136.507,118.897 136.277,118.897 136.465 M223.313 142.979 C 221.989 143.698,222.139 143.946,223.484 143.262 C 224.772 142.607,225.000 142.437,224.566 142.456 C 224.394 142.464,223.830 142.699,223.313 142.979 M188.728 147.908 C 189.103 148.069,189.641 148.201,189.923 148.201 C 190.246 148.201,190.183 148.093,189.752 147.908 C 189.377 147.746,188.839 147.614,188.557 147.614 C 188.234 147.614,188.297 147.723,188.728 147.908 M209.564 147.908 C 209.134 148.093,209.071 148.201,209.394 148.201 C 209.675 148.201,210.213 148.069,210.589 147.908 C 211.020 147.723,211.083 147.614,210.760 147.614 C 210.478 147.614,209.940 147.746,209.564 147.908 M195.132 148.826 C 195.461 148.912,195.999 148.912,196.328 148.826 C 196.657 148.740,196.388 148.670,195.730 148.670 C 195.073 148.670,194.804 148.740,195.132 148.826 M202.989 148.826 C 203.318 148.912,203.856 148.912,204.184 148.826 C 204.513 148.740,204.244 148.670,203.587 148.670 C 202.929 148.670,202.660 148.740,202.989 148.826 M198.719 149.180 C 199.330 149.255,200.329 149.255,200.939 149.180 C 201.550 149.104,201.050 149.042,199.829 149.042 C 198.608 149.042,198.108 149.104,198.719 149.180 M136.708 162.077 C 138.532 163.942,140.070 165.399,140.125 165.313 C 140.180 165.228,138.688 163.702,136.808 161.921 L 133.390 158.685 136.708 162.077 M160.888 179.163 C 161.358 179.432,161.896 179.651,162.084 179.651 C 162.272 179.651,162.041 179.432,161.571 179.163 C 161.102 178.895,160.564 178.675,160.376 178.675 C 160.188 178.675,160.418 178.895,160.888 179.163 M180.700 185.824 C 181.868 186.198,182.766 186.198,181.896 185.824 C 181.520 185.663,180.905 185.535,180.529 185.541 C 179.980 185.549,180.014 185.604,180.700 185.824 M193.395 192.500 C 192.822 193.756,192.931 194.024,193.550 192.882 C 193.839 192.349,194.012 191.848,193.934 191.770 C 193.856 191.692,193.613 192.020,193.395 192.500 M188.879 201.109 C 188.108 202.648,188.119 202.800,188.915 201.608 C 189.329 200.990,189.596 200.413,189.509 200.326 C 189.422 200.239,189.139 200.591,188.879 201.109 M238.258 214.518 C 237.966 215.081,237.805 215.542,237.899 215.542 C 237.993 215.542,238.308 215.081,238.599 214.518 C 238.891 213.954,239.053 213.493,238.959 213.493 C 238.865 213.493,238.549 213.954,238.258 214.518 M171.307 231.939 C 171.015 232.502,170.854 232.963,170.947 232.963 C 171.041 232.963,171.357 232.502,171.648 231.939 C 171.940 231.375,172.101 230.914,172.007 230.914 C 171.913 230.914,171.598 231.375,171.307 231.939 M165.329 242.528 C 164.945 243.279,164.709 243.894,164.803 243.894 C 164.896 243.894,165.287 243.279,165.670 242.528 C 166.054 241.776,166.291 241.161,166.197 241.161 C 166.103 241.161,165.712 241.776,165.329 242.528 M160.717 250.726 C 160.426 251.289,160.264 251.751,160.358 251.751 C 160.452 251.751,160.767 251.289,161.059 250.726 C 161.350 250.162,161.512 249.701,161.418 249.701 C 161.324 249.701,161.009 250.162,160.717 250.726 M193.766 270.793 C 196.349 270.851,200.576 270.851,203.160 270.793 C 205.743 270.735,203.629 270.688,198.463 270.688 C 193.296 270.688,191.183 270.735,193.766 270.793 M199.214 280.512 C 198.905 280.822,198.824 284.934,198.885 297.336 L 198.965 313.749 199.141 297.182 L 199.317 280.615 202.220 280.422 L 205.124 280.230 202.374 280.166 C 200.611 280.125,199.477 280.250,199.214 280.512 M246.842 280.373 C 246.750 280.521,247.202 280.581,247.846 280.506 C 248.491 280.431,249.018 280.309,249.018 280.236 C 249.018 279.979,247.007 280.105,246.842 280.373 M232.162 281.383 C 232.075 281.524,232.719 281.594,233.594 281.538 C 236.088 281.377,236.391 281.210,234.264 281.167 C 233.195 281.145,232.249 281.243,232.162 281.383 M205.711 286.678 L 205.636 291.716 206.746 291.665 C 207.766 291.618,207.781 291.603,206.926 291.473 L 205.996 291.331 205.891 286.485 L 205.787 281.640 205.711 286.678 M253.033 297.129 C 253.081 304.767,253.162 313.322,253.213 316.140 C 253.265 318.958,253.339 312.886,253.378 302.647 C 253.416 292.408,253.335 283.853,253.197 283.636 C 253.059 283.419,252.985 289.490,253.033 297.129 M235.103 287.863 C 235.622 287.941,236.391 287.939,236.811 287.858 C 237.231 287.777,236.806 287.713,235.867 287.715 C 234.927 287.718,234.584 287.784,235.103 287.863 M124.092 290.943 C 124.990 291.014,126.374 291.013,127.167 290.941 C 127.959 290.870,127.225 290.812,125.534 290.813 C 123.843 290.814,123.194 290.873,124.092 290.943 M144.246 290.943 C 145.144 291.014,146.528 291.013,147.320 290.941 C 148.113 290.870,147.378 290.812,145.687 290.813 C 143.997 290.814,143.348 290.873,144.246 290.943 M178.224 290.942 C 179.022 291.014,180.329 291.014,181.127 290.942 C 181.926 290.870,181.272 290.811,179.675 290.811 C 178.079 290.811,177.425 290.870,178.224 290.942 M211.699 290.933 C 212.122 291.014,212.814 291.014,213.237 290.933 C 213.659 290.851,213.313 290.785,212.468 290.785 C 211.623 290.785,211.277 290.851,211.699 290.933 M271.811 290.938 C 272.418 291.014,273.494 291.015,274.202 290.941 C 274.911 290.867,274.415 290.805,273.100 290.804 C 271.785 290.802,271.205 290.863,271.811 290.938 M174.552 291.391 C 174.177 291.644,174.316 291.675,175.064 291.508 C 176.320 291.227,176.593 291.032,175.719 291.039 C 175.359 291.041,174.833 291.200,174.552 291.391 M215.884 291.375 C 217.052 291.749,217.950 291.749,217.079 291.375 C 216.704 291.213,216.089 291.086,215.713 291.091 C 215.164 291.099,215.197 291.155,215.884 291.375 M268.488 291.391 C 268.114 291.644,268.252 291.675,269.001 291.508 C 270.257 291.227,270.530 291.032,269.656 291.039 C 269.295 291.041,268.770 291.200,268.488 291.391 M234.253 291.625 C 235.057 291.698,236.286 291.697,236.986 291.623 C 237.686 291.550,237.028 291.491,235.525 291.492 C 234.022 291.493,233.450 291.553,234.253 291.625 M232.093 292.147 C 232.003 292.384,231.969 297.264,232.019 302.992 L 232.110 313.407 232.280 302.562 C 232.374 296.597,232.408 291.716,232.355 291.716 C 232.302 291.716,232.184 291.910,232.093 292.147 M238.927 306.576 C 238.927 314.466,238.971 317.646,239.026 313.641 C 239.081 309.636,239.081 303.180,239.026 299.294 C 238.971 295.408,238.927 298.685,238.927 306.576 M188.215 292.866 C 188.215 292.959,188.676 293.365,189.240 293.766 C 189.804 294.167,190.265 294.419,190.265 294.325 C 190.265 294.231,189.804 293.826,189.240 293.424 C 188.676 293.023,188.215 292.772,188.215 292.866 M262.725 294.612 C 261.950 295.454,261.315 296.248,261.315 296.377 C 261.315 296.507,261.366 296.549,261.428 296.470 C 261.490 296.392,262.201 295.598,263.008 294.705 C 263.816 293.813,264.400 293.083,264.306 293.083 C 264.212 293.083,263.500 293.771,262.725 294.612 M155.764 293.531 C 155.764 293.590,156.264 294.090,156.874 294.641 L 157.985 295.645 156.981 294.535 C 156.046 293.500,155.764 293.267,155.764 293.531 M222.374 293.873 C 222.374 293.932,222.874 294.431,223.484 294.983 L 224.594 295.986 223.591 294.876 C 222.656 293.841,222.374 293.609,222.374 293.873 M284.031 295.132 C 284.765 295.884,285.442 296.499,285.536 296.499 C 285.630 296.499,285.106 295.884,284.372 295.132 C 283.639 294.381,282.961 293.766,282.867 293.766 C 282.773 293.766,283.297 294.381,284.031 295.132 M167.528 295.218 L 166.524 296.328 167.635 295.325 C 168.669 294.389,168.902 294.108,168.638 294.108 C 168.579 294.108,168.079 294.607,167.528 295.218 M124.587 297.087 C 125.193 297.162,126.269 297.164,126.978 297.090 C 127.687 297.016,127.190 296.954,125.875 296.952 C 124.560 296.951,123.980 297.011,124.587 297.087 M144.919 297.076 C 145.248 297.162,145.786 297.162,146.114 297.076 C 146.443 296.990,146.174 296.920,145.517 296.920 C 144.859 296.920,144.590 296.990,144.919 297.076 M148.278 296.963 C 148.356 297.031,148.881 297.189,149.445 297.315 C 150.193 297.482,150.331 297.451,149.957 297.198 C 149.496 296.885,147.935 296.667,148.278 296.963 M269.513 297.353 C 268.398 297.990,268.788 297.998,270.243 297.366 C 270.875 297.092,271.161 296.866,270.880 296.866 C 270.598 296.865,269.983 297.084,269.513 297.353 M276.299 297.366 C 276.931 297.641,277.546 297.860,277.665 297.853 C 278.110 297.828,276.154 296.865,275.662 296.866 C 275.380 296.866,275.667 297.092,276.299 297.366 M121.349 297.417 C 121.678 297.503,122.216 297.503,122.545 297.417 C 122.874 297.331,122.605 297.261,121.947 297.261 C 121.289 297.261,121.020 297.331,121.349 297.417 M205.771 298.007 C 205.669 298.273,205.651 298.926,205.730 299.459 C 205.855 300.289,205.883 300.248,205.927 299.171 C 205.963 298.290,206.156 297.869,206.576 297.759 C 207.136 297.613,207.135 297.600,206.565 297.563 C 206.230 297.541,205.873 297.741,205.771 298.007 M159.634 303.501 C 159.635 304.816,159.697 305.313,159.771 304.604 C 159.845 303.895,159.844 302.819,159.768 302.213 C 159.693 301.606,159.632 302.186,159.634 303.501 M187.580 302.306 C 187.580 302.588,187.712 303.126,187.874 303.501 C 188.059 303.932,188.167 303.995,188.167 303.672 C 188.167 303.390,188.035 302.852,187.874 302.477 C 187.689 302.046,187.580 301.983,187.580 302.306 M139.175 311.699 C 139.175 316.584,139.223 318.535,139.282 316.034 C 139.340 313.534,139.340 309.537,139.282 307.153 C 139.223 304.769,139.175 306.815,139.175 311.699 M163.396 306.234 C 163.398 307.737,163.458 308.309,163.530 307.506 C 163.602 306.702,163.601 305.473,163.528 304.773 C 163.454 304.074,163.395 304.731,163.396 306.234 M170.567 306.063 C 170.567 307.472,170.628 308.049,170.701 307.344 C 170.775 306.640,170.775 305.487,170.701 304.782 C 170.628 304.078,170.567 304.654,170.567 306.063 M227.249 305.380 C 227.249 306.225,227.316 306.571,227.397 306.149 C 227.479 305.726,227.479 305.034,227.397 304.611 C 227.316 304.189,227.249 304.535,227.249 305.380 M195.159 306.917 C 195.161 308.232,195.222 308.728,195.296 308.020 C 195.370 307.311,195.369 306.235,195.294 305.629 C 195.218 305.022,195.158 305.602,195.159 306.917 M258.680 306.576 C 258.683 307.515,258.749 307.859,258.828 307.339 C 258.906 306.820,258.904 306.052,258.823 305.632 C 258.742 305.211,258.678 305.636,258.680 306.576 M205.734 311.016 C 205.736 311.956,205.803 312.299,205.881 311.780 C 205.960 311.261,205.958 310.492,205.877 310.072 C 205.796 309.652,205.731 310.077,205.734 311.016 M266.225 310.322 C 266.119 310.597,266.112 311.020,266.209 311.261 C 266.306 311.502,266.397 311.356,266.412 310.937 L 266.439 310.175 274.381 310.077 L 282.323 309.978 274.370 309.899 C 267.645 309.833,266.388 309.898,266.225 310.322 M159.654 314.774 C 159.655 317.216,159.710 318.170,159.775 316.894 C 159.841 315.618,159.841 313.620,159.774 312.454 C 159.708 311.287,159.654 312.331,159.654 314.774 M171.819 313.002 C 171.819 313.061,172.319 313.560,172.929 314.112 L 174.039 315.115 173.036 314.005 C 172.101 312.970,171.819 312.738,171.819 313.002 M205.978 313.882 C 205.978 314.206,207.647 315.797,207.780 315.601 C 207.834 315.522,207.450 315.044,206.928 314.539 C 206.405 314.035,205.978 313.739,205.978 313.882 M267.633 314.208 C 268.005 314.648,268.619 315.166,268.997 315.360 C 269.723 315.731,269.617 315.617,267.979 314.256 C 266.992 313.437,266.980 313.436,267.633 314.208 M286.012 317.336 C 286.012 318.369,286.076 318.792,286.154 318.275 C 286.232 317.758,286.232 316.913,286.154 316.396 C 286.076 315.880,286.012 316.302,286.012 317.336 M210.681 316.217 C 211.295 316.293,212.217 316.291,212.730 316.213 C 213.244 316.135,212.741 316.073,211.614 316.075 C 210.487 316.077,210.067 316.141,210.681 316.217 M271.392 316.295 C 272.048 316.592,273.877 316.786,273.584 316.527 C 273.506 316.458,272.827 316.308,272.075 316.193 C 271.123 316.048,270.916 316.079,271.392 316.295 M276.174 316.311 L 274.808 316.555 276.003 316.570 C 276.661 316.578,277.583 316.461,278.053 316.311 C 279.151 315.959,278.137 315.959,276.174 316.311 M178.395 316.546 C 178.723 316.632,179.261 316.632,179.590 316.546 C 179.919 316.460,179.650 316.390,178.992 316.390 C 178.335 316.390,178.066 316.460,178.395 316.546 M191.097 317.763 L 190.094 318.873 191.204 317.869 C 191.815 317.318,192.314 316.818,192.314 316.759 C 192.314 316.495,192.032 316.728,191.097 317.763 M233.380 319.909 C 233.891 320.446,234.370 320.817,234.445 320.733 C 234.520 320.649,234.102 320.210,233.516 319.756 L 232.451 318.932 233.380 319.909 M113.670 321.341 C 114.284 321.417,115.206 321.415,115.719 321.337 C 116.232 321.259,115.730 321.197,114.603 321.199 C 113.476 321.201,113.056 321.265,113.670 321.341 M134.509 321.685 C 135.313 321.757,136.543 321.756,137.242 321.683 C 137.942 321.610,137.284 321.551,135.781 321.552 C 134.278 321.553,133.706 321.613,134.509 321.685 M154.488 321.680 C 155.007 321.758,155.776 321.756,156.196 321.675 C 156.616 321.594,156.191 321.530,155.252 321.532 C 154.313 321.535,153.969 321.601,154.488 321.680 M177.028 322.012 C 177.357 322.098,177.895 322.098,178.224 322.012 C 178.553 321.926,178.284 321.856,177.626 321.856 C 176.968 321.856,176.699 321.926,177.028 322.012 M180.786 322.012 C 181.114 322.098,181.652 322.098,181.981 322.012 C 182.310 321.926,182.041 321.856,181.383 321.856 C 180.726 321.856,180.457 321.926,180.786 322.012 M212.041 322.023 C 212.652 322.099,213.651 322.099,214.261 322.023 C 214.872 321.948,214.372 321.886,213.151 321.886 C 211.930 321.886,211.430 321.948,212.041 322.023 " stroke="none" fill="#d4ece4" fill-rule="evenodd"></path></g></svg>