<svg id="svg" version="1.1" xmlns="http://www.w3.org/2000/svg" xmlns:xlink="http://www.w3.org/1999/xlink" width="400" height="414.41860465116275" viewBox="0, 0, 400,414.41860465116275"><g id="svgg"><path id="path0" d="M193.361 19.957 C 189.760 20.843,184.343 23.515,181.707 25.706 C 178.209 28.615,170.447 41.322,141.212 92.000 C 137.976 97.610,133.295 105.710,130.810 110.000 C 128.325 114.290,124.996 120.050,123.412 122.800 C 119.105 130.277,110.646 144.936,106.331 152.400 C 98.706 165.590,94.596 172.693,91.983 177.200 C 86.315 186.976,84.831 189.545,82.396 193.800 C 81.011 196.220,78.765 200.090,77.405 202.400 C 76.044 204.710,74.432 207.500,73.821 208.600 C 73.211 209.700,70.990 213.570,68.887 217.200 C 66.783 220.830,63.813 225.960,62.286 228.600 C 60.760 231.240,58.826 234.570,57.990 236.000 C 55.515 240.230,43.724 260.590,40.616 266.000 C 39.037 268.750,35.251 275.320,32.205 280.600 C 19.456 302.693,16.764 307.836,15.643 312.229 C 11.219 329.572,17.303 359.833,27.901 373.200 C 35.014 382.170,39.172 384.321,51.200 385.254 C 64.840 386.312,345.830 385.919,355.238 384.829 C 367.404 383.419,379.469 367.465,383.543 347.400 C 385.959 335.501,386.687 318.793,385.051 312.800 C 383.886 308.530,375.590 293.451,352.592 253.800 C 351.316 251.600,349.700 248.810,349.000 247.600 C 348.300 246.390,346.684 243.600,345.408 241.400 C 342.401 236.216,334.571 222.658,324.384 205.000 C 321.592 200.160,318.058 194.040,316.529 191.400 C 315.000 188.760,311.978 183.540,309.813 179.800 C 306.390 173.889,290.721 146.755,288.792 143.400 C 288.413 142.740,285.441 137.610,282.189 132.000 C 278.936 126.390,275.609 120.630,274.796 119.200 C 273.982 117.770,270.656 112.010,267.405 106.400 C 264.153 100.790,259.421 92.600,256.889 88.200 C 251.016 77.995,245.689 68.771,245.223 68.000 C 245.024 67.670,243.100 64.340,240.949 60.600 C 222.009 27.678,219.129 24.010,209.721 20.841 C 204.533 19.093,198.254 18.754,193.361 19.957 M202.816 44.417 C 203.155 44.594,204.707 46.957,206.265 49.669 C 207.823 52.381,210.355 56.760,211.891 59.400 C 213.427 62.040,215.726 66.000,217.000 68.200 C 219.919 73.242,222.954 78.465,226.530 84.600 C 230.760 91.858,234.207 97.810,239.385 106.800 C 241.535 110.533,254.273 132.543,259.409 141.400 C 262.089 146.020,266.411 153.490,269.015 158.000 C 271.619 162.510,274.585 167.640,275.607 169.400 C 277.715 173.032,283.278 182.666,288.888 192.400 C 290.980 196.030,294.458 202.060,296.617 205.800 C 300.735 212.934,303.797 218.255,310.087 229.200 C 312.172 232.830,316.724 240.750,320.202 246.800 C 323.679 252.850,328.676 261.580,331.307 266.200 C 333.938 270.820,337.490 277.030,339.201 280.000 C 340.912 282.970,344.691 289.630,347.599 294.800 C 350.507 299.970,353.251 304.830,353.697 305.600 C 361.596 319.230,362.190 321.131,359.975 325.681 C 357.781 330.187,362.142 330.077,192.200 329.903 C 32.709 329.739,42.471 330.003,40.428 325.800 C 38.356 321.539,38.636 319.957,42.836 312.200 C 46.677 305.107,56.525 287.548,61.681 278.600 C 63.329 275.740,67.883 267.820,71.800 261.000 C 75.718 254.180,79.499 247.610,80.203 246.400 C 80.907 245.190,84.189 239.520,87.497 233.800 C 90.805 228.080,95.447 220.070,97.812 216.000 C 100.177 211.930,102.828 207.340,103.704 205.800 C 104.579 204.260,106.243 201.380,107.403 199.400 C 108.562 197.420,113.196 189.410,117.702 181.600 C 125.768 167.619,131.169 158.276,135.507 150.800 C 136.720 148.710,139.012 144.750,140.600 142.000 C 142.188 139.250,144.532 135.200,145.807 133.000 C 148.409 128.514,156.710 114.142,164.869 100.000 C 171.047 89.291,174.494 83.336,180.612 72.800 C 182.976 68.730,186.208 63.150,187.794 60.400 C 198.140 42.469,198.452 42.137,202.816 44.417 M185.733 129.482 C 183.185 129.676,183.271 129.570,181.031 135.298 C 178.193 142.559,177.393 144.704,173.759 154.800 C 171.898 159.970,170.029 165.100,169.605 166.200 C 169.181 167.300,166.566 174.680,163.794 182.600 C 161.023 190.520,158.388 197.990,157.940 199.200 C 156.064 204.271,150.412 220.450,149.446 223.521 C 145.311 236.651,155.647 246.685,168.200 241.728 C 172.877 239.881,192.382 230.911,202.000 226.184 C 212.252 221.145,224.830 215.496,225.130 215.796 C 225.470 216.137,223.758 223.112,218.748 241.800 C 214.321 258.317,213.879 259.679,212.829 260.067 C 212.353 260.244,208.686 260.558,204.682 260.765 C 196.324 261.198,195.656 261.377,194.032 263.620 L 192.837 265.270 194.166 268.935 C 196.651 275.787,200.743 286.989,201.935 290.200 C 202.588 291.960,203.751 295.110,204.520 297.200 C 210.242 312.763,211.906 314.613,216.120 310.099 C 220.901 304.976,238.203 283.395,247.580 270.856 C 254.905 261.062,254.268 260.529,235.100 260.422 C 229.714 260.392,228.964 263.999,243.007 222.400 C 251.869 196.146,252.362 193.525,249.107 189.975 C 244.553 185.009,242.687 185.227,219.038 193.478 C 199.269 200.375,192.530 202.534,192.240 202.065 C 192.142 201.907,192.608 200.523,193.274 198.989 C 196.784 190.913,199.106 185.754,202.903 177.600 C 205.208 172.650,207.502 167.700,208.000 166.600 C 209.175 164.006,210.134 161.918,215.895 149.400 C 224.769 130.120,224.473 131.113,221.705 129.899 C 220.633 129.429,190.943 129.085,185.733 129.482 M89.200 341.591 C 173.649 342.233,354.997 341.816,358.500 340.972 C 361.225 340.315,356.911 353.943,352.857 358.799 L 351.714 360.168 341.957 360.554 C 328.598 361.081,77.643 361.064,61.294 360.534 C 46.072 360.041,46.763 360.468,42.605 348.989 C 40.135 342.167,40.000 340.504,41.957 340.984 C 42.530 341.125,63.790 341.398,89.200 341.591 " stroke="none" fill="#050505" fill-rule="evenodd"></path><path id="path1" d="M0.000 207.200 L 0.000 414.400 200.000 414.400 L 400.000 414.400 400.000 207.200 L 400.000 0.000 200.000 0.000 L 0.000 0.000 0.000 207.200 M207.449 19.801 C 218.148 22.512,222.616 27.513,236.840 52.700 C 237.827 54.449,242.712 62.893,244.996 66.800 C 245.703 68.010,247.630 71.340,249.278 74.200 C 250.926 77.060,253.682 81.830,255.402 84.800 C 257.122 87.770,259.153 91.280,259.914 92.600 C 260.675 93.920,261.614 95.540,262.001 96.200 C 262.388 96.860,265.456 102.170,268.819 108.000 C 272.182 113.830,275.507 119.590,276.208 120.800 C 277.977 123.854,282.907 132.395,286.483 138.600 C 288.131 141.460,292.141 148.390,295.394 154.000 C 298.648 159.610,302.391 166.090,303.714 168.400 C 305.036 170.710,306.698 173.590,307.407 174.800 C 308.116 176.010,310.044 179.340,311.692 182.200 C 317.320 191.969,320.692 197.799,323.488 202.600 C 326.817 208.316,329.608 213.150,341.501 233.800 C 346.442 242.380,351.696 251.470,353.176 254.000 C 354.656 256.530,357.368 261.210,359.203 264.400 C 361.038 267.590,363.678 272.150,365.069 274.533 C 366.461 276.917,367.600 278.959,367.600 279.072 C 367.600 279.184,367.936 279.754,368.346 280.338 C 368.756 280.922,369.724 282.570,370.497 284.000 C 371.270 285.430,374.019 290.380,376.605 295.000 C 386.237 312.206,386.000 311.458,386.000 324.631 C 386.000 357.063,373.148 382.835,355.800 385.192 C 347.199 386.361,65.102 386.790,50.641 385.657 C 40.535 384.865,37.355 383.629,31.991 378.407 C 23.572 370.211,18.120 358.107,14.962 340.600 C 13.924 334.851,13.878 316.614,14.890 312.800 C 15.934 308.871,21.468 298.153,30.278 283.000 C 37.783 270.091,41.012 264.524,45.014 257.600 C 46.603 254.850,49.860 249.234,52.252 245.120 C 54.643 241.006,56.871 237.136,57.202 236.520 C 57.534 235.904,59.318 232.790,61.169 229.600 C 63.019 226.410,66.146 221.010,68.117 217.600 C 70.088 214.190,72.647 209.780,73.803 207.800 C 74.958 205.820,77.301 201.770,79.010 198.800 C 80.718 195.830,83.374 191.240,84.911 188.600 C 87.638 183.916,90.382 179.166,96.465 168.600 C 103.366 156.613,109.222 146.482,113.922 138.400 C 116.672 133.670,120.259 127.460,121.891 124.600 C 124.732 119.623,127.512 114.815,130.794 109.200 C 131.630 107.770,135.422 101.200,139.220 94.600 C 168.787 43.224,177.739 28.468,181.010 25.719 C 184.362 22.900,190.126 20.162,195.000 19.072 C 197.591 18.492,203.694 18.850,207.449 19.801 M197.682 45.028 C 197.189 45.373,196.330 46.498,195.775 47.528 C 195.219 48.558,194.168 50.390,193.439 51.600 C 191.734 54.431,187.069 62.425,183.403 68.800 C 181.821 71.550,179.176 76.140,177.524 79.000 C 175.872 81.860,172.546 87.620,170.132 91.800 C 167.718 95.980,164.386 101.740,162.727 104.600 C 156.339 115.617,154.986 117.956,152.200 122.800 C 150.618 125.550,148.331 129.510,147.117 131.600 C 145.903 133.690,142.609 139.360,139.798 144.200 C 136.986 149.040,132.309 157.140,129.403 162.200 C 124.460 170.809,122.291 174.566,115.314 186.600 C 113.783 189.240,111.123 193.830,109.401 196.800 C 107.680 199.770,105.697 203.190,104.995 204.400 C 104.292 205.610,102.315 209.030,100.600 212.000 C 98.885 214.970,96.907 218.390,96.205 219.600 C 94.284 222.907,85.623 237.896,84.224 240.333 C 83.551 241.506,82.819 242.766,82.597 243.133 C 82.375 243.500,81.366 245.240,80.354 247.000 C 78.739 249.808,75.127 256.069,63.276 276.600 C 61.626 279.460,59.873 282.520,59.382 283.400 C 58.891 284.280,57.728 286.350,56.797 288.000 C 54.124 292.738,51.886 296.733,50.777 298.745 C 50.215 299.765,48.794 302.310,47.620 304.400 C 46.447 306.490,44.953 309.190,44.302 310.400 C 43.650 311.610,42.326 314.058,41.359 315.841 C 39.173 319.867,39.029 321.929,40.700 325.228 C 42.969 329.709,31.172 329.400,200.200 329.400 C 348.276 329.400,352.656 329.358,357.000 327.893 C 360.088 326.851,361.730 321.393,359.986 317.971 C 357.711 313.507,346.519 293.634,332.859 269.800 C 328.571 262.320,324.405 255.030,323.600 253.600 C 322.794 252.170,321.087 249.200,319.806 247.000 C 318.525 244.800,315.997 240.390,314.190 237.200 C 312.382 234.010,309.503 228.970,307.792 226.000 C 304.617 220.489,303.793 219.066,299.920 212.400 C 298.706 210.310,295.231 204.280,292.198 199.000 C 289.165 193.720,285.720 187.735,284.542 185.700 C 279.129 176.348,277.740 173.950,275.680 170.400 C 274.468 168.310,272.127 164.260,270.479 161.400 C 268.831 158.540,266.905 155.210,266.200 154.000 C 265.495 152.790,263.570 149.460,261.922 146.600 C 260.274 143.740,257.572 139.060,255.917 136.200 C 254.262 133.340,249.374 124.880,245.056 117.400 C 240.737 109.920,237.037 103.530,236.834 103.200 C 236.631 102.870,234.538 99.270,232.184 95.200 C 223.712 80.555,220.596 75.187,215.002 65.600 C 214.296 64.390,212.315 60.970,210.600 58.000 C 203.251 45.271,203.236 45.247,202.381 44.790 C 201.268 44.194,198.685 44.325,197.682 45.028 M220.321 129.168 C 225.362 130.142,225.403 129.930,216.406 149.400 C 214.373 153.800,212.259 158.390,211.709 159.600 C 211.159 160.810,210.117 163.060,209.392 164.600 C 208.668 166.140,207.536 168.570,206.877 170.000 C 193.551 198.918,192.384 201.600,193.124 201.600 C 193.811 201.600,200.872 199.312,209.800 196.197 C 242.845 184.666,243.879 184.460,248.270 188.507 C 253.029 192.894,252.795 194.529,243.411 222.450 C 235.335 246.481,231.623 257.904,231.471 259.200 C 231.411 259.709,232.727 259.846,240.166 260.102 C 254.284 260.590,255.054 261.254,249.878 268.483 C 247.149 272.296,232.856 290.668,227.872 296.770 C 226.151 298.877,224.171 301.303,223.472 302.162 C 219.432 307.125,215.092 312.030,214.423 312.388 C 211.584 313.907,209.281 311.078,205.827 301.825 C 205.329 300.491,203.971 296.880,202.809 293.800 C 201.647 290.720,200.378 287.300,199.989 286.200 C 198.718 282.610,197.299 278.712,194.829 272.029 C 191.974 264.305,192.108 265.279,193.632 263.355 C 195.560 260.922,196.165 260.751,204.233 260.356 C 213.230 259.917,213.394 259.863,214.152 257.116 C 215.903 250.764,217.336 245.466,218.996 239.200 C 220.016 235.350,221.218 230.850,221.667 229.200 C 222.965 224.429,224.736 216.616,224.561 216.434 C 224.307 216.170,214.663 220.591,195.400 229.802 C 164.994 244.340,161.897 245.270,155.284 241.842 C 147.253 237.680,146.230 230.857,151.438 216.198 C 152.689 212.679,154.210 208.360,154.819 206.600 C 155.429 204.840,156.770 201.060,157.801 198.200 C 159.756 192.776,160.380 191.014,164.328 179.800 C 165.645 176.060,167.565 170.660,168.595 167.800 C 169.624 164.940,170.974 161.160,171.594 159.400 C 173.525 153.920,175.590 148.261,176.192 146.800 C 176.509 146.030,177.858 142.462,179.190 138.872 C 182.704 129.401,182.779 129.277,185.097 129.094 C 189.008 128.786,218.667 128.848,220.321 129.168 M41.200 342.273 C 41.200 345.306,45.655 356.169,47.913 358.641 L 49.034 359.867 62.617 360.134 C 88.691 360.647,245.819 360.878,298.338 360.480 L 351.275 360.080 352.409 358.740 C 356.036 354.456,360.730 340.630,358.300 341.387 C 354.181 342.671,44.961 342.692,41.900 341.408 C 41.327 341.168,41.200 341.324,41.200 342.273 " stroke="none" fill="#f3f3f3" fill-rule="evenodd"></path><path id="path2" d="M219.000 26.400 C 220.083 27.500,221.060 28.400,221.170 28.400 C 221.280 28.400,220.483 27.500,219.400 26.400 C 218.317 25.300,217.340 24.400,217.230 24.400 C 217.120 24.400,217.917 25.300,219.000 26.400 M198.125 129.099 C 201.604 129.166,207.184 129.166,210.525 129.099 C 213.866 129.032,211.020 128.978,204.200 128.978 C 197.380 128.978,194.646 129.033,198.125 129.099 M184.905 129.487 C 185.514 129.579,186.414 129.577,186.905 129.482 C 187.397 129.387,186.900 129.311,185.800 129.314 C 184.700 129.317,184.297 129.395,184.905 129.487 M212.865 155.817 C 212.195 157.288,212.323 157.602,213.047 156.265 C 213.386 155.640,213.588 155.054,213.496 154.963 C 213.405 154.871,213.121 155.256,212.865 155.817 M218.000 218.600 C 217.450 218.914,217.180 219.172,217.400 219.172 C 217.620 219.172,218.250 218.914,218.800 218.600 C 219.350 218.286,219.620 218.028,219.400 218.028 C 219.180 218.028,218.550 218.286,218.000 218.600 M212.000 221.400 C 211.450 221.714,211.180 221.972,211.400 221.972 C 211.620 221.972,212.250 221.714,212.800 221.400 C 213.350 221.086,213.620 220.828,213.400 220.828 C 213.180 220.828,212.550 221.086,212.000 221.400 M205.600 224.400 C 204.830 224.822,204.380 225.166,204.600 225.166 C 204.820 225.166,205.630 224.822,206.400 224.400 C 207.170 223.978,207.620 223.634,207.400 223.634 C 207.180 223.634,206.370 223.978,205.600 224.400 M148.109 229.600 C 148.109 230.590,148.187 230.995,148.282 230.500 C 148.378 230.005,148.378 229.195,148.282 228.700 C 148.187 228.205,148.109 228.610,148.109 229.600 M231.700 260.276 C 232.085 260.376,232.715 260.376,233.100 260.276 C 233.485 260.175,233.170 260.093,232.400 260.093 C 231.630 260.093,231.315 260.175,231.700 260.276 M203.911 260.693 C 204.851 260.778,206.291 260.777,207.111 260.691 C 207.930 260.605,207.160 260.536,205.400 260.537 C 203.640 260.539,202.970 260.609,203.911 260.693 M242.500 260.694 C 243.545 260.776,245.255 260.776,246.300 260.694 C 247.345 260.612,246.490 260.544,244.400 260.544 C 242.310 260.544,241.455 260.612,242.500 260.694 M197.700 261.076 C 198.085 261.176,198.715 261.176,199.100 261.076 C 199.485 260.975,199.170 260.893,198.400 260.893 C 197.630 260.893,197.315 260.975,197.700 261.076 M216.175 310.100 L 215.000 311.400 216.300 310.225 C 217.512 309.130,217.784 308.800,217.475 308.800 C 217.406 308.800,216.821 309.385,216.175 310.100 M54.500 329.491 C 55.325 329.578,56.675 329.578,57.500 329.491 C 58.325 329.405,57.650 329.334,56.000 329.334 C 54.350 329.334,53.675 329.405,54.500 329.491 M342.900 329.491 C 343.725 329.578,345.075 329.578,345.900 329.491 C 346.725 329.405,346.050 329.334,344.400 329.334 C 342.750 329.334,342.075 329.405,342.900 329.491 M72.500 329.900 C 76.845 329.964,83.955 329.964,88.300 329.900 C 92.645 329.835,89.090 329.782,80.400 329.782 C 71.710 329.782,68.155 329.835,72.500 329.900 M311.673 329.899 C 316.004 329.964,323.204 329.964,327.673 329.900 C 332.143 329.835,328.600 329.782,319.800 329.782 C 311.000 329.782,307.343 329.835,311.673 329.899 M45.916 341.497 C 47.299 341.575,49.459 341.574,50.716 341.495 C 51.972 341.416,50.840 341.352,48.200 341.353 C 45.560 341.353,44.532 341.418,45.916 341.497 M349.500 341.496 C 350.875 341.574,353.125 341.574,354.500 341.496 C 355.875 341.418,354.750 341.354,352.000 341.354 C 349.250 341.354,348.125 341.418,349.500 341.496 M78.300 341.900 C 86.275 341.960,99.325 341.960,107.300 341.900 C 115.275 341.839,108.750 341.790,92.800 341.790 C 76.850 341.790,70.325 341.839,78.300 341.900 M293.100 341.900 C 301.075 341.960,314.125 341.960,322.100 341.900 C 330.075 341.839,323.550 341.790,307.600 341.790 C 291.650 341.790,285.125 341.839,293.100 341.900 M52.307 360.290 C 53.026 360.379,54.106 360.377,54.707 360.286 C 55.308 360.195,54.720 360.122,53.400 360.124 C 52.080 360.126,51.588 360.201,52.307 360.290 M347.900 360.282 C 348.395 360.378,349.205 360.378,349.700 360.282 C 350.195 360.187,349.790 360.109,348.800 360.109 C 347.810 360.109,347.405 360.187,347.900 360.282 M71.900 360.699 C 74.375 360.769,78.425 360.769,80.900 360.699 C 83.375 360.628,81.350 360.571,76.400 360.571 C 71.450 360.571,69.425 360.628,71.900 360.699 M324.078 360.698 C 326.431 360.769,330.391 360.769,332.878 360.699 C 335.365 360.629,333.440 360.571,328.600 360.570 C 323.760 360.570,321.725 360.628,324.078 360.698 M128.500 361.100 C 139.665 361.159,157.935 361.159,169.100 361.100 C 180.265 361.041,171.130 360.993,148.800 360.993 C 126.470 360.993,117.335 361.041,128.500 361.100 M235.100 361.100 C 246.815 361.159,265.985 361.159,277.700 361.100 C 289.415 361.041,279.830 360.993,256.400 360.993 C 232.970 360.993,223.385 361.041,235.100 361.100 M31.400 377.600 C 32.483 378.700,33.460 379.600,33.570 379.600 C 33.680 379.600,32.883 378.700,31.800 377.600 C 30.717 376.500,29.740 375.600,29.630 375.600 C 29.520 375.600,30.317 376.500,31.400 377.600 M368.778 377.500 L 367.400 379.000 368.900 377.622 C 369.725 376.863,370.400 376.188,370.400 376.122 C 370.400 375.816,370.062 376.104,368.778 377.500 M46.305 385.083 C 46.802 385.179,47.522 385.175,47.905 385.075 C 48.287 384.975,47.880 384.896,47.000 384.901 C 46.120 384.905,45.807 384.987,46.305 385.083 M353.500 385.082 C 353.995 385.178,354.805 385.178,355.300 385.082 C 355.795 384.987,355.390 384.909,354.400 384.909 C 353.410 384.909,353.005 384.987,353.500 385.082 M51.907 385.490 C 52.626 385.579,53.706 385.577,54.307 385.486 C 54.908 385.395,54.320 385.322,53.000 385.324 C 51.680 385.326,51.188 385.401,51.907 385.490 M339.700 385.497 C 341.405 385.572,344.195 385.572,345.900 385.497 C 347.605 385.422,346.210 385.361,342.800 385.361 C 339.390 385.361,337.995 385.422,339.700 385.497 M65.100 385.895 C 66.255 385.976,68.145 385.976,69.300 385.895 C 70.455 385.814,69.510 385.748,67.200 385.748 C 64.890 385.748,63.945 385.814,65.100 385.895 M266.729 385.900 C 273.399 385.961,284.199 385.961,290.729 385.900 C 297.258 385.838,291.800 385.788,278.600 385.788 C 265.400 385.788,260.058 385.838,266.729 385.900 " stroke="none" fill="#7c7c7c" fill-rule="evenodd"></path><path id="path3" d="M202.100 19.076 C 202.485 19.176,203.115 19.176,203.500 19.076 C 203.885 18.975,203.570 18.893,202.800 18.893 C 202.030 18.893,201.715 18.975,202.100 19.076 M219.183 26.100 C 220.164 27.145,221.019 28.000,221.083 28.000 C 221.384 28.000,221.066 27.641,219.300 25.983 L 217.400 24.200 219.183 26.100 M179.781 26.900 L 178.200 28.600 179.900 27.019 C 180.835 26.149,181.600 25.384,181.600 25.319 C 181.600 25.016,181.252 25.319,179.781 26.900 M199.505 44.283 C 200.002 44.379,200.722 44.375,201.105 44.275 C 201.487 44.175,201.080 44.096,200.200 44.101 C 199.320 44.105,199.007 44.187,199.505 44.283 M187.500 129.082 C 187.995 129.178,188.805 129.178,189.300 129.082 C 189.795 128.987,189.390 128.909,188.400 128.909 C 187.410 128.909,187.005 128.987,187.500 129.082 M241.900 186.282 C 242.395 186.378,243.205 186.378,243.700 186.282 C 244.195 186.187,243.790 186.109,242.800 186.109 C 241.810 186.109,241.405 186.187,241.900 186.282 M248.383 188.900 C 249.364 189.945,250.219 190.800,250.283 190.800 C 250.584 190.800,250.266 190.441,248.500 188.783 L 246.600 187.000 248.383 188.900 M151.600 239.000 C 152.346 239.770,153.047 240.400,153.157 240.400 C 153.267 240.400,152.746 239.770,152.000 239.000 C 151.254 238.230,150.553 237.600,150.443 237.600 C 150.333 237.600,150.854 238.230,151.600 239.000 M161.505 243.483 C 162.002 243.579,162.722 243.575,163.105 243.475 C 163.487 243.375,163.080 243.296,162.200 243.301 C 161.320 243.305,161.007 243.387,161.505 243.483 M208.500 260.276 C 208.885 260.376,209.515 260.376,209.900 260.276 C 210.285 260.175,209.970 260.093,209.200 260.093 C 208.430 260.093,208.115 260.175,208.500 260.276 M236.915 260.296 C 238.188 260.376,240.168 260.375,241.315 260.294 C 242.462 260.214,241.420 260.149,239.000 260.150 C 236.580 260.151,235.642 260.216,236.915 260.296 M199.505 260.683 C 200.002 260.779,200.722 260.775,201.105 260.675 C 201.487 260.575,201.080 260.496,200.200 260.501 C 199.320 260.505,199.007 260.587,199.505 260.683 M383.478 308.195 C 383.844 308.962,384.214 309.519,384.301 309.432 C 384.484 309.249,383.270 306.800,382.996 306.800 C 382.895 306.800,383.112 307.428,383.478 308.195 M215.781 310.900 L 214.200 312.600 215.900 311.019 C 217.481 309.548,217.784 309.200,217.481 309.200 C 217.416 309.200,216.651 309.965,215.781 310.900 M39.293 320.800 C 39.293 321.570,39.375 321.885,39.476 321.500 C 39.576 321.115,39.576 320.485,39.476 320.100 C 39.375 319.715,39.293 320.030,39.293 320.800 M63.500 329.497 C 65.095 329.573,67.705 329.573,69.300 329.497 C 70.895 329.421,69.590 329.359,66.400 329.359 C 63.210 329.359,61.905 329.421,63.500 329.497 M331.282 329.496 C 332.758 329.573,335.278 329.573,336.882 329.497 C 338.487 329.421,337.280 329.358,334.200 329.358 C 331.120 329.357,329.807 329.419,331.282 329.496 M51.300 341.897 C 52.785 341.974,55.215 341.974,56.700 341.897 C 58.185 341.820,56.970 341.757,54.000 341.757 C 51.030 341.757,49.815 341.820,51.300 341.897 M343.700 341.897 C 345.185 341.974,347.615 341.974,349.100 341.897 C 350.585 341.820,349.370 341.757,346.400 341.757 C 343.430 341.757,342.215 341.820,343.700 341.897 M118.300 342.300 C 133.095 342.358,157.305 342.358,172.100 342.300 C 186.895 342.242,174.790 342.194,145.200 342.194 C 115.610 342.194,103.505 342.242,118.300 342.300 M228.300 342.300 C 243.095 342.358,267.305 342.358,282.100 342.300 C 296.895 342.242,284.790 342.194,255.200 342.194 C 225.610 342.194,213.505 342.242,228.300 342.300 M59.717 360.297 C 61.211 360.374,63.551 360.374,64.917 360.296 C 66.282 360.218,65.060 360.155,62.200 360.155 C 59.340 360.156,58.222 360.220,59.717 360.297 M339.315 360.296 C 340.588 360.376,342.568 360.375,343.715 360.294 C 344.862 360.214,343.820 360.149,341.400 360.150 C 338.980 360.151,338.042 360.216,339.315 360.296 M101.328 360.700 C 107.008 360.762,116.188 360.762,121.728 360.700 C 127.268 360.637,122.620 360.586,111.400 360.586 C 100.180 360.586,95.648 360.637,101.328 360.700 M283.928 360.700 C 289.498 360.763,298.498 360.762,303.928 360.700 C 309.358 360.637,304.800 360.585,293.800 360.586 C 282.800 360.586,278.358 360.637,283.928 360.700 M30.800 377.325 C 30.800 377.394,31.385 377.979,32.100 378.625 L 33.400 379.800 32.225 378.500 C 31.130 377.288,30.800 377.016,30.800 377.325 M48.100 385.476 C 48.485 385.576,49.115 385.576,49.500 385.476 C 49.885 385.375,49.570 385.293,48.800 385.293 C 48.030 385.293,47.715 385.375,48.100 385.476 M350.905 385.487 C 351.514 385.579,352.414 385.577,352.905 385.482 C 353.397 385.387,352.900 385.311,351.800 385.314 C 350.700 385.317,350.297 385.395,350.905 385.487 M56.300 385.893 C 57.235 385.977,58.765 385.977,59.700 385.893 C 60.635 385.809,59.870 385.740,58.000 385.740 C 56.130 385.740,55.365 385.809,56.300 385.893 M320.325 385.899 C 323.693 385.966,329.093 385.966,332.325 385.899 C 335.556 385.832,332.800 385.777,326.200 385.777 C 319.600 385.777,316.956 385.832,320.325 385.899 M119.868 386.300 C 148.945 386.357,196.645 386.357,225.868 386.300 C 255.091 386.243,231.300 386.197,173.000 386.197 C 114.700 386.197,90.791 386.243,119.868 386.300 " stroke="none" fill="#9d9d9d" fill-rule="evenodd"></path><path id="path4" d="M147.900 329.900 C 176.555 329.957,223.445 329.957,252.100 329.900 C 280.755 329.843,257.310 329.797,200.000 329.797 C 142.690 329.797,119.245 329.843,147.900 329.900 M60.300 341.889 C 61.015 341.978,62.185 341.978,62.900 341.889 C 63.615 341.801,63.030 341.728,61.600 341.728 C 60.170 341.728,59.585 341.801,60.300 341.889 M337.500 341.889 C 338.215 341.978,339.385 341.978,340.100 341.889 C 340.815 341.801,340.230 341.728,338.800 341.728 C 337.370 341.728,336.785 341.801,337.500 341.889 M199.505 342.283 C 200.002 342.379,200.722 342.375,201.105 342.275 C 201.487 342.175,201.080 342.096,200.200 342.101 C 199.320 342.105,199.007 342.187,199.505 342.283 M86.711 360.693 C 87.651 360.778,89.091 360.777,89.911 360.691 C 90.730 360.605,89.960 360.536,88.200 360.537 C 86.440 360.539,85.770 360.609,86.711 360.693 M315.100 360.693 C 316.035 360.777,317.565 360.777,318.500 360.693 C 319.435 360.609,318.670 360.540,316.800 360.540 C 314.930 360.540,314.165 360.609,315.100 360.693 M195.300 361.099 C 198.765 361.166,204.435 361.166,207.900 361.099 C 211.365 361.033,208.530 360.978,201.600 360.978 C 194.670 360.978,191.835 361.033,195.300 361.099 M305.300 385.897 C 307.005 385.972,309.795 385.972,311.500 385.897 C 313.205 385.822,311.810 385.761,308.400 385.761 C 304.990 385.761,303.595 385.822,305.300 385.897 " stroke="none" fill="#848484" fill-rule="evenodd"></path></g></svg>