<svg id="svg" version="1.1" xmlns="http://www.w3.org/2000/svg" xmlns:xlink="http://www.w3.org/1999/xlink" width="400" height="210" viewBox="0, 0, 400,210"><g id="svgg"><path id="path0" d="M268.908 6.645 C 264.062 10.417,261.960 12.046,260.738 12.978 C 260.089 13.472,259.417 13.994,259.244 14.138 C 259.070 14.282,258.172 14.982,257.248 15.694 C 253.274 18.757,249.212 21.902,248.547 22.432 C 247.825 23.007,246.698 23.879,244.415 25.630 C 243.737 26.150,242.234 27.315,241.076 28.219 C 239.918 29.124,238.025 30.592,236.870 31.482 C 234.618 33.218,233.027 34.451,230.357 36.530 C 229.433 37.250,227.731 38.570,226.576 39.462 C 224.221 41.280,222.615 42.526,219.873 44.658 C 218.845 45.459,216.623 47.177,214.936 48.478 C 213.250 49.778,211.728 50.962,211.555 51.108 C 211.238 51.375,208.786 53.279,206.488 55.042 C 205.810 55.562,204.333 56.695,203.206 57.560 C 202.078 58.425,201.051 59.229,200.923 59.346 C 200.796 59.463,199.580 60.410,198.221 61.450 C 196.863 62.489,195.212 63.766,194.551 64.286 C 193.891 64.806,192.649 65.773,191.791 66.435 C 190.933 67.097,188.151 69.256,185.609 71.233 C 183.067 73.211,180.654 75.080,180.246 75.387 C 179.839 75.694,177.442 77.553,174.919 79.517 C 172.397 81.481,169.832 83.466,169.221 83.929 C 168.609 84.391,165.675 86.660,162.701 88.971 C 154.435 95.394,147.516 100.763,146.062 101.882 C 144.512 103.076,144.477 103.023,147.479 103.990 C 148.692 104.381,149.827 104.768,150.000 104.850 C 150.332 105.009,155.731 106.824,158.403 107.676 C 160.780 108.434,168.114 110.908,168.592 111.113 C 169.148 111.352,175.349 113.438,176.155 113.658 C 177.768 114.097,187.880 117.628,188.070 117.818 C 188.270 118.018,187.383 119.364,179.189 131.292 C 177.148 134.262,175.462 136.710,174.479 138.130 C 173.999 138.824,170.261 144.259,166.173 150.210 C 162.084 156.161,158.687 161.077,158.624 161.134 C 158.560 161.192,158.414 161.399,158.298 161.594 C 158.027 162.051,155.606 165.596,151.838 171.050 C 151.096 172.125,149.969 173.761,149.335 174.685 C 148.701 175.609,147.764 176.969,147.253 177.706 C 146.007 179.504,145.179 180.708,143.044 183.824 C 141.041 186.748,133.111 198.276,131.194 201.050 C 128.510 204.935,127.895 205.930,128.483 205.442 C 128.705 205.257,129.926 204.269,131.197 203.246 C 132.468 202.223,133.556 201.331,133.613 201.265 C 133.671 201.199,134.634 200.415,135.752 199.522 C 136.870 198.629,137.910 197.781,138.063 197.636 C 138.215 197.492,138.687 197.115,139.110 196.799 C 139.533 196.483,140.006 196.100,140.160 195.948 C 140.315 195.795,141.717 194.643,143.277 193.388 C 144.837 192.132,147.335 190.104,148.827 188.882 C 150.320 187.660,152.542 185.852,153.764 184.864 C 155.790 183.228,161.991 178.179,173.214 169.028 C 175.525 167.144,178.045 165.094,178.813 164.471 C 179.582 163.849,181.603 162.206,183.304 160.819 C 188.702 156.421,191.249 154.354,193.395 152.628 C 194.544 151.704,195.530 150.900,195.588 150.841 C 195.646 150.782,196.401 150.167,197.265 149.474 C 198.129 148.781,199.075 148.012,199.366 147.765 C 200.454 146.842,202.502 145.172,205.252 142.964 C 206.812 141.712,208.377 140.443,208.729 140.144 C 209.081 139.845,209.787 139.270,210.297 138.866 C 210.807 138.461,211.559 137.840,211.967 137.485 C 212.376 137.129,212.907 136.704,213.148 136.539 C 213.389 136.374,214.051 135.847,214.619 135.368 C 215.976 134.223,218.786 131.926,222.164 129.202 C 225.263 126.702,225.249 126.713,227.101 125.180 C 227.852 124.558,229.364 123.325,230.462 122.441 C 233.724 119.813,238.327 116.076,241.913 113.147 C 243.763 111.636,245.937 109.863,246.745 109.208 C 247.553 108.553,248.584 107.697,249.036 107.305 L 249.858 106.593 247.670 105.702 C 246.467 105.211,245.294 104.731,245.063 104.635 C 244.246 104.292,241.903 103.307,241.282 103.044 C 240.935 102.897,240.273 102.630,239.811 102.450 C 239.349 102.271,237.789 101.637,236.345 101.042 C 234.900 100.447,232.489 99.458,230.987 98.845 C 229.485 98.231,226.838 97.145,225.105 96.430 C 220.168 94.393,217.757 93.408,214.811 92.224 C 210.857 90.635,210.767 91.574,215.524 84.806 C 216.403 83.556,217.697 81.712,218.400 80.710 C 221.084 76.881,224.412 72.147,224.701 71.744 C 224.867 71.513,225.765 70.236,226.695 68.908 C 227.626 67.579,228.522 66.303,228.687 66.071 C 228.966 65.679,229.591 64.787,234.094 58.355 C 235.043 57.000,236.717 54.620,237.815 53.066 C 238.913 51.512,240.796 48.839,242.001 47.127 C 243.205 45.414,244.957 42.925,245.894 41.597 C 246.831 40.268,247.972 38.635,248.431 37.969 C 248.889 37.302,249.690 36.155,250.210 35.420 C 250.730 34.685,252.238 32.536,253.561 30.645 C 254.883 28.753,257.002 25.741,258.268 23.950 C 259.535 22.159,261.031 20.032,261.593 19.223 C 262.155 18.414,263.489 16.523,264.557 15.021 C 268.461 9.531,271.979 4.398,271.820 4.425 C 271.778 4.432,270.467 5.431,268.908 6.645 " stroke="none" fill="#050505" fill-rule="evenodd"></path><path id="path1" d="M0.000 105.042 L 0.000 210.084 200.000 210.084 L 400.000 210.084 400.000 105.042 L 400.000 0.000 200.000 0.000 L 0.000 0.000 0.000 105.042 M272.687 3.834 C 272.687 3.978,271.623 5.587,270.324 7.408 C 269.025 9.229,267.064 12.002,265.966 13.570 C 264.869 15.138,263.072 17.694,261.975 19.249 C 260.877 20.805,259.081 23.358,257.983 24.923 C 253.190 31.758,251.728 33.844,250.346 35.819 C 249.537 36.975,248.638 38.245,248.347 38.642 C 248.056 39.039,247.524 39.795,247.164 40.323 C 246.804 40.850,245.610 42.558,244.510 44.118 C 243.410 45.678,241.493 48.404,240.249 50.178 C 237.663 53.865,237.948 53.458,233.508 59.773 C 231.660 62.402,229.769 65.094,229.307 65.754 C 228.845 66.415,227.907 67.749,227.224 68.719 C 226.540 69.689,225.559 71.093,225.043 71.838 C 224.527 72.584,223.462 74.096,222.677 75.200 C 220.813 77.818,220.646 78.055,218.753 80.777 C 217.870 82.048,215.975 84.732,214.544 86.740 C 211.623 90.838,211.667 90.580,213.761 91.391 C 214.454 91.660,215.494 92.092,216.071 92.350 C 216.649 92.609,217.776 93.068,218.576 93.369 C 219.376 93.670,220.132 93.992,220.257 94.086 C 220.381 94.179,220.956 94.422,221.534 94.627 C 222.111 94.831,222.985 95.178,223.475 95.398 C 223.964 95.618,224.414 95.798,224.475 95.798 C 224.535 95.798,225.032 95.997,225.580 96.239 C 226.830 96.793,226.908 96.826,229.832 98.013 C 231.161 98.552,232.532 99.115,232.878 99.264 C 233.225 99.413,234.501 99.928,235.714 100.408 C 236.928 100.888,238.204 101.411,238.550 101.570 C 238.897 101.728,239.701 102.062,240.336 102.311 C 240.972 102.560,241.775 102.888,242.122 103.041 C 242.468 103.193,243.839 103.759,245.168 104.298 C 246.497 104.838,247.773 105.361,248.004 105.462 C 248.235 105.562,248.776 105.763,249.205 105.908 C 250.519 106.352,250.463 106.597,248.729 107.983 C 248.223 108.388,247.475 109.005,247.066 109.355 C 246.658 109.706,245.614 110.556,244.748 111.246 C 243.881 111.935,243.125 112.547,243.067 112.605 C 243.009 112.663,242.255 113.278,241.392 113.971 C 239.559 115.442,239.030 115.874,238.148 116.620 C 237.792 116.921,236.507 117.966,235.294 118.940 C 233.131 120.679,226.763 125.850,225.105 127.215 C 223.815 128.278,220.441 131.022,218.272 132.773 C 217.198 133.640,215.744 134.826,215.040 135.409 C 213.682 136.535,210.183 139.375,208.088 141.052 C 207.395 141.607,206.601 142.252,206.324 142.485 C 206.046 142.718,204.250 144.188,202.332 145.751 C 200.414 147.314,198.433 148.933,197.929 149.349 C 197.426 149.765,196.705 150.341,196.327 150.630 C 195.949 150.919,194.959 151.723,194.126 152.416 C 193.293 153.109,192.217 153.990,191.736 154.374 C 191.255 154.758,190.483 155.384,190.021 155.766 C 188.814 156.764,184.145 160.565,182.702 161.725 C 182.027 162.267,180.785 163.277,179.941 163.971 C 179.097 164.664,177.817 165.704,177.096 166.282 C 176.375 166.859,175.679 167.428,175.550 167.545 C 175.259 167.809,170.193 171.930,168.065 173.634 C 167.200 174.327,166.444 174.942,166.387 175.000 C 166.329 175.059,165.572 175.667,164.706 176.352 C 163.839 177.037,162.793 177.887,162.380 178.242 C 161.506 178.993,161.143 179.290,159.028 180.987 C 158.165 181.680,157.411 182.298,157.353 182.361 C 157.295 182.424,156.113 183.389,154.727 184.504 C 153.340 185.620,150.977 187.536,149.475 188.762 C 147.973 189.989,145.609 191.912,144.223 193.037 C 142.836 194.161,139.055 197.234,135.819 199.865 C 132.584 202.495,129.566 204.949,129.113 205.318 C 127.839 206.354,127.638 206.499,127.468 206.506 C 127.120 206.521,127.368 206.025,128.591 204.262 C 129.295 203.247,130.121 202.038,130.427 201.576 C 130.733 201.113,131.032 200.688,131.090 200.630 C 131.149 200.572,131.668 199.816,132.243 198.950 C 132.817 198.083,133.343 197.327,133.411 197.269 C 133.479 197.211,134.267 196.077,135.163 194.748 C 136.058 193.419,137.802 190.861,139.036 189.062 C 144.629 180.918,147.051 177.397,148.708 175.000 C 149.227 174.249,150.245 172.772,150.970 171.717 C 151.695 170.663,153.001 168.772,153.872 167.516 C 154.743 166.259,155.875 164.617,156.388 163.866 C 156.901 163.114,157.875 161.696,158.552 160.714 C 159.230 159.732,160.689 157.605,161.795 155.987 C 165.362 150.770,166.257 149.477,166.375 149.370 C 166.439 149.312,166.586 149.106,166.702 148.911 C 166.940 148.510,169.215 145.166,170.749 142.962 C 171.824 141.418,173.039 139.654,175.666 135.819 C 176.537 134.548,177.548 133.083,177.913 132.563 C 178.278 132.043,179.092 130.861,179.723 129.937 C 180.353 129.013,181.230 127.736,181.672 127.101 C 185.741 121.251,187.882 118.064,187.796 117.984 C 187.749 117.940,185.394 117.131,182.563 116.188 C 179.732 115.244,176.801 114.248,176.050 113.974 C 175.299 113.700,173.787 113.191,172.689 112.843 C 169.146 111.717,156.485 107.395,156.357 107.267 C 156.288 107.199,156.058 107.143,155.844 107.143 C 155.631 107.143,155.292 107.057,155.092 106.952 C 154.738 106.767,152.812 106.109,150.000 105.211 C 149.249 104.972,148.445 104.702,148.214 104.612 C 147.983 104.523,147.132 104.233,146.324 103.969 C 143.853 103.162,143.850 103.145,145.851 101.625 C 147.571 100.318,148.544 99.564,154.622 94.834 C 156.991 92.991,159.176 91.296,159.478 91.067 C 159.780 90.838,160.961 89.925,162.104 89.038 C 163.246 88.150,165.599 86.328,167.332 84.988 C 169.065 83.648,170.767 82.329,171.113 82.057 C 171.653 81.633,173.136 80.483,176.474 77.901 C 176.877 77.589,177.974 76.738,178.913 76.010 C 179.852 75.281,180.931 74.449,181.311 74.160 C 181.691 73.871,182.908 72.925,184.016 72.059 C 185.124 71.192,186.361 70.229,186.765 69.917 C 187.169 69.606,188.268 68.755,189.207 68.027 C 190.146 67.298,191.224 66.465,191.602 66.176 C 191.980 65.888,194.285 64.099,196.723 62.202 C 202.233 57.914,203.087 57.251,206.092 54.936 C 207.421 53.912,209.548 52.262,210.819 51.269 C 212.090 50.276,213.380 49.277,213.685 49.049 C 213.990 48.821,215.267 47.832,216.521 46.851 C 217.776 45.871,219.512 44.522,220.378 43.854 C 223.428 41.503,224.917 40.349,227.136 38.618 C 228.369 37.656,230.722 35.830,232.365 34.559 C 234.008 33.288,236.083 31.681,236.977 30.987 C 237.872 30.294,238.914 29.491,239.293 29.202 C 240.320 28.420,250.539 20.495,251.996 19.350 C 252.689 18.805,254.958 17.048,257.038 15.444 C 259.118 13.840,261.434 12.045,262.185 11.454 C 264.630 9.530,266.468 8.101,267.730 7.140 C 268.411 6.622,269.734 5.609,270.671 4.890 C 272.447 3.526,272.690 3.399,272.687 3.834 " stroke="none" fill="#fbfbfb" fill-rule="evenodd"></path><path id="path2" d="M272.213 3.697 C 272.144 3.766,272.135 3.947,272.194 4.099 C 272.252 4.250,271.790 5.068,271.167 5.916 C 270.043 7.447,269.540 8.214,269.834 7.951 C 270.256 7.573,272.689 4.069,272.689 3.838 C 272.689 3.559,272.429 3.482,272.213 3.697 M269.118 6.110 L 268.172 6.967 269.170 6.189 C 270.045 5.508,270.304 5.251,270.116 5.253 C 270.087 5.253,269.638 5.639,269.118 6.110 M266.601 7.997 C 265.852 8.571,265.096 9.193,264.920 9.380 C 264.744 9.567,265.381 9.132,266.334 8.414 C 267.807 7.305,268.277 6.893,268.015 6.943 C 267.986 6.948,267.350 7.422,266.601 7.997 M263.078 10.727 C 262.356 11.303,261.765 11.822,261.765 11.879 C 261.765 11.935,262.379 11.499,263.130 10.909 C 264.304 9.987,264.671 9.640,264.443 9.671 C 264.414 9.675,263.800 10.150,263.078 10.727 M267.028 11.817 C 266.420 12.714,266.339 12.897,266.773 12.395 C 267.122 11.991,267.561 11.400,267.749 11.082 C 268.366 10.040,267.936 10.477,267.028 11.817 M259.139 13.781 C 258.330 14.417,257.526 15.089,257.353 15.273 C 257.180 15.457,257.825 15.005,258.788 14.269 C 260.312 13.104,260.907 12.582,260.674 12.614 C 260.638 12.619,259.947 13.144,259.139 13.781 M265.336 14.181 C 264.978 14.701,264.733 15.126,264.791 15.126 C 264.849 15.126,265.188 14.701,265.546 14.181 C 265.904 13.661,266.149 13.235,266.092 13.235 C 266.034 13.235,265.694 13.661,265.336 14.181 M255.987 16.305 L 255.147 17.057 256.040 16.389 C 256.808 15.814,257.086 15.537,256.880 15.549 C 256.851 15.551,256.450 15.891,255.987 16.305 M262.843 17.752 C 262.238 18.619,261.786 19.328,261.840 19.328 C 261.929 19.328,263.584 17.059,263.947 16.439 C 264.398 15.669,263.806 16.373,262.843 17.752 M252.311 19.137 L 251.366 19.996 252.255 19.331 C 253.039 18.746,253.515 18.276,253.321 18.278 C 253.286 18.278,252.831 18.665,252.311 19.137 M249.370 21.348 C 248.850 21.754,248.283 22.236,248.109 22.420 C 247.936 22.604,248.385 22.309,249.107 21.764 C 249.829 21.219,250.420 20.732,250.420 20.681 C 250.420 20.535,250.371 20.566,249.370 21.348 M259.059 23.162 C 258.488 23.996,258.391 24.207,258.793 23.739 C 259.415 23.015,260.180 21.849,260.032 21.849 C 259.991 21.849,259.553 22.440,259.059 23.162 M246.534 23.554 C 245.249 24.593,244.843 25.011,245.693 24.419 C 246.465 23.882,247.833 22.707,247.689 22.705 C 247.631 22.705,247.111 23.086,246.534 23.554 M255.166 28.729 C 254.740 29.393,254.611 29.678,254.879 29.362 C 255.410 28.739,256.170 27.521,256.029 27.521 C 255.981 27.521,255.593 28.065,255.166 28.729 M238.227 30.057 L 237.500 30.703 238.288 30.137 C 238.984 29.638,239.211 29.412,239.015 29.412 C 238.982 29.412,238.627 29.702,238.227 30.057 M235.977 31.735 C 235.255 32.312,234.664 32.835,234.664 32.897 C 234.664 33.029,237.159 31.094,237.315 30.841 C 237.500 30.543,237.316 30.666,235.977 31.735 M251.659 33.666 C 251.400 34.041,250.851 34.817,250.439 35.390 C 250.028 35.962,249.794 36.367,249.920 36.289 C 250.188 36.123,252.385 32.983,252.233 32.983 C 252.176 32.983,251.918 33.290,251.659 33.666 M229.727 36.578 C 228.687 37.386,227.694 38.196,227.521 38.379 C 227.348 38.563,228.178 37.977,229.366 37.078 C 231.211 35.681,231.958 35.042,231.683 35.097 C 231.647 35.104,230.767 35.770,229.727 36.578 M248.429 38.257 C 248.005 38.847,247.759 39.268,247.881 39.192 C 248.137 39.034,249.439 37.185,249.295 37.185 C 249.242 37.185,248.852 37.667,248.429 38.257 M225.683 39.718 C 224.961 40.295,224.370 40.813,224.370 40.870 C 224.370 40.927,224.984 40.491,225.735 39.900 C 226.909 38.978,227.276 38.632,227.048 38.663 C 227.019 38.666,226.405 39.142,225.683 39.718 M246.946 40.389 C 246.622 40.880,246.491 41.171,246.655 41.035 C 246.971 40.774,247.775 39.496,247.624 39.496 C 247.575 39.496,247.270 39.898,246.946 40.389 M223.311 41.612 L 222.584 42.257 223.372 41.692 C 224.068 41.192,224.295 40.966,224.099 40.966 C 224.066 40.966,223.711 41.257,223.311 41.612 M244.067 44.485 C 242.935 46.060,242.344 46.982,242.684 46.639 C 243.102 46.218,245.006 43.487,244.881 43.487 C 244.828 43.487,244.461 43.936,244.067 44.485 M218.225 45.502 C 217.560 46.030,217.017 46.508,217.017 46.565 C 217.017 46.621,217.584 46.221,218.277 45.676 C 219.388 44.803,219.675 44.534,219.485 44.539 C 219.456 44.540,218.889 44.973,218.225 45.502 M214.916 48.127 L 213.971 48.984 214.968 48.206 C 215.843 47.524,216.103 47.267,215.914 47.269 C 215.885 47.270,215.436 47.656,214.916 48.127 M212.395 50.019 C 211.644 50.603,210.888 51.231,210.714 51.414 C 210.541 51.597,211.179 51.153,212.132 50.427 C 213.641 49.278,214.031 48.936,213.813 48.954 C 213.784 48.956,213.146 49.436,212.395 50.019 M239.286 51.261 C 238.815 51.954,238.477 52.521,238.535 52.521 C 238.593 52.521,239.025 51.954,239.496 51.261 C 239.967 50.567,240.305 50.000,240.247 50.000 C 240.189 50.000,239.757 50.567,239.286 51.261 M209.139 52.544 C 207.540 53.836,207.282 54.194,208.784 53.039 C 209.944 52.146,210.470 51.663,210.254 51.688 C 210.218 51.692,209.716 52.077,209.139 52.544 M237.815 53.361 C 237.568 53.708,237.414 53.992,237.471 53.992 C 237.529 53.992,237.778 53.708,238.025 53.361 C 238.272 53.015,238.427 52.731,238.369 52.731 C 238.311 52.731,238.062 53.015,237.815 53.361 M236.764 54.884 C 236.455 55.307,236.404 55.454,236.631 55.269 C 236.975 54.990,237.496 54.202,237.337 54.202 C 237.297 54.202,237.039 54.509,236.764 54.884 M204.517 56.116 C 202.918 57.407,202.661 57.766,204.162 56.610 C 205.322 55.717,205.848 55.235,205.632 55.260 C 205.596 55.264,205.095 55.649,204.517 56.116 M235.763 56.250 C 235.219 57.036,235.042 57.353,235.149 57.353 C 235.198 57.353,235.489 56.975,235.794 56.513 C 236.416 55.573,236.389 55.346,235.763 56.250 M201.418 58.527 C 200.754 59.055,200.210 59.533,200.210 59.588 C 200.210 59.643,200.777 59.252,201.471 58.718 C 202.558 57.882,202.897 57.558,202.679 57.565 C 202.650 57.565,202.082 57.999,201.418 58.527 M198.845 60.527 C 197.245 61.819,196.988 62.178,198.490 61.022 C 199.650 60.129,200.176 59.646,199.960 59.671 C 199.924 59.675,199.422 60.061,198.845 60.527 M231.885 61.817 C 230.431 63.883,229.951 64.627,230.292 64.286 C 230.711 63.866,233.040 60.504,232.911 60.504 C 232.855 60.504,232.394 61.095,231.885 61.817 M193.382 64.834 L 192.542 65.586 193.435 64.918 C 194.203 64.343,194.481 64.067,194.275 64.079 C 194.246 64.080,193.845 64.420,193.382 64.834 M228.331 66.859 C 227.992 67.344,227.960 67.455,228.223 67.244 C 228.598 66.944,229.090 66.176,228.908 66.176 C 228.854 66.176,228.595 66.484,228.331 66.859 M190.538 67.032 L 189.811 67.677 190.599 67.112 C 191.295 66.613,191.521 66.387,191.326 66.387 C 191.293 66.387,190.938 66.677,190.538 67.032 M188.288 68.710 C 187.566 69.287,186.975 69.810,186.975 69.872 C 186.975 70.004,189.470 68.069,189.626 67.816 C 189.811 67.518,189.627 67.641,188.288 68.710 M226.681 69.223 C 226.323 69.743,226.078 70.168,226.135 70.168 C 226.193 70.168,226.533 69.743,226.891 69.223 C 227.248 68.703,227.494 68.277,227.436 68.277 C 227.378 68.277,227.038 68.703,226.681 69.223 M185.916 70.603 L 185.189 71.249 185.977 70.684 C 186.673 70.184,186.900 69.958,186.704 69.958 C 186.671 69.958,186.316 70.248,185.916 70.603 M224.179 72.847 C 223.662 73.602,223.630 73.691,224.048 73.214 C 224.604 72.580,225.081 71.849,224.938 71.849 C 224.896 71.849,224.554 72.298,224.179 72.847 M222.689 74.895 C 222.331 75.415,222.086 75.840,222.144 75.840 C 222.201 75.840,222.541 75.415,222.899 74.895 C 223.257 74.375,223.502 73.950,223.445 73.950 C 223.387 73.950,223.047 74.375,222.689 74.895 M180.244 75.015 L 179.517 75.661 180.305 75.095 C 181.001 74.596,181.227 74.370,181.032 74.370 C 180.999 74.370,180.644 74.660,180.244 75.015 M177.994 76.693 C 177.272 77.270,176.681 77.788,176.681 77.845 C 176.681 77.902,177.295 77.465,178.046 76.875 C 179.220 75.953,179.587 75.606,179.359 75.637 C 179.330 75.641,178.716 76.116,177.994 76.693 M175.158 78.905 C 174.493 79.434,173.950 79.912,173.950 79.968 C 173.950 80.024,174.517 79.624,175.210 79.080 C 176.321 78.207,176.608 77.937,176.418 77.943 C 176.389 77.944,175.822 78.377,175.158 78.905 M219.635 79.254 C 219.311 79.745,219.180 80.036,219.345 79.901 C 219.660 79.640,220.464 78.361,220.313 78.361 C 220.264 78.361,219.959 78.763,219.635 79.254 M218.487 80.882 C 218.241 81.229,218.086 81.513,218.144 81.513 C 218.201 81.513,218.451 81.229,218.697 80.882 C 218.944 80.536,219.099 80.252,219.041 80.252 C 218.983 80.252,218.734 80.536,218.487 80.882 M171.873 81.418 C 171.366 81.817,171.035 82.141,171.137 82.140 C 171.240 82.138,171.702 81.811,172.164 81.412 C 173.248 80.478,173.064 80.482,171.873 81.418 M217.412 82.405 C 215.540 85.103,215.096 85.780,215.379 85.504 C 215.806 85.088,218.133 81.723,217.994 81.723 C 217.934 81.723,217.673 82.030,217.412 82.405 M169.950 82.998 L 169.223 83.644 170.011 83.078 C 170.707 82.579,170.933 82.353,170.738 82.353 C 170.705 82.353,170.350 82.643,169.950 82.998 M166.216 85.801 C 165.139 86.643,164.100 87.501,163.905 87.709 C 163.519 88.120,166.458 85.906,167.647 84.889 C 168.978 83.752,168.208 84.242,166.216 85.801 M161.187 89.718 C 160.465 90.295,159.874 90.818,159.874 90.881 C 159.874 91.012,162.369 89.077,162.526 88.824 C 162.710 88.526,162.526 88.649,161.187 89.718 M158.816 91.612 L 158.088 92.257 158.876 91.692 C 159.572 91.192,159.799 90.966,159.603 90.966 C 159.570 90.966,159.216 91.257,158.816 91.612 M213.874 91.566 C 214.355 91.881,216.525 92.708,216.282 92.484 C 216.092 92.309,214.671 91.703,213.866 91.453 C 213.599 91.370,213.600 91.387,213.874 91.566 M155.462 94.141 C 154.133 95.180,152.904 96.181,152.731 96.366 C 152.371 96.750,156.239 93.828,157.353 92.874 C 158.786 91.647,157.846 92.277,155.462 94.141 M217.962 93.227 C 218.257 93.493,220.529 94.394,220.273 94.143 C 220.157 94.030,219.543 93.735,218.908 93.487 C 218.272 93.240,217.847 93.123,217.962 93.227 M224.398 95.897 C 224.575 96.073,226.050 96.647,226.050 96.539 C 226.050 96.481,225.708 96.291,225.289 96.116 C 224.514 95.792,224.222 95.720,224.398 95.897 M151.155 97.502 C 149.556 98.794,149.299 99.152,150.801 97.997 C 151.961 97.104,152.486 96.621,152.271 96.646 C 152.235 96.650,151.733 97.035,151.155 97.502 M229.412 98.004 C 229.701 98.169,230.032 98.304,230.147 98.304 C 230.263 98.304,230.121 98.169,229.832 98.004 C 229.543 97.839,229.212 97.704,229.097 97.704 C 228.981 97.704,229.123 97.839,229.412 98.004 M148.521 99.595 L 147.794 100.240 148.582 99.675 C 149.278 99.176,149.505 98.950,149.309 98.950 C 149.276 98.950,148.922 99.240,148.521 99.595 M234.852 100.229 C 235.360 100.455,235.813 100.602,235.859 100.556 C 235.949 100.465,234.331 99.781,234.082 99.805 C 233.998 99.813,234.344 100.004,234.852 100.229 M237.185 101.121 C 237.185 101.175,237.490 101.326,237.863 101.456 C 238.236 101.586,238.448 101.606,238.336 101.500 C 238.096 101.276,237.185 100.976,237.185 101.121 M240.126 102.398 C 240.415 102.552,240.888 102.738,241.176 102.809 C 241.465 102.881,241.324 102.758,240.861 102.536 C 239.911 102.079,239.321 101.968,240.126 102.398 M144.538 102.626 C 144.221 103.008,144.591 103.580,145.141 103.558 C 145.373 103.549,145.330 103.483,145.011 103.355 C 144.479 103.141,144.421 102.932,144.790 102.563 C 144.929 102.424,144.987 102.311,144.921 102.311 C 144.854 102.311,144.682 102.453,144.538 102.626 M243.277 103.676 C 243.566 103.842,243.897 103.977,244.013 103.977 C 244.128 103.977,243.986 103.842,243.697 103.676 C 243.409 103.511,243.078 103.376,242.962 103.376 C 242.847 103.376,242.988 103.511,243.277 103.676 M146.113 103.863 C 146.460 104.021,146.980 104.208,147.269 104.279 C 147.691 104.382,147.670 104.351,147.164 104.120 C 146.817 103.963,146.297 103.775,146.008 103.705 C 145.587 103.601,145.607 103.632,146.113 103.863 M244.748 104.307 C 245.037 104.472,245.368 104.607,245.483 104.607 C 245.599 104.607,245.457 104.472,245.168 104.307 C 244.879 104.142,244.548 104.006,244.433 104.006 C 244.317 104.006,244.459 104.142,244.748 104.307 M246.849 105.112 C 246.849 105.167,247.154 105.317,247.527 105.447 C 247.900 105.577,248.112 105.597,247.999 105.492 C 247.760 105.268,246.849 104.967,246.849 105.112 M248.935 106.001 C 249.332 106.173,249.783 106.420,249.938 106.548 C 250.155 106.728,250.193 106.712,250.103 106.477 C 250.038 106.309,249.675 106.059,249.295 105.922 C 248.323 105.570,248.070 105.626,248.935 106.001 M152.913 106.206 C 153.302 106.374,153.727 106.509,153.858 106.504 C 153.989 106.500,153.779 106.358,153.390 106.189 C 153.001 106.020,152.576 105.886,152.444 105.891 C 152.313 105.895,152.524 106.037,152.913 106.206 M158.585 108.096 C 158.974 108.265,159.399 108.400,159.530 108.395 C 159.662 108.391,159.451 108.249,159.062 108.080 C 158.673 107.911,158.248 107.777,158.117 107.781 C 157.985 107.786,158.196 107.928,158.585 108.096 M248.093 108.334 L 247.584 108.895 248.155 108.492 C 248.469 108.270,248.729 108.017,248.733 107.931 C 248.744 107.672,248.629 107.745,248.093 108.334 M246.218 109.902 L 245.273 110.759 246.163 110.091 C 246.937 109.510,247.434 109.020,247.229 109.040 C 247.193 109.043,246.738 109.431,246.218 109.902 M163.550 109.745 C 163.897 109.903,164.417 110.090,164.706 110.161 C 165.128 110.264,165.107 110.233,164.601 110.003 C 164.254 109.845,163.734 109.658,163.445 109.587 C 163.024 109.483,163.044 109.515,163.550 109.745 M168.277 111.309 C 168.451 111.416,168.829 111.567,169.118 111.644 C 169.483 111.742,169.547 111.725,169.328 111.590 C 169.154 111.483,168.776 111.332,168.487 111.255 C 168.122 111.157,168.058 111.174,168.277 111.309 M170.350 112.088 C 170.739 112.257,171.164 112.391,171.295 112.387 C 171.426 112.382,171.216 112.240,170.827 112.072 C 170.438 111.903,170.013 111.768,169.881 111.773 C 169.750 111.777,169.961 111.919,170.350 112.088 M240.756 114.314 L 239.811 115.170 240.701 114.503 C 241.475 113.922,241.972 113.432,241.767 113.452 C 241.731 113.455,241.276 113.843,240.756 114.314 M177.206 114.398 C 177.553 114.557,177.978 114.684,178.151 114.680 C 178.325 114.677,178.136 114.546,177.731 114.391 C 176.772 114.021,176.395 114.027,177.206 114.398 M182.325 116.080 C 182.713 116.248,183.139 116.383,183.270 116.378 C 183.401 116.374,183.190 116.232,182.802 116.063 C 182.413 115.894,181.987 115.760,181.856 115.765 C 181.725 115.769,181.936 115.911,182.325 116.080 M237.290 117.155 C 236.391 117.979,236.363 118.024,237.100 117.470 C 237.878 116.885,238.617 116.164,238.419 116.185 C 238.376 116.189,237.868 116.626,237.290 117.155 M183.824 116.561 C 183.997 116.668,184.375 116.819,184.664 116.896 C 185.029 116.994,185.093 116.977,184.874 116.842 C 184.701 116.735,184.322 116.584,184.034 116.507 C 183.669 116.409,183.605 116.426,183.824 116.561 M186.345 120.273 C 185.987 120.793,185.741 121.218,185.799 121.218 C 185.857 121.218,186.197 120.793,186.555 120.273 C 186.912 119.753,187.158 119.328,187.100 119.328 C 187.042 119.328,186.702 119.753,186.345 120.273 M231.618 121.769 L 230.567 122.732 231.670 121.850 C 232.625 121.087,232.928 120.786,232.721 120.803 C 232.692 120.805,232.195 121.240,231.618 121.769 M184.742 122.637 C 184.121 123.490,183.930 123.924,184.442 123.319 C 184.915 122.760,185.357 122.059,185.236 122.059 C 185.196 122.059,184.974 122.319,184.742 122.637 M228.256 124.500 L 227.206 125.463 228.309 124.582 C 229.264 123.819,229.566 123.517,229.359 123.534 C 229.330 123.536,228.834 123.971,228.256 124.500 M226.050 126.278 L 225.105 127.135 226.103 126.357 C 226.978 125.676,227.237 125.419,227.048 125.421 C 227.019 125.421,226.570 125.807,226.050 126.278 M181.982 126.628 C 181.438 127.414,181.261 127.731,181.367 127.731 C 181.416 127.731,181.707 127.353,182.013 126.891 C 182.634 125.951,182.607 125.724,181.982 126.628 M180.842 128.309 C 180.472 128.740,180.194 129.202,180.305 129.202 C 180.348 129.202,180.593 128.918,180.849 128.571 C 181.356 127.887,181.351 127.716,180.842 128.309 M222.584 129.122 L 221.534 130.085 222.637 129.203 C 223.592 128.440,223.894 128.139,223.687 128.156 C 223.658 128.158,223.162 128.593,222.584 129.122 M179.671 129.989 C 179.127 130.775,178.950 131.092,179.056 131.092 C 179.106 131.092,179.396 130.714,179.702 130.252 C 180.324 129.313,180.296 129.086,179.671 129.989 M220.378 130.911 L 219.433 131.767 220.323 131.099 C 221.097 130.518,221.594 130.028,221.388 130.048 C 221.353 130.052,220.898 130.440,220.378 130.911 M178.531 131.670 C 178.161 132.101,177.883 132.563,177.994 132.563 C 178.037 132.563,178.282 132.279,178.538 131.933 C 179.045 131.248,179.040 131.078,178.531 131.670 M177.057 133.771 C 176.161 135.024,175.998 135.294,176.135 135.294 C 176.196 135.294,176.630 134.727,177.101 134.034 C 178.116 132.539,178.082 132.337,177.057 133.771 M213.445 136.572 L 212.500 137.429 213.498 136.651 C 214.373 135.970,214.632 135.713,214.443 135.715 C 214.414 135.715,213.965 136.101,213.445 136.572 M174.240 137.864 C 173.359 139.156,173.203 139.479,173.807 138.761 C 174.383 138.075,175.078 136.975,174.935 136.975 C 174.886 136.975,174.573 137.375,174.240 137.864 M211.345 138.264 L 210.399 139.120 211.289 138.452 C 212.063 137.871,212.560 137.381,212.355 137.401 C 212.319 137.405,211.864 137.793,211.345 138.264 M172.015 141.124 C 171.153 142.330,170.956 142.647,171.071 142.647 C 171.118 142.647,171.555 142.080,172.042 141.387 C 172.528 140.693,172.882 140.126,172.827 140.126 C 172.773 140.126,172.407 140.575,172.015 141.124 M208.426 140.558 C 208.150 140.789,207.968 141.021,208.023 141.076 C 208.077 141.130,208.343 140.939,208.614 140.650 C 209.204 140.023,209.119 139.981,208.426 140.558 M204.517 143.828 L 203.466 144.790 204.569 143.909 C 205.524 143.146,205.827 142.844,205.620 142.861 C 205.591 142.864,205.095 143.299,204.517 143.828 M169.476 144.800 C 168.495 146.194,168.069 146.894,168.420 146.534 C 168.785 146.159,170.613 143.487,170.504 143.487 C 170.447 143.487,169.984 144.078,169.476 144.800 M200.945 146.663 C 199.674 147.704,198.493 148.712,198.319 148.903 C 198.028 149.225,198.036 149.226,198.424 148.920 C 201.522 146.480,203.618 144.694,203.309 144.759 C 203.280 144.765,202.216 145.622,200.945 146.663 M167.056 148.311 C 166.803 148.653,166.597 149.002,166.597 149.087 C 166.597 149.172,166.833 148.921,167.122 148.529 C 167.411 148.138,167.647 147.789,167.647 147.753 C 167.647 147.582,167.476 147.743,167.056 148.311 M196.849 150.036 C 196.298 150.536,196.167 150.717,196.534 150.470 C 197.114 150.079,198.077 149.148,197.879 149.169 C 197.832 149.174,197.369 149.564,196.849 150.036 M165.804 150.120 C 165.545 150.516,165.374 150.840,165.425 150.840 C 165.571 150.840,166.441 149.565,166.354 149.478 C 166.312 149.435,166.064 149.724,165.804 150.120 M164.059 152.665 C 163.192 153.852,162.974 154.202,163.100 154.202 C 163.187 154.202,164.401 152.572,164.782 151.943 C 165.158 151.322,164.719 151.760,164.059 152.665 M192.227 153.810 C 191.408 154.566,191.316 154.693,191.912 154.247 C 192.693 153.662,193.661 152.723,193.467 152.738 C 193.421 152.741,192.862 153.224,192.227 153.810 M161.572 156.303 C 161.085 156.996,160.732 157.563,160.786 157.563 C 160.876 157.563,162.084 155.943,162.471 155.305 C 162.922 154.560,162.344 155.201,161.572 156.303 M189.375 156.146 L 188.761 156.826 189.391 156.302 C 189.737 156.013,190.060 155.754,190.109 155.725 C 190.157 155.696,190.150 155.626,190.093 155.569 C 190.037 155.513,189.714 155.772,189.375 156.146 M185.660 159.108 C 184.012 160.475,182.608 161.769,183.718 160.899 C 185.100 159.817,187.605 157.722,187.605 157.649 C 187.605 157.501,187.545 157.546,185.660 159.108 M159.292 159.611 C 158.749 160.397,158.572 160.714,158.678 160.714 C 158.727 160.714,159.018 160.336,159.324 159.874 C 159.945 158.935,159.918 158.707,159.292 159.611 M182.143 162.011 C 181.592 162.511,181.461 162.692,181.828 162.445 C 182.408 162.054,183.371 161.123,183.173 161.143 C 183.127 161.148,182.663 161.539,182.143 162.011 M156.982 162.973 C 156.438 163.758,156.261 164.076,156.367 164.076 C 156.416 164.076,156.707 163.697,157.013 163.235 C 157.634 162.296,157.607 162.069,156.982 162.973 M179.474 164.145 C 177.930 165.450,177.600 165.787,178.466 165.175 C 179.218 164.644,181.032 163.043,180.882 163.043 C 180.825 163.044,180.191 163.539,179.474 164.145 M154.366 166.747 C 153.002 168.739,152.897 168.908,153.013 168.908 C 153.064 168.908,153.688 168.057,154.400 167.017 C 155.113 165.977,155.646 165.126,155.585 165.126 C 155.525 165.126,154.976 165.855,154.366 166.747 M172.204 170.064 C 170.493 171.475,168.981 172.759,168.843 172.916 C 168.546 173.257,168.599 173.215,172.374 170.158 C 173.992 168.848,175.355 167.747,175.403 167.712 C 175.451 167.676,175.451 167.614,175.403 167.573 C 175.355 167.532,173.915 168.653,172.204 170.064 M151.846 170.431 C 150.730 172.029,150.580 172.269,150.697 172.269 C 150.747 172.269,151.278 171.560,151.877 170.693 C 152.476 169.827,152.921 169.118,152.865 169.118 C 152.809 169.118,152.351 169.709,151.846 170.431 M148.998 174.527 C 148.454 175.313,148.278 175.630,148.384 175.630 C 148.433 175.630,148.724 175.252,149.030 174.790 C 149.651 173.851,149.624 173.623,148.998 174.527 M147.219 177.153 C 146.214 178.576,145.810 179.234,146.156 178.887 C 146.515 178.526,148.362 175.840,148.251 175.840 C 148.193 175.840,147.729 176.431,147.219 177.153 M161.765 178.600 L 160.819 179.456 161.709 178.788 C 162.483 178.208,162.980 177.718,162.775 177.737 C 162.739 177.741,162.285 178.129,161.765 178.600 M145.378 179.832 C 145.131 180.179,144.977 180.462,145.034 180.462 C 145.092 180.462,145.341 180.179,145.588 179.832 C 145.835 179.485,145.990 179.202,145.932 179.202 C 145.874 179.202,145.625 179.485,145.378 179.832 M160.068 179.973 L 159.559 180.533 160.130 180.130 C 160.444 179.908,160.704 179.656,160.708 179.569 C 160.719 179.311,160.603 179.383,160.068 179.973 M158.403 181.331 L 157.458 182.187 158.348 181.519 C 159.122 180.939,159.619 180.449,159.414 180.468 C 159.378 180.472,158.923 180.860,158.403 181.331 M143.711 182.248 C 143.112 183.114,142.668 183.824,142.723 183.824 C 142.779 183.824,143.237 183.233,143.742 182.511 C 144.859 180.912,145.009 180.672,144.892 180.672 C 144.841 180.672,144.310 181.381,143.711 182.248 M156.602 182.827 L 155.987 183.507 156.618 182.982 C 156.964 182.694,157.287 182.434,157.335 182.405 C 157.384 182.377,157.377 182.307,157.320 182.250 C 157.264 182.194,156.941 182.453,156.602 182.827 M141.370 185.648 C 140.503 186.835,140.285 187.185,140.411 187.185 C 140.498 187.185,141.712 185.555,142.093 184.926 C 142.469 184.306,142.030 184.743,141.370 185.648 M151.471 186.992 L 150.525 187.849 151.523 187.072 C 152.398 186.390,152.657 186.133,152.468 186.135 C 152.440 186.135,151.991 186.521,151.471 186.992 M138.883 189.286 C 138.396 189.979,138.043 190.546,138.097 190.546 C 138.187 190.546,139.395 188.926,139.782 188.288 C 140.233 187.544,139.655 188.184,138.883 189.286 M145.903 191.525 C 145.004 192.348,144.977 192.394,145.713 191.840 C 146.491 191.255,147.231 190.534,147.032 190.554 C 146.989 190.559,146.481 190.995,145.903 191.525 M136.134 193.277 C 135.664 193.971,135.326 194.538,135.384 194.538 C 135.441 194.538,135.874 193.971,136.345 193.277 C 136.815 192.584,137.153 192.017,137.095 192.017 C 137.038 192.017,136.605 192.584,136.134 193.277 M137.815 198.027 C 135.909 199.587,134.160 201.066,133.929 201.313 C 133.697 201.560,134.028 201.336,134.664 200.815 C 135.299 200.295,137.072 198.852,138.603 197.608 C 140.993 195.668,141.601 195.127,141.334 195.178 C 141.305 195.184,139.722 196.466,137.815 198.027 M132.189 199.002 C 131.422 200.134,131.256 200.420,131.365 200.420 C 131.414 200.420,131.798 199.900,132.220 199.265 C 132.642 198.629,132.944 198.109,132.890 198.109 C 132.837 198.109,132.521 198.511,132.189 199.002 M129.074 203.516 C 127.998 205.101,127.905 205.252,128.005 205.252 C 128.084 205.252,129.574 203.163,129.915 202.574 C 130.333 201.851,129.793 202.456,129.074 203.516 M128.556 205.620 L 128.046 206.197 128.676 205.672 C 129.023 205.383,129.346 205.123,129.394 205.095 C 129.442 205.066,129.388 205.042,129.273 205.042 C 129.159 205.042,128.836 205.302,128.556 205.620 M127.401 205.950 C 127.233 206.388,127.443 206.674,127.726 206.392 C 127.845 206.272,127.848 206.072,127.734 205.886 C 127.572 205.626,127.522 205.635,127.401 205.950 " stroke="none" fill="#a1a0a1" fill-rule="evenodd"></path><path id="path3" d="M271.505 4.532 C 271.174 4.841,271.069 4.977,271.271 4.832 C 271.809 4.449,271.723 4.738,270.976 5.824 C 270.612 6.354,270.402 6.733,270.510 6.666 C 270.840 6.462,272.335 4.198,272.218 4.080 C 272.157 4.020,271.836 4.223,271.505 4.532 M269.013 6.431 L 268.172 7.183 269.065 6.515 C 269.834 5.940,270.111 5.663,269.905 5.675 C 269.877 5.677,269.475 6.017,269.013 6.431 M269.328 8.193 C 269.081 8.540,268.926 8.824,268.984 8.824 C 269.042 8.824,269.291 8.540,269.538 8.193 C 269.785 7.847,269.939 7.563,269.882 7.563 C 269.824 7.563,269.575 7.847,269.328 8.193 M265.231 9.372 L 264.391 10.124 265.284 9.456 C 266.052 8.881,266.329 8.604,266.124 8.617 C 266.095 8.618,265.693 8.958,265.231 9.372 M267.857 10.294 C 267.610 10.641,267.456 10.924,267.513 10.924 C 267.571 10.924,267.820 10.641,268.067 10.294 C 268.314 9.947,268.469 9.664,268.411 9.664 C 268.353 9.664,268.104 9.947,267.857 10.294 M261.555 12.213 L 260.609 13.070 261.499 12.402 C 262.273 11.821,262.770 11.331,262.565 11.351 C 262.529 11.354,262.075 11.742,261.555 12.213 M263.602 16.334 C 262.819 17.419,262.409 18.101,262.748 17.752 C 263.121 17.368,264.533 15.336,264.427 15.336 C 264.369 15.336,263.998 15.785,263.602 16.334 M252.206 19.456 L 251.366 20.208 252.258 19.540 C 253.027 18.965,253.304 18.688,253.099 18.701 C 253.070 18.702,252.668 19.042,252.206 19.456 M261.134 19.853 C 260.777 20.373,260.531 20.798,260.589 20.798 C 260.647 20.798,260.987 20.373,261.345 19.853 C 261.702 19.333,261.948 18.908,261.890 18.908 C 261.832 18.908,261.492 19.333,261.134 19.853 M259.454 22.269 C 259.207 22.616,259.052 22.899,259.110 22.899 C 259.168 22.899,259.417 22.616,259.664 22.269 C 259.911 21.922,260.065 21.639,260.008 21.639 C 259.950 21.639,259.701 21.922,259.454 22.269 M244.748 25.239 L 243.803 26.095 244.692 25.427 C 245.466 24.846,245.963 24.356,245.758 24.376 C 245.722 24.379,245.268 24.768,244.748 25.239 M256.672 26.208 C 255.540 27.783,254.949 28.704,255.289 28.361 C 255.707 27.940,257.611 25.210,257.486 25.210 C 257.433 25.210,257.066 25.659,256.672 26.208 M238.130 30.380 L 237.290 31.132 238.183 30.464 C 238.951 29.890,239.228 29.613,239.023 29.625 C 238.994 29.627,238.592 29.967,238.130 30.380 M251.220 33.981 C 250.850 34.412,250.572 34.874,250.683 34.874 C 250.726 34.874,250.971 34.590,251.227 34.244 C 251.734 33.559,251.729 33.388,251.220 33.981 M248.950 37.185 C 248.703 37.532,248.548 37.815,248.606 37.815 C 248.664 37.815,248.913 37.532,249.160 37.185 C 249.406 36.838,249.561 36.555,249.503 36.555 C 249.446 36.555,249.196 36.838,248.950 37.185 M227.941 38.264 L 226.996 39.120 227.886 38.452 C 228.660 37.871,229.157 37.381,228.951 37.401 C 228.916 37.405,228.461 37.793,227.941 38.264 M244.748 43.172 C 244.390 43.692,244.145 44.118,244.203 44.118 C 244.260 44.118,244.600 43.692,244.958 43.172 C 245.316 42.652,245.561 42.227,245.503 42.227 C 245.446 42.227,245.106 42.652,244.748 43.172 M217.647 46.247 L 216.702 47.103 217.592 46.435 C 218.366 45.855,218.863 45.365,218.657 45.384 C 218.622 45.388,218.167 45.776,217.647 46.247 M240.504 49.212 C 239.893 50.025,239.651 50.420,239.763 50.420 C 239.808 50.420,240.150 49.995,240.524 49.475 C 241.298 48.396,241.282 48.176,240.504 49.212 M236.512 54.884 C 235.902 55.698,235.660 56.092,235.771 56.092 C 235.816 56.092,236.159 55.667,236.532 55.147 C 237.307 54.068,237.290 53.848,236.512 54.884 M204.517 56.431 L 203.676 57.183 204.569 56.515 C 205.338 55.940,205.615 55.663,205.410 55.675 C 205.381 55.677,204.979 56.017,204.517 56.431 M234.935 57.195 C 234.023 58.386,233.543 59.096,233.723 58.988 C 233.971 58.838,235.366 56.933,235.228 56.933 C 235.177 56.933,235.045 57.051,234.935 57.195 M232.353 60.819 C 231.995 61.339,231.750 61.765,231.808 61.765 C 231.865 61.765,232.205 61.339,232.563 60.819 C 232.921 60.299,233.166 59.874,233.108 59.874 C 233.051 59.874,232.711 60.299,232.353 60.819 M229.878 64.338 C 229.111 65.471,228.945 65.756,229.054 65.756 C 229.103 65.756,229.487 65.236,229.909 64.601 C 230.331 63.965,230.633 63.445,230.579 63.445 C 230.526 63.445,230.210 63.847,229.878 64.338 M194.223 64.414 L 193.382 65.166 194.275 64.498 C 195.044 63.923,195.321 63.646,195.116 63.659 C 195.087 63.660,194.685 64.000,194.223 64.414 M228.199 66.717 C 227.940 67.113,227.769 67.437,227.820 67.437 C 227.966 67.437,228.836 66.161,228.749 66.074 C 228.707 66.032,228.459 66.321,228.199 66.717 M190.651 67.153 C 190.019 67.719,189.971 67.797,190.460 67.470 C 191.041 67.082,191.771 66.374,191.570 66.394 C 191.527 66.399,191.113 66.740,190.651 67.153 M224.208 72.389 C 223.948 72.785,223.777 73.109,223.828 73.109 C 223.974 73.109,224.845 71.833,224.758 71.747 C 224.715 71.704,224.467 71.993,224.208 72.389 M180.357 75.136 C 179.724 75.702,179.677 75.780,180.166 75.453 C 180.746 75.065,181.477 74.357,181.276 74.378 C 181.233 74.382,180.819 74.723,180.357 75.136 M221.639 76.050 C 221.392 76.397,221.237 76.681,221.295 76.681 C 221.353 76.681,221.602 76.397,221.849 76.050 C 222.096 75.704,222.250 75.420,222.192 75.420 C 222.135 75.420,221.885 75.704,221.639 76.050 M220.168 78.151 C 219.697 78.845,219.359 79.412,219.417 79.412 C 219.475 79.412,219.907 78.845,220.378 78.151 C 220.849 77.458,221.187 76.891,221.129 76.891 C 221.071 76.891,220.639 77.458,220.168 78.151 M172.794 81.010 L 171.954 81.762 172.847 81.095 C 173.615 80.520,173.892 80.243,173.687 80.255 C 173.658 80.257,173.256 80.597,172.794 81.010 M217.696 81.670 C 217.152 82.456,216.975 82.773,217.082 82.773 C 217.131 82.773,217.421 82.395,217.727 81.933 C 218.349 80.993,218.322 80.766,217.696 81.670 M170.063 83.120 C 169.430 83.685,169.383 83.763,169.872 83.437 C 170.452 83.048,171.183 82.341,170.982 82.361 C 170.939 82.365,170.525 82.707,170.063 83.120 M215.756 84.454 C 215.509 84.800,215.355 85.084,215.413 85.084 C 215.470 85.084,215.720 84.800,215.966 84.454 C 216.213 84.107,216.368 83.824,216.310 83.824 C 216.252 83.824,216.003 84.107,215.756 84.454 M167.122 85.422 L 166.282 86.174 167.174 85.506 C 167.943 84.932,168.220 84.655,168.015 84.667 C 167.986 84.669,167.584 85.009,167.122 85.422 M211.654 90.345 C 211.499 90.597,211.915 91.176,212.251 91.176 C 212.374 91.176,212.301 91.049,212.088 90.893 C 211.875 90.737,211.768 90.501,211.850 90.368 C 211.932 90.235,211.952 90.126,211.895 90.126 C 211.837 90.126,211.729 90.225,211.654 90.345 M213.025 91.474 C 213.314 91.628,213.787 91.813,214.076 91.885 C 214.364 91.957,214.223 91.834,213.761 91.612 C 212.810 91.155,212.221 91.044,213.025 91.474 M156.828 93.405 L 155.987 94.157 156.880 93.490 C 157.649 92.915,157.926 92.638,157.721 92.650 C 157.692 92.652,157.290 92.992,156.828 93.405 M217.647 93.382 C 217.936 93.547,218.267 93.683,218.382 93.683 C 218.498 93.683,218.356 93.547,218.067 93.382 C 217.778 93.217,217.447 93.082,217.332 93.082 C 217.216 93.082,217.358 93.217,217.647 93.382 M154.097 95.506 L 153.256 96.258 154.149 95.590 C 154.918 95.016,155.195 94.739,154.989 94.751 C 154.961 94.753,154.559 95.093,154.097 95.506 M228.159 97.659 C 228.641 97.974,230.811 98.801,230.567 98.576 C 230.378 98.402,228.956 97.795,228.151 97.545 C 227.884 97.462,227.886 97.480,228.159 97.659 M146.534 101.389 L 145.693 102.141 146.586 101.473 C 147.355 100.898,147.632 100.621,147.426 100.633 C 147.398 100.635,146.996 100.975,146.534 101.389 M147.374 104.073 C 147.721 104.231,148.241 104.418,148.529 104.489 C 148.951 104.592,148.931 104.561,148.424 104.331 C 148.078 104.173,147.558 103.986,147.269 103.915 C 146.847 103.811,146.868 103.842,147.374 104.073 M243.697 104.097 C 243.986 104.262,244.317 104.397,244.433 104.397 C 244.548 104.397,244.407 104.262,244.118 104.097 C 243.829 103.932,243.498 103.796,243.382 103.796 C 243.267 103.796,243.409 103.932,243.697 104.097 M247.899 105.777 C 248.188 105.942,248.519 106.078,248.634 106.078 C 248.750 106.078,248.608 105.942,248.319 105.777 C 248.030 105.612,247.700 105.477,247.584 105.477 C 247.468 105.477,247.610 105.612,247.899 105.777 M249.543 106.447 C 249.750 106.530,249.696 106.700,249.333 107.113 L 248.845 107.668 249.416 107.165 C 249.973 106.674,250.018 106.286,249.515 106.319 C 249.349 106.330,249.359 106.373,249.543 106.447 M159.846 108.307 C 160.234 108.475,160.612 108.610,160.686 108.606 C 160.959 108.591,159.757 107.998,159.454 107.999 C 159.280 107.999,159.457 108.138,159.846 108.307 M166.387 110.469 C 166.560 110.576,166.938 110.727,167.227 110.804 C 167.592 110.902,167.656 110.885,167.437 110.750 C 167.264 110.643,166.886 110.492,166.597 110.415 C 166.232 110.317,166.168 110.333,166.387 110.469 M186.134 120.903 C 185.777 121.423,185.531 121.849,185.589 121.849 C 185.647 121.849,185.987 121.423,186.345 120.903 C 186.702 120.383,186.948 119.958,186.890 119.958 C 186.832 119.958,186.492 120.383,186.134 120.903 M183.613 124.580 C 183.143 125.273,182.805 125.840,182.862 125.840 C 182.920 125.840,183.353 125.273,183.824 124.580 C 184.294 123.887,184.632 123.319,184.574 123.319 C 184.517 123.319,184.084 123.887,183.613 124.580 M228.361 124.177 L 227.416 125.034 228.414 124.257 C 229.289 123.575,229.548 123.318,229.359 123.320 C 229.330 123.320,228.881 123.706,228.361 124.177 M181.303 127.941 C 180.832 128.634,180.494 129.202,180.552 129.202 C 180.609 129.202,181.042 128.634,181.513 127.941 C 181.983 127.248,182.321 126.681,182.264 126.681 C 182.206 126.681,181.773 127.248,181.303 127.941 M219.328 131.530 L 218.382 132.387 219.380 131.609 C 220.255 130.928,220.514 130.671,220.326 130.673 C 220.297 130.673,219.848 131.059,219.328 131.530 M178.486 132.090 C 178.059 132.755,177.930 133.040,178.199 132.724 C 178.729 132.100,179.489 130.882,179.348 130.882 C 179.300 130.882,178.912 131.426,178.486 132.090 M212.067 137.447 L 211.450 138.130 212.132 137.513 C 212.508 137.174,212.815 136.867,212.815 136.830 C 212.815 136.668,212.642 136.811,212.067 137.447 M173.818 138.813 C 173.197 139.666,173.005 140.101,173.517 139.496 C 173.991 138.936,174.432 138.235,174.312 138.235 C 174.271 138.235,174.049 138.495,173.818 138.813 M204.622 143.505 L 203.676 144.362 204.674 143.584 C 205.549 142.902,205.808 142.646,205.620 142.648 C 205.591 142.648,205.142 143.034,204.622 143.505 M202.206 145.400 C 200.651 146.718,200.020 147.362,201.155 146.473 C 202.330 145.553,203.697 144.345,203.571 144.337 C 203.514 144.334,202.899 144.812,202.206 145.400 M167.857 147.479 C 167.610 147.826,167.456 148.109,167.513 148.109 C 167.571 148.109,167.820 147.826,168.067 147.479 C 168.314 147.132,168.469 146.849,168.411 146.849 C 168.353 146.849,168.104 147.132,167.857 147.479 M199.516 147.591 C 199.191 147.876,199.009 148.109,199.111 148.109 C 199.213 148.109,199.519 147.873,199.790 147.584 C 200.418 146.916,200.279 146.919,199.516 147.591 M165.756 150.525 C 165.399 151.045,165.153 151.471,165.211 151.471 C 165.269 151.471,165.609 151.045,165.966 150.525 C 166.324 150.005,166.570 149.580,166.512 149.580 C 166.454 149.580,166.114 150.005,165.756 150.525 M193.487 152.549 L 192.542 153.406 193.432 152.738 C 194.206 152.157,194.703 151.667,194.498 151.687 C 194.462 151.690,194.007 152.079,193.487 152.549 M163.445 153.887 C 163.088 154.407,162.842 154.832,162.900 154.832 C 162.958 154.832,163.298 154.407,163.655 153.887 C 164.013 153.367,164.259 152.941,164.201 152.941 C 164.143 152.941,163.803 153.367,163.445 153.887 M160.924 157.563 C 160.678 157.910,160.523 158.193,160.581 158.193 C 160.638 158.193,160.888 157.910,161.134 157.563 C 161.381 157.216,161.536 156.933,161.478 156.933 C 161.420 156.933,161.171 157.216,160.924 157.563 M186.660 158.114 L 185.609 159.076 186.712 158.195 C 187.667 157.432,187.970 157.130,187.763 157.147 C 187.734 157.150,187.237 157.585,186.660 158.114 M159.025 160.306 C 158.773 160.660,158.603 160.984,158.646 161.026 C 158.688 161.069,158.936 160.780,159.196 160.384 C 159.781 159.491,159.649 159.430,159.025 160.306 M181.092 162.634 L 180.147 163.490 181.037 162.822 C 181.811 162.241,182.308 161.751,182.103 161.771 C 182.067 161.774,181.612 162.163,181.092 162.634 M155.980 164.758 C 155.656 165.249,155.525 165.540,155.689 165.405 C 156.005 165.144,156.809 163.866,156.657 163.866 C 156.608 163.866,156.303 164.267,155.980 164.758 M175.420 167.255 L 174.475 168.112 175.365 167.444 C 176.139 166.863,176.636 166.373,176.430 166.393 C 176.395 166.396,175.940 166.784,175.420 167.255 M153.669 168.120 C 153.345 168.611,153.214 168.902,153.378 168.766 C 153.694 168.506,154.498 167.227,154.347 167.227 C 154.298 167.227,153.993 167.629,153.669 168.120 M171.954 170.089 L 170.903 171.051 172.006 170.170 C 172.961 169.407,173.264 169.105,173.057 169.122 C 173.028 169.124,172.532 169.559,171.954 170.089 M168.487 172.917 L 167.542 173.774 168.540 172.996 C 169.415 172.314,169.674 172.057,169.485 172.059 C 169.456 172.060,169.007 172.446,168.487 172.917 M149.047 174.842 C 148.723 175.334,148.592 175.624,148.756 175.489 C 149.072 175.228,149.876 173.950,149.725 173.950 C 149.676 173.950,149.371 174.351,149.047 174.842 M146.428 178.624 C 146.119 179.046,146.068 179.193,146.295 179.009 C 146.639 178.729,147.160 177.941,147.001 177.941 C 146.961 177.941,146.703 178.248,146.428 178.624 M160.714 179.230 L 159.769 180.086 160.659 179.419 C 161.433 178.838,161.930 178.348,161.725 178.368 C 161.689 178.371,161.234 178.759,160.714 179.230 M145.168 180.462 C 144.921 180.809,144.767 181.092,144.824 181.092 C 144.882 181.092,145.131 180.809,145.378 180.462 C 145.625 180.116,145.780 179.832,145.722 179.832 C 145.664 179.832,145.415 180.116,145.168 180.462 M140.983 186.555 C 140.497 187.248,140.144 187.815,140.198 187.815 C 140.287 187.815,141.496 186.195,141.883 185.557 C 142.333 184.812,141.756 185.453,140.983 186.555 M151.681 186.572 L 150.735 187.429 151.733 186.651 C 152.608 185.970,152.867 185.713,152.679 185.715 C 152.650 185.715,152.201 186.101,151.681 186.572 M138.235 190.546 C 137.988 190.893,137.834 191.176,137.892 191.176 C 137.949 191.176,138.199 190.893,138.445 190.546 C 138.692 190.200,138.847 189.916,138.789 189.916 C 138.731 189.916,138.482 190.200,138.235 190.546 M136.134 193.592 C 135.777 194.112,135.531 194.538,135.589 194.538 C 135.647 194.538,135.987 194.112,136.345 193.592 C 136.702 193.072,136.948 192.647,136.890 192.647 C 136.832 192.647,136.492 193.072,136.134 193.592 M142.647 193.925 L 141.702 194.782 142.700 194.004 C 143.574 193.323,143.834 193.066,143.645 193.068 C 143.616 193.068,143.167 193.454,142.647 193.925 M140.902 195.280 C 140.578 195.565,140.396 195.798,140.498 195.798 C 140.600 195.798,140.905 195.562,141.176 195.273 C 141.804 194.605,141.666 194.608,140.902 195.280 M133.613 197.269 C 133.143 197.962,132.805 198.529,132.862 198.529 C 132.920 198.529,133.353 197.962,133.824 197.269 C 134.294 196.576,134.632 196.008,134.574 196.008 C 134.517 196.008,134.084 196.576,133.613 197.269 M130.980 201.103 C 130.656 201.594,130.525 201.885,130.689 201.749 C 131.005 201.489,131.809 200.210,131.657 200.210 C 131.608 200.210,131.303 200.612,130.980 201.103 M128.481 204.747 C 127.599 206.074,127.605 206.383,128.495 205.552 C 128.826 205.243,128.931 205.107,128.729 205.252 C 128.254 205.590,128.261 205.357,128.747 204.654 C 129.275 203.891,129.453 203.571,129.349 203.571 C 129.301 203.571,128.910 204.100,128.481 204.747 " stroke="none" fill="#747475" fill-rule="evenodd"></path><path id="path4" d="" stroke="none" fill="#7c7c7c" fill-rule="evenodd"></path></g></svg>