<svg id="svg" version="1.1" xmlns="http://www.w3.org/2000/svg" xmlns:xlink="http://www.w3.org/1999/xlink" width="400" height="400" viewBox="0, 0, 400,400"><g id="svgg"><path id="path0" d="M0.000 200.000 L 0.000 400.000 200.000 400.000 L 400.000 400.000 400.000 200.000 L 400.000 0.000 200.000 0.000 L 0.000 0.000 0.000 200.000 M380.584 199.917 L 380.667 380.333 200.167 380.333 L 19.667 380.333 19.667 199.833 L 19.667 19.333 200.083 19.416 L 380.500 19.500 380.584 199.917 M100.524 198.084 C 95.771 217.013,91.817 232.688,91.738 232.917 C 91.626 233.244,93.665 233.333,101.214 233.332 L 110.833 233.330 116.500 210.915 L 122.167 188.500 122.252 210.923 L 122.338 233.346 129.734 233.256 L 137.130 233.167 147.898 211.001 C 153.821 198.809,158.667 189.031,158.667 189.272 C 158.667 189.513,156.417 199.375,153.667 211.189 C 150.917 223.002,148.667 232.817,148.667 233.001 C 148.667 233.214,151.927 233.333,157.751 233.333 L 166.836 233.333 175.543 198.500 L 184.249 163.667 169.859 163.667 L 155.469 163.667 146.318 183.910 L 137.167 204.154 137.081 183.910 L 136.995 163.667 123.081 163.667 L 109.167 163.668 100.524 198.084 M243.791 198.500 L 235.084 233.333 244.202 233.333 L 253.321 233.333 253.510 232.583 C 260.367 205.490,262.967 195.597,263.124 196.000 C 263.231 196.275,265.205 204.000,267.511 213.167 C 269.817 222.333,271.924 230.621,272.194 231.583 L 272.685 233.333 282.261 233.333 L 291.836 233.333 300.543 198.500 L 309.249 163.667 300.150 163.667 L 291.050 163.667 290.595 165.250 C 290.344 166.121,288.198 174.366,285.826 183.573 C 283.453 192.780,281.415 200.205,281.296 200.073 C 281.111 199.868,272.667 164.444,272.667 163.872 C 272.667 163.759,268.129 163.667,262.582 163.667 L 252.497 163.667 243.791 198.500 " stroke="none" fill="#fbfbfb" fill-rule="evenodd"></path><path id="path1" d="M180.833 129.693 C 69.285 135.109,1.131 182.640,43.662 225.356 C 100.381 282.323,296.611 282.951,355.421 226.354 C 406.314 177.376,308.953 123.472,180.833 129.693 M137.000 183.722 C 137.000 194.753,137.097 203.680,137.216 203.561 C 137.335 203.442,141.454 194.455,146.368 183.589 L 155.304 163.833 169.842 163.746 C 183.589 163.664,184.371 163.692,184.203 164.246 C 184.105 164.569,180.176 180.246,175.471 199.083 L 166.917 233.333 157.660 233.333 L 148.404 233.333 148.710 232.083 C 149.965 226.945,158.607 189.496,158.551 189.440 C 158.512 189.400,153.684 199.260,147.823 211.351 L 137.167 233.333 129.750 233.333 L 122.333 233.333 122.311 211.250 C 122.297 197.926,122.170 189.431,121.989 189.833 C 121.718 190.439,111.000 232.670,111.000 233.134 C 111.000 233.244,106.650 233.333,101.333 233.333 C 96.017 233.333,91.667 233.257,91.667 233.164 C 91.667 233.002,104.286 182.590,107.541 169.750 L 109.083 163.667 123.042 163.667 L 137.000 163.667 137.000 183.722 M246.669 164.083 C 246.671 164.313,245.739 168.287,244.598 172.917 L 242.524 181.333 233.339 181.333 L 224.153 181.333 222.275 188.583 C 221.242 192.571,219.009 201.196,217.314 207.750 L 214.231 219.667 204.109 219.667 L 193.987 219.667 194.179 218.917 C 194.285 218.504,196.508 209.917,199.119 199.833 L 203.868 181.500 194.767 181.411 C 188.891 181.354,185.667 181.203,185.667 180.984 C 185.667 180.649,189.553 164.883,189.833 164.083 C 190.047 163.472,246.665 163.472,246.669 164.083 M272.961 164.917 C 273.137 165.604,275.038 173.667,277.186 182.833 C 279.334 192.000,281.184 199.606,281.297 199.735 C 281.410 199.864,283.605 191.839,286.175 181.901 L 290.847 163.833 300.114 163.745 C 308.840 163.661,309.371 163.690,309.204 164.245 C 309.106 164.568,305.176 180.246,300.471 199.083 L 291.917 233.333 282.208 233.331 L 272.500 233.329 267.837 214.831 C 265.273 204.657,263.085 196.333,262.975 196.333 C 262.866 196.333,260.681 204.621,258.120 214.750 L 253.464 233.167 244.208 233.255 C 235.493 233.339,234.962 233.310,235.130 232.755 C 235.228 232.432,239.157 216.754,243.862 197.917 L 252.417 163.667 262.529 163.667 L 272.641 163.667 272.961 164.917 M212.451 225.583 C 212.325 226.088,211.747 228.225,211.167 230.333 L 210.113 234.167 200.031 234.255 C 191.951 234.326,189.971 234.258,190.058 233.915 C 190.118 233.679,190.691 231.502,191.332 229.077 L 192.496 224.667 202.588 224.667 L 212.679 224.667 212.451 225.583 " stroke="none" fill="#046493" fill-rule="evenodd"></path><path id="path2" d="M19.667 199.833 L 19.667 380.333 200.167 380.333 L 380.667 380.333 380.584 199.917 L 380.500 19.500 200.083 19.416 L 19.667 19.333 19.667 199.833 M222.000 129.683 C 348.873 136.869,411.549 196.254,337.884 239.484 C 306.292 258.024,256.851 268.462,200.500 268.490 C 98.560 268.541,21.911 233.659,31.689 191.667 C 40.674 153.078,128.725 124.400,222.000 129.683 M188.028 171.917 C 186.898 176.454,185.894 180.429,185.798 180.750 C 185.633 181.296,186.215 181.333,194.811 181.333 C 199.865 181.333,204.000 181.397,204.000 181.474 C 204.000 181.551,201.825 190.017,199.167 200.288 C 196.508 210.558,194.333 219.122,194.333 219.319 C 194.333 219.568,197.345 219.650,204.222 219.588 L 214.111 219.500 219.044 200.500 C 221.757 190.050,223.982 181.463,223.989 181.417 C 223.995 181.371,228.119 181.333,233.154 181.333 L 242.308 181.333 242.637 180.083 C 243.346 177.393,246.667 164.012,246.667 163.844 C 246.667 163.747,233.935 163.667,218.375 163.667 L 190.083 163.667 188.028 171.917 " stroke="none" fill="#fbcc04" fill-rule="evenodd"></path><path id="path3" d="M192.499 225.083 C 192.418 225.313,191.892 227.225,191.330 229.333 C 190.768 231.442,190.228 233.431,190.130 233.755 C 189.962 234.309,190.532 234.338,200.026 234.255 L 210.101 234.167 211.165 230.167 C 211.750 227.967,212.338 225.829,212.471 225.417 L 212.712 224.667 202.679 224.667 C 194.953 224.667,192.612 224.762,192.499 225.083 " stroke="none" fill="#e9151d" fill-rule="evenodd"></path><path id="path4" d="M196.250 129.249 C 198.313 129.307,201.688 129.307,203.750 129.249 C 205.813 129.190,204.125 129.143,200.000 129.143 C 195.875 129.143,194.188 129.190,196.250 129.249 M182.576 129.574 C 183.168 129.648,184.218 129.649,184.909 129.577 C 185.601 129.504,185.117 129.444,183.833 129.443 C 182.550 129.441,181.984 129.500,182.576 129.574 M214.909 129.574 C 215.501 129.648,216.551 129.649,217.243 129.577 C 217.934 129.504,217.450 129.444,216.167 129.443 C 214.883 129.441,214.317 129.500,214.909 129.574 M176.088 129.906 C 176.595 129.982,177.345 129.980,177.755 129.901 C 178.165 129.822,177.750 129.760,176.833 129.762 C 175.917 129.765,175.581 129.829,176.088 129.906 M222.421 129.906 C 222.928 129.982,223.678 129.980,224.088 129.901 C 224.498 129.822,224.083 129.760,223.167 129.762 C 222.250 129.765,221.915 129.829,222.421 129.906 M171.083 130.230 C 171.404 130.314,171.929 130.314,172.250 130.230 C 172.571 130.146,172.308 130.077,171.667 130.077 C 171.025 130.077,170.762 130.146,171.083 130.230 M228.083 130.230 C 228.404 130.314,228.929 130.314,229.250 130.230 C 229.571 130.146,229.308 130.077,228.667 130.077 C 228.025 130.077,227.762 130.146,228.083 130.230 M166.417 130.563 C 166.737 130.647,167.262 130.647,167.583 130.563 C 167.904 130.479,167.642 130.411,167.000 130.411 C 166.358 130.411,166.096 130.479,166.417 130.563 M232.417 130.563 C 232.737 130.647,233.262 130.647,233.583 130.563 C 233.904 130.479,233.642 130.411,233.000 130.411 C 232.358 130.411,232.096 130.479,232.417 130.563 M45.479 170.417 L 44.500 171.500 45.583 170.521 C 46.179 169.983,46.667 169.495,46.667 169.438 C 46.667 169.180,46.392 169.407,45.479 170.417 M369.091 197.333 C 369.091 198.158,369.156 198.496,369.235 198.083 C 369.315 197.671,369.315 196.996,369.235 196.583 C 369.156 196.171,369.091 196.508,369.091 197.333 M30.779 199.000 C 30.779 200.375,30.838 200.938,30.909 200.250 C 30.981 199.563,30.981 198.438,30.909 197.750 C 30.838 197.063,30.779 197.625,30.779 199.000 M369.091 200.667 C 369.091 201.492,369.156 201.829,369.235 201.417 C 369.315 201.004,369.315 200.329,369.235 199.917 C 369.156 199.504,369.091 199.842,369.091 200.667 M356.159 225.750 L 353.500 228.500 356.250 225.841 C 358.804 223.372,359.152 223.000,358.909 223.000 C 358.859 223.000,357.621 224.237,356.159 225.750 M43.500 225.667 C 44.589 226.767,45.554 227.667,45.646 227.667 C 45.737 227.667,44.922 226.767,43.833 225.667 C 42.745 224.567,41.779 223.667,41.688 223.667 C 41.596 223.667,42.411 224.567,43.500 225.667 M163.750 267.230 C 164.071 267.314,164.596 267.314,164.917 267.230 C 165.237 267.146,164.975 267.077,164.333 267.077 C 163.692 267.077,163.429 267.146,163.750 267.230 M167.921 267.569 C 168.335 267.649,168.935 267.646,169.254 267.562 C 169.573 267.479,169.233 267.414,168.500 267.417 C 167.767 267.421,167.506 267.489,167.921 267.569 M231.254 267.569 C 231.669 267.649,232.269 267.646,232.587 267.562 C 232.906 267.479,232.567 267.414,231.833 267.417 C 231.100 267.421,230.839 267.489,231.254 267.569 M172.417 267.896 C 172.737 267.980,173.262 267.980,173.583 267.896 C 173.904 267.813,173.642 267.744,173.000 267.744 C 172.358 267.744,172.096 267.813,172.417 267.896 M226.587 267.902 C 227.002 267.982,227.602 267.979,227.921 267.896 C 228.239 267.812,227.900 267.747,227.167 267.751 C 226.433 267.754,226.173 267.823,226.587 267.902 M178.088 268.239 C 178.595 268.316,179.345 268.314,179.755 268.235 C 180.165 268.156,179.750 268.093,178.833 268.095 C 177.917 268.098,177.581 268.163,178.088 268.239 M220.755 268.239 C 221.261 268.316,222.011 268.314,222.421 268.235 C 222.831 268.156,222.417 268.093,221.500 268.095 C 220.583 268.098,220.248 268.163,220.755 268.239 M185.592 268.578 C 186.376 268.648,187.576 268.647,188.259 268.576 C 188.941 268.504,188.300 268.446,186.833 268.448 C 185.367 268.449,184.808 268.507,185.592 268.578 M211.925 268.578 C 212.709 268.648,213.909 268.647,214.592 268.576 C 215.275 268.504,214.633 268.446,213.167 268.448 C 211.700 268.449,211.141 268.507,211.925 268.578 " stroke="none" fill="#99a43b" fill-rule="evenodd"></path></g></svg>