<svg id="Layer_2" data-name="Layer 2" xmlns="http://www.w3.org/2000/svg" viewBox="0 0 200 200"><defs><style>.cls-1{fill:#f8aac0;}.cls-2{fill:#ec1651;}</style></defs><path class="cls-1" d="M126.25,87.08a9.11,9.11,0,0,0,9.11,9.1v37.71a.56.56,0,0,1-.52-.34c-3.37-7.78-22.13-33.51-22.13-44.9A22.65,22.65,0,0,1,135.36,66V78A9.11,9.11,0,0,0,126.25,87.08Z"/><path class="cls-1" d="M135.36,59.85V64a24.67,24.67,0,0,0-24.65,24.64c0,8.45,8.84,23,16,34.62A123.74,123.74,0,0,1,133,134.35a2.54,2.54,0,0,0,2.35,1.54v4.25a6.54,6.54,0,0,1-6.54,6.54H48.53A6.53,6.53,0,0,1,42,140.14V59.85a6.53,6.53,0,0,1,6.53-6.53h80.29A6.53,6.53,0,0,1,135.36,59.85Z"/><path class="cls-2" d="M78.56,53.32V80.19a1.67,1.67,0,0,0,2.63,1.37l5.37-3.79a3.38,3.38,0,0,1,3.82,0l5.8,3.93a1.68,1.68,0,0,0,2.61-1.39V53.32Z"/><path class="cls-2" d="M135.36,66A22.66,22.66,0,0,0,112.7,88.65c0,11.39,18.76,37.12,22.14,44.9a.56.56,0,0,0,1,0C139.24,125.77,158,100,158,88.65A22.65,22.65,0,0,0,135.36,66Zm0,30.17a9.1,9.1,0,1,1,9.1-9.1A9.1,9.1,0,0,1,135.36,96.18Z"/><path class="cls-2" d="M135.36,66a22.65,22.65,0,0,0-22.65,22.64c0,11.39,18.76,37.12,22.13,44.9a.56.56,0,0,0,.52.34.54.54,0,0,0,.51-.34C139.25,125.77,158,100,158,88.65A22.65,22.65,0,0,0,135.36,66Zm0,27.75A6.69,6.69,0,1,1,142,87.08,6.69,6.69,0,0,1,135.35,93.76Z"/></svg>