<svg id="Layer_2" data-name="Layer 2" xmlns="http://www.w3.org/2000/svg" viewBox="0 0 200 200"><defs><style>.cls-1{fill:#ec1651;}.cls-2{fill:#f9c5d4;}</style></defs><path class="cls-1" d="M136.3,92H105.84l26.3-46.27a3.68,3.68,0,0,0-3.2-5.51H84.78a3.68,3.68,0,0,0-3.49,2.51L59.21,109.23a3.68,3.68,0,0,0,3.49,4.85H93.92L74,160.73a3.68,3.68,0,0,0,6.13,3.89l58.88-66.5A3.68,3.68,0,0,0,136.3,92Z"/><path class="cls-2" d="M132.43,86.18H102L128.26,39.9a3.67,3.67,0,0,0-3.19-5.5H80.91a3.67,3.67,0,0,0-3.49,2.51L55.34,103.42a3.67,3.67,0,0,0,3.49,4.84H90.05L70.16,154.92a3.68,3.68,0,0,0,6.14,3.89L135.18,92.3a3.68,3.68,0,0,0-2.75-6.12Z"/></svg>