<svg id="Layer_2" data-name="Layer 2"
    xmlns="http://www.w3.org/2000/svg" viewBox="0 0 200 200">
    <defs>
        <style>.cls-1{fill:#f9c5d4;}.cls-2{fill:#ec1651;}</style>
    </defs>
    <path class="cls-1" d="M150,89.8v64.28a1,1,0,0,1-1,1H112.43V127.22a1.33,1.33,0,0,0-1.33-1.32H91a1.32,1.32,0,0,0-1.32,1.32v27.86H51.1a1,1,0,0,1-1-1V89.8a1,1,0,0,1,.41-.81L98.33,54.28a3,3,0,0,1,3.53,0L149.59,89A1,1,0,0,1,150,89.8Z"/>
    <path class="cls-2" d="M165.18,113.48h-6.25V90.67L102.71,45.33a3.11,3.11,0,0,0-3.9,0L41.07,90.7v22.78H34.82V87.66L95,40.39a9.34,9.34,0,0,1,11.68.08l58.55,47.21Z"/>
</svg>