<svg id="Layer_2" data-name="Layer 2" xmlns="http://www.w3.org/2000/svg" viewBox="0 0 200 200"><defs><style>.cls-1{fill:#f8aac0;}.cls-2{fill:#ec1651;}</style></defs><path class="cls-1" d="M77.62,129.53l18.73,18.66H86.44L72.68,134.48a3.5,3.5,0,0,1,4.94-4.95Z"/><path class="cls-1" d="M103.5,108.55l-.09,39.64h-7l.09-39.65A3.51,3.51,0,0,1,100,105h0A3.5,3.5,0,0,1,103.5,108.55Z"/><path class="cls-1" d="M127.33,134.12l-14,14.07h-9.89l19-19a3.5,3.5,0,0,1,5,5Z"/><path class="cls-1" d="M146.68,61.36v80.29a6.53,6.53,0,0,1-6.53,6.54h-24l12.61-12.66a5.5,5.5,0,0,0-7.79-7.77l-15.54,15.59.08-34.79A5.5,5.5,0,0,0,100,103h0a5.51,5.51,0,0,0-5.5,5.49l-.08,34.91L79,128.11a5.5,5.5,0,1,0-7.76,7.79L83.6,148.19H59.86a6.54,6.54,0,0,1-6.54-6.54V61.36a6.54,6.54,0,0,1,6.54-6.54h80.29A6.53,6.53,0,0,1,146.68,61.36Z"/><path class="cls-2" d="M89.88,54.82V81.7a1.68,1.68,0,0,0,2.64,1.37l5.37-3.79a3.36,3.36,0,0,1,3.82,0l5.8,3.92a1.67,1.67,0,0,0,2.61-1.38v-27Z"/><path class="cls-2" d="M127.32,129.17a3.49,3.49,0,0,0-4.95,0l-19,19,.09-39.65a3.5,3.5,0,0,0-3.49-3.5h0a3.5,3.5,0,0,0-3.5,3.49l-.09,39.71L77.62,129.53a3.5,3.5,0,0,0-4.94,5l24.76,24.67a3.51,3.51,0,0,0,2.47,1h0a3.59,3.59,0,0,0,2.47-1l24.94-25A3.5,3.5,0,0,0,127.32,129.17Z"/><path class="cls-2" d="M127.33,134.12l-14,14.07-10.92,11a3.5,3.5,0,0,1-2.47,1h0a3.49,3.49,0,0,1-2.47-1l-11-11L72.68,134.48a3.5,3.5,0,0,1,4.94-4.95l18.73,18.66h.06l.09-39.65A3.51,3.51,0,0,1,100,105h0a3.5,3.5,0,0,1,3.49,3.51l-.09,39.64h0l19-19a3.5,3.5,0,0,1,5,5Z"/><path class="cls-1" d="M96.35,148.19l.06.06v-.06Zm0,0,.06.06v-.06Zm0,0,.06.06v-.06Z"/></svg>