<svg id="Layer_2" data-name="Layer 2" xmlns="http://www.w3.org/2000/svg" viewBox="0 0 200 200"><defs><style>.cls-1{fill:#ec1651;}.cls-2{fill:#f9c5d4;}</style></defs><path class="cls-1" d="M149,100.28v0a2.94,2.94,0,0,1-2.94,2.93H75.82a1,1,0,0,0-.69.28L63.69,115H54A2.94,2.94,0,0,1,51,112v0l.16-42.92a2.94,2.94,0,0,1,2.94-2.93L146,66a3,3,0,0,1,2.82,2.11Z"/><path class="cls-1" d="M146,110.23a5.88,5.88,0,0,0,2.94-.78v26.81a2.94,2.94,0,0,1-5,2.08l-19.09-19.09a1,1,0,0,0-.69-.29H67.93l8.73-8.73Z"/><path class="cls-2" d="M149,100.28v0a2.94,2.94,0,0,1-2.94,2.93H75.82a1,1,0,0,0-.69.28L63.69,115,56,122.61l-.23.21a2.74,2.74,0,0,1-1.11.55l-.05,0a3.08,3.08,0,0,1-.61.07h-.23l-.25,0a3.14,3.14,0,0,1-.51-.12l-.29-.11a2.75,2.75,0,0,1-.38-.2l-.24-.17a1.68,1.68,0,0,1-.21-.18l-.09-.09a2.22,2.22,0,0,1-.28-.33,2.69,2.69,0,0,1-.52-1.39c0-.1,0-.21,0-.32V57.19a3,3,0,0,1,1.62-2.63,3,3,0,0,1,.45-.18,3.1,3.1,0,0,1,.87-.13l91.92.17a2.94,2.94,0,0,1,2.94,2.93l0,10.74Z"/><circle class="cls-1" cx="81.53" cy="79.28" r="3.89"/><circle class="cls-1" cx="100.1" cy="79.28" r="3.89"/><circle class="cls-1" cx="118.67" cy="79.28" r="3.89"/></svg>