<svg id="Layer_2" data-name="Layer 2" xmlns="http://www.w3.org/2000/svg" viewBox="0 0 200 200"><defs><style>.cls-1{fill:#f8aac0;}.cls-2{fill:#ec1651;}.cls-3{fill:none;stroke:#f8aac0;stroke-linecap:round;stroke-linejoin:round;}</style></defs><path class="cls-1" d="M132.9,76.26a6,6,0,0,0,2.44,9.94h0a5.71,5.71,0,0,0,1.78.28q.31,0,.63,0v47.21H121a1.54,1.54,0,0,1-1.55-1.55v-.52l-.14-47.72a1.57,1.57,0,0,1,.46-1.1l15.49-15.49a3.24,3.24,0,0,1,2.26-.94h0a0,0,0,0,0,0,0s0,0,0,0h.24v8.2a4.4,4.4,0,0,0-.62,0,4.35,4.35,0,0,0-.51,0A5.94,5.94,0,0,0,132.9,76.26Z"/><path class="cls-1" d="M137.76,59.85v4.48h-1.08l-.08.08a5.11,5.11,0,0,0-2.78,1.45L118.33,81.36a3.49,3.49,0,0,0-1,2.51l.14,47.72v.54a3.56,3.56,0,0,0,3.54,3.53h16.79v4.48a6.54,6.54,0,0,1-6.54,6.54H50.93a6.54,6.54,0,0,1-6.54-6.54V59.85a6.53,6.53,0,0,1,6.54-6.53h80.29A6.53,6.53,0,0,1,137.76,59.85Z"/><path class="cls-2" d="M81,53.32V80.19a1.68,1.68,0,0,0,2.64,1.37L89,77.77a3.38,3.38,0,0,1,3.82,0l5.8,3.93a1.68,1.68,0,0,0,2.61-1.39V53.32Z"/><path class="cls-2" d="M155.61,132.12v-.51l-.14-48a1.57,1.57,0,0,0-.46-1.1L139.8,67.28a3.18,3.18,0,0,0-2.26-.94h0a3.24,3.24,0,0,0-2.26.94l-15.49,15.5a1.55,1.55,0,0,0-.46,1.09l.14,47.72v.53a1.54,1.54,0,0,0,1.54,1.54h33.09A1.54,1.54,0,0,0,155.61,132.12ZM132.9,84.73a6,6,0,0,1,3.73-10.2,5.39,5.39,0,0,1,1.33,0,6,6,0,0,1,.62,11.73,6.11,6.11,0,0,1-3.23-.09h0A6,6,0,0,1,132.9,84.73Z"/><path class="cls-2" d="M155.47,83.59A1.6,1.6,0,0,0,155,82.5L139.81,67.28a3.21,3.21,0,0,0-2.05-.93h-.24s0,0,0,0a0,0,0,0,1,0,0h0a3.24,3.24,0,0,0-2.26.94L119.74,82.77a1.57,1.57,0,0,0-.46,1.1l.14,47.72v.52a1.54,1.54,0,0,0,1.55,1.55h33.08a1.54,1.54,0,0,0,1.55-1.55v-.5Zm-14.11,1.13a6.06,6.06,0,0,1-3.6,1.73q-.31,0-.63,0a5.71,5.71,0,0,1-1.78-.28h0a6,6,0,0,1,1.29-11.67,4.35,4.35,0,0,1,.51,0,4.4,4.4,0,0,1,.62,0l.2,0a6,6,0,0,1,3.4,10.15Z"/><polyline class="cls-3" points="131.08 115.74 131.08 102.26 143.74 114.91 143.74 102.26"/><line class="cls-3" x1="127.88" y1="107.27" x2="146.53" y2="107.27"/><line class="cls-3" x1="127.88" y1="110.43" x2="146.53" y2="110.43"/></svg>