<svg id="Layer_2" data-name="Layer 2" xmlns="http://www.w3.org/2000/svg" viewBox="0 0 200 200"><defs><style>.cls-1{fill:#ec1651;}.cls-2{fill:#f9c5d4;}</style></defs><path class="cls-1" d="M155.39,77.37h-7.26a5.23,5.23,0,0,1,5.14,5.31v22.46h7.44V82.68A5.32,5.32,0,0,0,155.39,77.37Z"/><rect class="cls-1" x="153.27" y="108.14" width="7.44" height="15.08"/><path class="cls-1" d="M148.13,154.62h7.26a5.32,5.32,0,0,0,5.32-5.31V126.22h-7.44v23.09A5.23,5.23,0,0,1,148.13,154.62Z"/><path class="cls-2" d="M142.67,108.14a7.78,7.78,0,0,0-5.47,2.21,7.43,7.43,0,0,0-2.26,5.33,7.64,7.64,0,0,0,7.73,7.54h10.6V108.14Z"/><path class="cls-2" d="M132,115.68a10.65,10.65,0,0,0,10.73,10.54h10.6v23.09a5.23,5.23,0,0,1-5.14,5.31H44.43A4.61,4.61,0,0,1,43,154.4a5.27,5.27,0,0,1-3.7-5.12l.38-66.63a5.28,5.28,0,0,1,3.78-5.08,4.83,4.83,0,0,1,1.37-.2H70.56a5.69,5.69,0,0,0,.71.86L96,102.9a5.49,5.49,0,0,0,7.78,0l24.94-25a4.87,4.87,0,0,0,.43-.49h19a5.23,5.23,0,0,1,5.14,5.31v22.46h-10.6A10.65,10.65,0,0,0,132,115.68Z"/><path class="cls-1" d="M160.71,108.14v15.08h-18a7.64,7.64,0,0,1-7.73-7.54,7.43,7.43,0,0,1,2.26-5.33,7.78,7.78,0,0,1,5.47-2.21Z"/><path class="cls-1" d="M160.71,108.14v15.08h-18a7.64,7.64,0,0,1-7.73-7.54,7.43,7.43,0,0,1,2.26-5.33,7.78,7.78,0,0,1,5.47-2.21Z"/><circle class="cls-2" cx="141.95" cy="115.68" r="3.17"/><path class="cls-1" d="M127.32,71.5a3.49,3.49,0,0,0-4.95,0l-19,19,.09-39.66a3.5,3.5,0,0,0-3.49-3.5h0a3.5,3.5,0,0,0-3.5,3.49l-.09,39.71L77.62,71.86a3.5,3.5,0,0,0-4.94,5l24.76,24.67a3.5,3.5,0,0,0,2.47,1h0a3.5,3.5,0,0,0,2.47-1l24.94-25A3.5,3.5,0,0,0,127.32,71.5Z"/><path class="cls-1" d="M127.32,69.5a3.49,3.49,0,0,0-4.95,0l-19,19,.09-39.66a3.5,3.5,0,0,0-3.49-3.5h0a3.5,3.5,0,0,0-3.5,3.49l-.09,39.71L77.62,69.86a3.5,3.5,0,0,0-4.94,5L97.44,99.49a3.5,3.5,0,0,0,2.47,1h0a3.5,3.5,0,0,0,2.47-1l24.94-25A3.5,3.5,0,0,0,127.32,69.5Z"/></svg>