<svg id="Layer_2" data-name="Layer 2" xmlns="http://www.w3.org/2000/svg" viewBox="0 0 200 200"><defs><style>.cls-1{fill:#ec1651;}.cls-2{fill:#f9c5d4;}</style></defs><rect class="cls-1" x="153.27" y="107.14" width="7.44" height="15.08"/><path class="cls-1" d="M148.13,153.62h7.26a5.32,5.32,0,0,0,5.32-5.31V125.22h-7.44v23.09A5.23,5.23,0,0,1,148.13,153.62Z"/><path class="cls-1" d="M155.39,76.37h-7.26a5.23,5.23,0,0,1,5.14,5.31v22.46h7.44V81.68A5.32,5.32,0,0,0,155.39,76.37Z"/><path class="cls-2" d="M142.67,107.14a7.78,7.78,0,0,0-5.47,2.21,7.43,7.43,0,0,0-2.26,5.33,7.64,7.64,0,0,0,7.73,7.54h10.6V107.14Z"/><path class="cls-2" d="M75.15,76.4l-.29,0h.58A1.43,1.43,0,0,1,75.15,76.4Z"/><path class="cls-2" d="M132,114.68a10.65,10.65,0,0,0,10.73,10.54h10.6v23.09a5.23,5.23,0,0,1-5.14,5.31H44.43A4.61,4.61,0,0,1,43,153.4a5.27,5.27,0,0,1-3.7-5.12l.38-66.63a5.28,5.28,0,0,1,3.78-5.08,4.83,4.83,0,0,1,1.37-.2h25a5.36,5.36,0,0,0,1.42,2.43,5.52,5.52,0,0,0,7.78,0l2.41-2.42H94.55L94.5,98a5.5,5.5,0,0,0,11,0l0-21.65h13.34L121,78.44a5.51,5.51,0,0,0,7.78,0A5.44,5.44,0,0,0,130,76.37h18.1a5.23,5.23,0,0,1,5.14,5.31v22.46h-10.6A10.65,10.65,0,0,0,132,114.68Z"/><path class="cls-1" d="M160.71,107.14v15.08h-18a7.64,7.64,0,0,1-7.73-7.54,7.43,7.43,0,0,1,2.26-5.33,7.78,7.78,0,0,1,5.47-2.21Z"/><path class="cls-1" d="M160.71,107.14v15.08h-18a7.64,7.64,0,0,1-7.73-7.54,7.43,7.43,0,0,1,2.26-5.33,7.78,7.78,0,0,1,5.47-2.21Z"/><circle class="cls-2" cx="141.95" cy="114.68" r="3.17"/><path class="cls-1" d="M74.86,76.37l.29,0a1.43,1.43,0,0,0,.29,0Z"/><path class="cls-1" d="M72.68,77.39a3.51,3.51,0,0,0,4.95,0l19-19L96.5,98a3.5,3.5,0,0,0,3.49,3.51h0A3.5,3.5,0,0,0,103.5,98l.09-39.71L122.38,77a3.5,3.5,0,1,0,4.94-5L102.56,47.4a3.49,3.49,0,0,0-2.47-1h0a3.46,3.46,0,0,0-2.47,1l-24.94,25A3.5,3.5,0,0,0,72.68,77.39Z"/></svg>