<svg id="Layer_2" data-name="Layer 2" xmlns="http://www.w3.org/2000/svg" viewBox="0 0 200 200"><defs><style>.cls-1{fill:#f9c5d4;}.cls-2{fill:#ec1651;}</style></defs><rect class="cls-1" x="105.96" y="55.32" width="8.31" height="9.02"/><rect class="cls-1" x="105.96" y="129.11" width="8.31" height="9.02"/><path class="cls-1" d="M71,68.53H67.21v-2H71a1,1,0,0,1,0,2Z"/><path class="cls-1" d="M72,90.47a1,1,0,0,1-1,1H67.21v-2H71A1,1,0,0,1,72,90.47Z"/><path class="cls-1" d="M72,79a1,1,0,0,1-1,1H67.21V78H71A1,1,0,0,1,72,79Z"/><path class="cls-1" d="M153,56.82v79.81a3,3,0,0,1-3,3H117.27v-11a2.5,2.5,0,0,0-2.5-2.5h-9.31a2.5,2.5,0,0,0-2.5,2.5v11H70.21a3,3,0,0,1-3-3V94.47H72a4,4,0,0,0,0-8H67.21V83H74a4,4,0,1,0,0-8H67.21V71.53H76a4,4,0,0,0,0-8H67.21V56.82a3,3,0,0,1,3-3H103v11a2.5,2.5,0,0,0,2.5,2.5h9.31a2.5,2.5,0,0,0,2.5-2.5v-11H150A3,3,0,0,1,153,56.82Z"/><path class="cls-2" d="M76,70H49.48a2.5,2.5,0,0,1,0-5H76a2.5,2.5,0,0,1,0,5Z"/><path class="cls-2" d="M74,81.51H57.48a2.5,2.5,0,0,1,0-5H74a2.5,2.5,0,0,1,0,5Z"/><path class="cls-2" d="M72,93H65.48a2.5,2.5,0,0,1,0-5H72a2.5,2.5,0,0,1,0,5Z"/><path class="cls-2" d="M105.46,127.61h9.31a1,1,0,0,1,1,1v11a0,0,0,0,1,0,0H104.46a0,0,0,0,1,0,0v-11A1,1,0,0,1,105.46,127.61Z"/><path class="cls-2" d="M104.46,53.82h11.31a0,0,0,0,1,0,0v11a1,1,0,0,1-1,1h-9.31a1,1,0,0,1-1-1v-11A0,0,0,0,1,104.46,53.82Z"/></svg>