<svg id="Layer_2" data-name="Layer 2" xmlns="http://www.w3.org/2000/svg" viewBox="0 0 200 200"><defs><style>.cls-1{fill:#f8aac0;}.cls-2{fill:#ec1651;}.cls-3{fill:#f9c5d4;}</style></defs><path class="cls-1" d="M95.75,85.14a35.49,35.49,0,0,0,32.67,46.69v8.31a6.53,6.53,0,0,1-6.53,6.54H41.59a6.53,6.53,0,0,1-6.53-6.54V59.85a6.53,6.53,0,0,1,6.53-6.53h80.3a6.53,6.53,0,0,1,6.53,6.53v1A35.56,35.56,0,0,0,95.75,85.14Z"/><path class="cls-2" d="M71.63,53.32V80.19a1.67,1.67,0,0,0,2.63,1.37l5.37-3.79a3.37,3.37,0,0,1,3.82,0l5.8,3.93a1.68,1.68,0,0,0,2.61-1.39V53.32Z"/><circle class="cls-2" cx="130.43" cy="96.35" r="34.5"/><path class="cls-3" d="M141.61,108.57a2.55,2.55,0,0,1-.92-.18l-12.58-5.18a2.42,2.42,0,0,1-1.49-2.24V79.66a2.42,2.42,0,0,1,4.84,0V99.35l11.08,4.56a2.42,2.42,0,0,1-.93,4.66Z"/></svg>