<svg id="Layer_2" data-name="Layer 2" xmlns="http://www.w3.org/2000/svg" viewBox="0 0 200 200"><defs><style>.cls-1{fill:#ec1651;}.cls-2{fill:#f9c5d4;}</style></defs><path class="cls-1" d="M69,116.44H46a1,1,0,0,0-1,1v13.78a15,15,0,0,0,15,15h9Z"/><path class="cls-2" d="M145,47.23v46H119.46v13.45a18.09,18.09,0,0,0,5.36,12.92,18.87,18.87,0,0,0,1.84,1.62,18.15,18.15,0,0,0-7.2,14.54v10.47H61v-99Z"/><path class="cls-1" d="M146.58,120.33a1,1,0,0,0,0,1.77,14.94,14.94,0,0,1,3.94,2.87A15.13,15.13,0,0,1,155,135.76v10.46H124.46V135.76a15.27,15.27,0,0,1,8.42-13.66,1,1,0,0,0,0-1.77,15.38,15.38,0,0,1-8.41-13.65V96.22H155v10.46A15.27,15.27,0,0,1,146.58,120.33Z"/><rect class="cls-1" x="75.38" y="69.63" width="52.53" height="3"/><rect class="cls-1" x="75.38" y="77.63" width="42.53" height="3"/><rect class="cls-1" x="75.38" y="85.62" width="32.53" height="3"/></svg>